<svg version="1.1" xmlns="http://www.w3.org/2000/svg" viewBox="0 0 1396 1536.9423634402547" width="1396" height="1536.9423634402547">
  <!-- svg-source:excalidraw -->
  
  <defs>
    <style>
      @font-face {
        font-family: "Virgil";
        src: url("https://excalidraw.com/Virgil.woff2");
      }
      @font-face {
        font-family: "Cascadia";
        src: url("https://excalidraw.com/Cascadia.woff2");
      }
    </style>
  </defs>
  <rect x="0" y="0" width="1396" height="1536.9423634402547" fill="#ffffff"></rect><g transform="translate(1106 157.81113785431717) rotate(0 22.5 10)"><text x="22.5" y="14" font-family="Virgil, Segoe UI Emoji" font-size="16px" fill="#000000" text-anchor="middle" style="white-space: pre;" direction="ltr">start</text></g><g stroke-linecap="round" transform="translate(1095 147.35752457306717) rotate(0 34 21.5)"><path d="M21.48 1.2 C27.82 -0.93, 37.77 -0.6, 44.65 0.87 C51.53 2.33, 58.96 6.14, 62.76 10 C66.55 13.86, 68.29 19.33, 67.44 24.02 C66.58 28.71, 62.87 34.93, 57.6 38.13 C52.34 41.34, 43.22 43.01, 35.84 43.24 C28.46 43.47, 19.23 42.31, 13.31 39.52 C7.39 36.73, 2.09 30.95, 0.34 26.48 C-1.41 22.01, -1.07 16.91, 2.79 12.71 C6.66 8.51, 19.6 3.28, 23.52 1.28 C27.45 -0.73, 26.23 0.24, 26.33 0.69 M39.06 -0.22 C46 -0.18, 54.12 3.2, 58.72 6.69 C63.32 10.18, 66.46 15.83, 66.66 20.73 C66.85 25.63, 64.32 32.61, 59.86 36.1 C55.4 39.59, 46.81 40.87, 39.91 41.67 C33.02 42.47, 24.78 43.11, 18.48 40.91 C12.19 38.7, 5.15 32.68, 2.12 28.43 C-0.9 24.18, -2.2 19.81, 0.34 15.4 C2.89 10.99, 11.07 4.54, 17.38 1.97 C23.69 -0.59, 34.55 0.04, 38.19 -0.02 C41.83 -0.07, 39.3 1.43, 39.23 1.65" stroke="#000000" stroke-width="1" fill="none"></path></g><g transform="translate(1049.5 240.31113785431717) rotate(0 88 23)"><text x="88" y="17" font-family="Virgil, Segoe UI Emoji" font-size="16px" fill="#000000" text-anchor="middle" style="white-space: pre;" direction="ltr">调用find_item_in_list</text><text x="88" y="40" font-family="Virgil, Segoe UI Emoji" font-size="16px" fill="#000000" text-anchor="middle" style="white-space: pre;" direction="ltr">在当前select子句中查找</text></g><g stroke-linecap="round" transform="translate(1047 234.35752457306717) rotate(0 92.5 27.5)"><path d="M-0.35 1.93 C41.97 0.48, 82.39 1.32, 185.44 0.38 M0.89 0.1 C50.12 -1.02, 100.57 -1.35, 185.17 -0.93 M183.79 -0.44 C183.65 23.76, 185.49 42.65, 186.91 54.98 M184.11 -0.16 C184.24 15.59, 184.17 28.98, 185.5 55.35 M186.01 56.46 C130.68 52.05, 79.14 53.57, 1.31 53.94 M185.73 55.23 C141.72 54.07, 100.55 55.09, 0.87 55.01 M-1.71 53.4 C1.96 43.5, 0.91 34.35, 1.29 -1.91 M0.79 54.7 C0.94 38.79, 0.35 25.41, -0.91 -0.71" stroke="#000000" stroke-width="1" fill="none"></path></g><g transform="translate(1106.5 352.31113785431717) rotate(0 32.5 11.5)"><text x="32.5" y="17" font-family="Virgil, Segoe UI Emoji" font-size="16px" fill="#000000" text-anchor="middle" style="white-space: pre;" direction="ltr">找到了吗</text></g><g stroke-linecap="round" transform="translate(1094 341.35752457306717) rotate(0 47.5 21)"><path d="M49.45 -1 C59.65 4.23, 69.08 9.6, 94.39 21.75 M48.27 -0.2 C65.26 7.02, 80.76 14.19, 95.99 21.79 M93.77 23.8 C80.1 27.15, 66.03 34.96, 47.38 40.95 M94.52 22.79 C82.03 26.53, 70.83 32.7, 47.85 41.39 M46.43 40.81 C37.73 38.6, 29.57 33.1, -1.42 21.71 M47.11 41.34 C34.49 36.77, 21.33 30.71, -0.97 21.77 M1.83 21.67 C14.02 18.09, 27.57 8.51, 47.55 -0.8 M0.72 21.06 C15.13 16.13, 29.26 7.53, 47.78 0.63" stroke="#000000" stroke-width="1" fill="none"></path></g><g transform="translate(806 426.17307633087967) rotate(0 135 11.5)"><text x="135" y="17" font-family="Virgil, Segoe UI Emoji" font-size="16px" fill="#000000" text-anchor="middle" style="white-space: pre;" direction="ltr">检查order item是否是unambiguous的</text></g><g stroke-linecap="round" transform="translate(794 418.35752457306717) rotate(0 147.5 20.5)"><path d="M1 -0.12 C117.32 1.37, 233.53 0.9, 295.66 1.32 M0.64 -0.39 C91.6 -0.26, 183.69 0.27, 295.2 -0.45 M295.6 -1.29 C296.66 11.38, 294.13 21.76, 294.21 39.22 M294.46 -0.6 C295.31 11.99, 294.66 22.67, 294.05 41.5 M294.74 41.25 C185.87 38.91, 73.74 39.49, -0.22 42.09 M295.25 41.27 C200.3 39.56, 103.59 39.38, -0.21 40.37 M0.78 42.69 C0.91 30.07, -0.83 22.18, 0.32 1.57 M0.13 41.93 C-1.2 29.24, -0.52 19.52, -0.79 -0.79" stroke="#000000" stroke-width="1" fill="none"></path></g><g transform="translate(43.5 847.5628468386922) rotate(0 96.5 23)"><text x="96.5" y="17" font-family="Virgil, Segoe UI Emoji" font-size="16px" fill="#000000" text-anchor="middle" style="white-space: pre;" direction="ltr">调用find_field_in_tables</text><text x="96.5" y="40" font-family="Virgil, Segoe UI Emoji" font-size="16px" fill="#000000" text-anchor="middle" style="white-space: pre;" direction="ltr">查询tables</text></g><g stroke-linecap="round" transform="translate(36 845.6710011355672) rotate(0 101 24.5)"><path d="M0.4 0.34 C49.98 -0.08, 101.86 1.74, 202.18 0.48 M0.15 -0.83 C57.55 0.76, 113.56 0.4, 201.8 -0.55 M203.91 -0.02 C201.53 18.06, 201.36 36.42, 201.68 48.05 M202.5 0.35 C201.59 17.97, 200.78 37.67, 202.73 48.22 M203.17 48.05 C152.11 49.05, 104.49 50.62, 0.42 47.4 M202.78 49.01 C153.88 49.45, 107.25 48.89, -0.72 49.82 M1.29 47.09 C-0.64 34.31, 0.13 22.79, -0.61 1.45 M-0.91 48.29 C-0.29 39.56, -0.85 28.06, 0.03 0.32" stroke="#000000" stroke-width="1" fill="none"></path></g><g transform="translate(316.5 1008.7075001590047) rotate(0 173 34.5)"><text x="0" y="17" font-family="Virgil, Segoe UI Emoji" font-size="16px" fill="#000000" text-anchor="start" style="white-space: pre;" direction="ltr">如果</text><text x="0" y="40" font-family="Virgil, Segoe UI Emoji" font-size="16px" fill="#000000" text-anchor="start" style="white-space: pre;" direction="ltr">1. 没有查询tables或者查了没查到，或者</text><text x="0" y="63" font-family="Virgil, Segoe UI Emoji" font-size="16px" fill="#000000" text-anchor="start" style="white-space: pre;" direction="ltr">2. 找到的跟从select子句中找到的是同一个field</text></g><g stroke-linecap="round" transform="translate(214 954.6710011355672) rotate(0 264 93)"><path d="M264.53 -0.2 C342.65 28.15, 418.93 54.35, 527.7 94.33 M265.76 -0.16 C330.55 24.48, 395.39 47.53, 528.69 93.23 M527.52 92.2 C466.11 113.52, 404.49 136.07, 266.22 185.17 M527.89 92.53 C464.6 116.39, 402.87 137.69, 264.54 185.87 M263.92 185.78 C180.33 156.57, 96.94 124.61, -1.01 93.51 M264.26 185.82 C175.07 154.1, 85.58 124.19, -0.13 93.3 M-0.34 92.39 C101.67 60.39, 202.85 24.53, 263.56 0.2 M-0.17 93.48 C104.26 57.25, 209.11 21.53, 264.4 -0.37" stroke="#000000" stroke-width="1" fill="none"></path></g><g transform="translate(533 1264.1489064090047) rotate(0 89 23)"><text x="0" y="17" font-family="Virgil, Segoe UI Emoji" font-size="16px" fill="#000000" text-anchor="start" style="white-space: pre;" direction="ltr">设置in_field_list为true</text><text x="0" y="40" font-family="Virgil, Segoe UI Emoji" font-size="16px" fill="#000000" text-anchor="start" style="white-space: pre;" direction="ltr">表明是从fields中找到的</text></g><g stroke-linecap="round" transform="translate(528 1254.3393360965047) rotate(0 93 29)"><path d="M0.89 1.78 C59.51 0.77, 118.22 1.97, 184.96 0.34 M0.27 -0.61 C38.29 -0.24, 77.92 0.68, 185.36 0.96 M185.21 -1.78 C185.5 16.38, 187.4 33.58, 184.79 59.01 M185.05 0.5 C186.65 18.67, 185.32 38.73, 186.17 58.65 M185.71 59.47 C140.57 55.95, 92.88 58.4, 0.72 59.75 M185.72 57.14 C129.2 58.49, 73.83 57.96, 0.84 58.64 M0.32 59.57 C-0.48 47.59, -1.76 34.56, 1.87 -1.82 M-0.79 57.21 C0.16 45.01, -0.65 30.91, 0.85 -0.1" stroke="#000000" stroke-width="1" fill="none"></path></g><g transform="translate(217.5 1257.7075001590047) rotate(0 135.5 34.5)"><text x="135.5" y="17" font-family="Virgil, Segoe UI Emoji" font-size="16px" fill="#000000" text-anchor="middle" style="white-space: pre;" direction="ltr">如果不是window func的order子句，</text><text x="135.5" y="40" font-family="Virgil, Segoe UI Emoji" font-size="16px" fill="#000000" text-anchor="middle" style="white-space: pre;" direction="ltr">则产生一个NON_UNIQ的warning，</text><text x="135.5" y="63" font-family="Virgil, Segoe UI Emoji" font-size="16px" fill="#000000" text-anchor="middle" style="white-space: pre;" direction="ltr">告诉user，order item是ambiguous的</text></g><g stroke-linecap="round" transform="translate(214 1251.3393360965047) rotate(0 139 40.5)"><path d="M0.16 0.41 C79.56 -0.57, 158.92 -1.65, 276.57 1.53 M-0.17 -0.48 C78.38 1.53, 154.88 2.03, 277.99 -0.24 M277.68 -0.95 C279.27 18.98, 276.47 41.14, 278.71 80.7 M278.73 -0.78 C276.63 19.18, 277.4 39.36, 277.47 80.29 M278.36 79.63 C197.62 83.09, 119.83 83.92, 0.02 79.51 M277.38 81.71 C200.88 79.47, 124.67 79.66, -0.74 80.83 M-0.61 82.45 C-2.02 60.2, 1.74 37.05, -1.41 -0.45 M0.03 81.32 C-0.15 51.1, 1.49 22.05, 0.86 -0.69" stroke="#000000" stroke-width="1" fill="none"></path></g><g transform="translate(555 1380.7283741824422) rotate(0 77 23)"><text x="0" y="17" font-family="Virgil, Segoe UI Emoji" font-size="16px" fill="#000000" text-anchor="start" style="white-space: pre;" direction="ltr">将找到的field存</text><text x="0" y="40" font-family="Virgil, Segoe UI Emoji" font-size="16px" fill="#000000" text-anchor="start" style="white-space: pre;" direction="ltr">到ORDER结构体当中</text></g><g stroke-linecap="round" transform="translate(548 1376.3393360965047) rotate(0 81 26.5)"><path d="M-0.39 1.73 C62 -0.09, 124.23 1.56, 161.59 0.54 M0.9 0.3 C38.13 1.96, 77.54 0.69, 161.48 -0.39 M163.58 -1.08 C160.71 12.19, 162.62 22.07, 160.78 51.09 M161.41 -0.17 C162.56 19.22, 161.86 36.42, 161.85 52.85 M160.68 53.67 C102.24 53.3, 41.05 49.62, -0.46 52.44 M161.84 53.39 C128.1 55.13, 91.55 54.26, -0.4 53.16 M-1.89 53.27 C2.03 31.11, -1.25 12.41, 1.27 -1.58 M-0.78 52.52 C0.83 41.18, 0.84 28.86, -0.21 -0.36" stroke="#000000" stroke-width="1" fill="none"></path></g><g transform="translate(952 784.5628468386922) rotate(0 13 10)"><text x="13" y="14" font-family="Virgil, Segoe UI Emoji" font-size="16px" fill="#000000" text-anchor="middle" style="white-space: pre;" direction="ltr">end</text></g><g stroke-linecap="round" transform="translate(945 775.9830128543172) rotate(0 22.5 18.5)"><path d="M24.18 0.34 C28.82 0.22, 34.4 2.26, 37.75 5.16 C41.1 8.05, 43.7 13.85, 44.29 17.72 C44.88 21.6, 43.76 25.31, 41.27 28.42 C38.78 31.52, 34.11 35.28, 29.35 36.34 C24.6 37.4, 17.35 36.58, 12.75 34.77 C8.15 32.96, 3.77 29.06, 1.75 25.49 C-0.28 21.91, -0.84 17.07, 0.59 13.3 C2.02 9.52, 6.06 4.92, 10.32 2.84 C14.59 0.76, 23 1.14, 26.16 0.84 C29.33 0.54, 29.39 0.96, 29.32 1.02 M27.21 0.32 C31.57 1.39, 38.23 5.62, 41.05 8.71 C43.87 11.8, 44.58 15.1, 44.14 18.86 C43.69 22.61, 41.41 28.16, 38.36 31.22 C35.3 34.29, 30.78 37, 25.8 37.26 C20.81 37.52, 12.53 34.98, 8.45 32.77 C4.37 30.57, 2.19 27.67, 1.33 24.02 C0.48 20.37, 1.65 14.63, 3.32 10.87 C4.99 7.12, 7.27 3.4, 11.32 1.47 C15.38 -0.46, 25.1 -0.84, 27.67 -0.7 C30.25 -0.56, 26.85 1.71, 26.78 2.32" stroke="#000000" stroke-width="1" fill="none"></path></g><g transform="translate(1157.5 524.5628468386922) rotate(0 93.5 23)"><text x="93.5" y="17" font-family="Virgil, Segoe UI Emoji" font-size="16px" fill="#000000" text-anchor="middle" style="white-space: pre;" direction="ltr">设置in_field_list为false</text><text x="93.5" y="40" font-family="Virgil, Segoe UI Emoji" font-size="16px" fill="#000000" text-anchor="middle" style="white-space: pre;" direction="ltr">表明不是从fields中找到的</text></g><g stroke-linecap="round" transform="translate(1151 520.0755421511922) rotate(0 103.5 27.5)"><path d="M-1.65 1.77 C79.67 0.18, 159 -0.7, 205.9 1.6 M-0.01 -0.28 C67.85 -2.11, 135.83 -1.9, 206.58 0.7 M207.71 -0.3 C205.45 11.62, 207.67 28.51, 205.43 53.81 M206.47 -0.71 C206.95 15.41, 207.83 31.34, 206.11 54.34 M207.02 53.28 C137.53 56.11, 67.37 55.18, 1.63 54.71 M206.15 54.8 C136.45 56.33, 67.31 55.91, 0.64 54.16 M-1.41 54.55 C0.75 36.19, -2.09 20.6, 0.64 -1.57 M0.86 54.31 C-0.68 40.77, -0.94 27.3, 0.05 0.2" stroke="#000000" stroke-width="1" fill="none"></path></g><g transform="translate(1153 625.5628468386922) rotate(0 110 23)"><text x="110" y="17" font-family="Virgil, Segoe UI Emoji" font-size="16px" fill="#000000" text-anchor="middle" style="white-space: pre;" direction="ltr">如果是解析group by子句，</text><text x="110" y="40" font-family="Virgil, Segoe UI Emoji" font-size="16px" fill="#000000" text-anchor="middle" style="white-space: pre;" direction="ltr">则设置group_fix_field为true</text></g><g stroke-linecap="round" transform="translate(1152 621.0755421511922) rotate(0 117 30)"><path d="M-0.35 0.46 C73.1 -2.33, 147.21 -0.45, 234.51 -1.09 M-0.44 -0.33 C91.85 0.48, 184.8 1.28, 233.54 -0.51 M232.78 -1.91 C235.22 22.49, 232.65 40.86, 233.66 60.34 M233.85 -0.15 C234.41 22.16, 232.79 43.2, 234.34 60.36 M233.61 59.52 C141.92 56.73, 54.26 57.81, 0.66 61.42 M233.66 60.14 C149.41 59.3, 64.11 58.76, 0.11 60.79 M1.27 58.42 C-1.15 47.52, 1.07 33.34, -0.95 1.69 M-0.21 59.64 C-0.99 42.65, -0.47 25.4, 0.21 -0.44" stroke="#000000" stroke-width="1" fill="none"></path></g><g transform="translate(1178.5 734.5628468386922) rotate(0 80.5 23)"><text x="80.5" y="17" font-family="Virgil, Segoe UI Emoji" font-size="16px" fill="#000000" text-anchor="middle" style="white-space: pre;" direction="ltr">调用fix_fields</text><text x="80.5" y="40" font-family="Virgil, Segoe UI Emoji" font-size="16px" fill="#000000" text-anchor="middle" style="white-space: pre;" direction="ltr">对order item进行解析</text></g><g stroke-linecap="round" transform="translate(1169 730.0755421511922) rotate(0 91 26.5)"><path d="M-1.21 -0.44 C71.46 1.3, 145.99 -1.78, 183.91 -0.02 M-0.89 -0.16 C48.48 1.51, 97.37 0.11, 182.5 0.35 M183.01 1.46 C180.11 13.93, 181.33 30.57, 183.31 51.94 M182.73 0.23 C181.03 11.48, 182.26 24.65, 182.87 53.01 M180.29 51.4 C146.88 52.16, 108.87 54.18, 1.29 51.09 M182.79 52.7 C132.22 52.35, 81.13 54.22, -0.91 52.29 M-1.58 53.06 C0.31 36.72, -1.29 25.28, -0.2 1.72 M-0.48 53.05 C0.16 40.94, 0.32 28.04, 0.45 0.6" stroke="#000000" stroke-width="1" fill="none"></path></g><g transform="translate(1139.5 861.5628468386922) rotate(0 115.5 23)"><text x="115.5" y="17" font-family="Virgil, Segoe UI Emoji" font-size="16px" fill="#000000" text-anchor="middle" style="white-space: pre;" direction="ltr">将order item作为hidden filed，</text><text x="115.5" y="40" font-family="Virgil, Segoe UI Emoji" font-size="16px" fill="#000000" text-anchor="middle" style="white-space: pre;" direction="ltr">添加到select item list当中</text></g><g stroke-linecap="round" transform="translate(1132 857.0755421511922) rotate(0 122.5 28.5)"><path d="M-1.02 1.48 C80.67 -0.62, 161.93 0.42, 244.49 -0.86 M-0.39 0.65 C63.41 -0.17, 128.12 0.62, 244.88 -0.5 M243.43 -1.19 C244.94 12, 246.6 22.26, 243.58 56.71 M244.11 -0.66 C245.75 16.63, 246.29 32.55, 244.03 56.77 M246.51 56.73 C179.05 56.77, 112.88 53.8, -0.37 56.34 M245.6 56.22 C167.68 57.16, 89.39 55.81, -0.19 57.52 M0.64 55.43 C-0.51 46.08, 0.25 33.5, -1.37 -0.42 M0.05 57.2 C0.48 41.49, 0.72 27.46, -0.44 0.07" stroke="#000000" stroke-width="1" fill="none"></path></g><g transform="translate(287 663.7024952761922) rotate(0 185 46)"><text x="0" y="17" font-family="Virgil, Segoe UI Emoji" font-size="16px" fill="#000000" text-anchor="start" style="white-space: pre;" direction="ltr">如果：</text><text x="0" y="40" font-family="Virgil, Segoe UI Emoji" font-size="16px" fill="#000000" text-anchor="start" style="white-space: pre;" direction="ltr">1. 解析的是group by或者window func的order子句，</text><text x="0" y="63" font-family="Virgil, Segoe UI Emoji" font-size="16px" fill="#000000" text-anchor="start" style="white-space: pre;" direction="ltr">并且order item是FIELD_ITEM。或者</text><text x="0" y="86" font-family="Virgil, Segoe UI Emoji" font-size="16px" fill="#000000" text-anchor="start" style="white-space: pre;" direction="ltr">2. order item是REF_ITEM</text></g><g stroke-linecap="round" transform="translate(129 623.4614064090047) rotate(0 301.5 85.49999999999999)"><path d="M302.43 -0.92 C386.68 21.97, 468.57 45.16, 602.44 84.73 M301.62 -0.43 C387.51 22.97, 472.48 46.69, 602.32 86.36 M602.75 86.24 C491.12 115.7, 376.83 147.97, 301.79 172.04 M603.24 86.26 C505.8 112.06, 407.2 139.36, 301.8 170.39 M302.56 172.2 C235.97 150.6, 168.35 132.71, 0.23 87.12 M302.09 171.66 C219.47 145.55, 138.5 123.57, -0.56 85.44 M-0.68 87.2 C91.23 62.82, 181.97 35.23, 301.49 -0.68 M0.15 85.69 C92.34 59.78, 183.76 33.19, 301.59 0.17" stroke="#000000" stroke-width="1" fill="none"></path></g><g stroke-linecap="round"><g transform="translate(1128.1951386910882 192.3208865674166) rotate(0 1.106073214639764 18.87444314068415)"><path d="M0.36 -0.77 C1 5.21, 2.92 30.8, 3.12 36.99 M-0.91 1.44 C-0.26 8.14, 2.52 32.53, 2.78 38.52" stroke="#000000" stroke-width="1" fill="none"></path></g><g transform="translate(1128.1951386910882 192.3208865674166) rotate(0 1.106073214639764 18.87444314068415)"><path d="M3.11 36.64 L-2.87 27.24 L9.56 22.51 L4.24 38.95" stroke="none" stroke-width="0" fill="#000000" fill-rule="evenodd"></path><path d="M1.81 39.96 C0.87 34.98, -1.68 31.75, -6.01 25.26 M2.32 38.9 C1.06 35.08, -1.55 31.19, -4.3 26.05 M-4.46 26.33 C-2.54 24.39, 0.75 24.87, 8.89 24.74 M-4.45 26.06 C-2 24.62, 0.51 24.84, 7.42 23.94 M9.22 25.41 C4.47 29.64, 3.28 35.73, 3.96 38.07 M8.66 23.76 C5.37 29.52, 4.44 34.34, 2.19 38.55 M2.78 38.52 C2.78 38.52, 2.78 38.52, 2.78 38.52 M2.78 38.52 C2.78 38.52, 2.78 38.52, 2.78 38.52" stroke="#000000" stroke-width="1" fill="none"></path></g></g><g stroke-linecap="round"><g transform="translate(1134.4098288323507 295.32676285431717) rotate(0 1.038297785341456 21.440783578956157)"><path d="M-0.77 1.15 C-0.48 7.89, 2.35 34.24, 2.85 40.83 M1.02 0.71 C1.06 7.59, 1.87 35.33, 1.89 42.18" stroke="#000000" stroke-width="1" fill="none"></path></g><g transform="translate(1134.4098288323507 295.32676285431717) rotate(0 1.038297785341456 21.440783578956157)"><path d="M0.01 43.98 L-2.95 30.3 L6.06 29.93 L2.33 40.82" stroke="none" stroke-width="0" fill="#000000" fill-rule="evenodd"></path><path d="M3.33 42.16 C-1.18 36.09, -3.87 30.29, -4.93 27.98 M2.27 42.44 C-0.64 36.57, -3.74 32.29, -4.14 28.11 M-3.85 28.02 C-2.53 28.44, 1.23 29.5, 8.29 27.34 M-4.13 28.7 C-2.34 28.45, 1.07 28, 7.48 29.05 M8.96 27.04 C5.98 31.81, 4.83 37.47, 1.44 43.26 M7.31 27.94 C6.59 31.82, 4.91 33.57, 1.92 42.42 M1.89 42.18 C1.89 42.18, 1.89 42.18, 1.89 42.18 M1.89 42.18 C1.89 42.18, 1.89 42.18, 1.89 42.18" stroke="#000000" stroke-width="1" fill="none"></path></g></g><g stroke-linecap="round"><g transform="translate(1137.8207344977411 390.80540336910803) rotate(0 -62.021474119012396 9.517411921223697)"><path d="M1.15 -0.01 C-19.59 3.26, -103.17 15.82, -124.05 18.89 M0.29 -1.07 C-20.66 2.43, -104.28 16.72, -125.19 20.1" stroke="#000000" stroke-width="1" fill="none"></path></g><g transform="translate(1137.8207344977411 390.80540336910803) rotate(0 -62.021474119012396 9.517411921223697)"><path d="M-123.38 21.83 L-111.22 9.68 L-109.28 24.55 L-126.55 21.44" stroke="none" stroke-width="0" fill="#000000" fill-rule="evenodd"></path><path d="M-125.21 19.64 C-121.84 16.59, -118.31 14.14, -113.54 12.8 M-124.93 19.99 C-122.56 17.24, -118.68 16.41, -113.41 11.17 M-113.5 10.71 C-112.4 14.95, -110.69 18.96, -111.87 23.28 M-112.82 11 C-112.23 15.59, -111.93 19.43, -110.16 24.01 M-112.17 23.78 C-116.27 23.09, -119.39 21.03, -124.11 18.69 M-111.27 23.95 C-114.83 22.14, -120.42 21.49, -124.95 19.51 M-125.19 20.1 C-125.19 20.1, -125.19 20.1, -125.19 20.1 M-125.19 20.1 C-125.19 20.1, -125.19 20.1, -125.19 20.1" stroke="#000000" stroke-width="1" fill="none"></path></g></g><g stroke-linecap="round"><g transform="translate(1150.0639657022261 395.40115504356027) rotate(0 53.50052182930574 57.56458056292067)"><path d="M-0.01 -0.37 C17.8 18.68, 88.49 96.1, 106.1 115.45 M-1.48 -1.61 C16.8 18.11, 90.24 96.98, 108.48 116.74" stroke="#000000" stroke-width="1" fill="none"></path></g><g transform="translate(1150.0639657022261 395.40115504356027) rotate(0 53.50052182930574 57.56458056292067)"><path d="M110.21 118.35 L92.66 112.55 L104.32 101.11 L109.82 117.24" stroke="none" stroke-width="0" fill="#000000" fill-rule="evenodd"></path><path d="M108.02 115.96 C104.56 114.07, 101.64 113.36, 95.78 110.28 M108.37 116.28 C104.41 115.81, 102.34 113.49, 94.14 110.96 M93.69 110.9 C97.29 109.33, 100.72 104.54, 103.05 102.89 M93.97 110.94 C97.46 107.65, 100.25 105.87, 103.78 102.71 M103.55 101.87 C105.98 109.18, 107.06 114.57, 107.07 116.94 M103.71 102.94 C104.97 107.52, 107.4 113.97, 107.89 116.38 M108.48 116.74 C108.48 116.74, 108.48 116.74, 108.48 116.74 M108.48 116.74 C108.48 116.74, 108.48 116.74, 108.48 116.74" stroke="#000000" stroke-width="1" fill="none"></path></g></g><g stroke-linecap="round"><g transform="translate(1254.0627237256692 578.3071095340047) rotate(0 -1.1801654044868428 14.141239525298587)"><path d="M-0.37 -0.63 C-1.03 4.03, -2.44 23.09, -2.8 27.93 M1.63 1.66 C0.68 6.43, -3.16 24.28, -3.99 28.91" stroke="#000000" stroke-width="1" fill="none"></path></g><g transform="translate(1254.0627237256692 578.3071095340047) rotate(0 -1.1801654044868428 14.141239525298587)"><path d="M-2.39 26.98 L-5.98 15.21 L3.26 18.52 L-3.5 30.9" stroke="none" stroke-width="0" fill="#000000" fill-rule="evenodd"></path><path d="M-4.75 28.34 C-6.65 23.07, -7.41 18.87, -8.23 13.9 M-4.44 28.22 C-4.89 24.49, -7.03 18.57, -7.57 14.9 M-7.62 14.6 C-2.14 16.03, 0.26 15.81, 5.03 17.63 M-7.58 14.6 C-3.3 15.33, 2.46 16.66, 4.86 17.7 M4.04 17.42 C2.51 21, -0.72 24.34, -3.8 30.27 M5.08 16.61 C2.16 19.64, 1.17 21.5, -4.34 29.53 M-3.99 28.91 C-3.99 28.91, -3.99 28.91, -3.99 28.91 M-3.99 28.91 C-3.99 28.91, -3.99 28.91, -3.99 28.91" stroke="#000000" stroke-width="1" fill="none"></path></g></g><g stroke-linecap="round"><g transform="translate(1262.6306288282274 684.3071095340047) rotate(0 -2.5833437803098604 15.737839992484083)"><path d="M-0.63 -0.47 C-1.69 4.89, -5.53 26.24, -6.41 31.81 M1.24 -1.77 C0.54 3.82, -2.89 27.76, -4.26 33.24" stroke="#000000" stroke-width="1" fill="none"></path></g><g transform="translate(1262.6306288282274 684.3071095340047) rotate(0 -2.5833437803098604 15.737839992484083)"><path d="M-6.19 34.7 L-7.57 17.36 L5.8 21.53 L-2.27 32.12" stroke="none" stroke-width="0" fill="#000000" fill-rule="evenodd"></path><path d="M-4.85 31.91 C-5.58 28.17, -5.26 23.73, -8.91 19.47 M-4.98 33.62 C-4.95 27.76, -7.2 23.35, -7.88 19.21 M-8.19 19.65 C-4.65 18.18, -2.71 20.31, 4.92 22.14 M-8.18 18.18 C-4.78 20.03, -0.63 20.39, 4.99 21.44 M4.7 22.22 C2.2 24.58, -0.55 26.19, -2.86 31.88 M3.87 20.45 C2.46 24.13, -0.16 26.33, -3.62 33.17 M-4.26 33.24 C-4.26 33.24, -4.26 33.24, -4.26 33.24 M-4.26 33.24 C-4.26 33.24, -4.26 33.24, -4.26 33.24" stroke="#000000" stroke-width="1" fill="none"></path></g></g><g stroke-linecap="round"><g transform="translate(1259.0136348038088 787.6622120730673) rotate(0 -5.10915845882073 27.300061428765716)"><path d="M-0.47 -1.07 C-2.19 8.11, -9.14 45.19, -10.65 54.43 M1.48 0.99 C-0.37 10.37, -9.82 46.61, -11.7 55.67" stroke="#000000" stroke-width="1" fill="none"></path></g><g transform="translate(1259.0136348038088 787.6622120730673) rotate(0 -5.10915845882073 27.300061428765716)"><path d="M-10.24 56.1 L-16.09 42.32 L-1.9 45.89 L-12.82 57.48" stroke="none" stroke-width="0" fill="#000000" fill-rule="evenodd"></path><path d="M-13.03 55.43 C-13.15 52.89, -14.07 46.85, -13.98 41.51 M-11.32 56.22 C-13.06 51, -13.47 47.39, -14.24 40.58 M-13.8 41.27 C-13.04 40.83, -8.66 42.79, -1.29 43.91 M-15.28 40.47 C-11.65 41.5, -9.48 42.73, -1.99 43.29 M-1.22 43.45 C-3.94 45.76, -7.41 51.84, -13.06 54.61 M-2.99 43.92 C-4.66 46.5, -7.84 50.99, -11.77 56.31 M-11.7 55.67 C-11.7 55.67, -11.7 55.67, -11.7 55.67 M-11.7 55.67 C-11.7 55.67, -11.7 55.67, -11.7 55.67" stroke="#000000" stroke-width="1" fill="none"></path></g></g><g stroke-linecap="round"><g transform="translate(1159.7029002552022 848.4888722293172) rotate(0 -84.3195971275835 -26.051074823402814)"><path d="M-1.07 -0.19 C-28.96 -8.5, -140.14 -41.66, -167.96 -50.28 M0.57 -1.34 C-27.47 -9.92, -140.93 -43.63, -169.21 -51.91" stroke="#000000" stroke-width="1" fill="none"></path></g><g transform="translate(1159.7029002552022 848.4888722293172) rotate(0 -84.3195971275835 -26.051074823402814)"><path d="M-168.78 -53.26 L-153.04 -53.64 L-155.98 -43.1 L-167.4 -51.19" stroke="none" stroke-width="0" fill="#000000" fill-rule="evenodd"></path><path d="M-169.45 -52.62 C-164.34 -53.14, -162.76 -52.12, -153.85 -54.36 M-168.66 -52.5 C-166.09 -52.64, -161.98 -52.56, -154.78 -54.67 M-154.08 -55.27 C-156.26 -50.21, -155.99 -46.06, -157.96 -43.21 M-154.89 -53.56 C-155.51 -50.55, -155.87 -47.02, -158.58 -42.12 M-158.42 -40.89 C-162.33 -44.27, -162.44 -48.42, -170.27 -52.25 M-157.95 -41.74 C-162.56 -46.03, -165.42 -49.36, -168.57 -52.42 M-169.21 -51.91 C-169.21 -51.91, -169.21 -51.91, -169.21 -51.91 M-169.21 -51.91 C-169.21 -51.91, -169.21 -51.91, -169.21 -51.91" stroke="#000000" stroke-width="1" fill="none"></path></g></g><g stroke-linecap="round"><g transform="translate(965.3943945586761 469.97275894806717) rotate(0 86.90086962699957 37.40867807775848)"><path d="M-0.19 -0.57 C29.14 11.97, 146.54 61.52, 175.56 74.19 M-1.75 1.74 C27.55 14.53, 145.42 63.44, 175.11 75.39" stroke="#000000" stroke-width="1" fill="none"></path></g><g transform="translate(965.3943945586761 469.97275894806717) rotate(0 86.90086962699957 37.40867807775848)"><path d="M173.75 76.72 L160.62 78.09 L163.81 66.18 L175.82 75.31" stroke="none" stroke-width="0" fill="#000000" fill-rule="evenodd"></path><path d="M174.39 76.58 C170.38 74.64, 168.05 76.26, 159.9 75.18 M174.52 74.94 C171.92 75.77, 169.47 75.39, 159.59 75.99 M158.99 75.26 C161.84 73.2, 163.89 69.4, 163.7 64.07 M160.71 75.99 C161.78 73.48, 163.25 69.15, 164.79 64.11 M166.02 62.95 C168.43 69.28, 170.09 70.3, 174.77 76.34 M165.17 63.78 C166.74 67.44, 169.27 69.88, 174.59 75.23 M175.11 75.39 C175.11 75.39, 175.11 75.39, 175.11 75.39 M175.11 75.39 C175.11 75.39, 175.11 75.39, 175.11 75.39" stroke="#000000" stroke-width="1" fill="none"></path></g></g><g stroke-linecap="round"><g transform="translate(954.214246745205 474.9727589480672) rotate(0 5.280687796801658 145.38539873421993)"><path d="M-0.57 0.95 C1.07 49.18, 7 240.97, 8.76 289.21 M1.33 0.4 C3.46 48.8, 9.76 242.39, 11.13 290.37" stroke="#000000" stroke-width="1" fill="none"></path></g><g transform="translate(954.214246745205 474.9727589480672) rotate(0 5.280687796801658 145.38539873421993)"><path d="M12.47 290.86 L6.37 275.85 L18.86 277.3 L11.06 288.84" stroke="none" stroke-width="0" fill="#000000" fill-rule="evenodd"></path><path d="M12.32 289.55 C8.82 288.26, 8.83 284.46, 3.46 275.54 M10.69 290.24 C8.79 286.11, 5.9 280.4, 4.26 276.87 M3.54 277.4 C9.56 278.05, 13.85 275.57, 16.75 276.22 M4.27 277.22 C7.63 277.18, 9.21 276.55, 16.79 276.68 M15.63 276.78 C16.16 280.48, 11.47 286.73, 12.08 289.18 M16.46 276.22 C16.38 279.58, 15.08 282.18, 10.97 290.1 M11.13 290.37 C11.13 290.37, 11.13 290.37, 11.13 290.37 M11.13 290.37 C11.13 290.37, 11.13 290.37, 11.13 290.37" stroke="#000000" stroke-width="1" fill="none"></path></g></g><g transform="translate(1061 369.25596207306717) rotate(0 13 10)"><text x="0" y="14" font-family="Virgil, Segoe UI Emoji" font-size="16px" fill="#000000" text-anchor="start" style="white-space: pre;" direction="ltr">yes</text></g><g transform="translate(1213 427.25596207306717) rotate(0 8.5 10)"><text x="0" y="14" font-family="Virgil, Segoe UI Emoji" font-size="16px" fill="#000000" text-anchor="start" style="white-space: pre;" direction="ltr">no</text></g><g transform="translate(972 541.2559620730672) rotate(0 13 10)"><text x="0" y="14" font-family="Virgil, Segoe UI Emoji" font-size="16px" fill="#000000" text-anchor="start" style="white-space: pre;" direction="ltr">yes</text></g><g transform="translate(1049 482.25596207306717) rotate(0 8.5 10)"><text x="0" y="14" font-family="Virgil, Segoe UI Emoji" font-size="16px" fill="#000000" text-anchor="start" style="white-space: pre;" direction="ltr">no</text></g><g transform="translate(311 201.94602554962967) rotate(0 91 12.5)"><text x="0" y="18" font-family="Virgil, Segoe UI Emoji" font-size="20px" fill="#c92a2a" text-anchor="start" style="white-space: pre;" direction="ltr">find_order_in_list</text></g><g transform="translate(308 236.44602554962967) rotate(0 197.5 30)"><text x="0" y="14" font-family="Virgil, Segoe UI Emoji" font-size="16px" fill="#495057" text-anchor="start" style="white-space: pre;" direction="ltr">Given a column reference (represented by 'order') </text><text x="0" y="34" font-family="Virgil, Segoe UI Emoji" font-size="16px" fill="#495057" text-anchor="start" style="white-space: pre;" direction="ltr">from a GROUP BY or ORDER BY clause, </text><text x="0" y="54" font-family="Virgil, Segoe UI Emoji" font-size="16px" fill="#495057" text-anchor="start" style="white-space: pre;" direction="ltr">find the actual column it represents</text></g><g stroke-linecap="round"><g transform="translate(416.8910164867714 800.0320631365967) rotate(0 -131.9054443161127 18.882524869422184)"><path d="M-0.73 -1.14 C-44.85 5.37, -220.08 32.5, -264.26 38.91 M1.08 0.87 C-43.17 7.07, -220.81 31.02, -264.89 37.25" stroke="#495057" stroke-width="1" fill="none"></path></g><g transform="translate(416.8910164867714 800.0320631365967) rotate(0 -131.9054443161127 18.882524869422184)"><path d="M-266.42 37.89 L-251.62 28.11 L-252.19 39.88 L-265.22 36.45" stroke="none" stroke-width="0" fill="#495057" fill-rule="evenodd"></path><path d="M-266.32 38 C-259.56 33.42, -257.32 31.61, -252.04 30.1 M-265 37.8 C-261.55 34.59, -259.11 33.5, -252.02 29.77 M-252.65 28.03 C-252.91 34.06, -251.58 37.18, -249.49 42.49 M-252.19 29.61 C-252.16 32.15, -252.21 34.34, -249.97 41.1 M-251.74 40.49 C-253.79 41.23, -258.3 39.02, -263.62 37.1 M-250.83 41.32 C-256.03 39.97, -261.44 38.39, -265.22 37.59 M-264.89 37.25 C-264.89 37.25, -264.89 37.25, -264.89 37.25 M-264.89 37.25 C-264.89 37.25, -264.89 37.25, -264.89 37.25" stroke="#495057" stroke-width="1" fill="none"></path></g></g><g transform="translate(258 785.0629689090047) rotate(0 13 10)"><text x="0" y="14" font-family="Virgil, Segoe UI Emoji" font-size="16px" fill="#495057" text-anchor="start" style="white-space: pre;" direction="ltr">yes</text></g><g stroke-linecap="round"><g transform="translate(209.28519954201772 905.0629689090047) rotate(0 130.14804091404827 22.725195792835024)"><path d="M0.6 0.88 C43.83 8.4, 215.49 36.65, 258.62 43.99 M-0.54 0.29 C43.12 8.06, 217.67 37.48, 260.84 45.16" stroke="#495057" stroke-width="1" fill="none"></path></g><g transform="translate(209.28519954201772 905.0629689090047) rotate(0 130.14804091404827 22.725195792835024)"><path d="M261.51 44.15 L244.73 47.29 L248.19 35.8 L261.07 43.29" stroke="none" stroke-width="0" fill="#495057" fill-rule="evenodd"></path><path d="M261.93 43.98 C256.45 45.91, 254.13 48.09, 245.56 48.03 M261.01 44.49 C256.2 46.64, 252.84 48.16, 246.37 48.36 M245.34 50.25 C246.78 46.14, 248.66 43, 247.3 36.31 M246.17 49.55 C246.3 45.91, 248.05 42, 248.07 36.45 M248.57 37.08 C251.75 39.09, 258.67 42.76, 262.12 44.13 M248.55 36.63 C252.07 39.2, 255.03 41.77, 261.29 44.82 M260.84 45.16 C260.84 45.16, 260.84 45.16, 260.84 45.16 M260.84 45.16 C260.84 45.16, 260.84 45.16, 260.84 45.16" stroke="#495057" stroke-width="1" fill="none"></path></g></g><g stroke-linecap="round"><g transform="translate(428.95517619649695 805.9284974984955) rotate(0 22.279198019099283 64.71689116978979)"><path d="M0.88 -0.94 C8.13 20.45, 35.28 107.13, 42.34 128.94 M-0.12 1.18 C7.62 22.7, 37.56 109.24, 44.68 130.37" stroke="#495057" stroke-width="1" fill="none"></path></g><g transform="translate(428.95517619649695 805.9284974984955) rotate(0 22.279198019099283 64.71689116978979)"><path d="M43.67 128.74 L32.48 119.24 L45.48 115.69 L42.81 132.13" stroke="none" stroke-width="0" fill="#495057" fill-rule="evenodd"></path><path d="M43.5 129.48 C42.24 128.49, 41.35 125.23, 33.21 119.35 M44.01 129.88 C41.88 127.58, 39.32 124.24, 33.55 119.39 M35.44 119.36 C38.07 119.62, 41.65 116.22, 45.99 114.95 M34.73 118.97 C38.12 118.9, 41.25 116.56, 46.13 115.86 M46.75 114.28 C45.09 120.03, 45.3 123.35, 43.65 130.06 M46.31 115.61 C45.94 119.08, 45.69 123.8, 44.34 130.43 M44.68 130.37 C44.68 130.37, 44.68 130.37, 44.68 130.37 M44.68 130.37 C44.68 130.37, 44.68 130.37, 44.68 130.37" stroke="#495057" stroke-width="1" fill="none"></path></g></g><g transform="translate(461 844.0629689090047) rotate(0 8.5 10)"><text x="0" y="14" font-family="Virgil, Segoe UI Emoji" font-size="16px" fill="#495057" text-anchor="start" style="white-space: pre;" direction="ltr">no</text></g><g stroke-linecap="round"><g transform="translate(738.6814509376884 439.1525053389184) rotate(0 -47.423429486071655 46.30423937809065)"><path d="M-0.71 -0.21 C-16.71 15.61, -79.25 78.55, -95.12 93.97 M1.12 -1.36 C-15.1 14.2, -79.6 76.5, -95.96 92.26" stroke="#495057" stroke-width="4" fill="none"></path></g><g transform="translate(738.6814509376884 439.1525053389184) rotate(0 -47.423429486071655 46.30423937809065)"><path d="M-83.14 65.64 C-86.61 74.22, -94.25 85.06, -96.25 93.73 M-82.46 65.66 C-86.42 73.94, -92.52 82.41, -96.24 91.4" stroke="#495057" stroke-width="4" fill="none"></path></g><g transform="translate(738.6814509376884 439.1525053389184) rotate(0 -47.423429486071655 46.30423937809065)"><path d="M-68.89 80.41 C-77.57 83.39, -90.52 88.72, -96.25 93.73 M-68.21 80.43 C-76.64 83.84, -87.35 87.54, -96.24 91.4" stroke="#495057" stroke-width="4" fill="none"></path></g></g><g stroke-linecap="round"><g transform="translate(541.816113212624 1132.7030645919156) rotate(0 18.98924023687192 53.755965538526254)"><path d="M-0.21 0.2 C6.58 18.16, 33.37 89.16, 39.75 107.05 M-1.77 -0.74 C5 17.43, 32.16 90, 39.22 108.25" stroke="#495057" stroke-width="1" fill="none"></path></g><g transform="translate(541.816113212624 1132.7030645919156) rotate(0 18.98924023687192 53.755965538526254)"><path d="M38.89 107.45 L28.7 95.92 L42.07 93.11 L37.7 107.57" stroke="none" stroke-width="0" fill="#495057" fill-rule="evenodd"></path><path d="M39.47 109.23 C36.1 104.85, 34.3 103.37, 29.57 98.14 M39.49 108.9 C37.03 105.35, 34.58 103.66, 27.83 97.19 M29.54 98.6 C31.9 95.69, 37.25 94.42, 41.32 92.91 M29.06 97.21 C32.47 95.95, 37.74 93.92, 39.82 93.31 M41.59 93.14 C41.13 97.22, 39.15 102.69, 38.5 108.32 M39.99 93.63 C40.47 97.52, 39.73 101.99, 39.4 108.11 M39.22 108.25 C39.22 108.25, 39.22 108.25, 39.22 108.25 M39.22 108.25 C39.22 108.25, 39.22 108.25, 39.22 108.25" stroke="#495057" stroke-width="1" fill="none"></path></g></g><g stroke-linecap="round"><g transform="translate(621.1523061612202 1321.2570607058797) rotate(0 1.1178383090457942 23.696954760989172)"><path d="M0.2 0.79 C0.49 8.51, 0.8 38.48, 1.01 46.15 M-1.15 0.15 C-0.4 8.03, 3.09 39.26, 3.39 47.24" stroke="#495057" stroke-width="1" fill="none"></path></g><g transform="translate(621.1523061612202 1321.2570607058797) rotate(0 1.1178383090457942 23.696954760989172)"><path d="M2.59 47.47 L-5.88 35.94 L8.45 31.67 L2.71 46.97" stroke="none" stroke-width="0" fill="#495057" fill-rule="evenodd"></path><path d="M4.37 46.44 C0.57 43.89, -0.37 42.07, -3.66 32.85 M4.04 47.25 C0.89 44.04, -0.33 40.52, -4.61 34.88 M-3.19 32.98 C-0.72 33.29, 3.36 34.51, 8.25 34.1 M-4.59 33.74 C-1.55 34.27, 0.69 33.16, 8.65 33.39 M8.48 34.48 C6.37 36.03, 5.7 38.74, 3.46 47.32 M8.97 33.64 C6.65 37.72, 4.87 42.35, 3.25 47.37 M3.39 47.24 C3.39 47.24, 3.39 47.24, 3.39 47.24 M3.39 47.24 C3.39 47.24, 3.39 47.24, 3.39 47.24" stroke="#495057" stroke-width="1" fill="none"></path></g></g><g transform="translate(619 1484.2570607058797) rotate(0 13 10)"><text x="0" y="14" font-family="Virgil, Segoe UI Emoji" font-size="16px" fill="#495057" text-anchor="start" style="white-space: pre;" direction="ltr">end</text></g><g stroke-linecap="round" transform="translate(609 1477.2570607058797) rotate(0 24 18)"><path d="M22.49 -0.84 C27.26 -1.41, 33.2 1.19, 37.39 3.74 C41.58 6.3, 46.26 10.95, 47.63 14.47 C49 17.99, 47.95 21.6, 45.61 24.88 C43.27 28.16, 38.43 32.54, 33.59 34.14 C28.75 35.75, 21.35 35.55, 16.59 34.51 C11.84 33.48, 7.74 30.86, 5.06 27.94 C2.38 25.02, 0.04 20.98, 0.52 17.01 C0.99 13.04, 4.11 7.03, 7.92 4.13 C11.74 1.23, 20.54 0.1, 23.41 -0.4 C26.28 -0.89, 25.16 0.68, 25.15 1.16 M11.73 0.91 C15.85 -1.04, 24.01 0.56, 29.05 1.41 C34.09 2.25, 38.82 2.98, 41.98 5.98 C45.14 8.98, 48.28 15.49, 48.02 19.41 C47.75 23.34, 43.69 26.84, 40.39 29.55 C37.08 32.27, 32.9 35.3, 28.21 35.72 C23.52 36.14, 16.81 34.23, 12.23 32.07 C7.65 29.91, 2.58 26.24, 0.74 22.74 C-1.11 19.23, -0.89 14.46, 1.19 11.05 C3.26 7.64, 11.09 3.84, 13.17 2.27 C15.24 0.7, 13.35 1.27, 13.63 1.63" stroke="#495057" stroke-width="1" fill="none"></path></g><g stroke-linecap="round"><g transform="translate(252 11.311137854317167) rotate(0 -0.15549451067113296 -0.20856388685871252)"><path d="M-0.85 -0.17 C-1.01 0.08, -0.36 1.03, -0.18 0.88 M0.9 -1.31 C0.5 -1.33, -1.01 -0.95, -1.22 -0.78" stroke="#495057" stroke-width="1" fill="none"></path></g><g transform="translate(252 11.311137854317167) rotate(0 -0.15549451067113296 -0.20856388685871252)"><path d="M0.54 -0.96 L-2.73 -1.46 L-1.49 -1.42 L-0.9 -0.88" stroke="none" stroke-width="0" fill="#495057" fill-rule="evenodd"></path><path d="M-1.22 -0.78 C-1.22 -0.78, -1.22 -0.78, -1.22 -0.78 M-1.22 -0.78 C-1.22 -0.78, -1.22 -0.78, -1.22 -0.78 M-1.22 -0.78 C-1.22 -0.78, -1.22 -0.78, -1.22 -0.78 M-1.22 -0.78 C-1.22 -0.78, -1.22 -0.78, -1.22 -0.78 M-1.22 -0.78 C-1.22 -0.78, -1.22 -0.78, -1.22 -0.78 M-1.22 -0.78 C-1.22 -0.78, -1.22 -0.78, -1.22 -0.78 M-1.22 -0.78 C-1.22 -0.78, -1.22 -0.78, -1.22 -0.78 M-1.22 -0.78 C-1.22 -0.78, -1.22 -0.78, -1.22 -0.78" stroke="#495057" stroke-width="1" fill="none"></path></g></g><g transform="translate(579 1179.7385060183797) rotate(0 13 10)"><text x="0" y="14" font-family="Virgil, Segoe UI Emoji" font-size="16px" fill="#495057" text-anchor="start" style="white-space: pre;" direction="ltr">yes</text></g><g stroke-linecap="round"><g transform="translate(425.7773292379841 1135.3873379090332) rotate(0 -20.268855093920877 48.77727328218532)"><path d="M-0.18 0.88 C-6.63 16.96, -32.82 80.14, -39.56 96.28 M-1.73 0.3 C-8.24 16.5, -34.29 81.37, -40.36 97.26" stroke="#495057" stroke-width="1" fill="none"></path></g><g transform="translate(425.7773292379841 1135.3873379090332) rotate(0 -20.268855093920877 48.77727328218532)"><path d="M-41.88 96.58 L-41.56 81.65 L-29.17 86.83 L-41.23 96.84" stroke="none" stroke-width="0" fill="#495057" fill-rule="evenodd"></path><path d="M-39.26 97.61 C-41.89 92.83, -40.26 90.94, -39.97 82.3 M-41 96.66 C-39.83 94.09, -40.41 91.81, -40.8 81.57 M-40.29 81.9 C-37.11 82.36, -34.59 86.03, -30.64 86.03 M-41.78 82.31 C-37.78 83.17, -35.01 85.49, -29.55 87.47 M-30.2 87 C-31.95 89.58, -34.22 91.01, -39.69 98.16 M-29.3 86.79 C-32.13 88.8, -34.36 92.8, -39.76 96.53 M-40.36 97.26 C-40.36 97.26, -40.36 97.26, -40.36 97.26 M-40.36 97.26 C-40.36 97.26, -40.36 97.26, -40.36 97.26" stroke="#495057" stroke-width="1" fill="none"></path></g></g><g transform="translate(416 1184.7385060183797) rotate(0 8.5 10)"><text x="0" y="14" font-family="Virgil, Segoe UI Emoji" font-size="16px" fill="#495057" text-anchor="start" style="white-space: pre;" direction="ltr">no</text></g><g stroke-linecap="round"><g transform="translate(635 1435.2487599246297) rotate(0 -0.6452661462081437 15.666852161288261)"><path d="M0.28 -1.07 C0.01 4.18, -1.65 26.72, -1.79 32.4 M-1.03 0.98 C-0.91 5.79, 0.51 25.45, 0.5 30.49" stroke="#495057" stroke-width="1" fill="none"></path></g><g transform="translate(635 1435.2487599246297) rotate(0 -0.6452661462081437 15.666852161288261)"><path d="M0.23 29.85 L-6.05 17.06 L5.44 16.24 L2.14 31.75" stroke="none" stroke-width="0" fill="#495057" fill-rule="evenodd"></path><path d="M-0.83 29.5 C-1.05 27.25, -2.21 22.91, -7.82 16.81 M1.19 30.37 C-0.96 27.45, -2.64 22.47, -6.54 16.86 M-5.45 15.96 C-2.2 18.22, 0.49 15.99, 6.02 17.46 M-6.16 16.66 C-3.86 17.58, -0.82 17.48, 5.87 16.52 M6.38 16.96 C5.02 19.67, 3.84 24.88, -0.16 30.6 M6.43 15.95 C5.61 20.66, 4.12 22.64, 1.05 30.65 M0.5 30.49 C0.5 30.49, 0.5 30.49, 0.5 30.49 M0.5 30.49 C0.5 30.49, 0.5 30.49, 0.5 30.49" stroke="#495057" stroke-width="1" fill="none"></path></g></g><g stroke-linecap="round" transform="translate(10 550.7585255496297) rotate(0 412 488.09191894531244)"><path d="M-0.53 0.27 C307.95 3.64, 615.32 2.16, 823.82 -0.23 M823.87 0.31 C821.55 209.88, 820.1 418.55, 823.68 976.31 M823.25 976.29 C512.71 977.84, 199.36 978.39, 0.51 975.55 M-0.63 975.8 C0.55 760.16, 0.56 543.74, -0.17 -0.28" stroke="#495057" stroke-width="1.5" fill="none" stroke-dasharray="1.5 7"></path></g><g transform="translate(534 582.3104054324422) rotate(0 135 11.5)"><text x="135" y="17" font-family="Virgil, Segoe UI Emoji" font-size="16px" fill="#495057" text-anchor="middle" style="white-space: pre;" direction="ltr">检查order item是否是unambiguous的</text></g></svg>