<svg version="1.1" xmlns="http://www.w3.org/2000/svg" viewBox="0 0 1273.4403076171875 1540.2860412597656" width="1273.4403076171875" height="1540.2860412597656">
  <!-- svg-source:excalidraw -->
  
  <defs>
    <style>
      @font-face {
        font-family: "Virgil";
        src: url("https://excalidraw.com/Virgil.woff2");
      }
      @font-face {
        font-family: "Cascadia";
        src: url("https://excalidraw.com/Cascadia.woff2");
      }
    </style>
  </defs>
  <rect x="0" y="0" width="1273.4403076171875" height="1540.2860412597656" fill="#ffffff"></rect><g transform="translate(155.9967041015625 32.38702392578125) rotate(0 23 10)"><text x="0" y="14" font-family="Virgil, Segoe UI Emoji" font-size="16px" fill="#000000" text-anchor="start" style="white-space: pre;" direction="ltr">start</text></g><g stroke-linecap="round" transform="translate(148.93310546875 23.817474365234375) rotate(0 28.834808349609375 16.240234375)"><path d="M0.77 0.8 C16.97 -0.6, 34.9 0.8, 55.86 -0.74 M0.03 -0.33 C19.5 -0.43, 38.21 -0.32, 57.83 -0.7 M57.01 1.25 C57.45 9.73, 58.87 22.2, 59.27 32.41 M57.72 -0.79 C58.36 7.1, 56.89 15.7, 57.4 31.88 M58.57 33.97 C38.77 34.25, 20.02 31.74, 1 31.21 M57.66 31.48 C38.63 32.26, 17.01 31.27, -0.52 32.97 M0.74 32.41 C0.16 26.79, 0.83 18.12, 0.45 -1.61 M0.72 31.91 C-0.02 25.16, -0.15 18.34, 0.68 0.25" stroke="#000000" stroke-width="1" fill="none"></path></g><g transform="translate(294.17059326171875 17.091796875) rotate(0 151.5 23)"><text x="0" y="17" font-family="Virgil, Segoe UI Emoji" font-size="16px" fill="#000000" text-anchor="start" style="white-space: pre;" direction="ltr">调用resolve_ref_in_select_and_group</text><text x="0" y="40" font-family="Virgil, Segoe UI Emoji" font-size="16px" fill="#000000" text-anchor="start" style="white-space: pre;" direction="ltr">在select和group by子句中查找</text></g><g stroke-linecap="round" transform="translate(286.6103515625 10) rotate(0 157.93487548828125 32.05744934082031)"><path d="M-0.49 -0.3 C81.13 -1.54, 159.54 -0.38, 314.81 -1.09 M0.15 0.61 C99 -2.25, 197.66 -1.41, 315.5 -0.6 M314.06 0.35 C316.53 25.56, 313.77 51.08, 316.51 64.69 M316.84 -0.72 C316.04 13.92, 316.74 28.86, 315.9 63.74 M315.96 63.97 C204.59 63.49, 92.44 64.23, -0.81 63.51 M316.47 64.23 C209.01 65.68, 104.15 65.56, 0.28 63.88 M-0.42 63.21 C1.4 43.17, 1.21 22.41, 1.71 0.29 M-0.69 64.98 C1.44 50.99, 0.21 38.71, 0.69 0.63" stroke="#000000" stroke-width="1" fill="none"></path></g><g transform="translate(165.674072265625 264.9362487792969) rotate(0 82.5 23)"><text x="0" y="17" font-family="Virgil, Segoe UI Emoji" font-size="16px" fill="#000000" text-anchor="start" style="white-space: pre;" direction="ltr">调用set_properties，</text><text x="0" y="40" font-family="Virgil, Segoe UI Emoji" font-size="16px" fill="#000000" text-anchor="start" style="white-space: pre;" direction="ltr">设置标识符属性</text></g><g stroke-linecap="round" transform="translate(163.522705078125 255.62460327148438) rotate(0 81.15966796875 30.338043212890625)"><path d="M-0.85 0.63 C60.65 0.35, 120.98 0.66, 162.16 -0.61 M0.95 0.76 C40.1 0.6, 79.78 2.01, 161.78 0.7 M161.04 -1.62 C161.46 22.22, 162.26 40.36, 160.46 61.57 M161.86 0.89 C161.08 16.54, 162.45 32.34, 162.67 60.61 M160.69 58.82 C105.11 61.7, 48.67 61.65, -0.39 61.08 M161.72 59.76 C119.74 60.49, 76.09 58.78, 0.49 61.13 M1.98 61.81 C-0.36 37.62, -1.94 15.1, 0.5 0.13 M-0.59 60.89 C-1.41 42.9, -0.03 27.11, -0.47 -0.62" stroke="#000000" stroke-width="1" fill="none"></path></g><g transform="translate(391.80682373046875 360.8921813964844) rotate(0 35.5 10)"><text x="0" y="14" font-family="Virgil, Segoe UI Emoji" font-size="16px" fill="#000000" text-anchor="start" style="white-space: pre;" direction="ltr">bad field</text></g><g stroke-linecap="round" transform="translate(383.3504638671875 349.2786560058594) rotate(0 42.018157958984375 19.574798583984375)"><path d="M-1.29 -1.21 C25.08 1.67, 55.53 0.38, 82.33 0.98 M-0.66 0.99 C29.62 -0.15, 58.24 -0.94, 84.55 0.25 M82.05 -1.18 C84.36 10.15, 81.96 24.9, 84.04 38.22 M83.96 0.47 C83.35 9.09, 84.78 19.45, 84.56 38.72 M84.79 39.77 C66.43 36.66, 47.87 38.2, 1.59 37.62 M84.59 38.23 C54.81 40.07, 26.43 39.33, 0.1 40.13 M0.54 39.51 C-1.2 28.14, 1.21 13.86, -1.41 -0.21 M0.1 38.25 C1.31 23.47, 0.18 8.88, -0.37 -0.2" stroke="#000000" stroke-width="1" fill="none"></path></g><g transform="translate(393.66162109375 506.22705078125) rotate(0 151.5 23)"><text x="0" y="17" font-family="Virgil, Segoe UI Emoji" font-size="16px" fill="#000000" text-anchor="start" style="white-space: pre;" direction="ltr">调用resolve_ref_in_select_and_group</text><text x="0" y="40" font-family="Virgil, Segoe UI Emoji" font-size="16px" fill="#000000" text-anchor="start" style="white-space: pre;" direction="ltr">在外层的select和group by子句中查找</text></g><g stroke-linecap="round" transform="translate(385.0838623046875 501.942626953125) rotate(0 157.59332275390625 29.403564453125)"><path d="M-1.41 0.64 C75.89 1.4, 150.89 2.84, 315.89 -0.11 M0.37 0.57 C109.72 0.22, 218.12 0.63, 314.71 0.27 M315.92 -0.39 C317.02 17.94, 316.25 39.26, 316.4 59.9 M314.84 -0.33 C314.93 13.22, 315.11 23.63, 315.57 59.08 M315.81 59.06 C214.01 60.68, 116.06 59.61, -0.82 58.96 M315.08 58.77 C248.67 57.39, 182.66 57.78, 0.09 59.34 M-1.63 57.86 C1.35 35.65, -0.88 13.97, 1.72 -1.4 M-0.92 58.81 C0.24 43.69, 0.08 28.17, -0.43 0.21" stroke="#000000" stroke-width="1" fill="none"></path></g><g transform="translate(612.072998046875 842.9256286621094) rotate(0 98 23)"><text x="0" y="17" font-family="Virgil, Segoe UI Emoji" font-size="16px" fill="#000000" text-anchor="start" style="white-space: pre;" direction="ltr">调用find_field_in_tables</text><text x="0" y="40" font-family="Virgil, Segoe UI Emoji" font-size="16px" fill="#000000" text-anchor="start" style="white-space: pre;" direction="ltr">在外层的from table中查找</text></g><g stroke-linecap="round" transform="translate(608.890869140625 837.7548522949219) rotate(0 100.4580078125 30.85394287109375)"><path d="M0.47 0.13 C66.13 -0.44, 128.83 0.11, 200.46 -0.72 M0.83 -0.5 C42.44 1.52, 86.62 0.41, 201.47 0.08 M202.6 0.16 C202.01 13.29, 201.82 29.29, 201.59 61.97 M200.47 0.61 C201.37 20.55, 200.83 41.25, 200.91 61.52 M199.95 63.07 C135.62 60.38, 66.22 60.23, 0.29 63.13 M200.82 61.99 C137.59 59.86, 74.84 60.1, -0.69 60.97 M0.88 62.21 C0.3 40.05, -1.11 17.95, 1.03 1.58 M-0.41 61.49 C0.14 49.22, -1.21 35.68, 0.28 -0.66" stroke="#000000" stroke-width="1" fill="none"></path></g><g transform="translate(543.6416015625 1062.3084411621094) rotate(0 64 21.5)"><text x="64" y="15.5" font-family="Virgil, Segoe UI Emoji" font-size="16px" fill="#000000" text-anchor="middle" style="white-space: pre;" direction="ltr">停止搜索外层查询</text><text x="64" y="37" font-family="Virgil, Segoe UI Emoji" font-size="16px" fill="#000000" text-anchor="middle" style="white-space: pre;" direction="ltr">break</text></g><g stroke-linecap="round" transform="translate(534.1831665039062 1048.5060729980469) rotate(0 70.66506958007812 29.923126220703125)"><path d="M1.52 1.92 C36.14 0.04, 72.1 1.08, 142.92 0.29 M0.31 -0.19 C54.26 0.42, 109.02 -0.61, 140.51 0.6 M141.84 0.74 C142.32 21.58, 142.42 45.51, 142.91 57.93 M141.11 0.49 C140.97 20.48, 140.01 42.96, 140.67 59.94 M141.97 58.06 C105.8 61.26, 71.24 59.67, 0.46 59.86 M141.58 60.22 C96.96 61.36, 55.04 59.87, -0.34 59.07 M0.74 61.11 C1.2 41.24, 0.3 20.51, -1.67 -0.82 M0.4 60.51 C1 41.02, 1.23 20.68, 0.18 -0.12" stroke="#000000" stroke-width="1" fill="none"></path></g><g transform="translate(196.16754150390625 425.8637390136719) rotate(0 13.5 10)"><text x="0" y="14" font-family="Virgil, Segoe UI Emoji" font-size="16px" fill="#000000" text-anchor="start" style="white-space: pre;" direction="ltr">end</text></g><g stroke-linecap="round" transform="translate(182.49920654296875 419.84698486328125) rotate(0 26.36297607421875 15.234207153320312)"><path d="M22.92 0.1 C27.99 -0.57, 34.79 1.07, 39.42 2.89 C44.04 4.71, 48.74 7.98, 50.67 11.01 C52.6 14.05, 53.07 18.08, 51 21.1 C48.93 24.11, 43.15 27.42, 38.25 29.09 C33.36 30.76, 27.02 31.84, 21.64 31.12 C16.26 30.4, 9.63 27.61, 5.98 24.77 C2.33 21.92, -0.36 17.22, -0.28 14.05 C-0.21 10.88, 2.24 8.14, 6.46 5.77 C10.67 3.4, 21.1 0.85, 25.01 -0.2 C28.91 -1.24, 29.75 -0.87, 29.91 -0.49 M23.84 -1.32 C29.38 -1.57, 37.01 1.87, 41.73 4.1 C46.44 6.33, 50.84 9.18, 52.13 12.08 C53.41 14.99, 52 18.51, 49.44 21.51 C46.88 24.5, 41.85 28.58, 36.76 30.06 C31.67 31.54, 24.47 31.22, 18.91 30.39 C13.35 29.55, 6.72 27.7, 3.4 25.04 C0.08 22.39, -1.66 18.14, -1.02 14.48 C-0.38 10.82, 3.05 5.52, 7.25 3.08 C11.45 0.64, 21.15 0.34, 24.16 -0.19 C27.17 -0.71, 25.13 -0.39, 25.3 -0.05" stroke="#000000" stroke-width="1" fill="none"></path></g><g transform="translate(356.570556640625 152.44088745117188) rotate(0 40.5 11.5)"><text x="0" y="17" font-family="Virgil, Segoe UI Emoji" font-size="16px" fill="#000000" text-anchor="start" style="white-space: pre;" direction="ltr">找到了吗？</text></g><g stroke-linecap="round" transform="translate(340.72265625 135.9210205078125) rotate(0 48.082672119140625 28.75152587890625)"><path d="M48.41 -1.51 C67.37 12.75, 84.7 22.53, 97.62 27.23 M48.09 0.17 C63.05 7.99, 77.77 18.51, 96.29 29.35 M97.37 28.77 C84.56 34.82, 73.39 42.11, 50.13 56.42 M96.65 28.74 C85.98 35.44, 75.93 41.14, 48.44 56.72 M50.92 59.07 C35.27 50.82, 22.47 42.1, -0.64 29.68 M49.33 58.38 C35.4 48.89, 21.44 42.25, -0.45 29.13 M-0.26 27.48 C12.27 19.77, 25.7 11.83, 48.04 1.48 M-0.19 29.35 C14.87 21.31, 29.1 12.07, 49.56 -0.85" stroke="#000000" stroke-width="1" fill="none"></path></g><g transform="translate(517.0709228515625 249.16049194335938) rotate(0 64.5 11.5)"><text x="0" y="17" font-family="Virgil, Segoe UI Emoji" font-size="16px" fill="#000000" text-anchor="start" style="white-space: pre;" direction="ltr">存在外层查询吗？</text></g><g stroke-linecap="round" transform="translate(494.180908203125 231.99008178710938) rotate(0 79.65298461914062 27.56744384765625)"><path d="M80.97 -0.52 C98.04 6.73, 116.27 11.73, 158.18 26.44 M80.96 0.78 C99.32 6.89, 119.08 13.17, 158.99 28.34 M159.96 29.75 C137.74 34.38, 115.1 44.81, 79.1 55.39 M159.18 27.24 C138.14 34.31, 117.24 41.42, 79.52 55.87 M79.61 55.83 C58.63 49.66, 35.93 40.03, 1.12 26.29 M79.35 54.94 C47.89 44.27, 16.38 33.37, 0.67 28.18 M-0.33 26.56 C23.12 18.44, 47.84 12.88, 81.13 1.82 M-0.2 28.29 C28.05 16.56, 57.43 8.02, 79.33 -0.25" stroke="#000000" stroke-width="1" fill="none"></path></g><g transform="translate(657.7266235351562 351.24127197265625) rotate(0 88.5 23)"><text x="0" y="17" font-family="Virgil, Segoe UI Emoji" font-size="16px" fill="#000000" text-anchor="start" style="white-space: pre;" direction="ltr">能引用外层的select list</text><text x="0" y="40" font-family="Virgil, Segoe UI Emoji" font-size="16px" fill="#000000" text-anchor="start" style="white-space: pre;" direction="ltr">的标识符吗？</text></g><g stroke-linecap="round" transform="translate(611.8231811523438 322.50213623046875) rotate(0 125.48593139648438 47.524200439453125)"><path d="M125.32 1.44 C170.04 16.68, 213.33 33.5, 249.39 47.85 M125.87 0.09 C152.51 8.93, 178.44 20, 251.9 48.97 M252.93 49.21 C214.12 59.82, 175.45 75.09, 125.4 95.46 M250.9 47.75 C218.57 60.31, 185.5 72.54, 125.25 95.5 M127.08 96.35 C82.73 79.01, 36.38 62.45, -1.5 49.97 M126.55 95.19 C80.03 77.75, 35.62 60.79, -0.89 48 M1.05 46.43 C44.58 33.57, 88.85 14.42, 125.8 -0.01 M0.8 48.69 C28.77 37.43, 58.98 25.74, 126.22 0.91" stroke="#000000" stroke-width="1" fill="none"></path></g><g transform="translate(529.1432495117188 626.3270874023438) rotate(0 40.5 11.5)"><text x="0" y="17" font-family="Virgil, Segoe UI Emoji" font-size="16px" fill="#000000" text-anchor="start" style="white-space: pre;" direction="ltr">找到了吗？</text></g><g stroke-linecap="round" transform="translate(502.0479736328125 605.1904296875) rotate(0 59.543121337890625 30.071624755859375)"><path d="M58.58 1.02 C70.78 6.06, 84.09 11.65, 118.68 32.58 M60.64 0.48 C75.89 7.83, 89.31 15.58, 119.33 30.18 M117.75 31.97 C101.59 39.11, 86.2 49.23, 58.83 59.39 M118.1 30.26 C100.56 39.72, 81.84 48.49, 59.31 59.44 M58.75 58.95 C45.71 51.24, 29.8 43.15, -0.18 32.43 M60.48 60.45 C41.72 52.31, 25.75 42.77, -0.18 30.35 M-0.64 30.92 C19.37 20.92, 37.18 10.68, 61.59 -1.6 M0.57 31.92 C18.03 21.81, 36.64 11.17, 60.02 -0.02" stroke="#000000" stroke-width="1" fill="none"></path></g><g transform="translate(728.724365234375 685.6053771972656) rotate(0 85.5 23)"><text x="0" y="17" font-family="Virgil, Segoe UI Emoji" font-size="16px" fill="#000000" text-anchor="start" style="white-space: pre;" direction="ltr">能从外层的from clause</text><text x="0" y="40" font-family="Virgil, Segoe UI Emoji" font-size="16px" fill="#000000" text-anchor="start" style="white-space: pre;" direction="ltr">中查找吗？</text></g><g stroke-linecap="round" transform="translate(679.606201171875 657.0390930175781) rotate(0 120.227783203125 49.67816162109375)"><path d="M120.02 -0.18 C169.36 18.39, 215.68 38.91, 241.41 50.61 M120.41 -0.18 C147.86 10.46, 176.49 22.34, 240.14 49.96 M238.84 51.59 C192.43 70.15, 147.08 90.39, 122.14 101.19 M239.58 50.02 C205.94 64.72, 172.07 79.95, 121.82 99.46 M119.73 97.73 C86.31 85.02, 49.71 71.33, -1.77 50.55 M121.42 100.06 C83.15 83.44, 43.71 67.58, -0.29 49.52 M-1.15 51.62 C39.46 33.64, 77.54 18.55, 120.39 -1.09 M0.03 49.61 C32.56 37.53, 65.19 22.91, 121.63 -0.89" stroke="#000000" stroke-width="1" fill="none"></path></g><g transform="translate(670.05126953125 979.7727966308594) rotate(0 40.5 11.5)"><text x="40.5" y="17" font-family="Virgil, Segoe UI Emoji" font-size="16px" fill="#000000" text-anchor="middle" style="white-space: pre;" direction="ltr">找到了吗？</text></g><g stroke-linecap="round" transform="translate(651.9185791015625 965.0171203613281) rotate(0 51.9952392578125 26.5374755859375)"><path d="M51.58 0.11 C63.9 6.99, 75.94 11.07, 104.82 26.81 M52.89 -0.8 C65.37 8.03, 80.79 13.79, 104.6 26.65 M102.41 26.78 C89.88 33.06, 76.27 42.06, 53.85 51.42 M103.52 27.54 C84.7 36.92, 65.49 45.64, 51.02 52.76 M53.02 54.17 C37.03 46.91, 19.05 36.77, -1.69 26.38 M51.01 53.32 C40.74 48.02, 29.18 41.65, -0.24 27.3 M-0.94 27.18 C14.92 19.06, 30.54 10.22, 50.47 -1.15 M-0.98 27.25 C14.17 19.24, 28.88 12.22, 51.71 -0.23" stroke="#000000" stroke-width="1" fill="none"></path></g><g stroke-linecap="round"><g transform="translate(219.0556640625 41.141021728515625) rotate(0 28.27588947750627 -0.01344483463094548)"><path d="M-0.62 -0.11 C8.88 0.01, 47.78 -0.23, 57.17 0.08 M1.25 -1.21 C10.67 -0.91, 47.83 1.01, 56.74 1.18" stroke="#000000" stroke-width="1" fill="none"></path></g><g transform="translate(219.0556640625 41.141021728515625) rotate(0 28.27588947750627 -0.01344483463094548)"><path d="M58.59 -0.12 L42.46 6.91 L41.5 -6.45 L55.1 1.05" stroke="none" stroke-width="0" fill="#000000" fill-rule="evenodd"></path><path d="M56.61 2.41 C51.35 2.36, 49.1 4.73, 42.71 7.85 M56.75 0.82 C52.54 2.49, 47.79 4.62, 43.35 6.31 M43.18 6.47 C42.35 2.74, 43 -0.53, 42.29 -6.88 M43.27 7.23 C42.6 1.79, 43.38 -2.96, 43.27 -5.04 M42.09 -5.71 C47.74 -3.83, 52.73 -0.41, 57.81 2.59 M42.98 -6.02 C45.77 -4.29, 48.72 -3.14, 56.36 0.71 M56.74 1.18 C56.74 1.18, 56.74 1.18, 56.74 1.18 M56.74 1.18 C56.74 1.18, 56.74 1.18, 56.74 1.18" stroke="#000000" stroke-width="1" fill="none"></path></g></g><g stroke-linecap="round"><g transform="translate(397.6904899839361 86.60263061523438) rotate(0 -4.582229489077861 19.5967952747082)"><path d="M0.67 -1.02 C-0.68 5.52, -7.34 33.53, -9.24 40.21 M-0.44 1.06 C-1.79 7.14, -8.53 31.82, -9.83 38.32" stroke="#000000" stroke-width="1" fill="none"></path></g><g transform="translate(397.6904899839361 86.60263061523438) rotate(0 -4.582229489077861 19.5967952747082)"><path d="M-11.69 36.37 L-12.42 21.89 L0.16 24.86 L-8.5 39.54" stroke="none" stroke-width="0" fill="#000000" fill-rule="evenodd"></path><path d="M-11.11 39.16 C-10.02 34.32, -12.04 32.71, -13.44 23.32 M-9.79 37.66 C-11.09 32.4, -12.48 26.8, -12.46 24.15 M-12.14 22.91 C-8.58 23.94, -3.15 25.28, -1.04 25.93 M-12.8 23.41 C-9.88 24.13, -7.3 24.71, -0.05 26.69 M0.24 27.02 C-4 30.88, -5.45 35.78, -8.65 37.84 M-0.66 26.55 C-3.41 29.14, -5.64 32.3, -10.52 37.93 M-9.83 38.32 C-9.83 38.32, -9.83 38.32, -9.83 38.32 M-9.83 38.32 C-9.83 38.32, -9.83 38.32, -9.83 38.32" stroke="#000000" stroke-width="1" fill="none"></path></g></g><g stroke-linecap="round"><g transform="translate(380.65703631113615 196.79758858585654) rotate(0 -66.06126184051828 25.51403819217387)"><path d="M-1.04 0.18 C-23.2 8.42, -110.08 42.23, -132.13 50.62 M0.61 -0.78 C-21.72 8.13, -110.24 43.11, -132.74 51.81" stroke="#000000" stroke-width="1" fill="none"></path></g><g transform="translate(380.65703631113615 196.79758858585654) rotate(0 -66.06126184051828 25.51403819217387)"><path d="M-131.27 53.5 L-122.53 41.81 L-115.87 52.93 L-132.18 51.64" stroke="none" stroke-width="0" fill="#000000" fill-rule="evenodd"></path><path d="M-132.52 52.61 C-129.84 47.17, -126.14 43.82, -123.16 40.29 M-132.37 51.83 C-130.34 49, -127.66 45.91, -122.68 41.47 M-123.07 41.56 C-120.51 44.29, -119.06 49.46, -116.61 53.75 M-122.8 40.8 C-121.24 43.47, -120.22 46.72, -117.81 52.17 M-116.5 52.17 C-122.65 52.89, -126.37 52.79, -131.43 51.7 M-117.8 53.18 C-121.54 52.92, -124.16 51.97, -132.98 51.67 M-132.74 51.81 C-132.74 51.81, -132.74 51.81, -132.74 51.81 M-132.74 51.81 C-132.74 51.81, -132.74 51.81, -132.74 51.81" stroke="#000000" stroke-width="1" fill="none"></path></g></g><g stroke-linecap="round"><g transform="translate(396.71529277732975 195.61907814693325) rotate(0 85.76269468610741 15.252989130695767)"><path d="M-0.38 -0.62 C28.09 4.22, 143.42 24.77, 171.91 30 M1.62 1.67 C29.93 6.57, 143.54 26.07, 171.54 31.12" stroke="#000000" stroke-width="1" fill="none"></path></g><g transform="translate(396.71529277732975 195.61907814693325) rotate(0 85.76269468610741 15.252989130695767)"><path d="M170.52 29.79 L157.21 36.57 L158.26 20.86 L172.72 31.01" stroke="none" stroke-width="0" fill="#000000" fill-rule="evenodd"></path><path d="M170.77 32.51 C164.92 32.26, 160.16 32.71, 156.47 33.79 M171.61 31.37 C167.89 31.9, 162.42 33.5, 156.47 35.25 M157.83 34.83 C157.86 30.92, 157.82 26.03, 159.28 21.92 M156.46 34.4 C157.79 31.12, 158.46 27.78, 159.67 22.92 M157.75 23.5 C163.04 25.67, 163.77 25.51, 171.62 31.06 M159.88 22.48 C164.06 26.27, 168.26 28.89, 171.48 30.95 M171.54 31.12 C171.54 31.12, 171.54 31.12, 171.54 31.12 M171.54 31.12 C171.54 31.12, 171.54 31.12, 171.54 31.12" stroke="#000000" stroke-width="1" fill="none"></path></g></g><g stroke-linecap="round"><g transform="translate(567.0380937792638 294.72637176989485) rotate(0 -70.2179944851373 22.693884042227126)"><path d="M0.8 0.73 C-22.8 8.25, -117.63 36.95, -141.24 44.05 M-0.23 0.07 C-23.48 7.84, -115.29 37.98, -138.87 45.31" stroke="#000000" stroke-width="1" fill="none"></path></g><g transform="translate(567.0380937792638 294.72637176989485) rotate(0 -70.2179944851373 22.693884042227126)"><path d="M-137.73 43.31 L-126.2 36.68 L-124.06 49.16 L-138.29 47.3" stroke="none" stroke-width="0" fill="#000000" fill-rule="evenodd"></path><path d="M-137.96 44.49 C-135.78 41.54, -132.96 39.43, -127.04 36.13 M-138.91 45.79 C-136.32 43.79, -133.69 41.12, -127.55 35.84 M-128.17 36.36 C-127.65 39.12, -125.52 43.02, -124.69 48.21 M-127.73 35.1 C-126.63 40.47, -125.46 45.21, -124.03 47.59 M-123.01 46.43 C-130.8 46.52, -134.45 44.92, -140.13 46.2 M-123.42 46.69 C-128.39 46.9, -132.87 45.46, -138.81 44.88 M-138.87 45.31 C-138.87 45.31, -138.87 45.31, -138.87 45.31 M-138.87 45.31 C-138.87 45.31, -138.87 45.31, -138.87 45.31" stroke="#000000" stroke-width="1" fill="none"></path></g></g><g stroke-linecap="round"><g transform="translate(220.53948974609375 319.3299255371094) rotate(0 -4.80193030085411 44.34502925660462)"><path d="M-0.66 0.96 C-2.39 15.39, -8.62 72.54, -10.45 87 M1.2 0.41 C-0.58 14.97, -8.53 73.48, -10.8 88.28" stroke="#000000" stroke-width="1" fill="none"></path></g><g transform="translate(220.53948974609375 319.3299255371094) rotate(0 -4.80193030085411 44.34502925660462)"><path d="M-9.51 90.09 L-17.11 74.1 L-0.79 77.29 L-10.9 87.94" stroke="none" stroke-width="0" fill="#000000" fill-rule="evenodd"></path><path d="M-9.61 89.7 C-12.76 83.99, -13.09 79.76, -15.72 75.29 M-10.34 88.96 C-12.39 85.02, -12.21 82.03, -15.65 73.98 M-14.4 73.85 C-10.77 73.96, -4.71 74.52, -2.64 76.31 M-15.52 73.63 C-11.36 73.79, -8.63 74.42, -2.33 75.51 M-2.48 76.02 C-6.74 81.18, -8.53 86.72, -12.04 89.57 M-3.05 76.15 C-5.3 79.35, -5.95 81.73, -10.07 88.5 M-10.8 88.28 C-10.8 88.28, -10.8 88.28, -10.8 88.28 M-10.8 88.28 C-10.8 88.28, -10.8 88.28, -10.8 88.28" stroke="#000000" stroke-width="1" fill="none"></path></g></g><g stroke-linecap="round"><g transform="translate(574.4582978662979 297.272015992816) rotate(0 77.8982128009257 8.271124932388261)"><path d="M0.92 -0.81 C26.95 2.2, 130.05 14.57, 155.85 17.36 M-0.05 1.37 C25.85 4.09, 129.06 12.96, 154.88 15.53" stroke="#000000" stroke-width="1" fill="none"></path></g><g transform="translate(574.4582978662979 297.272015992816) rotate(0 77.8982128009257 8.271124932388261)"><path d="M153.53 14.94 L139.63 21.14 L142.42 9.3 L154.82 13.91" stroke="none" stroke-width="0" fill="#000000" fill-rule="evenodd"></path><path d="M153.86 15.48 C151.7 16.77, 146.07 18.53, 139.89 19.91 M154.28 15.85 C149.79 17.82, 145.76 18.35, 140.82 20.75 M141.74 19.54 C142.07 16.9, 141.6 14.24, 141.16 8.7 M140.74 21.22 C141.07 18.69, 141.01 16.13, 142.03 8.12 M141.79 8.19 C143.74 10.5, 147.64 12.12, 153.9 16.87 M141.73 8.4 C145.9 10.93, 150.85 12.11, 154.94 16.21 M154.88 15.53 C154.88 15.53, 154.88 15.53, 154.88 15.53 M154.88 15.53 C154.88 15.53, 154.88 15.53, 154.88 15.53" stroke="#000000" stroke-width="1" fill="none"></path></g></g><g stroke-linecap="round"><g transform="translate(737.3091125488281 429.67406561136977) rotate(0 -85.90010114158588 30.3125989791435)"><path d="M-0.04 1.18 C-28.71 11, -142.41 50.1, -171 59.88 M-1.52 0.75 C-30.4 10.19, -143.27 48.83, -171.76 58.38" stroke="#000000" stroke-width="1" fill="none"></path></g><g transform="translate(737.3091125488281 429.67406561136977) rotate(0 -85.90010114158588 30.3125989791435)"><path d="M-172.04 59.07 L-160.08 49.42 L-155.89 60.56 L-172.54 56.7" stroke="none" stroke-width="0" fill="#000000" fill-rule="evenodd"></path><path d="M-170.29 58.82 C-166.2 54.15, -162.13 50.7, -160.56 47.18 M-171.65 57.73 C-168.95 55.75, -166.6 53.18, -160.25 48.14 M-160.2 47.74 C-158.79 53.22, -159.48 56.23, -155.7 61.01 M-161.33 48.62 C-159.97 51.46, -159.11 55.04, -157.38 60.61 M-157.08 61.49 C-161.79 58.36, -167.55 58.8, -171.13 57.37 M-156.66 60.52 C-160.89 59.01, -164.98 58.8, -171.57 57.79 M-171.76 58.38 C-171.76 58.38, -171.76 58.38, -171.76 58.38 M-171.76 58.38 C-171.76 58.38, -171.76 58.38, -171.76 58.38" stroke="#000000" stroke-width="1" fill="none"></path></g></g><g stroke-linecap="round"><g transform="translate(550.6161991042579 574.4916381835939) rotate(0 4.670495112132869 12.448707606530832)"><path d="M0.11 1.09 C1.7 5.08, 9.07 19.18, 10.64 22.78 M-1.3 0.61 C0.12 4.9, 8.53 20.41, 10.19 24.29" stroke="#000000" stroke-width="1" fill="none"></path></g><g transform="translate(550.6161991042579 574.4916381835939) rotate(0 4.670495112132869 12.448707606530832)"><path d="M11.18 23.8 L1.3 17.53 L11.25 10.21 L10.04 22.56" stroke="none" stroke-width="0" fill="#000000" fill-rule="evenodd"></path><path d="M11.31 25.26 C6.43 21.04, 2.54 17.39, 1.74 16.04 M9.66 24.86 C7.58 21.91, 4.82 19.74, 1.14 16.36 M0.98 15.78 C2.37 14.89, 5.06 14.71, 10.65 11.86 M0.67 16.07 C2.18 15.25, 4.99 14.3, 9.51 12.17 M10.46 12.74 C10.42 14.51, 9.35 18.99, 10.48 24.83 M10.44 11.84 C9.91 15.41, 10.32 18.95, 10.48 24.46 M10.19 24.29 C10.19 24.29, 10.19 24.29, 10.19 24.29 M10.19 24.29 C10.19 24.29, 10.19 24.29, 10.19 24.29" stroke="#000000" stroke-width="1" fill="none"></path></g></g><g stroke-linecap="round"><g transform="translate(556.7583746285272 674.5782152375214) rotate(0 19.778151514927288 178.64519673515076)"><path d="M1.18 -0.25 C7.32 59.41, 30.9 297.83, 37 357.77 M0.33 -1.42 C6.84 58.36, 33.13 298.92, 39.22 358.71" stroke="#000000" stroke-width="1" fill="none"></path></g><g transform="translate(556.7583746285272 674.5782152375214) rotate(0 19.778151514927288 178.64519673515076)"><path d="M38.7 360.33 L31.34 344.8 L44.48 345.26 L39.7 357.09" stroke="none" stroke-width="0" fill="#000000" fill-rule="evenodd"></path><path d="M38.92 357.55 C35.42 354.58, 35.07 349.8, 31.04 345.02 M39.2 358.1 C36.58 354.18, 34.32 349.76, 30.88 345.47 M32.18 345.81 C35.72 345.19, 41.14 345.88, 44.53 343.46 M31.76 345.65 C34.45 345.18, 38.1 345.14, 44 344.74 M44.5 343.94 C41.27 350.7, 42.26 353.76, 39.52 358.32 M44.36 344.63 C43.7 347.69, 41.59 350.76, 39.93 358.9 M39.22 358.71 C39.22 358.71, 39.22 358.71, 39.22 358.71 M39.22 358.71 C39.22 358.71, 39.22 358.71, 39.22 358.71" stroke="#000000" stroke-width="1" fill="none"></path></g></g><g stroke-linecap="round"><g transform="translate(565.1950815944012 669.3413853141919) rotate(0 108.37828170407454 -7.514628184608512)"><path d="M0.83 0.41 C36.67 -2.24, 178.97 -12.96, 214.76 -15.44 M-0.19 -0.42 C36.04 -2.97, 181.13 -12.17, 216.94 -14.27" stroke="#000000" stroke-width="1" fill="none"></path></g><g transform="translate(565.1950815944012 669.3413853141919) rotate(0 108.37828170407454 -7.514628184608512)"><path d="M217.91 -13.28 L203.78 -5.15 L203.15 -21.53 L217.54 -14.04" stroke="none" stroke-width="0" fill="#000000" fill-rule="evenodd"></path><path d="M217.46 -15.52 C212.46 -12.47, 210.03 -9.54, 203.27 -7.33 M216.84 -14.01 C214.03 -11.96, 210.8 -10.5, 203.47 -7.73 M204.02 -7.44 C202.33 -12.04, 202.3 -16.44, 203.16 -18.61 M204.36 -6.94 C203.97 -11.45, 203.08 -15.2, 203.3 -19.91 M201.73 -19.86 C206.44 -17.92, 213.43 -14.83, 217.34 -13.9 M203.23 -19.6 C206.33 -17.84, 209.96 -17.47, 217.09 -13.99 M216.94 -14.27 C216.94 -14.27, 216.94 -14.27, 216.94 -14.27 M216.94 -14.27 C216.94 -14.27, 216.94 -14.27, 216.94 -14.27" stroke="#000000" stroke-width="1" fill="none"></path></g></g><g stroke-linecap="round"><g transform="translate(798.8878420958636 758.3222351074219) rotate(0 -32.77702667990923 33.3428295120317)"><path d="M-0.04 -0.71 C-10.79 10.42, -54.11 54.7, -64.79 65.77 M-1.52 1.54 C-12.36 12.96, -55.05 56.46, -65.52 67.39" stroke="#000000" stroke-width="1" fill="none"></path></g><g transform="translate(798.8878420958636 758.3222351074219) rotate(0 -32.77702667990923 33.3428295120317)"><path d="M-63.77 68.94 L-59.58 53.8 L-51.9 63.34 L-65.38 69" stroke="none" stroke-width="0" fill="#000000" fill-rule="evenodd"></path><path d="M-66.4 67.93 C-63.85 64.87, -62.56 58.92, -60.56 54.64 M-65.82 67.09 C-63.62 62.62, -62.11 58.58, -60.11 52.59 M-59.77 54.32 C-57.67 56.11, -55.98 59.53, -50.97 62.47 M-60.64 52.89 C-57.58 56.21, -54.63 58.3, -52.08 62.51 M-52.7 61.2 C-57.71 63.83, -62.94 65.46, -66.86 67.99 M-52.03 61.44 C-56.15 63.39, -60.48 66.08, -65.51 68.12 M-65.52 67.39 C-65.52 67.39, -65.52 67.39, -65.52 67.39 M-65.52 67.39 C-65.52 67.39, -65.52 67.39, -65.52 67.39" stroke="#000000" stroke-width="1" fill="none"></path></g></g><g stroke-linecap="round"><g transform="translate(704.8126220703125 908.5674133300781) rotate(0 -1.439040688294881 21.087456176541764)"><path d="M0.25 -0.31 C-0.28 6.66, -1.93 35.06, -2.69 42.2 M-1.08 -1.52 C-1.73 5.61, -2.41 36.12, -3.13 43.7" stroke="#000000" stroke-width="1" fill="none"></path></g><g transform="translate(704.8126220703125 908.5674133300781) rotate(0 -1.439040688294881 21.087456176541764)"><path d="M-2.03 42.45 L-10.16 30.05 L3.86 28.91 L-3.18 42.23" stroke="none" stroke-width="0" fill="#000000" fill-rule="evenodd"></path><path d="M-3.52 44.91 C-5.19 38.16, -6.7 34.76, -8.37 28.56 M-3.53 43.91 C-5 40.42, -5.86 37.75, -8.85 29.34 M-8.34 30.66 C-6.95 28.84, -3.38 29.11, 4.55 31.09 M-9.28 29.97 C-4.84 29.5, -1.35 30.46, 4.07 29.96 M4.2 31.73 C2.87 32.51, 1.64 36.66, -3.44 44.5 M4.52 30.84 C2.51 33.62, 1.04 37.08, -2.52 44 M-3.13 43.7 C-3.13 43.7, -3.13 43.7, -3.13 43.7 M-3.13 43.7 C-3.13 43.7, -3.13 43.7, -3.13 43.7" stroke="#000000" stroke-width="1" fill="none"></path></g></g><g stroke-linecap="round"><g transform="translate(692.40673828125 1019.9527282714844) rotate(0 -36.089781404752216 8.694374844059325)"><path d="M-0.7 -1.08 C-12.75 2.04, -60.61 15.14, -72.61 18.46 M1.13 0.97 C-11.01 3.74, -60.9 13.89, -73.31 16.56" stroke="#000000" stroke-width="1" fill="none"></path></g><g transform="translate(692.40673828125 1019.9527282714844) rotate(0 -36.089781404752216 8.694374844059325)"><path d="M-73.59 15.81 L-61.67 7.06 L-58.74 19.57 L-72.98 17.18" stroke="none" stroke-width="0" fill="#000000" fill-rule="evenodd"></path><path d="M-74.65 17.16 C-69.49 14.62, -65.67 10.64, -62.52 7.59 M-73.3 17.29 C-70.55 13.79, -67.66 12.49, -61.86 7.27 M-62.33 8.27 C-59.12 12.09, -58.41 16.49, -59.48 20.59 M-61.64 8 C-59.93 12.05, -59.33 15.74, -58.83 20.39 M-58.88 20.92 C-62.16 17.63, -67.04 17.51, -73.08 16.23 M-57.99 20.2 C-61.67 19.84, -65.42 17.93, -73.14 16.63 M-73.31 16.56 C-73.31 16.56, -73.31 16.56, -73.31 16.56 M-73.31 16.56 C-73.31 16.56, -73.31 16.56, -73.31 16.56" stroke="#000000" stroke-width="1" fill="none"></path></g></g><g stroke-linecap="round"><g transform="translate(739.7714660933132 432.4632689549967) rotate(0 28.333666546609606 106.00329542057096)"><path d="M0.84 -1.09 C10.34 34.08, 47.56 176.25, 56.84 211.74 M-0.17 0.96 C9.22 36.23, 46.83 177.75, 56.17 213.09" stroke="#000000" stroke-width="1" fill="none"></path></g><g transform="translate(739.7714660933132 432.4632689549967) rotate(0 28.333666546609606 106.00329542057096)"><path d="M54.24 211.36 L47.57 200.58 L58.87 196.37 L58.02 213.46" stroke="none" stroke-width="0" fill="#000000" fill-rule="evenodd"></path><path d="M54.81 213.74 C52.9 210.07, 50.23 205.71, 47.93 201.63 M56.86 213.57 C51.96 208.79, 48.6 203.62, 46.44 202.12 M46.72 201.53 C49.94 200.48, 54.34 199.02, 57.74 197.44 M47.07 201.07 C51.7 200.21, 55.88 198.91, 58.58 198.21 M59.06 198.8 C58.99 202.1, 57.18 205.52, 55.91 213.55 M59.24 198.27 C57.98 201.72, 57.33 205.46, 55.86 213.69 M56.17 213.09 C56.17 213.09, 56.17 213.09, 56.17 213.09 M56.17 213.09 C56.17 213.09, 56.17 213.09, 56.17 213.09" stroke="#000000" stroke-width="1" fill="none"></path></g></g><g stroke-linecap="round"><g transform="translate(374.729736328125 396.3750305175781) rotate(0 -64.64006949913687 16.886499888272965)"><path d="M-0.71 0.54 C-22.43 6.32, -108.84 28.39, -130.4 33.99 M1.12 -0.22 C-20.24 5.26, -106.18 26.73, -128.22 32.12" stroke="#000000" stroke-width="1" fill="none"></path></g><g transform="translate(374.729736328125 396.3750305175781) rotate(0 -64.64006949913687 16.886499888272965)"><path d="M-128.03 33.49 L-116.73 23.34 L-113.27 35.7 L-126.63 31.68" stroke="none" stroke-width="0" fill="#000000" fill-rule="evenodd"></path><path d="M-127.54 30.85 C-124.12 28.58, -120.46 26.41, -115.38 22.87 M-127.79 31.42 C-126.1 30.07, -123 27.27, -116.68 23.08 M-115.66 23.92 C-116.04 26.61, -114.26 32.01, -113.05 35.71 M-116.09 22.1 C-115.73 26.6, -114.58 30.92, -114.09 34.68 M-112.71 34.61 C-118.95 33.45, -123.88 31.6, -128.09 30.72 M-113.41 35.72 C-118.89 33.97, -122.9 33.08, -128.9 32.17 M-128.22 32.12 C-128.22 32.12, -128.22 32.12, -128.22 32.12 M-128.22 32.12 C-128.22 32.12, -128.22 32.12, -128.22 32.12" stroke="#000000" stroke-width="1" fill="none"></path></g></g><g transform="translate(853.77734375 986.8571472167969) rotate(0 72.5 11.5)"><text x="72.5" y="17" font-family="Virgil, Segoe UI Emoji" font-size="16px" fill="#000000" text-anchor="middle" style="white-space: pre;" direction="ltr">还存在外层查询吗？</text></g><g stroke-linecap="round" transform="translate(831.3572998046875 953.5810241699219) rotate(0 83.3797607421875 43.8587646484375)"><path d="M84.14 -0.4 C112.99 15.38, 141.05 29.03, 167.67 43.17 M84.26 -0.55 C114.88 17.32, 145.59 32.39, 166.09 44.11 M165.89 43.27 C139.12 59.31, 110.88 73.4, 84.31 88.39 M166.5 44.98 C142.24 57.39, 119.41 70.41, 84.92 87.69 M82.89 87.42 C65.46 80.22, 50.35 69.19, 1.86 45.69 M83.48 86.82 C61.45 76.67, 38.55 63.03, -0.18 43.48 M0.3 45.98 C24.47 33.83, 49.17 18.17, 84.36 0.5 M-0.22 44.13 C24.83 30.48, 47.34 19.43, 83.13 0.83" stroke="#000000" stroke-width="1" fill="none"></path></g><g stroke-linecap="round"><g transform="translate(806.1307373046875 762.6084899902344) rotate(0 54.25662167562166 92.75940948463983)"><path d="M-0.63 -0.97 C17.3 30.16, 88.96 155.39, 106.97 186.49 M1.24 1.13 C19.59 31.93, 91.62 153.69, 109.14 184.63" stroke="#000000" stroke-width="1" fill="none"></path></g><g transform="translate(806.1307373046875 762.6084899902344) rotate(0 54.25662167562166 92.75940948463983)"><path d="M110.02 185.98 L95.61 177.13 L107.52 169.14 L110.46 185.05" stroke="none" stroke-width="0" fill="#000000" fill-rule="evenodd"></path><path d="M107.93 183.34 C106.72 181.71, 102.57 179.27, 97.6 176.73 M108.42 184.31 C106.76 183.16, 103.78 180.7, 96.75 175.76 M96.72 175.21 C101.45 173.13, 106.22 170.71, 107.03 169.88 M96.54 175.45 C101.71 174.14, 105.34 170.49, 108.12 169.08 M107.45 170.46 C109.1 174.14, 108 181.57, 108.32 184.46 M107.47 170.33 C108.77 172.99, 108.07 178.24, 109.86 185.27 M109.14 184.63 C109.14 184.63, 109.14 184.63, 109.14 184.63 M109.14 184.63 C109.14 184.63, 109.14 184.63, 109.14 184.63" stroke="#000000" stroke-width="1" fill="none"></path></g></g><g stroke-linecap="round"><g transform="translate(1006.3092041015625 993.663181704811) rotate(0 -52.34778218034364 -316.19010906793096)"><path d="M1.12 0.59 C5.96 -8.51, 37.94 0.05, 28.05 -54.5 C18.16 -109.05, -42.64 -234.96, -58.21 -326.73 C-73.79 -418.49, -52.68 -555.2, -65.39 -605.09 C-78.11 -654.98, -123.31 -622.39, -134.53 -626.09 M0.26 -0.14 C5.04 -9.12, 36.57 1.38, 27.21 -53.36 C17.85 -108.11, -40.47 -236.87, -55.92 -328.61 C-71.38 -420.35, -52.72 -554.33, -65.52 -603.83 C-78.33 -653.32, -121.26 -622.03, -132.74 -625.58" stroke="#000000" stroke-width="1" fill="none"></path></g><g transform="translate(1006.3092041015625 993.663181704811) rotate(0 -52.34778218034364 -316.19010906793096)"><path d="M-131.94 -625.98 L-119.55 -633.42 L-116.48 -620.08 L-130.89 -626.73" stroke="none" stroke-width="0" fill="#000000" fill-rule="evenodd"></path><path d="M-132 -625.33 C-131.02 -629.03, -126.29 -630.38, -120.1 -635.19 M-132.51 -626.01 C-128.8 -628.09, -125.39 -631.68, -120.75 -634.43 M-120.68 -635.34 C-119.2 -629.35, -119.75 -625.07, -117.9 -621.36 M-121.06 -633.87 C-119.92 -630.62, -119.72 -627.38, -118.2 -621.98 M-119.46 -621.46 C-124.62 -624.5, -129.14 -624.58, -134.1 -624.23 M-118.81 -621.77 C-121.66 -622.66, -125.62 -622.89, -132.48 -625.13 M-132.74 -625.58 C-132.74 -625.58, -132.74 -625.58, -132.74 -625.58 M-132.74 -625.58 C-132.74 -625.58, -132.74 -625.58, -132.74 -625.58" stroke="#000000" stroke-width="1" fill="none"></path></g></g><g stroke-linecap="round"><g transform="translate(769.003173828125 995.7820739746094) rotate(0 24.9767761680763 1.8521733769961202)"><path d="M0.67 0.9 C9.26 1.22, 42.37 1.8, 50.39 1.94 M-0.44 0.33 C8.16 0.84, 41.23 2.96, 49.84 3.38" stroke="#000000" stroke-width="1" fill="none"></path></g><g transform="translate(769.003173828125 995.7820739746094) rotate(0 24.9767761680763 1.8521733769961202)"><path d="M50.3 4.33 L35.59 7.96 L37.91 -2.43 L49.53 4.64" stroke="none" stroke-width="0" fill="#000000" fill-rule="evenodd"></path><path d="M50.97 4.33 C46.77 3.54, 43.63 5.54, 35.39 10.33 M49.27 3.14 C47.62 3.91, 44.54 6.13, 36.29 8.65 M35.38 9.12 C36.66 5.13, 37.29 0.63, 35.69 -3.21 M36.17 8.5 C35.88 5.52, 36.57 3.08, 36.79 -3.56 M37.38 -4.67 C39.09 -2.12, 42.85 -2.13, 49.04 3.48 M36.95 -3.19 C39.64 -2.36, 43.55 0.62, 49.45 3.57 M49.84 3.38 C49.84 3.38, 49.84 3.38, 49.84 3.38 M49.84 3.38 C49.84 3.38, 49.84 3.38, 49.84 3.38" stroke="#000000" stroke-width="1" fill="none"></path></g></g><g transform="translate(1098.4403076171875 1374.4147338867188) rotate(0 82.5 23)"><text x="0" y="17" font-family="Virgil, Segoe UI Emoji" font-size="16px" fill="#000000" text-anchor="start" style="white-space: pre;" direction="ltr">调用set_properties，</text><text x="0" y="40" font-family="Virgil, Segoe UI Emoji" font-size="16px" fill="#000000" text-anchor="start" style="white-space: pre;" direction="ltr">设置标识符属性</text></g><g stroke-linecap="round" transform="translate(1096.2889404296875 1365.1030883789062) rotate(0 81.15966796875 30.338043212890625)"><path d="M1.69 -0.67 C55.02 -0.02, 108.72 -1.01, 160.47 1.91 M-0.81 0.22 C38.9 0.65, 76.62 0.06, 163.16 -0.11 M163.36 -0.64 C162.02 15.06, 163.8 28.94, 161.28 60.3 M161.84 0.18 C162.49 17.69, 162.66 36.46, 162.41 60.07 M161.83 61.13 C113.72 59.04, 63.18 59.53, -0.06 58.86 M163.19 60.78 C105.55 61.99, 49.87 62.85, -0.62 61.56 M0.62 59.36 C0.94 45.31, 0.28 29.86, 1.31 -0.62 M0.48 60.65 C0 45.38, 1.06 30.79, 0.08 0.75" stroke="#000000" stroke-width="1" fill="none"></path></g><g transform="translate(808.1136474609375 1115.4483947753906) rotate(0 81.5 23)"><text x="81.5" y="17" font-family="Virgil, Segoe UI Emoji" font-size="16px" fill="#000000" text-anchor="middle" style="white-space: pre;" direction="ltr">是从外层from table中</text><text x="81.5" y="40" font-family="Virgil, Segoe UI Emoji" font-size="16px" fill="#000000" text-anchor="middle" style="white-space: pre;" direction="ltr">找到的吗？</text></g><g stroke-linecap="round" transform="translate(771.1640014648438 1084.5358276367188) rotate(0 117.49429321289062 47.34950256347656)"><path d="M116.97 -1.35 C161.21 19.3, 205.92 35.51, 234.52 49.3 M118.66 -0.82 C156.44 14.31, 194.53 31.16, 235.19 48.14 M234.72 46.79 C192.96 63.57, 145.84 81.25, 118.61 95.81 M235.6 47.95 C205.19 60.45, 176.73 73.07, 118.67 93.8 M117.01 94.49 C85.96 78.63, 52.09 67.75, 1.01 46.89 M118.66 94.8 C77.05 78.82, 35.35 63.82, -0.86 48.3 M-1.28 48.68 C27.06 37.47, 55.45 24.28, 119.8 -0.06 M0.97 48.3 C46.31 28.65, 90.88 10.72, 117.19 -0.01" stroke="#000000" stroke-width="1" fill="none"></path></g><g transform="translate(730.6964111328125 1239.4636535644531) rotate(0 73.5 23)"><text x="73.5" y="17" font-family="Virgil, Segoe UI Emoji" font-size="16px" fill="#000000" text-anchor="middle" style="white-space: pre;" direction="ltr">创建一个Item_field</text><text x="73.5" y="40" font-family="Virgil, Segoe UI Emoji" font-size="16px" fill="#000000" text-anchor="middle" style="white-space: pre;" direction="ltr">代替此Item_ref</text></g><g stroke-linecap="round" transform="translate(726.9074096679688 1233.0708923339844) rotate(0 79.90444946289062 29.45074462890625)"><path d="M-0.58 -0.56 C45.24 1.17, 92.82 1.05, 160.54 1.46 M0.43 -0.27 C51.6 0.55, 102.72 0, 159.14 -0.61 M158 1.86 C158.39 15.4, 158.87 29.07, 159.11 60.03 M160.01 -0.6 C158.91 17.35, 159.1 34.44, 160.56 58.79 M158.29 60.02 C122.2 58.76, 83.38 56.99, 0.76 60.41 M159.19 58.99 C121.13 58.19, 81.29 57.12, -0.09 58.56 M1.76 58.41 C-0.59 41.63, -0.95 21.76, -0.18 -0.96 M0.33 59.21 C-0.23 36.46, -0.37 13.14, 0.55 -0.11" stroke="#000000" stroke-width="1" fill="none"></path></g><g transform="translate(961.5709228515625 1348.2919006347656) rotate(0 35.5 10)"><text x="35.5" y="14" font-family="Virgil, Segoe UI Emoji" font-size="16px" fill="#000000" text-anchor="middle" style="white-space: pre;" direction="ltr">bad field</text></g><g stroke-linecap="round" transform="translate(953.7178955078125 1338.5997009277344) rotate(0 41.0570068359375 17.696929931640625)"><path d="M-0.95 1.66 C31.59 0.44, 64.51 -1.51, 81.84 0.41 M-0.47 -0.49 C20.44 -0.02, 38.74 -0.21, 82.13 -0.76 M81.13 -1.94 C82.89 14.1, 81.06 26.67, 80.44 34.15 M82.31 -0.44 C82.27 10.58, 82.51 22.11, 82.64 36.27 M81.31 35.45 C59.32 34.97, 38.56 35.08, -0.72 36.05 M81.49 34.84 C55.47 35.42, 26.72 35.9, -0.1 34.81 M1.08 34.42 C-1.18 21.17, -1.76 10.72, 1.25 -1.29 M0.2 36.04 C0.74 21.14, 0.91 7.5, -0.83 0.98" stroke="#000000" stroke-width="1" fill="none"></path></g><g transform="translate(940.7914428710938 1506.4424133300781) rotate(0 13.5 10)"><text x="13.5" y="14" font-family="Virgil, Segoe UI Emoji" font-size="16px" fill="#000000" text-anchor="middle" style="white-space: pre;" direction="ltr">end</text></g><g stroke-linecap="round" transform="translate(937.43017578125 1499.0464782714844) rotate(0 20.20013427734375 15.619781494140625)"><path d="M20.86 0.75 C25.11 0.78, 30.4 2.15, 33.6 4.26 C36.8 6.38, 39.49 10.3, 40.05 13.44 C40.61 16.59, 39.15 20.39, 36.96 23.14 C34.76 25.9, 30.83 28.75, 26.87 29.99 C22.92 31.24, 17.28 31.6, 13.23 30.61 C9.19 29.61, 4.93 26.86, 2.62 24.01 C0.3 21.17, -1.51 16.83, -0.66 13.54 C0.19 10.24, 3.9 6.41, 7.7 4.23 C11.5 2.06, 19.57 1.26, 22.13 0.48 C24.69 -0.3, 23.15 -0.67, 23.07 -0.45 M22.9 -0.3 C26.83 -0.04, 32.8 3.37, 35.59 5.92 C38.39 8.47, 39.44 11.95, 39.67 15 C39.89 18.06, 39.65 21.42, 36.94 24.27 C34.24 27.12, 27.8 31.05, 23.41 32.1 C19.02 33.16, 14.19 32.18, 10.6 30.59 C7.01 29, 3.67 25.72, 1.85 22.57 C0.03 19.43, -1.61 15.21, -0.3 11.73 C1.01 8.24, 5.7 3.78, 9.72 1.65 C13.75 -0.48, 21.82 -1.01, 23.86 -1.05 C25.9 -1.08, 22.18 0.99, 21.97 1.46" stroke="#000000" stroke-width="1" fill="none"></path></g><g transform="translate(1031.356201171875 1224.4230651855469) rotate(0 88 23)"><text x="88" y="17" font-family="Virgil, Segoe UI Emoji" font-size="16px" fill="#000000" text-anchor="middle" style="white-space: pre;" direction="ltr">从外层select和group by</text><text x="88" y="40" font-family="Virgil, Segoe UI Emoji" font-size="16px" fill="#000000" text-anchor="middle" style="white-space: pre;" direction="ltr">子句中找到了吗</text></g><g stroke-linecap="round" transform="translate(980.26025390625 1195.3077392578125) rotate(0 136.46539306640625 46.230987548828125)"><path d="M138.37 -1.17 C178.67 12.57, 219.59 28.46, 273.34 47.1 M136.95 0.11 C191.2 18.46, 244.95 37.46, 273.35 47.49 M271.33 46.68 C223.34 65.48, 172.2 78.77, 136.58 94.41 M272.21 47.2 C225.83 64, 179.06 79.66, 136.16 93.34 M136.83 91.92 C104.9 84.05, 73.93 72.65, 1.06 46.83 M136.56 92.41 C103.04 82.87, 69.27 71.56, 0.05 47.65 M0.36 45.59 C39.12 33.15, 80.14 20.17, 138.37 -1.59 M0.98 46.47 C55.08 27.12, 109.26 8.84, 137.59 -0.2" stroke="#000000" stroke-width="1" fill="none"></path></g><g stroke-linecap="round"><g transform="translate(915.1852994726491 1046.8640595920654) rotate(0 -11.200067854568601 15.041480533399522)"><path d="M0.41 -1.04 C-3.38 3.89, -18.09 24.6, -22.11 30.1 M-0.83 1.02 C-4.8 6.03, -19.39 26.29, -22.81 31.13" stroke="#000000" stroke-width="1" fill="none"></path></g><g transform="translate(915.1852994726491 1046.8640595920654) rotate(0 -11.200067854568601 15.041480533399522)"><path d="M-21.02 31.53 L-18.62 16.87 L-10.69 24.87 L-20.86 29.98" stroke="none" stroke-width="0" fill="#000000" fill-rule="evenodd"></path><path d="M-24.12 31.7 C-23.1 24.49, -19.83 19.26, -19.48 17.82 M-22.73 31.42 C-22.06 27.95, -21.93 24.25, -19.47 16.64 M-20.89 15.4 C-18.57 17.21, -15.82 19.91, -8.7 23.29 M-20.31 16.29 C-17.48 17.79, -15.78 20.13, -10 24.37 M-9.53 24.15 C-11.9 25.13, -17.58 29.21, -22.2 32.52 M-10.05 23.42 C-13.12 26.05, -15.45 27.47, -23.55 30.46 M-22.81 31.13 C-22.81 31.13, -22.81 31.13, -22.81 31.13 M-22.81 31.13 C-22.81 31.13, -22.81 31.13, -22.81 31.13" stroke="#000000" stroke-width="1" fill="none"></path></g></g><g stroke-linecap="round"><g transform="translate(881.2994325518562 1193.2393940447223) rotate(0 -31.974243884420957 16.013893118298142)"><path d="M-0.9 -0.79 C-11.56 4.59, -54.13 26.26, -64.78 31.74 M0.83 1.4 C-9.4 6.96, -52.02 27.54, -62.55 32.82" stroke="#000000" stroke-width="1" fill="none"></path></g><g transform="translate(881.2994325518562 1193.2393940447223) rotate(0 -31.974243884420957 16.013893118298142)"><path d="M-63.87 33.43 L-52.11 19.8 L-49.38 33.8 L-63.32 31.28" stroke="none" stroke-width="0" fill="#000000" fill-rule="evenodd"></path><path d="M-63.55 31.66 C-61.37 28.98, -58.76 27.37, -51.92 20.58 M-62.86 32.71 C-60 29.87, -58.61 28.01, -53.46 21.85 M-52.97 21.46 C-50.36 23.64, -50.55 28.52, -47.04 33.7 M-53.41 20.84 C-52.26 24.19, -50.52 26.54, -48.18 31.95 M-46.47 31.52 C-50.8 33.05, -56.41 33.96, -62.21 32.63 M-46.85 32.08 C-52.65 32.1, -57.4 32.36, -62.39 32.57 M-62.55 32.82 C-62.55 32.82, -62.55 32.82, -62.55 32.82 M-62.55 32.82 C-62.55 32.82, -62.55 32.82, -62.55 32.82" stroke="#000000" stroke-width="1" fill="none"></path></g></g><g stroke-linecap="round"><g transform="translate(839.2896118164062 1300.2882995605469) rotate(0 54.26506674973302 95.22226851906635)"><path d="M1.05 0.49 C19.21 32.19, 90.53 157.97, 108.39 189.69 M0.14 -0.3 C18.3 31.57, 90.06 158.65, 108.03 190.74" stroke="#000000" stroke-width="1" fill="none"></path></g><g transform="translate(839.2896118164062 1300.2882995605469) rotate(0 54.26506674973302 95.22226851906635)"><path d="M108.79 191.17 L94.78 183.99 L108.17 175.72 L106.74 191.37" stroke="none" stroke-width="0" fill="#000000" fill-rule="evenodd"></path><path d="M108.64 192.14 C103.84 189.81, 102.18 185.85, 95.14 180.95 M107.29 190.08 C103.1 188.08, 99.18 184.65, 95.34 182.38 M96.13 181.84 C99.49 179.15, 103.32 179.09, 106.16 174.87 M95.97 181.79 C98.98 180.77, 101.39 179.38, 106.58 176.14 M106.28 175.65 C107.48 181.73, 106.85 187.87, 109.41 190.45 M107.12 175.1 C106.89 180.78, 108.14 184.83, 107.34 191.23 M108.03 190.74 C108.03 190.74, 108.03 190.74, 108.03 190.74 M108.03 190.74 C108.03 190.74, 108.03 190.74, 108.03 190.74" stroke="#000000" stroke-width="1" fill="none"></path></g></g><g stroke-linecap="round"><g transform="translate(897.4441372888084 1187.9359456611503) rotate(0 99.49947112001382 2.994082371399486)"><path d="M-0.46 -0.93 C32.96 0.1, 166.06 5.88, 199.46 6.91 M1.5 1.2 C34.82 1.8, 165.3 4.29, 198.25 5.09" stroke="#000000" stroke-width="1" fill="none"></path></g><g transform="translate(897.4441372888084 1187.9359456611503) rotate(0 99.49947112001382 2.994082371399486)"><path d="M199.72 5.61 L183.38 10.99 L186.46 -0.39 L198.87 5.06" stroke="none" stroke-width="0" fill="#000000" fill-rule="evenodd"></path><path d="M197.09 4.47 C196.14 6.31, 191.21 9.01, 183.07 11.56 M198.44 5.34 C193.9 6.95, 189.01 8.69, 183.9 11.54 M184.8 10.47 C185.8 7.47, 184.6 1.35, 185.19 -2.42 M184.15 10.69 C185.01 8.52, 185.23 4.99, 184.75 -1.67 M186.24 -2.38 C189.51 2.1, 195.9 4.51, 199.69 6.32 M184.58 -1.98 C189.03 1.3, 193.65 2.88, 198.48 5.76 M198.25 5.09 C198.25 5.09, 198.25 5.09, 198.25 5.09 M198.25 5.09 C198.25 5.09, 198.25 5.09, 198.25 5.09" stroke="#000000" stroke-width="1" fill="none"></path></g></g><g stroke-linecap="round"><g transform="translate(1109.5751684178974 1293.0333415815135) rotate(0 -57.9439736279046 18.47240106381969)"><path d="M-0.92 -0.7 C-20.23 5.77, -97.63 31.21, -116.69 37.65 M0.8 1.54 C-18.06 7.76, -95 30.06, -114.43 35.82" stroke="#000000" stroke-width="1" fill="none"></path></g><g transform="translate(1109.5751684178974 1293.0333415815135) rotate(0 -57.9439736279046 18.47240106381969)"><path d="M-114.19 37.78 L-102.78 26.85 L-98.06 36.43 L-114.58 36.14" stroke="none" stroke-width="0" fill="#000000" fill-rule="evenodd"></path><path d="M-115.31 34.76 C-111.04 34.33, -108.06 30.61, -103.26 25.59 M-113.71 35.39 C-110.3 32.74, -105.44 29.09, -102.45 26.52 M-103.52 25.15 C-102.43 31.06, -101.05 34.04, -99.21 39.21 M-103.34 26.32 C-102.38 29.28, -101.84 32.76, -99.25 38.21 M-100.4 37.38 C-104.14 38.66, -106.9 36.65, -115.91 37.3 M-99.65 38.7 C-104.71 37.38, -110.69 36.65, -115.16 35.61 M-114.43 35.82 C-114.43 35.82, -114.43 35.82, -114.43 35.82 M-114.43 35.82 C-114.43 35.82, -114.43 35.82, -114.43 35.82" stroke="#000000" stroke-width="1" fill="none"></path></g></g><g stroke-linecap="round"><g transform="translate(986.3507080078125 1382.7698059082031) rotate(0 -8.652415517587201 51.30451075466351)"><path d="M-0.21 -0.02 C-2.87 17.09, -13.51 86.75, -16.34 103.68 M-1.78 -1.07 C-4.53 16.25, -14.36 84.88, -17.1 102.12" stroke="#000000" stroke-width="1" fill="none"></path></g><g transform="translate(986.3507080078125 1382.7698059082031) rotate(0 -8.652415517587201 51.30451075466351)"><path d="M-17.98 100.83 L-20.04 86.76 L-7.11 88.36 L-15.61 101.77" stroke="none" stroke-width="0" fill="#000000" fill-rule="evenodd"></path><path d="M-17.12 102.58 C-17.02 97.64, -20.78 94.5, -21.75 88.71 M-16.45 102.53 C-18.24 97.28, -20.19 92.91, -21.75 87.39 M-21.58 86.48 C-17.33 89.13, -15.52 87.89, -8.9 90.67 M-21.05 87.11 C-17.04 88.77, -12.42 88.71, -8.21 89.08 M-8.45 89.72 C-12.96 93.49, -13.61 98.92, -16.26 100.98 M-9.18 89.74 C-10.32 92.42, -11.63 95.13, -16.74 102.69 M-17.1 102.12 C-17.1 102.12, -17.1 102.12, -17.1 102.12 M-17.1 102.12 C-17.1 102.12, -17.1 102.12, -17.1 102.12" stroke="#000000" stroke-width="1" fill="none"></path></g></g><g stroke-linecap="round"><g transform="translate(1127.2161955295928 1295.6309787283158) rotate(0 13.963750974108734 28.668451333148482)"><path d="M0.98 -0.51 C5.72 9.36, 23.17 48.11, 27.89 58.24 M0.04 -1.82 C4.65 8.23, 21.97 49.12, 26.83 59.16" stroke="#000000" stroke-width="1" fill="none"></path></g><g transform="translate(1127.2161955295928 1295.6309787283158) rotate(0 13.963750974108734 28.668451333148482)"><path d="M24.88 57.31 L17.3 49.68 L27.03 42.71 L28.41 57.46" stroke="none" stroke-width="0" fill="#000000" fill-rule="evenodd"></path><path d="M26.19 58.89 C22.54 58.25, 22.24 54.66, 14.62 49.24 M26.81 59.51 C21.69 55.23, 18.5 51.63, 15.04 50.07 M14.78 49.66 C18.04 46.97, 20.36 47.55, 28.11 44.86 M15.94 49.04 C18.22 48.47, 20.78 47.68, 27.16 44.46 M27.28 43.16 C26.52 48.55, 25.82 55.45, 26.4 58.74 M27.4 44.6 C26.92 49.12, 27.09 55.35, 27.24 58.72 M26.83 59.16 C26.83 59.16, 26.83 59.16, 26.83 59.16 M26.83 59.16 C26.83 59.16, 26.83 59.16, 26.83 59.16" stroke="#000000" stroke-width="1" fill="none"></path></g></g><g stroke-linecap="round"><g transform="translate(1107.4777078172801 1434.7619934082031) rotate(0 -65.00729908705489 27.75656230412926)"><path d="M0.56 -1.17 C-21.08 8.28, -107.82 47.27, -129.45 56.68 M-0.61 0.83 C-22.46 9.94, -109.01 45.69, -130.57 54.92" stroke="#000000" stroke-width="1" fill="none"></path></g><g transform="translate(1107.4777078172801 1434.7619934082031) rotate(0 -65.00729908705489 27.75656230412926)"><path d="M-128.87 56.21 L-119.47 43.09 L-117.39 56.41 L-129.15 53.06" stroke="none" stroke-width="0" fill="#000000" fill-rule="evenodd"></path><path d="M-132.03 54.51 C-126.37 51.1, -124.76 48.94, -121.75 44.16 M-130.52 54.18 C-127.43 51.71, -123.59 48.39, -121.06 43.16 M-120.28 44.31 C-118.94 48.22, -117.53 50.71, -114.61 54.47 M-120.62 43.28 C-119.43 47.26, -117.78 50.51, -115.11 55.17 M-115.51 54.2 C-119.6 55.34, -123.93 54.37, -131.49 54.26 M-114.95 55.04 C-118.56 55.17, -121.93 54.45, -129.97 54.5 M-130.57 54.92 C-130.57 54.92, -130.57 54.92, -130.57 54.92 M-130.57 54.92 C-130.57 54.92, -130.57 54.92, -130.57 54.92" stroke="#000000" stroke-width="1" fill="none"></path></g></g><g transform="translate(290.0709228515625 196.94644165039062) rotate(0 13 10)"><text x="13" y="14" font-family="Virgil, Segoe UI Emoji" font-size="16px" fill="#000000" text-anchor="middle" style="white-space: pre;" direction="ltr">yes</text></g><g transform="translate(475.0709228515625 188.94644165039062) rotate(0 9 10)"><text x="9" y="14" font-family="Virgil, Segoe UI Emoji" font-size="16px" fill="#000000" text-anchor="middle" style="white-space: pre;" direction="ltr">no</text></g><g transform="translate(476.0709228515625 291.7411193847656) rotate(0 9 10)"><text x="9" y="14" font-family="Virgil, Segoe UI Emoji" font-size="16px" fill="#000000" text-anchor="middle" style="white-space: pre;" direction="ltr">no</text></g><g transform="translate(639.528076171875 279.1980895996094) rotate(0 13 10)"><text x="13" y="14" font-family="Virgil, Segoe UI Emoji" font-size="16px" fill="#000000" text-anchor="middle" style="white-space: pre;" direction="ltr">yes</text></g><g transform="translate(629.5709228515625 435.8399963378906) rotate(0 8.5 11.5)"><text x="8.5" y="17" font-family="Virgil, Segoe UI Emoji" font-size="16px" fill="#000000" text-anchor="middle" style="white-space: pre;" direction="ltr">能</text></g><g transform="translate(776.5428466796875 509.6686096191406) rotate(0 16.5 11.5)"><text x="16.5" y="17" font-family="Virgil, Segoe UI Emoji" font-size="16px" fill="#000000" text-anchor="middle" style="white-space: pre;" direction="ltr">不能</text></g><g transform="translate(530.0709228515625 747.1974182128906) rotate(0 13 10)"><text x="13" y="14" font-family="Virgil, Segoe UI Emoji" font-size="16px" fill="#000000" text-anchor="middle" style="white-space: pre;" direction="ltr">yes</text></g><g transform="translate(648.0709228515625 637.1974182128906) rotate(0 9 10)"><text x="9" y="14" font-family="Virgil, Segoe UI Emoji" font-size="16px" fill="#000000" text-anchor="middle" style="white-space: pre;" direction="ltr">no</text></g><g transform="translate(736.5709228515625 765.7916564941406) rotate(0 8.5 11.5)"><text x="8.5" y="17" font-family="Virgil, Segoe UI Emoji" font-size="16px" fill="#000000" text-anchor="middle" style="white-space: pre;" direction="ltr">能</text></g><g transform="translate(847.5709228515625 812.7916564941406) rotate(0 16.5 11.5)"><text x="16.5" y="17" font-family="Virgil, Segoe UI Emoji" font-size="16px" fill="#000000" text-anchor="middle" style="white-space: pre;" direction="ltr">不能</text></g><g transform="translate(634.842529296875 1004.6772766113281) rotate(0 13 10)"><text x="13" y="14" font-family="Virgil, Segoe UI Emoji" font-size="16px" fill="#000000" text-anchor="middle" style="white-space: pre;" direction="ltr">yes</text></g><g transform="translate(775.0709228515625 970.7916564941406) rotate(0 9 10)"><text x="9" y="14" font-family="Virgil, Segoe UI Emoji" font-size="16px" fill="#000000" text-anchor="middle" style="white-space: pre;" direction="ltr">no</text></g><g transform="translate(1041.0709228515625 950.2367248535156) rotate(0 13 10)"><text x="13" y="14" font-family="Virgil, Segoe UI Emoji" font-size="16px" fill="#000000" text-anchor="middle" style="white-space: pre;" direction="ltr">yes</text></g><g transform="translate(912.0709228515625 1050.3099670410156) rotate(0 9 10)"><text x="9" y="14" font-family="Virgil, Segoe UI Emoji" font-size="16px" fill="#000000" text-anchor="middle" style="white-space: pre;" direction="ltr">no</text></g><g transform="translate(821.0709228515625 1182.5355529785156) rotate(0 13 10)"><text x="13" y="14" font-family="Virgil, Segoe UI Emoji" font-size="16px" fill="#000000" text-anchor="middle" style="white-space: pre;" direction="ltr">yes</text></g><g transform="translate(992.0709228515625 1166.5355529785156) rotate(0 9 10)"><text x="9" y="14" font-family="Virgil, Segoe UI Emoji" font-size="16px" fill="#000000" text-anchor="middle" style="white-space: pre;" direction="ltr">no</text></g><g transform="translate(1032.0709228515625 1291.5355529785156) rotate(0 9 10)"><text x="9" y="14" font-family="Virgil, Segoe UI Emoji" font-size="16px" fill="#000000" text-anchor="middle" style="white-space: pre;" direction="ltr">no</text></g><g transform="translate(1148.9854736328125 1305.0783996582031) rotate(0 13 10)"><text x="13" y="14" font-family="Virgil, Segoe UI Emoji" font-size="16px" fill="#000000" text-anchor="middle" style="white-space: pre;" direction="ltr">yes</text></g><g transform="translate(10 124.84640502929688) rotate(0 98.5 12.5)"><text x="98.5" y="18" font-family="Virgil, Segoe UI Emoji" font-size="20px" fill="#c92a2a" text-anchor="middle" style="white-space: pre;" direction="ltr">Item_ref::fix_fields</text></g><g stroke-linecap="round"><g transform="translate(681.591796875 1114.2909851074219) rotate(0 38.89341661779213 5.558288090797191)"><path d="M0.98 -1.15 C13.59 0.57, 63.03 8.83, 75.39 10.97 M0.03 0.86 C13.07 2.69, 64.85 10.21, 77.76 12.27" stroke="#495057" stroke-width="1" fill="none"></path></g><g transform="translate(681.591796875 1114.2909851074219) rotate(0 38.89341661779213 5.558288090797191)"><path d="M76.61 12.54 L64.5 15.03 L63.49 5.63 L76.08 11.9" stroke="none" stroke-width="0" fill="#495057" fill-rule="evenodd"></path><path d="M76.32 11.46 C73.27 12.35, 70.26 15.36, 64.81 15.43 M77.44 12.05 C74.31 12.92, 70.31 14, 62.9 17.06 M63.76 17.25 C62.62 14.94, 64.42 12.31, 64.87 3.71 M63.74 16.05 C64.54 12.2, 65.43 6.76, 65.81 4.59 M63.99 3.56 C69.54 5.65, 71.94 8.12, 78.16 11.65 M65.87 3.66 C69.38 7.29, 74.51 9.67, 77.15 12.45 M77.76 12.27 C77.76 12.27, 77.76 12.27, 77.76 12.27 M77.76 12.27 C77.76 12.27, 77.76 12.27, 77.76 12.27" stroke="#495057" stroke-width="1" fill="none"></path></g></g></svg>