<svg version="1.1" xmlns="http://www.w3.org/2000/svg" viewBox="0 0 1022.689697265625 1076.2148030598946" width="1022.689697265625" height="1076.2148030598946">
  <!-- svg-source:excalidraw -->
  
  <defs>
    <style>
      @font-face {
        font-family: "Virgil";
        src: url("https://excalidraw.com/Virgil.woff2");
      }
      @font-face {
        font-family: "Cascadia";
        src: url("https://excalidraw.com/Cascadia.woff2");
      }
    </style>
  </defs>
  <rect x="0" y="0" width="1022.689697265625" height="1076.2148030598946" fill="#ffffff"></rect><g transform="translate(380.6016642252607 136.43617757161155) rotate(0 104 34.5)"><text x="104" y="17" font-family="Virgil, Segoe UI Emoji" font-size="16px" fill="#000000" text-anchor="middle" style="white-space: pre;" direction="ltr">调用`find_field_in_tables`</text><text x="104" y="40" font-family="Virgil, Segoe UI Emoji" font-size="16px" fill="#000000" text-anchor="middle" style="white-space: pre;" direction="ltr">从field绑定的context的</text><text x="104" y="63" font-family="Virgil, Segoe UI Emoji" font-size="16px" fill="#000000" text-anchor="middle" style="white-space: pre;" direction="ltr">tables中查找该field</text></g><g stroke-linecap="round" transform="translate(367.9091322157119 123.58062744140443) rotate(0 114.74545627170141 44.06399197048627)"><path d="M0.04 -1.57 C76.86 2.43, 150.85 -0.14, 229.39 0.67 M0.18 0.34 C87.55 0.11, 174.02 0.87, 229.08 -0.35 M230.47 0.36 C227.92 20.99, 228.27 42.82, 231.28 86.97 M228.79 0.37 C227.83 20.81, 228.67 41.26, 228.76 89.01 M228.3 86.84 C153.56 87.51, 77.35 88.07, 0.66 88.38 M229.54 87.88 C168.41 88.81, 106.7 88.32, -0.75 88.65 M1.51 89.96 C0.51 54.98, -0.51 23.48, -0.28 -1.03 M0.43 88.21 C-0.86 67.1, 0.44 45.09, -0.15 -0.32" stroke="#000000" stroke-width="1" fill="none"></path></g><g stroke-linecap="round" transform="translate(396.5412529839409 281.8301730685762) rotate(0 76 33.5)"><path d="M75.15 1.96 C107.98 13.97, 134.62 26.75, 152.78 35.61 M77.4 0.23 C105.5 12.33, 135.7 25.92, 151.59 33.47 M152.36 32.56 C129.51 42.69, 108.13 54.99, 75.84 65.66 M152.37 33.13 C136.4 40.37, 120.6 46.58, 77.88 67.31 M75.49 67.12 C53.1 56.58, 30.94 47.67, 0.29 33.36 M76.71 67.48 C60.65 60.17, 43.53 51.97, 0.61 34.78 M1.83 34.23 C20.6 23.52, 43 14.92, 75.97 -1.05 M0.08 33.38 C25.93 23.22, 50.95 11.24, 76.68 0.14" stroke="#000000" stroke-width="1" fill="none"></path></g><g transform="translate(127.28936089409717 594.8202785915782) rotate(0 100.5 23)"><text x="100.5" y="17" font-family="Virgil, Segoe UI Emoji" font-size="16px" fill="#000000" text-anchor="middle" style="white-space: pre;" direction="ltr">调用set_field，根据找到的</text><text x="100.5" y="40" font-family="Virgil, Segoe UI Emoji" font-size="16px" fill="#000000" text-anchor="middle" style="white-space: pre;" direction="ltr">field来设置Item_field</text></g><g stroke-linecap="round" transform="translate(119.0252685546875 583.8847588433146) rotate(0 110.10019938151049 35.56566026475684)"><path d="M1.32 0.47 C65.34 -1.97, 133.96 -0.47, 221.77 -0.61 M-0.59 -0.68 C70.92 -0.86, 141.11 -0.9, 220.07 -0.74 M219.38 -1.09 C219.53 26.62, 219.17 48.32, 218.39 70.13 M220.49 -0.02 C220.68 15.61, 221.34 33, 220.16 71.27 M219.31 71.05 C169.28 71.92, 119.26 70.69, -1.47 71.53 M220.44 71.33 C152.7 71.27, 86.26 72.71, -0.28 71.54 M0.13 70.34 C1.25 44.14, -1.68 16.65, 0.55 0.38 M0.77 71.82 C0.5 46.58, -0.38 22.45, -0.56 0.37" stroke="#000000" stroke-width="1" fill="none"></path></g><g transform="translate(401.5412529839409 305.3301730685762) rotate(0 71 10)"><text x="71" y="14" font-family="Virgil, Segoe UI Emoji" font-size="16px" fill="#000000" text-anchor="middle" style="white-space: pre;" direction="ltr">找没找到？</text></g><g transform="translate(557.4881252712676 411.4969075520803) rotate(0 73.5 23)"><text x="73.5" y="17" font-family="Virgil, Segoe UI Emoji" font-size="16px" fill="#000000" text-anchor="middle" style="white-space: pre;" direction="ltr">是否需要在</text><text x="73.5" y="40" font-family="Virgil, Segoe UI Emoji" font-size="16px" fill="#000000" text-anchor="middle" style="white-space: pre;" direction="ltr">select fields中找？</text></g><g stroke-linecap="round" transform="translate(500.48196750216994 390.16557481553536) rotate(0 113.34153917100696 48.02278306749071)"><path d="M113.88 0.78 C158.12 21.08, 198.17 38.12, 227.48 49.47 M113.52 -0.41 C139.28 10.99, 165.13 23.02, 226.86 48.28 M228.47 47.84 C195.88 58.94, 167.01 71.53, 114.73 94.32 M225.95 49.88 C189.91 64.69, 152.65 79.51, 113.25 96.11 M114.78 96.34 C85.07 82.45, 57.86 72.57, -0.57 49.95 M113.11 96.66 C77.36 79.98, 39.75 65.66, 0.92 49.11 M-0.28 47.97 C34.09 33.44, 70.47 18.73, 114.17 -1.24 M-0.15 48.68 C42.77 29.33, 85.98 10.83, 114.75 0.66" stroke="#000000" stroke-width="1" fill="none"></path></g><g transform="translate(416.26779513888914 583.1881408691388) rotate(0 99.5 34.5)"><text x="99.5" y="17" font-family="Virgil, Segoe UI Emoji" font-size="16px" fill="#000000" text-anchor="middle" style="white-space: pre;" direction="ltr">调用find_item_in_list</text><text x="99.5" y="40" font-family="Virgil, Segoe UI Emoji" font-size="16px" fill="#000000" text-anchor="middle" style="white-space: pre;" direction="ltr">在curr query block的fields</text><text x="99.5" y="63" font-family="Virgil, Segoe UI Emoji" font-size="16px" fill="#000000" text-anchor="middle" style="white-space: pre;" direction="ltr">中查找</text></g><g stroke-linecap="round" transform="translate(407.9840359157988 581.3999599880626) rotate(0 108.94354926215271 37.09662543402783)"><path d="M1.4 1.58 C48.44 -0.37, 98.8 -0.34, 216.71 -1.37 M-0.46 -0.13 C69.42 1.2, 140.48 0.14, 217.53 -0.48 M216.54 -1.81 C217.55 17.88, 219.28 36.83, 218.47 74.15 M218.2 -0.04 C217.48 23.21, 216.59 47.88, 217.37 74.15 M217.33 72.71 C156.98 74.57, 94.77 75.3, 0.47 74.58 M218.56 73.91 C159.53 76.02, 101.15 75.46, 0.06 73.85 M-1.05 74.75 C0.48 45.74, 0.27 14.32, 1.54 1.37 M0.14 73.64 C0.48 47.18, 0.86 21.98, 0.7 0.86" stroke="#000000" stroke-width="1" fill="none"></path></g><g transform="translate(489.71034749348973 721.6678059895821) rotate(0 40.5 11.5)"><text x="40.5" y="17" font-family="Virgil, Segoe UI Emoji" font-size="16px" fill="#000000" text-anchor="middle" style="white-space: pre;" direction="ltr">找到了吗？</text></g><g stroke-linecap="round" transform="translate(472.60721164279494 704.9127197265607) rotate(0 54.22383626302087 29.58801269531247)"><path d="M54.3 0.42 C74.17 10.16, 90.15 18.29, 108.89 29.04 M54.15 0.49 C68.89 7.14, 82.16 15.1, 108.05 30.9 M107.44 28.6 C96.04 34.85, 82.95 43.6, 55.44 57.71 M108.58 29.3 C87.02 41.38, 66.5 52.6, 54.81 59.56 M55.46 59.28 C37.21 50.48, 21.02 40.79, -0.61 28.23 M55.47 59.93 C35.81 48.57, 15.08 37.51, 0.95 29.86 M0.38 30.86 C14 21.15, 29.05 16.3, 56.13 -0.3 M0.37 29.42 C15.48 22.91, 30.19 15.06, 55.6 -0.44" stroke="#000000" stroke-width="1" fill="none"></path></g><g transform="translate(452.4062025282119 842.9083116319434) rotate(0 71 23)"><text x="71" y="17" font-family="Virgil, Segoe UI Emoji" font-size="16px" fill="#000000" text-anchor="middle" style="white-space: pre;" direction="ltr">找到的是</text><text x="71" y="40" font-family="Virgil, Segoe UI Emoji" font-size="16px" fill="#000000" text-anchor="middle" style="white-space: pre;" direction="ltr">FIELD_ITEM吗？</text></g><g stroke-linecap="round" transform="translate(382.8082207573784 826.8564860026036) rotate(0 124.04110378689234 40.21111382378467)"><path d="M125.8 0.47 C171.58 14.18, 221.46 30.81, 247.27 39.95 M125.18 -0.72 C159.35 10.54, 194.46 23.68, 247.5 40.33 M248.81 39.27 C222.65 48.36, 196.7 55.2, 126.77 81.05 M247.33 41.06 C211.14 51.77, 174.98 63.89, 125.15 80.1 M124.43 81.37 C98.59 72.47, 70.58 61.77, 1.23 42.55 M125.92 80.54 C91.39 70.41, 58.79 60.11, -0.51 40.47 M0.17 39.76 C42.42 28.4, 82.95 13.3, 124.37 0.27 M0.75 41.66 C31.07 32.58, 61.51 21.26, 124.71 -0.68" stroke="#000000" stroke-width="1" fill="none"></path></g><g stroke-linecap="round"><g transform="translate(375.6083760760155 867.0675998263882) rotate(0 -61.943043622374546 -99.29538980552604)"><path d="M0.39 -1.14 C-34.37 -51.51, -66.52 -104.87, -124.28 -197.73 M-0.61 -0.34 C-27.78 -42.57, -53.07 -85.14, -123.96 -198.25" stroke="#000000" stroke-width="1" fill="none"></path></g><g transform="translate(375.6083760760155 867.0675998263882) rotate(0 -61.943043622374546 -99.29538980552604)"><path d="M-122.15 -199.53 L-110.41 -188.53 L-120.48 -181.95 L-122.99 -198.89" stroke="none" stroke-width="0" fill="#000000" fill-rule="evenodd"></path><path d="M-123.61 -199.26 C-121.8 -195.8, -118 -194.57, -112.18 -190.28 M-124.5 -198.55 C-121.63 -196.81, -117.85 -195.19, -111.89 -190.74 M-112.49 -189.69 C-114.15 -188.07, -117.74 -185.55, -121.75 -183.4 M-111.35 -190.39 C-114.84 -188.16, -117.93 -185.85, -122.35 -183.9 M-121.43 -182.95 C-122.4 -188.62, -124.66 -192.05, -122.8 -198.73 M-122.06 -183.31 C-123.19 -187.8, -123.62 -194.07, -124.36 -198.04 M-123.96 -198.25 C-123.96 -198.25, -123.96 -198.25, -123.96 -198.25 M-123.96 -198.25 C-123.96 -198.25, -123.96 -198.25, -123.96 -198.25" stroke="#000000" stroke-width="1" fill="none"></path></g></g><g transform="translate(306.18223300703767 712.6606772880197) rotate(0 13.5 10)"><text x="13.5" y="14" font-family="Virgil, Segoe UI Emoji" font-size="16px" fill="#000000" text-anchor="middle" style="white-space: pre;" direction="ltr">Yes</text></g><g transform="translate(387.2694159613716 1012.8603651258672) rotate(0 115 23)"><text x="115" y="17" font-family="Virgil, Segoe UI Emoji" font-size="16px" fill="#000000" text-anchor="middle" style="white-space: pre;" direction="ltr">创建一个Item_ref，</text><text x="115" y="40" font-family="Virgil, Segoe UI Emoji" font-size="16px" fill="#000000" text-anchor="middle" style="white-space: pre;" direction="ltr">取代由parser创建的Item_field</text></g><g stroke-linecap="round" transform="translate(383.5949639214409 1005.8418782552071) rotate(0 120.8189222547743 30.18646240234375)"><path d="M0.37 -0.8 C77.45 0.71, 156.01 0.17, 242.45 0.3 M-0.33 0.74 C54.62 0.54, 109.45 0.68, 241.05 0.3 M242.08 -1.47 C243.58 13.52, 241.74 26.05, 240.23 58.86 M241.45 0.39 C241.47 18.16, 240.47 37.18, 241.69 60.09 M241.13 58.9 C158.67 62.11, 73.12 61.61, 1.26 61.9 M242.43 60.26 C165.99 59.14, 91.43 59.73, 0.36 60.44 M1.13 60.08 C-1.1 46.27, -1.58 32.35, -1.16 1.5 M0.6 59.94 C-0.71 37.59, -0.56 17.08, -0.64 0.49" stroke="#000000" stroke-width="1" fill="none"></path></g><g stroke-linecap="round"><g transform="translate(466.79798622776093 351.37513226816185) rotate(0 -150.59400485465682 110.09012888277394)"><path d="M-0.59 -0.5 C-71.87 51.63, -142.44 103.82, -301.73 220.33 M0.55 -0.35 C-79.41 56.04, -157.57 113.5, -301.73 220.68" stroke="#000000" stroke-width="1" fill="none"></path></g><g transform="translate(466.79798622776093 351.37513226816185) rotate(0 -150.59400485465682 110.09012888277394)"><path d="M-300.06 222.08 L-293.62 206.84 L-285.18 217.45 L-302.09 218.76" stroke="none" stroke-width="0" fill="#000000" fill-rule="evenodd"></path><path d="M-302.45 220.07 C-300.75 217.37, -299.58 215.27, -294.32 206.41 M-301.06 220.24 C-300.31 216.61, -298.33 213.34, -294.31 206.84 M-295.52 208.61 C-291.71 210.77, -289.45 213.28, -287.99 217.75 M-294.34 207.58 C-292.92 209.49, -290.7 212.59, -287.22 217.97 M-288.36 218.59 C-290.67 218.13, -295.94 220.73, -300.35 220.84 M-287.14 217.29 C-291.95 218.94, -295.92 219.98, -301.67 220.21 M-301.73 220.68 C-301.73 220.68, -301.73 220.68, -301.73 220.68 M-301.73 220.68 C-301.73 220.68, -301.73 220.68, -301.73 220.68" stroke="#000000" stroke-width="1" fill="none"></path></g></g><g stroke-linecap="round"><g transform="translate(476.27065022786473 356.5892537434902) rotate(0 66.8513675833949 13.934449054611378)"><path d="M-0.81 -1.05 C29.71 5.28, 60.93 13.67, 133.94 27.81 M-0.58 -0.67 C32.2 5.31, 65.62 13.2, 134.52 28.92" stroke="#000000" stroke-width="1" fill="none"></path></g><g transform="translate(476.27065022786473 356.5892537434902) rotate(0 66.8513675833949 13.934449054611378)"><path d="M135.92 29.89 L119.21 33.93 L122.45 19.35 L132.6 29.21" stroke="none" stroke-width="0" fill="#000000" fill-rule="evenodd"></path><path d="M133.91 28.13 C131.06 28.27, 128.77 30.51, 118.77 31.46 M134.08 28.42 C130.23 29.45, 126.78 30.87, 119.2 32.29 M120.97 32.47 C120.62 28.58, 120.61 23.77, 122.75 19.06 M119.94 31.87 C120.17 28.56, 121.57 24.58, 122.98 19.88 M123.6 20.88 C125.98 23.5, 131.42 27.13, 134.68 29.02 M122.29 19.32 C126.05 22.27, 129.25 24.59, 134.05 29.5 M134.52 28.92 C134.52 28.92, 134.52 28.92, 134.52 28.92 M134.52 28.92 C134.52 28.92, 134.52 28.92, 134.52 28.92" stroke="#000000" stroke-width="1" fill="none"></path></g></g><g stroke-linecap="round"><g transform="translate(615.8110276260429 493.3096070498218) rotate(0 -44.77670705156822 36.85506155602798)"><path d="M-1.05 -0.3 C-30.42 24.66, -56.72 46.27, -88.88 73.54 M-0.67 -0.9 C-22.72 18.18, -44.74 37.42, -87.77 74.61" stroke="#000000" stroke-width="1" fill="none"></path></g><g transform="translate(615.8110276260429 493.3096070498218) rotate(0 -44.77670705156822 36.85506155602798)"><path d="M-86.81 73.97 L-79.79 60.7 L-73.71 68.59 L-87.48 74.93" stroke="none" stroke-width="0" fill="#000000" fill-rule="evenodd"></path><path d="M-88.56 74.39 C-87.01 70.97, -83.49 64.74, -82.26 60.1 M-88.28 73.94 C-86.68 70.56, -84.44 66.88, -81.43 60.91 M-81.25 60.88 C-78.87 63.05, -77.32 67.1, -74 70.45 M-81.85 60.38 C-79.13 63.64, -77.12 66.61, -73.17 70.65 M-72.18 70.03 C-76.56 72.84, -79.79 72.98, -87.68 74.02 M-73.74 70.72 C-78.91 72.38, -84.69 73.21, -87.2 75.13 M-87.77 74.61 C-87.77 74.61, -87.77 74.61, -87.77 74.61 M-87.77 74.61 C-87.77 74.61, -87.77 74.61, -87.77 74.61" stroke="#000000" stroke-width="1" fill="none"></path></g></g><g stroke-linecap="round"><g transform="translate(523.4555210874169 669.0586513943158) rotate(0 -0.5531886276075966 13.717433555396155)"><path d="M-0.3 -1.7 C0.87 7.65, -1.55 13.76, -1.07 28.11 M-0.9 -0.5 C-0.86 11.63, -1.01 22.82, 0 29.14" stroke="#000000" stroke-width="1" fill="none"></path></g><g transform="translate(523.4555210874169 669.0586513943158) rotate(0 -0.5531886276075966 13.717433555396155)"><path d="M-0.64 30.99 L-7.51 16.29 L2.96 15.82 L0.31 27.98" stroke="none" stroke-width="0" fill="#000000" fill-rule="evenodd"></path><path d="M-0.21 27.91 C-1.08 26.21, -4.66 22.22, -8.08 16.07 M-0.65 28.78 C-3.27 24.49, -6.23 19.57, -7.3 16.81 M-7.33 16.82 C-5.4 15.44, -1.71 15.47, 4.83 15.3 M-7.81 16.79 C-3.13 16.14, 1.25 16.1, 5.02 15.35 M4.42 16.22 C5.03 19.77, 3.07 21.42, -0.57 30.52 M5.08 15.67 C3.73 19.46, 1.57 23.85, 0.5 29.55 M0 29.14 C0 29.14, 0 29.14, 0 29.14 M0 29.14 C0 29.14, 0 29.14, 0 29.14" stroke="#000000" stroke-width="1" fill="none"></path></g></g><g stroke-linecap="round"><g transform="translate(520.5599568684897 768.7990993923613) rotate(0 -6.620792470562037 22.640566806515835)"><path d="M-1.7 0.98 C-2.97 10.01, -7.24 21.82, -12.74 45.98 M-0.5 -0.7 C-2.82 9.73, -5.79 21.27, -11.71 43.46" stroke="#000000" stroke-width="1" fill="none"></path></g><g transform="translate(520.5599568684897 768.7990993923613) rotate(0 -6.620792470562037 22.640566806515835)"><path d="M-9.86 43.23 L-14.72 26.77 L-1.81 32.25 L-12.87 42.24" stroke="none" stroke-width="0" fill="#000000" fill-rule="evenodd"></path><path d="M-12.99 44.19 C-12.05 38.54, -13.62 34.97, -14.96 30.04 M-12.09 42.93 C-11.98 39.21, -12.68 36.27, -14.19 28.14 M-14.19 27.8 C-10.55 30.03, -5.48 31.16, -2.34 32.43 M-14.22 28.73 C-10.7 30.12, -6.48 30.98, -2.3 31.38 M-1.39 33.07 C-4.11 36.24, -8.86 39.64, -10.29 43.25 M-1.96 32.26 C-4.49 34.37, -6.37 38.21, -11.29 43.35 M-11.71 43.46 C-11.71 43.46, -11.71 43.46, -11.71 43.46 M-11.71 43.46 C-11.71 43.46, -11.71 43.46, -11.71 43.46" stroke="#000000" stroke-width="1" fill="none"></path></g></g><g stroke-linecap="round"><g transform="translate(509.80203586154494 913.2631429036464) rotate(0 -3.3053199743023924 43.036103564314544)"><path d="M0.98 0.36 C-3.26 20.12, -4.61 41.12, -5.07 83.67 M-0.7 0.37 C-3.23 20, -3.98 39.69, -7.59 85.71" stroke="#000000" stroke-width="1" fill="none"></path></g><g transform="translate(509.80203586154494 913.2631429036464) rotate(0 -3.3053199743023924 43.036103564314544)"><path d="M-7.82 85.35 L-14.83 71.98 L0.05 71.47 L-8.81 87.45" stroke="none" stroke-width="0" fill="#000000" fill-rule="evenodd"></path><path d="M-6.86 85.98 C-9.97 81.58, -11.02 78.12, -11.56 70.82 M-8.12 85.99 C-9.35 82.64, -9.96 79.32, -13.46 72.35 M-13.8 70.73 C-8.64 71.32, -4.59 72.06, 0.23 72.81 M-12.87 71.5 C-9.22 72.08, -6 71.97, -0.82 73.02 M0.87 74 C-2.9 77.7, -6.43 83.97, -7.8 84.94 M0.06 72.69 C-2.5 76.45, -3.34 79.54, -7.7 85.48 M-7.59 85.71 C-7.59 85.71, -7.59 85.71, -7.59 85.71 M-7.59 85.71 C-7.59 85.71, -7.59 85.71, -7.59 85.71" stroke="#000000" stroke-width="1" fill="none"></path></g></g><g stroke-linecap="round"><g transform="translate(375.8509589301216 1029.1387261284726) rotate(0 -168.32345306460695 -99.67896945310491)"><path d="M0.21 -0.84 C-95.38 -56.17, -191.26 -110.99, -336.86 -198.85 M0.21 -0.5 C-69.76 -42.93, -140.31 -84.89, -335.67 -197.89" stroke="#000000" stroke-width="1" fill="none"></path></g><g transform="translate(375.8509589301216 1029.1387261284726) rotate(0 -168.32345306460695 -99.67896945310491)"><path d="M-336.03 -199.81 L-320.44 -196.23 L-328.25 -186.8 L-333.93 -198.21" stroke="none" stroke-width="0" fill="#000000" fill-rule="evenodd"></path><path d="M-335.4 -198.97 C-332.03 -198.4, -327.76 -195.85, -321.6 -197.55 M-335.4 -198.54 C-332.32 -197.52, -329.24 -197.77, -320.07 -196.31 M-321.69 -196.47 C-323.26 -193.4, -324.72 -189.6, -326.91 -185.99 M-320.91 -196.24 C-321.9 -194.04, -323.63 -192.39, -326.7 -185.09 M-325.72 -185.41 C-329.35 -189.41, -330.32 -192.32, -336.44 -198.68 M-327.03 -186.04 C-329.35 -189.06, -332.31 -193.72, -335.91 -197.79 M-335.67 -197.89 C-335.67 -197.89, -335.67 -197.89, -335.67 -197.89 M-335.67 -197.89 C-335.67 -197.89, -335.67 -197.89, -335.67 -197.89" stroke="#000000" stroke-width="1" fill="none"></path></g></g><g stroke-linecap="round"><g transform="translate(155.50311063220465 671.1978895399316) rotate(0 -49.354343223812805 51.66082191491091)"><path d="M-1.44 -0.82 C-21.31 21.75, -39.15 43.77, -97.84 102.37 M-0.87 0.29 C-24.86 26.59, -49.67 53.28, -96.19 104.14" stroke="#000000" stroke-width="1" fill="none"></path></g><g transform="translate(155.50311063220465 671.1978895399316) rotate(0 -49.354343223812805 51.66082191491091)"><path d="M-98.11 104.43 L-91.36 88.68 L-83.55 100.14 L-96.51 105.37" stroke="none" stroke-width="0" fill="#000000" fill-rule="evenodd"></path><path d="M-97.27 103.53 C-96.11 100.46, -92.97 97.12, -92.68 88.48 M-96.84 104.36 C-94.98 100.72, -94.38 97.64, -91.44 89.81 M-91.6 89.18 C-88.86 92.35, -85.38 95.46, -82.73 97.32 M-91.37 90.01 C-88.51 92.43, -86.2 95.78, -81.84 98.2 M-82.16 98.5 C-87.69 101.95, -92.13 101.75, -96.98 104.55 M-82.79 98.98 C-86.21 100.66, -91.25 101.83, -96.09 103.72 M-96.19 104.14 C-96.19 104.14, -96.19 104.14, -96.19 104.14 M-96.19 104.14 C-96.19 104.14, -96.19 104.14, -96.19 104.14" stroke="#000000" stroke-width="1" fill="none"></path></g></g><g transform="translate(287.48812527126756 342.8163519965292) rotate(0 13 10)"><text x="13" y="14" font-family="Virgil, Segoe UI Emoji" font-size="16px" fill="#000000" text-anchor="middle" style="white-space: pre;" direction="ltr">yes</text></g><g transform="translate(546.3770141601562 340.59412977430657) rotate(0 9 10)"><text x="9" y="14" font-family="Virgil, Segoe UI Emoji" font-size="16px" fill="#000000" text-anchor="middle" style="white-space: pre;" direction="ltr">no</text></g><g transform="translate(555.2659030490449 497.2607964409726) rotate(0 13 10)"><text x="13" y="14" font-family="Virgil, Segoe UI Emoji" font-size="16px" fill="#000000" text-anchor="middle" style="white-space: pre;" direction="ltr">yes</text></g><g transform="translate(474.8207533094619 768.8596462673631) rotate(0 13 10)"><text x="13" y="14" font-family="Virgil, Segoe UI Emoji" font-size="16px" fill="#000000" text-anchor="middle" style="white-space: pre;" direction="ltr">yes</text></g><g transform="translate(471.2653876410591 948.6692165798631) rotate(0 9 10)"><text x="9" y="14" font-family="Virgil, Segoe UI Emoji" font-size="16px" fill="#000000" text-anchor="middle" style="white-space: pre;" direction="ltr">no</text></g><g stroke-linecap="round"><g transform="translate(471.91683620876756 230.51961263020894) rotate(0 -0.617076797585014 19.879176369558085)"><path d="M-1.34 -1.81 C-0.9 9.4, 0.57 19.89, -0.44 41.56 M0.31 -0.04 C-0.5 12.71, -1.71 26.88, -1.53 41.56" stroke="#000000" stroke-width="1" fill="none"></path></g><g transform="translate(471.91683620876756 230.51961263020894) rotate(0 -0.617076797585014 19.879176369558085)"><path d="M-1.85 42.8 L-8.98 29.65 L5.71 26.34 L-2.19 40.29" stroke="none" stroke-width="0" fill="#000000" fill-rule="evenodd"></path><path d="M-2.54 40.21 C-4.01 36.92, -4.31 33.12, -7.26 27.85 M-1.3 41.53 C-3.32 36.68, -5.97 32.85, -8.09 27.85 M-8.11 26.81 C-3.84 27.98, -0.93 28.56, 5.32 28.33 M-7.21 27.68 C-3.98 28.33, -0.28 27.97, 5.02 27.8 M4.19 28.46 C2.67 34, -0.06 37.77, -0.38 42.59 M5.08 27.63 C2.91 32.41, 0.88 38.15, -1.01 42.21 M-1.53 41.56 C-1.53 41.56, -1.53 41.56, -1.53 41.56 M-1.53 41.56 C-1.53 41.56, -1.53 41.56, -1.53 41.56" stroke="#000000" stroke-width="1" fill="none"></path></g></g><g stroke-linecap="round" transform="translate(443.8349677191841 10) rotate(0 43 25)"><path d="M31.45 1.07 C39.17 -0.43, 50.96 0.08, 58.82 1.98 C66.67 3.88, 74.01 8.4, 78.58 12.49 C83.14 16.59, 86.61 21.92, 86.23 26.54 C85.84 31.16, 81.81 36.45, 76.26 40.24 C70.71 44.03, 61.2 47.95, 52.93 49.28 C44.66 50.6, 34.38 49.94, 26.65 48.2 C18.91 46.45, 10.9 42.96, 6.5 38.78 C2.1 34.6, -0.19 28.02, 0.23 23.1 C0.65 18.19, 3.41 13.09, 9.02 9.29 C14.64 5.49, 29.43 1.64, 33.94 0.28 C38.45 -1.07, 35.91 0.75, 36.09 1.15 M24.08 3.13 C31.1 0.86, 43.66 1, 52.05 1.8 C60.44 2.6, 68.92 4.36, 74.42 7.92 C79.92 11.49, 84.03 18.5, 85.05 23.21 C86.07 27.92, 84.61 32.07, 80.54 36.2 C76.47 40.33, 68.18 45.66, 60.65 48 C53.12 50.34, 43.49 51.35, 35.37 50.22 C27.24 49.09, 17.52 44.74, 11.88 41.25 C6.24 37.75, 2.48 33.99, 1.51 29.25 C0.55 24.51, 2.33 17.25, 6.09 12.81 C9.86 8.37, 21.09 4.18, 24.09 2.62 C27.09 1.05, 23.85 2.89, 24.09 3.42" stroke="#000000" stroke-width="1" fill="none"></path></g><g transform="translate(448.8349677191841 25) rotate(0 38 10)"><text x="38" y="14" font-family="Virgil, Segoe UI Emoji" font-size="16px" fill="#000000" text-anchor="middle" style="white-space: pre;" direction="ltr">start</text></g><g stroke-linecap="round"><g transform="translate(485.8941582573784 64.60917154948038) rotate(0 -3.0134243258379456 26.637450841255486)"><path d="M-1.4 0.73 C-3.1 12.73, -2.31 24.76, -5.32 54.03 M-0.7 -0.75 C-1.24 16.8, -2.62 34.45, -3.47 52.41" stroke="#000000" stroke-width="1" fill="none"></path></g><g transform="translate(485.8941582573784 64.60917154948038) rotate(0 -3.0134243258379456 26.637450841255486)"><path d="M-1.71 53.14 L-10.77 37.83 L2.33 39.7 L-5.17 50.7" stroke="none" stroke-width="0" fill="#000000" fill-rule="evenodd"></path><path d="M-4.52 52.95 C-5.94 49.57, -5.98 46.23, -10.17 39.82 M-3.99 51.84 C-5.27 47.42, -7.2 43.05, -8.77 38.6 M-8.99 38.13 C-5.07 38.99, -2 38.44, 2.47 39.95 M-8.58 39.07 C-4.21 38.73, 0.25 39.55, 3.51 38.85 M4.24 39.3 C0.96 43.62, 1.17 46.58, -3.69 51.93 M3.16 39.74 C1.8 43.87, -0.26 47.95, -3.79 52.19 M-3.47 52.41 C-3.47 52.41, -3.47 52.41, -3.47 52.41 M-3.47 52.41 C-3.47 52.41, -3.47 52.41, -3.47 52.41" stroke="#000000" stroke-width="1" fill="none"></path></g></g><g transform="translate(27.05572509765625 790.6360880533848) rotate(0 13.5 10)"><text x="13.5" y="14" font-family="Virgil, Segoe UI Emoji" font-size="16px" fill="#000000" text-anchor="middle" style="white-space: pre;" direction="ltr">end</text></g><g stroke-linecap="round" transform="translate(10 780.4113566080723) rotate(0 33.83966064453125 20.049468994140625)"><path d="M48.43 3.02 C54.75 4.5, 61.79 7.65, 64.68 11.47 C67.58 15.29, 67.77 21.66, 65.8 25.95 C63.82 30.23, 58.74 34.92, 52.81 37.16 C46.88 39.39, 37.33 39.79, 30.22 39.36 C23.11 38.93, 15.08 37.62, 10.15 34.59 C5.22 31.57, 1.29 25.58, 0.63 21.2 C-0.02 16.82, 2.14 11.7, 6.24 8.32 C10.35 4.94, 17.03 1.37, 25.26 0.94 C33.48 0.51, 49.46 4.26, 55.6 5.74 C61.74 7.23, 62.24 9.63, 62.11 9.86 M26.3 1.83 C32.85 0.99, 41.85 1.03, 48.5 3 C55.16 4.97, 63.14 9.67, 66.25 13.63 C69.36 17.6, 69.62 22.68, 67.17 26.8 C64.71 30.92, 57.85 36.21, 51.54 38.35 C45.22 40.49, 36.6 40.41, 29.25 39.66 C21.91 38.9, 12.28 37.08, 7.45 33.81 C2.62 30.55, 0.49 24.17, 0.27 20.05 C0.04 15.94, 1.74 12.26, 6.08 9.15 C10.41 6.04, 23.01 2.56, 26.28 1.4 C29.55 0.24, 25.45 2.23, 25.7 2.19" stroke="#000000" stroke-width="1" fill="none"></path></g><g transform="translate(730.2635498046875 581.6399637858067) rotate(0 77.5 34.5)"><text x="77.5" y="17" font-family="Virgil, Segoe UI Emoji" font-size="16px" fill="#000000" text-anchor="middle" style="white-space: pre;" direction="ltr">调用fix_outer_field</text><text x="77.5" y="40" font-family="Virgil, Segoe UI Emoji" font-size="16px" fill="#000000" text-anchor="middle" style="white-space: pre;" direction="ltr">在outer query</text><text x="77.5" y="63" font-family="Virgil, Segoe UI Emoji" font-size="16px" fill="#000000" text-anchor="middle" style="white-space: pre;" direction="ltr">中进行查找</text></g><g stroke-linecap="round" transform="translate(727.883056640625 577.1931254069004) rotate(0 82.5526123046875 37.681365966796875)"><path d="M0.8 -1.32 C33.52 -1.94, 71.66 -2.01, 164.93 -0.97 M-0.82 0.66 C40.29 0.27, 78.17 -0.28, 164.74 0.36 M163.29 -1.62 C165.36 18.72, 165.52 38.82, 166.29 74.14 M164.25 0.37 C164.84 23.13, 166.08 43.77, 164.17 74.62 M163.31 74.68 C104.19 73.17, 40.44 75.8, -0.67 74.12 M164.32 74.92 C102.39 74.27, 39.44 74.24, 0.81 75.52 M1.32 74.24 C0.21 56.94, -1.1 41.01, 1.28 0.02 M-0.05 76.3 C-0.15 47.16, 0.53 17.01, -0.3 0.93" stroke="#000000" stroke-width="1" fill="none"></path></g><g stroke-linecap="round"><g transform="translate(609.5850674794949 734.5007324218732) rotate(0 54.79800932785224 -52.07256098082834)"><path d="M1.16 0.86 C19.29 -16.66, 91.57 -87.53, 109.29 -105 M0.31 0.26 C18.3 -17.1, 90.47 -85.98, 108.72 -103.69" stroke="#000000" stroke-width="1" fill="none"></path></g><g transform="translate(609.5850674794949 734.5007324218732) rotate(0 54.79800932785224 -52.07256098082834)"><path d="M96.94 -75.54 C99.28 -87.86, 105.52 -95.28, 110.34 -104.11 M95.49 -77.04 C100.26 -84.28, 103.07 -90.9, 109.32 -104.68" stroke="#000000" stroke-width="1" fill="none"></path></g><g transform="translate(609.5850674794949 734.5007324218732) rotate(0 54.79800932785224 -52.07256098082834)"><path d="M82.72 -90.33 C89.93 -97.74, 101.03 -100.1, 110.34 -104.11 M81.26 -91.83 C89.83 -95, 96.56 -97.54, 109.32 -104.68" stroke="#000000" stroke-width="1" fill="none"></path></g></g><g transform="translate(633.0840454101562 677.4206339518223) rotate(0 9 10)"><text x="9" y="14" font-family="Virgil, Segoe UI Emoji" font-size="16px" fill="#000000" text-anchor="middle" style="white-space: pre;" direction="ltr">no</text></g><g stroke-linecap="round"><g transform="translate(618.1118317386408 492.13002267042646) rotate(0 96.2996467976161 36.32007412192456)"><path d="M0.4 -0.08 C32.79 11.95, 161.44 60.61, 193.44 72.89 M-0.84 -1.16 C31.51 10.9, 160.76 61.16, 192.8 73.8" stroke="#000000" stroke-width="1" fill="none"></path></g><g transform="translate(618.1118317386408 492.13002267042646) rotate(0 96.2996467976161 36.32007412192456)"><path d="M162.68 74.07 C167.7 72.43, 175.78 75.3, 192.97 75.6 M163.06 73.81 C173.51 73.39, 183.43 73.8, 192.97 73.42" stroke="#000000" stroke-width="1" fill="none"></path></g><g transform="translate(618.1118317386408 492.13002267042646) rotate(0 96.2996467976161 36.32007412192456)"><path d="M170.15 54.96 C173.57 57.71, 179.95 64.97, 192.97 75.6 M170.54 54.7 C178.53 60.84, 185.87 67.84, 192.97 73.42" stroke="#000000" stroke-width="1" fill="none"></path></g></g><g transform="translate(695.4556884765625 500.0778605143223) rotate(0 9 10)"><text x="9" y="14" font-family="Virgil, Segoe UI Emoji" font-size="16px" fill="#000000" text-anchor="middle" style="white-space: pre;" direction="ltr">no</text></g><g transform="translate(768.6474609375 730.1982218424473) rotate(0 44.5 21.5)"><text x="44.5" y="15.5" font-family="Virgil, Segoe UI Emoji" font-size="16px" fill="#000000" text-anchor="middle" style="white-space: pre;" direction="ltr">column fully</text><text x="44.5" y="37" font-family="Virgil, Segoe UI Emoji" font-size="16px" fill="#000000" text-anchor="middle" style="white-space: pre;" direction="ltr">fixed了吗？</text></g><g stroke-linecap="round" transform="translate(714.0057373046875 709.2457682291661) rotate(0 96.8240966796875 43.36883544921875)"><path d="M96.9 0.28 C121.26 9.49, 144.3 22.36, 193.48 43.79 M97.39 -0.87 C127.94 14.45, 158.46 29.33, 193.59 44.57 M194.75 45.17 C160.13 61.85, 124.37 73.73, 96.04 86.39 M194.23 44.33 C166.42 55.16, 139.26 68.76, 96.33 87.38 M98.37 87.4 C62.43 72.17, 28.95 55.21, 1.92 43.76 M97.54 86.93 C64.25 73.88, 30.28 59.18, 0.89 44.28 M-0.9 45.64 C38.9 25.56, 76.48 11.1, 95.88 1.78 M0.9 45 C38.12 26.46, 74.87 9.51, 96.19 -0.1" stroke="#000000" stroke-width="1" fill="none"></path></g><g transform="translate(976.3538818359375 847.3881937662754) rotate(0 13.5 10)"><text x="13.5" y="14" font-family="Virgil, Segoe UI Emoji" font-size="16px" fill="#000000" text-anchor="middle" style="white-space: pre;" direction="ltr">end</text></g><g stroke-linecap="round" transform="translate(968.4393310546875 842.0212504069004) rotate(0 22.12518310546875 16.5968017578125)"><path d="M14.09 1.82 C18.14 0.65, 24.88 0.58, 29.35 1.74 C33.82 2.9, 38.56 5.84, 40.91 8.79 C43.27 11.75, 44.28 16.09, 43.46 19.46 C42.64 22.84, 39.65 26.64, 35.99 29.05 C32.34 31.46, 26.44 33.85, 21.55 33.93 C16.66 34.01, 10.35 32.03, 6.66 29.52 C2.97 27.01, -0.06 22.52, -0.59 18.87 C-1.11 15.21, 0.16 10.59, 3.52 7.57 C6.88 4.55, 16.35 1.85, 19.59 0.75 C22.83 -0.35, 23.2 0.94, 22.97 0.98 M25.83 -0.51 C30.41 -0.39, 37.41 2.13, 40.57 4.79 C43.73 7.45, 44.83 11.52, 44.78 15.46 C44.72 19.4, 43.57 25.56, 40.23 28.44 C36.89 31.33, 29.5 32.23, 24.76 32.78 C20.01 33.32, 15.88 33.56, 11.76 31.73 C7.65 29.9, 1.97 25.09, 0.06 21.8 C-1.84 18.51, -1.61 15.17, 0.34 12 C2.3 8.82, 7.7 4.72, 11.78 2.75 C15.87 0.77, 22.63 0.37, 24.83 0.13 C27.03 -0.1, 24.99 0.94, 24.99 1.36" stroke="#000000" stroke-width="1" fill="none"></path></g><g stroke-linecap="round"><g transform="translate(806.632568359375 662.8536478678379) rotate(0 0.9947508552064619 19.829990352364234)"><path d="M0.56 -0.06 C1.06 6.44, 2.19 32.83, 2.59 39.67 M-0.6 -1.14 C-0.19 5.44, 1.27 34.13, 1.81 40.8" stroke="#000000" stroke-width="1" fill="none"></path></g><g transform="translate(806.632568359375 662.8536478678379) rotate(0 0.9947508552064619 19.829990352364234)"><path d="M-6.41 22.74 C-5.37 28.29, -1.07 32.54, 0.81 38.87 M-5.36 22.91 C-4.35 28.81, -0.71 35.58, 2.57 40.08" stroke="#000000" stroke-width="1" fill="none"></path></g><g transform="translate(806.632568359375 662.8536478678379) rotate(0 0.9947508552064619 19.829990352364234)"><path d="M7.42 21.87 C4.81 27.72, 5.45 32.19, 0.81 38.87 M8.48 22.04 C4.29 28.17, 2.75 35.27, 2.57 40.08" stroke="#000000" stroke-width="1" fill="none"></path></g></g><g stroke-linecap="round"><g transform="translate(860.0310407275824 780.4973947404669) rotate(0 53.39269526339331 31.64824816470272)"><path d="M0.77 -0.05 C18.46 10.33, 89.48 52.36, 107.08 62.97 M-0.29 -1.12 C17.19 9.39, 88.67 53.96, 106.26 64.41" stroke="#000000" stroke-width="1" fill="none"></path></g><g transform="translate(860.0310407275824 780.4973947404669) rotate(0 53.39269526339331 31.64824816470272)"><path d="M76.78 58.9 C87.59 59.67, 99.74 61.39, 106.33 63.75 M77.31 58.41 C83.28 60.6, 89.05 61.97, 105.8 64.32" stroke="#000000" stroke-width="1" fill="none"></path></g><g transform="translate(860.0310407275824 780.4973947404669) rotate(0 53.39269526339331 31.64824816470272)"><path d="M87.47 41.39 C94.38 48.79, 102.53 57.06, 106.33 63.75 M88 40.9 C91.68 46.73, 95.2 51.77, 105.8 64.32" stroke="#000000" stroke-width="1" fill="none"></path></g></g><g transform="translate(916.1756591796875 781.0925089518223) rotate(0 13 10)"><text x="13" y="14" font-family="Virgil, Segoe UI Emoji" font-size="16px" fill="#000000" text-anchor="middle" style="white-space: pre;" direction="ltr">yes</text></g><g transform="translate(728.1088392469617 999.8714260525167) rotate(0 100.5 23)"><text x="100.5" y="17" font-family="Virgil, Segoe UI Emoji" font-size="16px" fill="#000000" text-anchor="middle" style="white-space: pre;" direction="ltr">调用set_field，根据找到的</text><text x="100.5" y="40" font-family="Virgil, Segoe UI Emoji" font-size="16px" fill="#000000" text-anchor="middle" style="white-space: pre;" direction="ltr">field来设置Item_field</text></g><g stroke-linecap="round" transform="translate(719.844746907552 988.935906304253) rotate(0 110.10019938151049 35.56566026475684)"><path d="M-1 -1.51 C60.07 -0.32, 123.31 0.22, 220.39 1.16 M0.58 -0.62 C70.47 1.22, 141.82 0.03, 219.36 -0.68 M219.85 0.93 C220.39 18.96, 222.2 34.35, 221.16 73.03 M219.72 0.72 C220.69 26.84, 220.63 55.07, 220.03 71.06 M221.72 70.67 C156.59 72.53, 93.81 70.38, 0.23 71.32 M220.94 71.21 C153.24 69.78, 86.21 69.56, 0.67 71.73 M-0.25 70.26 C-1.67 57.15, -0.91 40.76, -0.69 1.19 M-0.83 70.32 C-1.55 54.44, -1.08 36.89, 0.6 0.41" stroke="#000000" stroke-width="1" fill="none"></path></g><g stroke-linecap="round"><g transform="translate(808.7816162109375 799.9426066080723) rotate(0 -0.6909465712354859 88.76341812007598)"><path d="M0.2 -1.17 C-0.19 28.27, -1.81 147.82, -1.76 177.69 M-1.16 0.83 C-1.23 30.9, 0.12 149.01, 0.38 178.7" stroke="#000000" stroke-width="1" fill="none"></path></g><g transform="translate(808.7816162109375 799.9426066080723) rotate(0 -0.6909465712354859 88.76341812007598)"><path d="M-12.12 148.77 C-7.95 162.27, -3.76 171.74, -0.79 178.91 M-10.76 149.81 C-6.2 158.99, -4.86 166.99, -0.36 179.27" stroke="#000000" stroke-width="1" fill="none"></path></g><g transform="translate(808.7816162109375 799.9426066080723) rotate(0 -0.6909465712354859 88.76341812007598)"><path d="M8.4 148.56 C5.48 162.17, 2.56 171.71, -0.79 178.91 M9.76 149.61 C8.25 159.05, 3.52 167.1, -0.36 179.27" stroke="#000000" stroke-width="1" fill="none"></path></g></g><g stroke-linecap="round"><g transform="translate(859.997938682413 974.5875651041661) rotate(0 51.927659933124005 -47.596036408139014)"><path d="M-0.46 1.19 C16.9 -14.4, 87.18 -78.33, 104.31 -94.38 M1.5 0.76 C18.77 -15.14, 86.65 -80.58, 103.85 -96.38" stroke="#000000" stroke-width="1" fill="none"></path></g><g transform="translate(859.997938682413 974.5875651041661) rotate(0 51.927659933124005 -47.596036408139014)"><path d="M92.37 -68.02 C95.19 -79.66, 98.2 -87.58, 104.55 -95.34 M90.8 -69.37 C94.18 -77.82, 99.43 -85.99, 104.58 -96.63" stroke="#000000" stroke-width="1" fill="none"></path></g><g transform="translate(859.997938682413 974.5875651041661) rotate(0 51.927659933124005 -47.596036408139014)"><path d="M78.28 -82.94 C85.42 -89.85, 92.84 -93.09, 104.55 -95.34 M76.72 -84.3 C84.14 -88.33, 93.56 -92.09, 104.58 -96.63" stroke="#000000" stroke-width="1" fill="none"></path></g></g><g transform="translate(819.4556884765625 861.8063761393223) rotate(0 9 10)"><text x="9" y="14" font-family="Virgil, Segoe UI Emoji" font-size="16px" fill="#000000" text-anchor="middle" style="white-space: pre;" direction="ltr">no</text></g><g transform="translate(58.71051025390625 98.42124430338481) rotate(0 104.5 12.5)"><text x="104.5" y="18" font-family="Virgil, Segoe UI Emoji" font-size="20px" fill="#c92a2a" text-anchor="middle" style="white-space: pre;" direction="ltr">Item_field::fix_fields</text></g></svg>