<svg version="1.1" xmlns="http://www.w3.org/2000/svg" viewBox="0 0 827.2945543415846 651.899658203125" width="827.2945543415846" height="651.899658203125">
  <!-- svg-source:excalidraw -->
  
  <defs>
    <style>
      @font-face {
        font-family: "Virgil";
        src: url("https://excalidraw.com/Virgil.woff2");
      }
      @font-face {
        font-family: "Cascadia";
        src: url("https://excalidraw.com/Cascadia.woff2");
      }
    </style>
  </defs>
  <rect x="0" y="0" width="827.2945543415846" height="651.899658203125" fill="#ffffff"></rect><g stroke-linecap="round" transform="translate(105.75711491444201 140.3001413345337) rotate(0 37.5 46.523338317871094)"><path d="M-1.81 -0.66 C15.18 -1.05, 32.44 -0.69, 75.95 -0.52 M0.41 0.06 C24.68 -0.61, 49.78 -0.1, 75.87 0.61 M74.95 -1.86 C74.84 28.27, 76.23 58.94, 74.02 92.59 M74.64 0.74 C75.44 30.99, 76.51 62.17, 74.74 93.62 M74.85 91.1 C48.16 92.3, 21.98 93.41, -0.79 92.36 M75.39 92.26 C49.15 93.66, 24.7 93.65, 0.47 93.99 M-1.39 93.27 C-0.66 65.28, 1.61 37.74, -1.98 -1.52 M-0.76 93.55 C0.74 71.38, 0.74 49.29, 0.55 -0.58" stroke="#000000" stroke-width="1" fill="none"></path></g><g transform="translate(73.68198063709826 102.70323276519775) rotate(0 35.5 10)"><text x="0" y="14" font-family="Virgil, Segoe UI Emoji" font-size="16px" fill="#000000" text-anchor="start" style="white-space: pre;" direction="ltr">SQLIList</text></g><g stroke-linecap="round"><g transform="translate(107.25217106678576 167.02439975738525) rotate(0 37.07059260592794 -0.03543153946974087)"><path d="M0.93 -0.1 C13.35 0.1, 62.08 1.22, 74.19 1.13 M-0.05 -1.19 C12.3 -1.29, 61.4 -0.65, 73.53 -0.4" stroke="#000000" stroke-width="1" fill="none"></path></g></g><g transform="translate(111.04282048084826 142.66038608551025) rotate(0 33.5 10)"><text x="0" y="14" font-family="Virgil, Segoe UI Emoji" font-size="16px" fill="#000000" text-anchor="start" style="white-space: pre;" direction="ltr">elements</text></g><g stroke-linecap="round"><g transform="translate(107.03757145741076 198.96131992340088) rotate(0 36.08110540322957 0.27714360281824213)"><path d="M-0.87 -1.17 C11.39 -1.2, 60.96 -0.07, 73.04 0.12 M0.87 0.82 C13.09 0.99, 60.91 1.64, 72.52 1.73" stroke="#000000" stroke-width="1" fill="none"></path></g></g><g transform="translate(110.75711491444201 176.82347965240479) rotate(0 32.5 10)"><text x="32.5" y="14" font-family="Virgil, Segoe UI Emoji" font-size="16px" fill="#000000" text-anchor="middle" style="white-space: pre;" direction="ltr">first</text></g><g transform="translate(125.05484440662951 206.505539894104) rotate(0 18 10)"><text x="0" y="14" font-family="Virgil, Segoe UI Emoji" font-size="16px" fill="#000000" text-anchor="start" style="white-space: pre;" direction="ltr">next</text></g><g stroke-linecap="round" transform="translate(58.17862370350451 136.39668369293213) rotate(0 23.5 48.5)"><path d="M0.06 1.38 C15.42 -0.09, 29.35 1.54, 48.38 -1.71 M0.14 0.05 C11.29 -0.26, 22.89 0, 47.14 -0.62 M47.24 0.2 C46.9 33.97, 45.93 66.55, 46.98 95.47 M46.28 -0.34 C48.3 26.08, 48.83 51.08, 47.76 96.16 M47.11 95.16 C30.84 95.75, 13.48 98.26, 0.05 95.77 M46.23 97.21 C33.79 95.87, 18.03 97.63, -0.69 96.76 M-0.76 97.77 C-1.99 62.57, -1.14 30.21, 1.76 -0.69 M-0.45 97.68 C-1 66.07, 0.18 33.24, 0.52 0.63" stroke="#000000" stroke-width="1" fill="none"></path></g><g stroke-linecap="round"><g transform="translate(61.13174870350451 167.46034336090088) rotate(0 17.607601934075376 0.15840997882187935)"><path d="M-1.01 1.07 C4.47 1.11, 27.9 -0.57, 33.95 -0.75 M0.65 0.58 C6.43 0.9, 30.55 1.08, 36.23 0.64" stroke="#000000" stroke-width="1" fill="none"></path></g></g><g stroke-linecap="round"><g transform="translate(60.82959416248889 196.004075050354) rotate(0 19.388126746872445 0.9814099588896994)"><path d="M0.08 0.74 C6.86 1.08, 33.67 2.04, 40.11 1.86 M-1.33 0.08 C5.42 0.14, 33.17 0.3, 39.68 0.36" stroke="#000000" stroke-width="1" fill="none"></path></g></g><g transform="translate(64.98617985584826 144.8889627456665) rotate(0 15 10)"><text x="0" y="14" font-family="Virgil, Segoe UI Emoji" font-size="16px" fill="#000000" text-anchor="start" style="white-space: pre;" direction="ltr">uint</text></g><g transform="translate(63.17862370350451 174.89668369293213) rotate(0 18.5 10)"><text x="18.5" y="14" font-family="Virgil, Segoe UI Emoji" font-size="16px" fill="#000000" text-anchor="middle" style="white-space: pre;" direction="ltr">*</text></g><g transform="translate(74.52731755116076 205.01793003082275) rotate(0 9 10)"><text x="0" y="14" font-family="Virgil, Segoe UI Emoji" font-size="16px" fill="#000000" text-anchor="start" style="white-space: pre;" direction="ltr">**</text></g><g stroke-linecap="round"><g transform="translate(129.7746625218639 191.75496006011963) rotate(0 6.891020139985869 49.464770432175854)"><path d="M-1.06 -0.41 C-7.11 11.9, -43.94 58.25, -35.36 74.87 C-26.78 91.5, 35.99 95.27, 50.43 99.34" stroke="#c92a2a" stroke-width="1.5" fill="none" stroke-dasharray="1.5 7"></path></g><g transform="translate(129.7746625218639 191.75496006011963) rotate(0 6.891020139985869 49.464770432175854)"><path d="M51.73 98.41 L37.38 102.59 L39.3 90.71 L51.41 98.01" stroke="none" stroke-width="0" fill="#c92a2a" fill-rule="evenodd"></path><path d="M49.92 98.2 C45.38 99.59, 39.87 102.18, 36.23 102.84 M35.53 104.52 C36.95 98.9, 38.22 94.43, 38.29 89.64 M36.7 90.16 C43.08 93.77, 46.54 97.86, 50.06 100.19 M50.43 99.34 C50.43 99.34, 50.43 99.34, 50.43 99.34" stroke="#c92a2a" stroke-width="1.5" fill="none"></path></g></g><g stroke-linecap="round" transform="translate(189.383579758192 271.10659885406494) rotate(0 24.0748291015625 21.000167846679688)"><path d="M13.08 2.27 C17.23 0.29, 24.43 -0.63, 29.42 0.57 C34.41 1.76, 40.08 5.86, 43.04 9.45 C45.99 13.04, 47.37 17.85, 47.17 22.12 C46.97 26.38, 45.35 31.85, 41.83 35.05 C38.31 38.25, 31.25 40.7, 26.04 41.31 C20.84 41.92, 14.93 41.01, 10.58 38.69 C6.24 36.38, 1.54 31.76, -0.03 27.41 C-1.59 23.06, -1.17 16.91, 1.21 12.59 C3.59 8.27, 11.77 3.37, 14.25 1.49 C16.73 -0.39, 15.85 0.89, 16.06 1.33" stroke="#000000" stroke-width="1.5" fill="none" stroke-dasharray="8 9"></path></g><g stroke-linecap="round"><g transform="translate(176.55546890782273 219.15299444199934) rotate(0 15.181919942935735 -18.669675705967677)"><path d="M-0.85 -0.01 C6.24 -3.09, 45.7 -11.67, 43.63 -17.88 C41.56 -24.1, -3.96 -34.18, -13.27 -37.32" stroke="#c92a2a" stroke-width="1.5" fill="none" stroke-dasharray="1.5 7"></path></g><g transform="translate(176.55546890782273 219.15299444199934) rotate(0 15.181919942935735 -18.669675705967677)"><path d="M-13.65 -36.22 L-0.04 -40.97 L-3.81 -26.14 L-13.42 -36.56" stroke="none" stroke-width="0" fill="#c92a2a" fill-rule="evenodd"></path><path d="M-13.29 -36.17 C-6.39 -38.5, -1.6 -38.19, 2.44 -40.37 M1.01 -39.12 C-0.14 -38.03, -0.13 -34.52, -1.66 -27.71 M-1.61 -28.85 C-4.75 -29.66, -7.69 -31.01, -14.05 -38.03 M-13.27 -37.32 C-13.27 -37.32, -13.27 -37.32, -13.27 -37.32" stroke="#c92a2a" stroke-width="1.5" fill="none"></path></g></g><g stroke-linecap="round" transform="translate(439.349888351942 135.95870304107666) rotate(0 37.5 46.523338317871094)"><path d="M0.52 1.73 C21.12 -0.65, 39.02 -2.34, 73.31 -1.42 M-0.97 -0.06 C17.25 0.07, 35.9 -0.11, 75.09 0.04 M74.06 -0.61 C74.26 26.03, 75.99 51.66, 74.44 94.19 M74.2 0.2 C73.89 35.37, 75.3 73.19, 75.47 93.41 M74.09 92.12 C49.46 90.95, 25.51 91.61, -0.12 93.94 M74.51 93.5 C46.47 92.94, 16.02 93.7, 0.69 93.15 M0.25 94.84 C-1.18 61.33, -0.81 31.56, 0.19 -1.27 M0.43 93.89 C-0.73 65.97, -0.11 36.85, -0.71 -0.31" stroke="#000000" stroke-width="1" fill="none"></path></g><g transform="translate(407.27475407459826 98.36179447174072) rotate(0 35.5 10)"><text x="0" y="14" font-family="Virgil, Segoe UI Emoji" font-size="16px" fill="#000000" text-anchor="start" style="white-space: pre;" direction="ltr">SQLIList</text></g><g stroke-linecap="round"><g transform="translate(440.84494450428576 162.68296146392822) rotate(0 36.80336779751815 0.17750874764286095)"><path d="M1.04 0.73 C13.18 0.6, 61.58 -0.18, 73.48 -0.47 M0.13 0.07 C12.04 0.07, 60.02 0.87, 72.46 0.82" stroke="#000000" stroke-width="1" fill="none"></path></g></g><g transform="translate(444.63559391834826 138.31894779205322) rotate(0 33.5 10)"><text x="0" y="14" font-family="Virgil, Segoe UI Emoji" font-size="16px" fill="#000000" text-anchor="start" style="white-space: pre;" direction="ltr">elements</text></g><g stroke-linecap="round"><g transform="translate(440.63034489491076 194.61988162994385) rotate(0 35.73988934228197 -0.893749469741735)"><path d="M-0.15 -0.47 C11.52 -0.76, 59.14 -0.97, 71.06 -1.01 M-1.68 -1.76 C10.25 -2, 60.58 -0.33, 73.16 -0.01" stroke="#000000" stroke-width="1" fill="none"></path></g></g><g transform="translate(444.349888351942 172.48204135894775) rotate(0 32.5 10)"><text x="32.5" y="14" font-family="Virgil, Segoe UI Emoji" font-size="16px" fill="#000000" text-anchor="middle" style="white-space: pre;" direction="ltr">first</text></g><g transform="translate(458.6476178441295 202.16410160064697) rotate(0 18 10)"><text x="0" y="14" font-family="Virgil, Segoe UI Emoji" font-size="16px" fill="#000000" text-anchor="start" style="white-space: pre;" direction="ltr">next</text></g><g stroke-linecap="round" transform="translate(391.7713971410045 132.0552453994751) rotate(0 23.5 48.5)"><path d="M-1.42 -1.24 C10.99 2.16, 22.59 0.28, 45.81 1.46 M0.04 -0.17 C15.51 0.65, 29.79 -0.35, 46.45 -0.14 M48.14 1.82 C46.17 32.18, 44.92 64.75, 45.11 95.02 M47.36 0.43 C47.87 32.77, 47 66.66, 47.08 96.25 M47.9 98.73 C29.86 96.65, 8.87 97.88, 0.93 97.03 M47.11 97.38 C37.3 97.95, 28.18 98.22, -0.69 96.87 M-1.27 97 C-1.04 74.37, 0.16 50.39, -1.78 1.65 M-0.31 97.29 C-0.34 70.51, 0.02 44.64, -0.78 0.53" stroke="#000000" stroke-width="1" fill="none"></path></g><g stroke-linecap="round"><g transform="translate(394.7245221410045 163.11890506744385) rotate(0 17.730403055781494 0.255118978228424)"><path d="M-0.85 -0.75 C5.01 -0.48, 28.26 0.56, 34 0.6 M0.9 1.48 C7.25 1.52, 30.48 -0.85, 36.31 -0.97" stroke="#000000" stroke-width="1" fill="none"></path></g></g><g stroke-linecap="round"><g transform="translate(394.4223675999889 191.66263675689697) rotate(0 19.712748311087466 0.3565123509639534)"><path d="M-0.75 -0.77 C6.12 -0.7, 33.54 -0.6, 40.17 -0.48 M1.06 1.45 C7.95 1.69, 33.58 0.54, 39.78 0.45" stroke="#000000" stroke-width="1" fill="none"></path></g></g><g transform="translate(398.57895329334826 140.54752445220947) rotate(0 15 10)"><text x="0" y="14" font-family="Virgil, Segoe UI Emoji" font-size="16px" fill="#000000" text-anchor="start" style="white-space: pre;" direction="ltr">uint</text></g><g transform="translate(396.7713971410045 170.5552453994751) rotate(0 18.5 10)"><text x="18.5" y="14" font-family="Virgil, Segoe UI Emoji" font-size="16px" fill="#000000" text-anchor="middle" style="white-space: pre;" direction="ltr">*</text></g><g transform="translate(408.12009098866076 200.67649173736572) rotate(0 9 10)"><text x="0" y="14" font-family="Virgil, Segoe UI Emoji" font-size="16px" fill="#000000" text-anchor="start" style="white-space: pre;" direction="ltr">**</text></g><g stroke-linecap="round"><g transform="translate(463.3674359593639 187.4135217666626) rotate(0 8.546753477054438 49.23357018417285)"><path d="M-0.07 -0.71 C-5.84 11.95, -42.25 58.18, -33.57 74.83 C-24.9 91.48, 37.84 95.17, 51.99 99.18" stroke="#c92a2a" stroke-width="1.5" fill="none" stroke-dasharray="1.5 7"></path></g><g transform="translate(463.3674359593639 187.4135217666626) rotate(0 8.546753477054438 49.23357018417285)"><path d="M51.67 98.21 L38.44 104.11 L39.67 88.71 L53.54 100.56" stroke="none" stroke-width="0" fill="#c92a2a" fill-rule="evenodd"></path><path d="M51.11 100.28 C46.67 101.55, 40.87 102.33, 37.28 103.74 M36.84 102.99 C38.77 97.94, 38.79 94.67, 40.79 90.45 M38.22 89.19 C43.96 93.91, 47.69 96.29, 52.63 99.79 M51.99 99.18 C51.99 99.18, 51.99 99.18, 51.99 99.18" stroke="#c92a2a" stroke-width="1.5" fill="none"></path></g></g><g stroke-linecap="round" transform="translate(522.976353195692 266.7651605606079) rotate(0 24.0748291015625 21.000167846679688)"><path d="M26.75 -0.04 C31.62 0.26, 38.37 3.95, 41.85 7.18 C45.33 10.41, 47.45 14.98, 47.63 19.33 C47.81 23.68, 45.86 29.69, 42.94 33.28 C40.01 36.88, 35.07 39.72, 30.1 40.91 C25.13 42.1, 17.66 42.34, 13.13 40.4 C8.61 38.46, 4.97 33.62, 2.94 29.27 C0.91 24.92, -0.36 18.76, 0.96 14.31 C2.29 9.87, 6.14 4.77, 10.91 2.59 C15.67 0.41, 25.63 1.2, 29.56 1.23 C33.48 1.27, 34.36 2.47, 34.48 2.81" stroke="#000000" stroke-width="1.5" fill="none" stroke-dasharray="8 9"></path></g><g stroke-linecap="round"><g transform="translate(510.1482423453227 214.8115561485423) rotate(0 15.198489557346193 -18.700930378971833)"><path d="M0.88 0.26 C8.12 -2.73, 45.69 -12.36, 43.38 -18.68 C41.07 -25, -3.65 -34.67, -12.98 -37.66" stroke="#c92a2a" stroke-width="1.5" fill="none" stroke-dasharray="1.5 7"></path></g><g transform="translate(510.1482423453227 214.8115561485423) rotate(0 15.198489557346193 -18.700930378971833)"><path d="M-12.07 -36.73 L1.82 -42.26 L0.07 -26.66 L-12.77 -36.9" stroke="none" stroke-width="0" fill="#c92a2a" fill-rule="evenodd"></path><path d="M-12.65 -36.83 C-8.49 -38.48, -4.54 -38.75, 2.83 -40.99 M2.19 -40.91 C0.49 -36.27, 1.11 -33.91, -1.48 -29.05 M-0.79 -27.33 C-4.35 -30.69, -8.1 -33.69, -14.17 -38.35 M-12.98 -37.66 C-12.98 -37.66, -12.98 -37.66, -12.98 -37.66" stroke="#c92a2a" stroke-width="1.5" fill="none"></path></g></g><g stroke-linecap="round" transform="translate(625.8137728143973 266.5274019241333) rotate(0 24.0748291015625 21.000167846679688)"><path d="M20.56 0.93 C25.48 0.19, 32.42 0.45, 36.83 2.75 C41.25 5.05, 45.47 10.31, 47.02 14.73 C48.58 19.15, 48.14 25.16, 46.17 29.27 C44.2 33.37, 39.74 37.24, 35.2 39.35 C30.65 41.47, 23.97 42.93, 18.92 41.95 C13.88 40.97, 8.04 37.07, 4.93 33.49 C1.82 29.91, 0.13 24.89, 0.23 20.46 C0.34 16.04, 1.81 10.42, 5.56 6.94 C9.3 3.45, 19.5 0.78, 22.71 -0.42 C25.93 -1.62, 24.54 -0.81, 24.83 -0.25 M14.99 1.36 C19.53 -0.67, 26.29 -1.34, 31.42 0.35 C36.55 2.03, 42.83 7.34, 45.77 11.48 C48.71 15.62, 50.34 20.73, 49.05 25.19 C47.77 29.66, 42.27 35.41, 38.03 38.25 C33.8 41.09, 28.56 42.41, 23.64 42.25 C18.72 42.09, 12.38 40.26, 8.51 37.3 C4.63 34.33, 1.29 29.07, 0.38 24.45 C-0.52 19.84, 0.4 13.49, 3.1 9.6 C5.8 5.72, 14.51 2.21, 16.59 1.13 C18.67 0.05, 15.59 2.52, 15.56 3.1" stroke="#364fc7" stroke-width="1" fill="none"></path></g><g stroke-linecap="round" transform="translate(722.9669365066742 266.5888719558716) rotate(0 24.0748291015625 21.000167846679688)"><path d="M13.47 2.07 C17.67 -0.1, 23.42 -0.65, 28.3 0.34 C33.19 1.32, 39.47 4.38, 42.78 7.98 C46.08 11.57, 48.31 17.36, 48.12 21.92 C47.93 26.48, 44.99 32.01, 41.64 35.34 C38.29 38.68, 33.08 41.31, 28.03 41.92 C22.98 42.54, 15.68 41.61, 11.32 39.05 C6.95 36.5, 3.4 31.01, 1.86 26.6 C0.31 22.18, -0.08 16.83, 2.03 12.55 C4.15 8.27, 12.07 2.62, 14.53 0.89 C16.98 -0.83, 16.4 1.9, 16.76 2.22" stroke="#000000" stroke-width="1.5" fill="none" stroke-dasharray="8 9"></path></g><g stroke-linecap="round"><g transform="translate(684.3553570158396 287.0670210296589) rotate(0 14.515730784118773 -0.2861677039603592)"><path d="M-0.28 -1.18 C4.36 -1.36, 22.25 -1.4, 27.16 -1.38 M1.77 0.81 C6.83 0.79, 24.8 -0.13, 29.32 -0.27" stroke="#000000" stroke-width="1" fill="none"></path></g><g transform="translate(684.3553570158396 287.0670210296589) rotate(0 14.515730784118773 -0.2861677039603592)"><path d="M27.8 -0.69 L17.98 7.76 L15.87 -4.41 L27.58 1.71" stroke="none" stroke-width="0" fill="#000000" fill-rule="evenodd"></path><path d="M27.92 -1.51 C25.33 2.37, 22.66 1.87, 16.64 5.93 M29.04 -0.02 C25.94 1.79, 21.8 3.77, 17.25 5.54 M15.99 5.38 C17.87 3.26, 15.71 -2.61, 17.11 -6.43 M17.11 6.59 C17.22 2.74, 15.98 -0.67, 16.15 -5.59 M16.18 -5.85 C19.4 -3.45, 23.96 -2.95, 30.69 -0.61 M15.99 -5.03 C21.55 -3.75, 26 -1.14, 29.24 -0.18 M29.32 -0.27 C29.32 -0.27, 29.32 -0.27, 29.32 -0.27 M29.32 -0.27 C29.32 -0.27, 29.32 -0.27, 29.32 -0.27" stroke="#000000" stroke-width="1" fill="none"></path></g></g><g transform="translate(117.72214176991076 43.64405918121338) rotate(0 3 10)"><text x="0" y="14" font-family="Virgil, Segoe UI Emoji" font-size="16px" fill="#364fc7" text-anchor="start" style="white-space: pre;" direction="ltr">1</text></g><g transform="translate(456.72214176991076 49.64405918121338) rotate(0 6.5 10)"><text x="0" y="14" font-family="Virgil, Segoe UI Emoji" font-size="16px" fill="#364fc7" text-anchor="start" style="white-space: pre;" direction="ltr">2</text></g><g stroke-linecap="round" transform="translate(103.88773878629456 434.94586658477783) rotate(0 37.5 46.523338317871094)"><path d="M-0.94 -1.65 C23.5 -1.41, 47.5 -0.18, 76.97 1.01 M-0.07 -0.87 C21.12 -0.23, 41.85 -0.12, 75.13 0.99 M73.02 -1.05 C76.76 33.65, 74.21 66.94, 73.83 94.83 M74.05 0.6 C74.92 26.8, 75.3 53.05, 74.82 92.78 M73.21 94.65 C55.68 92.57, 32.99 94.29, -0.66 94.55 M74.41 92.46 C56.38 92.51, 39.15 92.39, 0.93 92.53 M-0.82 91.59 C1.06 64.23, 1.57 35.72, -1.14 -0.7 M0.63 92.28 C1.1 65.12, 0.02 35.32, -0.1 -1" stroke="#000000" stroke-width="1" fill="none"></path></g><g transform="translate(71.81260450895081 397.3489580154419) rotate(0 35.5 10)"><text x="0" y="14" font-family="Virgil, Segoe UI Emoji" font-size="16px" fill="#000000" text-anchor="start" style="white-space: pre;" direction="ltr">SQLIList</text></g><g stroke-linecap="round"><g transform="translate(105.38279493863831 461.6701250076294) rotate(0 37.043878640905035 0.2389273503631557)"><path d="M-0.99 -0.67 C11.13 -0.75, 60.38 -1.34, 72.8 -1.03 M0.69 1.6 C13.19 1.68, 63.07 0.32, 75.08 -0.03" stroke="#000000" stroke-width="1" fill="none"></path></g></g><g transform="translate(109.17344435270081 437.3061113357544) rotate(0 33.5 10)"><text x="0" y="14" font-family="Virgil, Segoe UI Emoji" font-size="16px" fill="#000000" text-anchor="start" style="white-space: pre;" direction="ltr">elements</text></g><g stroke-linecap="round"><g transform="translate(105.16819532926331 493.607045173645) rotate(0 35.651418862864375 0.07667249031365486)"><path d="M-0.83 -1.03 C11.36 -0.72, 59.85 1.04, 72.13 1.18 M0.94 1.04 C13.05 1.11, 59.23 -0.31, 71.13 -0.32" stroke="#000000" stroke-width="1" fill="none"></path></g></g><g transform="translate(108.88773878629456 471.4692049026489) rotate(0 32.5 10)"><text x="32.5" y="14" font-family="Virgil, Segoe UI Emoji" font-size="16px" fill="#000000" text-anchor="middle" style="white-space: pre;" direction="ltr">first</text></g><g transform="translate(123.18546827848206 501.15126514434814) rotate(0 18 10)"><text x="0" y="14" font-family="Virgil, Segoe UI Emoji" font-size="16px" fill="#000000" text-anchor="start" style="white-space: pre;" direction="ltr">next</text></g><g stroke-linecap="round" transform="translate(56.30924757535706 431.04240894317627) rotate(0 23.5 48.5)"><path d="M1.01 -0.32 C9.61 -1.82, 19.98 -2.21, 46.68 -1.47 M0.99 0.63 C11.51 0.5, 20.41 -0.59, 47.5 -0.08 M48.78 -0.23 C47.58 20.28, 44.78 44.4, 45.99 96.87 M46.73 -0.29 C45.74 28.75, 45.45 56.57, 47.5 96.44 M48.51 95.83 C34.63 97.49, 24.18 95.66, -1 95.44 M46.48 97.09 C30.21 97.66, 14.69 96.71, 0.14 96.97 M-0.7 97.18 C-1.87 64.63, 1.18 29.62, 0.54 1.62 M-1 96.47 C0.17 75.49, -0.09 55.03, -0.6 -0.13" stroke="#000000" stroke-width="1" fill="none"></path></g><g stroke-linecap="round"><g transform="translate(59.26237257535706 462.106068611145) rotate(0 16.980682138428108 -0.7489659296721243)"><path d="M0.6 -0.19 C6.37 -0.6, 28.82 -1.05, 34.5 -1.27 M-0.54 -1.34 C5.05 -1.11, 27.67 -0.26, 33.41 -0.16" stroke="#000000" stroke-width="1" fill="none"></path></g></g><g stroke-linecap="round"><g transform="translate(58.96021803434144 490.64980030059814) rotate(0 19.416931711528434 0.3152187230251968)"><path d="M-0.19 -0.27 C5.99 -0.27, 31.93 0.47, 38.3 0.6 M-1.76 -1.46 C4.71 -1.32, 33.56 1.56, 40.59 2.09" stroke="#000000" stroke-width="1" fill="none"></path></g></g><g transform="translate(63.11680372770081 439.53468799591064) rotate(0 15 10)"><text x="0" y="14" font-family="Virgil, Segoe UI Emoji" font-size="16px" fill="#000000" text-anchor="start" style="white-space: pre;" direction="ltr">uint</text></g><g transform="translate(61.30924757535706 469.54240894317627) rotate(0 18.5 10)"><text x="18.5" y="14" font-family="Virgil, Segoe UI Emoji" font-size="16px" fill="#000000" text-anchor="middle" style="white-space: pre;" direction="ltr">*</text></g><g transform="translate(72.65794142301331 499.6636552810669) rotate(0 9 10)"><text x="0" y="14" font-family="Virgil, Segoe UI Emoji" font-size="16px" fill="#000000" text-anchor="start" style="white-space: pre;" direction="ltr">**</text></g><g stroke-linecap="round"><g transform="translate(127.39738234098206 484.88799940520005) rotate(0 -7.603213710439604 54.94618892395923)"><path d="M-1.05 -0.19 C-6.8 11.09, -38.87 49.21, -35.33 67.59 C-31.79 85.98, 10.61 102.9, 20.18 110.09" stroke="#c92a2a" stroke-width="1.5" fill="none" stroke-dasharray="1.5 7"></path></g><g transform="translate(127.39738234098206 484.88799940520005) rotate(0 -7.603213710439604 54.94618892395923)"><path d="M20.82 108.9 L4.05 107.85 L9.95 98.63 L18.38 111.95" stroke="none" stroke-width="0" fill="#c92a2a" fill-rule="evenodd"></path><path d="M19.94 108.99 C15.62 108.73, 13.43 110.86, 6.18 110.06 M5.87 108.75 C6.6 104.54, 9.07 102.17, 11.37 98.42 M10.76 97.75 C13.24 99.64, 15.18 103.11, 19.74 109.18 M20.18 110.09 C20.18 110.09, 20.18 110.09, 20.18 110.09" stroke="#c92a2a" stroke-width="1.5" fill="none"></path></g></g><g stroke-linecap="round" transform="translate(159.52355928390637 575.131630897522) rotate(0 24.0748291015625 21.000167846679688)"><path d="M26.48 0.61 C31.06 0.43, 36.07 2.31, 39.75 5.32 C43.42 8.32, 47.92 14.15, 48.51 18.65 C49.11 23.16, 46.36 28.44, 43.31 32.34 C40.26 36.24, 35.05 40.67, 30.21 42.06 C25.36 43.45, 18.98 42.79, 14.25 40.67 C9.52 38.55, 3.97 33.52, 1.81 29.33 C-0.35 25.13, -0.04 19.72, 1.29 15.49 C2.62 11.25, 5.6 6.51, 9.79 3.93 C13.98 1.35, 23.37 0.56, 26.43 -0.01 C29.5 -0.58, 28.22 -0.04, 28.18 0.48 M12.84 1.01 C17 -1.28, 25.2 -0.98, 30.52 0.17 C35.84 1.32, 42.05 4.08, 44.79 7.91 C47.52 11.73, 47.65 18.62, 46.91 23.1 C46.18 27.59, 43.92 31.88, 40.38 34.81 C36.84 37.75, 30.55 40.37, 25.66 40.73 C20.77 41.09, 14.95 39.45, 11.06 36.97 C7.16 34.49, 3.74 30.18, 2.28 25.86 C0.82 21.54, 0.33 15.13, 2.29 11.06 C4.25 6.99, 12.27 2.85, 14.02 1.45 C15.77 0.04, 12.68 2.13, 12.79 2.65" stroke="#364fc7" stroke-width="1" fill="none"></path></g><g stroke-linecap="round" transform="translate(256.6767229761832 575.1931009292603) rotate(0 24.0748291015625 21.000167846679688)"><path d="M36.03 1.51 C40.3 3.25, 44.1 9.5, 45.91 13.72 C47.71 17.94, 48.44 22.71, 46.86 26.8 C45.28 30.89, 40.63 35.79, 36.41 38.27 C32.18 40.75, 26.49 42.33, 21.52 41.67 C16.54 41.01, 10.31 37.56, 6.57 34.32 C2.83 31.08, -0.62 26.64, -0.93 22.24 C-1.25 17.84, 1.33 11.68, 4.66 7.94 C7.99 4.19, 13.54 0.5, 19.04 -0.23 C24.55 -0.97, 34.28 2.64, 37.68 3.51 C41.08 4.38, 39.5 4.82, 39.44 5" stroke="#000000" stroke-width="1.5" fill="none" stroke-dasharray="8 9"></path></g><g stroke-linecap="round"><g transform="translate(218.06514348534859 595.6712500030476) rotate(0 13.875904708088058 0.004457741978001195)"><path d="M0.16 1.18 C5.13 1.37, 24.18 0.89, 28.97 0.4 M-1.22 0.76 C3.74 0.69, 23.47 -0.91, 28.42 -1.21" stroke="#000000" stroke-width="1" fill="none"></path></g><g transform="translate(218.06514348534859 595.6712500030476) rotate(0 13.875904708088058 0.004457741978001195)"><path d="M28.8 -1.11 L17.03 6.71 L14.33 -6.71 L28.83 0.02" stroke="none" stroke-width="0" fill="#000000" fill-rule="evenodd"></path><path d="M29.81 -0.32 C26.71 1.16, 21.37 1.18, 16.81 5.53 M29.05 -1.29 C25.97 -0.23, 22.24 2.19, 15.74 5.6 M15.77 5.3 C15.21 3.26, 14.62 -0.23, 15.83 -6.92 M16.54 5.3 C15.4 3.1, 15.31 -0.18, 14.94 -6.71 M14.51 -6.12 C18.49 -4.34, 23.57 -3.98, 28.62 -1.26 M14.99 -6.18 C19.09 -4.27, 24.64 -3.29, 28.61 -0.64 M28.42 -1.21 C28.42 -1.21, 28.42 -1.21, 28.42 -1.21 M28.42 -1.21 C28.42 -1.21, 28.42 -1.21, 28.42 -1.21" stroke="#000000" stroke-width="1" fill="none"></path></g></g><g transform="translate(121.48856886441956 348.8597993850708) rotate(0 6 10)"><text x="0" y="14" font-family="Virgil, Segoe UI Emoji" font-size="16px" fill="#364fc7" text-anchor="start" style="white-space: pre;" direction="ltr">3</text></g><g stroke-linecap="round"><g transform="translate(163.07515274571313 515.4670323577709) rotate(0 20.526952477172017 -18.399045390130112)"><path d="M0.9 0.5 C7.54 -2.19, 39.81 -8.71, 40.15 -15.02 C40.49 -21.32, 8.78 -33.91, 2.93 -37.3" stroke="#c92a2a" stroke-width="1.5" fill="none" stroke-dasharray="1.5 7"></path></g><g transform="translate(163.07515274571313 515.4670323577709) rotate(0 20.526952477172017 -18.399045390130112)"><path d="M1.87 -35.64 L19.63 -37.82 L13.11 -24.08 L2.62 -35.51" stroke="none" stroke-width="0" fill="#c92a2a" fill-rule="evenodd"></path><path d="M3.56 -36.06 C7.31 -38.82, 11.24 -36.1, 18.94 -35.86 M16.91 -37.96 C15.18 -32.41, 13.03 -28.47, 13.62 -26.84 M13.12 -25.5 C8.71 -27.81, 7.65 -32.37, 3.62 -36.58 M2.93 -37.3 C2.93 -37.3, 2.93 -37.3, 2.93 -37.3" stroke="#c92a2a" stroke-width="1.5" fill="none"></path></g></g><g transform="translate(469.3842292648102 356.51373958587646) rotate(0 5.5 10)"><text x="0" y="14" font-family="Virgil, Segoe UI Emoji" font-size="16px" fill="#364fc7" text-anchor="start" style="white-space: pre;" direction="ltr">4</text></g><g stroke-linecap="round" transform="translate(457.04176100309144 443.6127042770386) rotate(0 37.5 46.523338317871094)"><path d="M-1.46 -0.76 C28.61 -1, 57.24 -1.4, 75.62 1.64 M-0.25 -0.15 C25.45 -1.05, 48.4 -0.99, 74.51 -0.92 M76.75 0.97 C75.67 33.15, 75.76 65.27, 73.47 91.53 M74.75 -0.26 C75.65 19.8, 75.95 37.82, 74.06 93.17 M76.31 93.17 C56.59 91.43, 39.97 91.61, 1.8 94.14 M74.94 92.24 C47.15 91.78, 17.37 92.42, -0.83 93.54 M-0.13 93.49 C-0.51 61.38, -0.09 34.38, 0.35 1.89 M0.47 92.1 C-1.36 66.98, -0.95 41.12, -0.49 0.4" stroke="#000000" stroke-width="1" fill="none"></path></g><g transform="translate(425.4237800460602 406.93010234832764) rotate(0 35.5 10)"><text x="0" y="14" font-family="Virgil, Segoe UI Emoji" font-size="16px" fill="#000000" text-anchor="start" style="white-space: pre;" direction="ltr">SQLIList</text></g><g stroke-linecap="round"><g transform="translate(458.5368171554352 470.33696269989014) rotate(0 37.29099732452073 -0.8779906264879003)"><path d="M-0.45 -0.5 C11.79 -0.51, 60.61 -1.12, 72.77 -0.98 M1.51 -1.8 C14.19 -1.62, 62.81 0.04, 75.04 0.05" stroke="#000000" stroke-width="1" fill="none"></path></g></g><g transform="translate(462.3274665694977 445.97294902801514) rotate(0 33.5 10)"><text x="0" y="14" font-family="Virgil, Segoe UI Emoji" font-size="16px" fill="#000000" text-anchor="start" style="white-space: pre;" direction="ltr">elements</text></g><g stroke-linecap="round"><g transform="translate(458.3222175460602 502.27388286590576) rotate(0 36.20086687245407 -0.2179316938854754)"><path d="M-0.86 -0.98 C11.07 -0.83, 58.78 0.15, 71.12 0.37 M0.9 1.12 C13.22 0.94, 61.25 -1.07, 73.26 -1.56" stroke="#000000" stroke-width="1" fill="none"></path></g></g><g transform="translate(462.04176100309144 480.13604259490967) rotate(0 32.5 10)"><text x="32.5" y="14" font-family="Virgil, Segoe UI Emoji" font-size="16px" fill="#000000" text-anchor="middle" style="white-space: pre;" direction="ltr">first</text></g><g transform="translate(476.33949049527894 509.8181028366089) rotate(0 18 10)"><text x="0" y="14" font-family="Virgil, Segoe UI Emoji" font-size="16px" fill="#000000" text-anchor="start" style="white-space: pre;" direction="ltr">next</text></g><g stroke-linecap="round" transform="translate(409.46326979215394 439.709246635437) rotate(0 23.5 48.5)"><path d="M1.64 0.57 C11.73 1.34, 20.05 -0.44, 48.65 -0.99 M-0.92 0.47 C10.64 -0.01, 21.15 0.72, 47.1 0.43 M45.48 -1.83 C48.55 28.8, 46.85 60.56, 47.18 97.83 M47.12 -0.56 C45.97 32.97, 46.74 65.81, 46.96 96.15 M48.09 98.6 C30.81 95.86, 11.02 95.81, 1.3 95.64 M47.5 97.21 C35.38 97.5, 24.73 96.83, -0.49 96.09 M1.89 96.6 C0.6 68.71, 0.45 42.4, -1.7 0 M0.4 97.94 C0.71 72.36, -0.27 46.59, 0.7 0.04" stroke="#000000" stroke-width="1" fill="none"></path></g><g stroke-linecap="round"><g transform="translate(412.41639479215394 470.77290630340576) rotate(0 17.846566609526064 -0.3811386825827583)"><path d="M0.99 0.34 C7.11 0.35, 30.07 0.6, 35.65 0.44 M0.05 -0.53 C6.18 -0.88, 29.57 -1.4, 35.16 -1.22" stroke="#000000" stroke-width="1" fill="none"></path></g></g><g stroke-linecap="round"><g transform="translate(412.1142402511383 499.3166379928589) rotate(0 19.533100122138876 1.0316627854853948)"><path d="M0.34 0.88 C6.95 0.78, 33.57 0.26, 40.01 0.39 M-0.94 0.29 C5.55 0.28, 33.03 1.84, 39.53 1.77" stroke="#000000" stroke-width="1" fill="none"></path></g></g><g transform="translate(416.2708259444977 448.2015256881714) rotate(0 15 10)"><text x="0" y="14" font-family="Virgil, Segoe UI Emoji" font-size="16px" fill="#000000" text-anchor="start" style="white-space: pre;" direction="ltr">uint</text></g><g transform="translate(414.46326979215394 478.209246635437) rotate(0 18.5 10)"><text x="18.5" y="14" font-family="Virgil, Segoe UI Emoji" font-size="16px" fill="#000000" text-anchor="middle" style="white-space: pre;" direction="ltr">*</text></g><g transform="translate(425.8119636398102 508.33049297332764) rotate(0 9 10)"><text x="0" y="14" font-family="Virgil, Segoe UI Emoji" font-size="16px" fill="#000000" text-anchor="start" style="white-space: pre;" direction="ltr">**</text></g><g stroke-linecap="round"><g transform="translate(480.55140455777894 493.32626043730454) rotate(0 -7.32859211573043 55.16354097822733)"><path d="M-0.18 0.99 C-6.17 12.28, -38.48 49.39, -35.05 67.45 C-31.62 85.51, 11.26 102.16, 20.41 109.33" stroke="#c92a2a" stroke-width="1.5" fill="none" stroke-dasharray="1.5 7"></path></g><g transform="translate(480.55140455777894 493.32626043730454) rotate(0 -7.32859211573043 55.16354097822733)"><path d="M18.84 109.21 L3.85 109.38 L10.4 95.8 L20.34 107.68" stroke="none" stroke-width="0" fill="#c92a2a" fill-rule="evenodd"></path><path d="M21.65 108.59 C13.55 108.19, 8.48 107, 6.16 108.83 M5.59 108.63 C7.29 105.47, 7.87 101.02, 10.6 97.84 M11.9 97.7 C14.16 98.29, 14 102.5, 19.57 109.17 M20.41 109.33 C20.41 109.33, 20.41 109.33, 20.41 109.33" stroke="#c92a2a" stroke-width="1.5" fill="none"></path></g></g><g stroke-linecap="round" transform="translate(512.6775815007032 583.5698919296265) rotate(0 24.0748291015625 21.000167846679688)"><path d="M13.31 2.31 C17.81 0.36, 25.89 -0.67, 31.15 0.56 C36.41 1.79, 42.04 5.86, 44.87 9.7 C47.7 13.53, 48.78 19.12, 48.13 23.58 C47.48 28.03, 44.84 33.49, 40.99 36.43 C37.15 39.36, 30.37 40.82, 25.05 41.19 C19.73 41.55, 13.26 41.17, 9.06 38.62 C4.86 36.07, 1.01 30.33, -0.14 25.88 C-1.29 21.44, -0.73 16.01, 2.15 11.93 C5.02 7.85, 14.4 3.41, 17.1 1.4 C19.81 -0.6, 18.31 -0.28, 18.39 -0.1 M22.81 -0.03 C27.45 -0.49, 33.29 2.47, 37.22 5.4 C41.15 8.33, 44.85 13.17, 46.38 17.54 C47.91 21.92, 48.31 28.06, 46.39 31.66 C44.47 35.25, 39.77 37.75, 34.88 39.12 C29.98 40.5, 22.03 41.17, 17.04 39.9 C12.04 38.62, 7.88 35.06, 4.91 31.49 C1.94 27.92, -1.03 22.65, -0.79 18.47 C-0.55 14.3, 2.38 9.65, 6.35 6.44 C10.32 3.24, 20.07 0.28, 23.03 -0.74 C25.98 -1.75, 24.05 0, 24.07 0.36" stroke="#364fc7" stroke-width="1" fill="none"></path></g><g stroke-linecap="round" transform="translate(609.8307451929801 583.6313619613647) rotate(0 24.0748291015625 21.000167846679688)"><path d="M19.37 0.99 C24.13 0.11, 30.41 1.24, 34.99 3.26 C39.56 5.28, 44.74 9.06, 46.82 13.1 C48.89 17.14, 49.04 23.35, 47.46 27.5 C45.88 31.64, 41.89 35.73, 37.33 37.96 C32.78 40.2, 25.21 41.51, 20.14 40.9 C15.06 40.29, 10.29 37.5, 6.9 34.29 C3.51 31.08, 0.07 25.9, -0.23 21.62 C-0.53 17.34, 1.65 12.32, 5.09 8.61 C8.53 4.9, 17.88 0.67, 20.41 -0.64 C22.94 -1.96, 20.35 0.21, 20.26 0.69" stroke="#000000" stroke-width="1.5" fill="none" stroke-dasharray="8 9"></path></g><g stroke-linecap="round"><g transform="translate(571.2191657021455 604.1095110351521) rotate(0 14.502298347840735 0.07768821331080744)"><path d="M-1.01 -0.52 C3.43 -0.7, 22.65 -1.76, 27.62 -1.67 M0.66 1.82 C5.41 1.8, 25.41 -0.07, 30.02 -0.71" stroke="#000000" stroke-width="1" fill="none"></path></g><g transform="translate(571.2191657021455 604.1095110351521) rotate(0 14.502298347840735 0.07768821331080744)"><path d="M30.64 -2.38 L18.57 5.27 L17.37 -6.51 L30.47 -0.99" stroke="none" stroke-width="0" fill="#000000" fill-rule="evenodd"></path><path d="M29.41 -1.4 C24.07 2.66, 21.46 4.46, 19.19 7.3 M30.27 -1.25 C25.77 0.94, 22.99 3.25, 17.78 6.43 M16.83 5.5 C17.65 2.3, 16.97 -0.59, 17.43 -5.16 M17.51 7.16 C18 3.6, 17.81 -0.85, 16.62 -5.71 M16.61 -6.4 C22.2 -3.2, 25.65 -0.59, 29.93 -0.39 M17.02 -5.11 C20.63 -4.2, 23.7 -3.61, 30.35 -1.38 M30.02 -0.71 C30.02 -0.71, 30.02 -0.71, 30.02 -0.71 M30.02 -0.71 C30.02 -0.71, 30.02 -0.71, 30.02 -0.71" stroke="#000000" stroke-width="1" fill="none"></path></g></g><g stroke-linecap="round"><g transform="translate(516.22917496251 523.8647387504711) rotate(0 34.647230081399755 35.378031112612916)"><path d="M-0.52 -0.59 C7.1 2.69, 33.42 6.68, 45.14 18.67 C56.86 30.66, 65.63 62.42, 69.81 71.35" stroke="#c92a2a" stroke-width="1.5" fill="none" stroke-dasharray="1.5 7"></path></g><g transform="translate(516.22917496251 523.8647387504711) rotate(0 34.647230081399755 35.378031112612916)"><path d="M68.45 70.07 L58.99 59.24 L71.9 56.8 L68.78 73.12" stroke="none" stroke-width="0" fill="#c92a2a" fill-rule="evenodd"></path><path d="M69.07 69.97 C67.91 69.43, 64.15 67.38, 59.78 61.05 M58.09 59.93 C61.96 60.07, 66.09 57.44, 70.57 56.5 M69.5 56.57 C69.76 61.32, 70.36 67.58, 69.91 71.29 M69.81 71.35 C69.81 71.35, 69.81 71.35, 69.81 71.35" stroke="#c92a2a" stroke-width="1.5" fill="none"></path></g></g><g stroke-linecap="round" transform="translate(10 10) rotate(0 402.3251037597657 315.9498291015625)"><path d="M0.44 -0.34 C298 2.77, 595.32 2.12, 803.95 -0.68 M804 -0.46 C803.35 187.43, 804.26 376.91, 804.94 632.51 M805.36 631.37 C534.1 631.84, 263.78 631.42, 0.02 631.22 M0.26 631.8 C-1.66 456.55, -1.74 281.57, 0.31 0.67" stroke="#000000" stroke-width="1.5" fill="none" stroke-dasharray="1.5 7"></path></g><g stroke-linecap="round"><g transform="translate(13.06195068359375 334.87640380859375) rotate(0 402.095507837087 -7.012680352479208)"><path d="M-0.04 -1.09 C134.06 -3.17, 670.15 -11.05, 804.23 -12.93" stroke="#000000" stroke-width="1.5" fill="none" stroke-dasharray="1.5 7"></path></g></g><g stroke-linecap="round"><g transform="translate(325.8868408203125 16.158172607421875) rotate(0 13.222028685361124 311.95548759624364)"><path d="M0.44 1.09 C4.59 104.82, 22.07 519.48, 26.01 622.82" stroke="#000000" stroke-width="1.5" fill="none" stroke-dasharray="1.5 7"></path></g></g></svg>