<svg version="1.1" xmlns="http://www.w3.org/2000/svg" viewBox="0 0 1252.8983459472656 747.6346435546875" width="1252.8983459472656" height="747.6346435546875">
  <!-- svg-source:excalidraw -->
  
  <defs>
    <style>
      @font-face {
        font-family: "Virgil";
        src: url("https://excalidraw.com/Virgil.woff2");
      }
      @font-face {
        font-family: "Cascadia";
        src: url("https://excalidraw.com/Cascadia.woff2");
      }
    </style>
  </defs>
  <rect x="0" y="0" width="1252.8983459472656" height="747.6346435546875" fill="#ffffff"></rect><g transform="translate(33.855499267578125 106.21356201171875) rotate(0 70 10)"><text x="0" y="14" font-family="Virgil, Segoe UI Emoji" font-size="16px" fill="#000000" text-anchor="start" style="white-space: pre;" direction="ltr">handle_connection</text></g><g stroke-linecap="round" transform="translate(24.917388916015625 97.22366333007812) rotate(0 78.0823974609375 17.689498901367188)"><path d="M-1.13 -1.45 C52.79 -3.23, 106.64 0.61, 155.37 0.37 M-0.9 0.09 C59.66 1.47, 120.54 1.6, 155.71 0.99 M156.24 0.62 C155.66 11.36, 154.77 26.01, 156.71 35.44 M156.02 0.79 C156.14 9.92, 156.93 20.79, 155.73 34.5 M157.88 34.92 C95.05 32.35, 34.64 33.22, 1.63 35.91 M155.94 35.69 C106.6 34.21, 57.19 34.13, -0.76 35.74 M1.95 35.97 C1.99 28.18, -0.92 19.48, 1.56 -1.2 M0.77 34.86 C-1.14 27.26, 0.09 18.29, 0.86 0.58" stroke="#000000" stroke-width="1" fill="none"></path></g><g transform="translate(60.826141357421875 220.01507568359375) rotate(0 48.5 10)"><text x="0" y="14" font-family="Virgil, Segoe UI Emoji" font-size="16px" fill="#000000" text-anchor="start" style="white-space: pre;" direction="ltr">do_command</text></g><g stroke-linecap="round" transform="translate(51.032623291015625 215.9228515625) rotate(0 55.276336669921875 15.48516845703125)"><path d="M1.71 1.15 C34.82 -1.11, 67.59 0.75, 109.13 -0.45 M-0.27 -0.38 C43.39 -0.77, 85.08 0, 110.2 -0.31 M111.93 -0.61 C109.74 10.69, 109.35 22.75, 108.69 31.78 M111.07 0.06 C109.74 11.25, 110.39 21.99, 111.54 30.26 M108.95 32.97 C72.28 29.12, 30.76 29.43, 0.29 30.84 M110.11 31.94 C87.6 30.32, 64.16 30.07, -0.24 31.52 M0.54 29.76 C-1.4 24.05, -1.82 16.35, -1.19 -0.6 M0.11 31.92 C0.37 19.6, 0.03 7.85, 0.63 -0.47" stroke="#000000" stroke-width="1" fill="none"></path></g><g transform="translate(30.292755126953125 318.27886962890625) rotate(0 72 10)"><text x="0" y="14" font-family="Virgil, Segoe UI Emoji" font-size="16px" fill="#000000" text-anchor="start" style="white-space: pre;" direction="ltr">dispatch_command</text></g><g stroke-linecap="round" transform="translate(23.069549560546875 309.0390625) rotate(0 78.517578125 17.596221923828125)"><path d="M-1.52 -1.32 C36.41 -0.39, 76.91 1.11, 158.65 0.21 M0.17 0.76 C62.61 -1.37, 123.76 -0.93, 157.29 -0.57 M156.93 -1.07 C155.58 11.95, 156.3 26.98, 156.93 36.32 M157.27 -0.14 C157.27 8.5, 157.91 14.46, 156.29 34.23 M157.35 35.43 C111.52 37.7, 63.42 34.61, -0.94 34.65 M157.93 34.58 C99.52 35, 41.57 34.97, 0.21 35.75 M-1.45 36.39 C-1.11 24.57, 1.16 9.68, -0.59 -1.8 M-0.23 35.11 C-0.28 23.14, -0.5 11.64, 0.93 -0.29" stroke="#000000" stroke-width="1" fill="none"></path></g><g stroke-linecap="round"><g transform="translate(108.94821829907448 142.02117919921875) rotate(0 -0.8245435649902504 30.975012060608734)"><path d="M0.78 -0.87 C0.46 9.41, -1.11 51.38, -1.6 61.88 M-0.27 1.28 C-0.76 11.66, -1.96 52.54, -2.43 62.82" stroke="#364fc7" stroke-width="1" fill="none"></path></g><g transform="translate(108.94821829907448 142.02117919921875) rotate(0 -0.8245435649902504 30.975012060608734)"><path d="M-2.8 62.32 L-9.49 50.39 L3.72 50.7 L-3.36 63.08" stroke="none" stroke-width="0" fill="#364fc7" fill-rule="evenodd"></path><path d="M-3.52 63.1 C-5.78 57.88, -7.39 52.4, -7.38 49.82 M-2.9 63.21 C-5.47 57.86, -7.57 51.8, -8.97 48.99 M-7.38 49.81 C-4.66 49.85, -3.51 48.43, 4.86 49.4 M-7.73 48.91 C-5.46 49.21, -2.73 49.83, 4.87 49.94 M3.67 49.08 C3.11 53.12, 0.83 57.94, -3.19 63.13 M4.62 49.61 C2.63 53.09, -0.28 58.34, -2.87 63.03 M-2.43 62.82 C-2.43 62.82, -2.43 62.82, -2.43 62.82 M-2.43 62.82 C-2.43 62.82, -2.43 62.82, -2.43 62.82" stroke="#364fc7" stroke-width="1" fill="none"></path></g></g><g stroke-linecap="round"><g transform="translate(102.99716186523438 257.970947265625) rotate(0 -1.7935217756871111 18.704341283384736)"><path d="M-0.18 -0.23 C-0.48 5.86, -2.26 31.03, -2.48 37.58 M-1.74 -1.4 C-2.13 5.37, -3.4 32.38, -3.4 38.81" stroke="#364fc7" stroke-width="1" fill="none"></path></g><g transform="translate(102.99716186523438 257.970947265625) rotate(0 -1.7935217756871111 18.704341283384736)"><path d="M-1.67 40.3 L-7.54 25.13 L4.2 24.08 L-3.27 38.36" stroke="none" stroke-width="0" fill="#364fc7" fill-rule="evenodd"></path><path d="M-3.7 38.86 C-5.7 36.74, -5.29 33.25, -8.6 26.44 M-2.91 38.32 C-4.19 35.12, -6.53 32.45, -9.2 24.39 M-8.45 23.81 C-4.78 25.54, -0.35 25.64, 2.86 26.21 M-8.92 24.78 C-4.27 25.53, 0.4 24.67, 3.72 24.78 M3.33 26.12 C3 27.33, 0.24 30.67, -3.68 38.43 M3.77 25.05 C1.9 28.65, -0.07 31.69, -3.73 38.27 M-3.4 38.81 C-3.4 38.81, -3.4 38.81, -3.4 38.81 M-3.4 38.81 C-3.4 38.81, -3.4 38.81, -3.4 38.81" stroke="#364fc7" stroke-width="1" fill="none"></path></g></g><g transform="translate(14.211700439453125 415.6429443359375) rotate(0 89.5 10)"><text x="0" y="14" font-family="Virgil, Segoe UI Emoji" font-size="16px" fill="#000000" text-anchor="start" style="white-space: pre;" direction="ltr">dispatch_sql_command</text></g><g stroke-linecap="round" transform="translate(10 405.99774169921875) rotate(0 95.79063415527344 18.330108642578125)"><path d="M-1.2 0.4 C63.55 -0.49, 126.4 -0.17, 192.52 -1.66 M0.72 -0.61 C74.25 -0.52, 149.37 -1.02, 191.48 -0.66 M192.59 -0.93 C189.31 9.66, 191.43 16.07, 190.68 38.38 M191.03 0.23 C190.92 13.4, 191.2 27.81, 190.94 35.76 M191.21 34.7 C150.26 38.22, 110.4 38.5, -1.62 35.49 M191.67 37.04 C121.18 36.65, 52.73 37.92, -0.99 36.47 M-1.88 36.83 C1.5 26.8, -0.55 17.89, 0.44 0.17 M-0.25 36.16 C-0.13 25, 0.69 14.41, -0.24 0.64" stroke="#000000" stroke-width="1" fill="none"></path></g><g stroke-linecap="round"><g transform="translate(97.49154663085938 353.597412109375) rotate(0 0.7830542096687907 19.952749210633357)"><path d="M1.03 0.15 C1.17 6.6, 1.41 32.77, 1.47 39.7 M0.11 -0.82 C0.03 5.67, 0.38 33.92, 0.45 40.72" stroke="#364fc7" stroke-width="1" fill="none"></path></g><g transform="translate(97.49154663085938 353.597412109375) rotate(0 0.7830542096687907 19.952749210633357)"><path d="M-1.36 42.27 L-4.81 25.72 L5.61 27.17 L-1.02 40.04" stroke="none" stroke-width="0" fill="#364fc7" fill-rule="evenodd"></path><path d="M0.64 40.56 C-3.17 35.78, -2.87 30.31, -5.05 28.57 M0.65 40.73 C-1.66 36.25, -4.17 30.96, -6 27.66 M-6.08 27.77 C-1.47 26.88, 1.44 26.67, 6.66 25.86 M-5.6 27.42 C-1.51 27.02, 2.09 27.4, 7.25 27.11 M5.22 26.03 C5.9 33.53, 2.77 38.26, 0.76 41.89 M7.3 27.28 C3.87 32.27, 2.05 36.42, 1.05 40.45 M0.45 40.72 C0.45 40.72, 0.45 40.72, 0.45 40.72 M0.45 40.72 C0.45 40.72, 0.45 40.72, 0.45 40.72" stroke="#364fc7" stroke-width="1" fill="none"></path></g></g><g transform="translate(347.3293762207031 305.46630859375) rotate(0 39.5 10)"><text x="0" y="14" font-family="Virgil, Segoe UI Emoji" font-size="16px" fill="#000000" text-anchor="start" style="white-space: pre;" direction="ltr">parse_sql</text></g><g stroke-linecap="round" transform="translate(333.3988342285156 295.71673583984375) rotate(0 49.902984619140625 20.063446044921875)"><path d="M1.32 1.29 C25.78 1.35, 49.03 2.48, 100.96 0.48 M-0.67 0.92 C33.1 -0.81, 66.28 -0.83, 99.82 0.78 M97.9 1.97 C101.79 12.98, 100.74 23.92, 101.38 40.68 M99.91 0.19 C100 14.58, 99.85 29.94, 100.43 40.18 M98.03 39.85 C62.31 40, 27.14 41.06, 0.9 39.64 M99.9 39.8 C70.41 39.9, 41.81 40.89, 0.77 40.91 M1.82 39.33 C1.49 27.65, -1.9 14.49, -0.86 -1.04 M-0.57 40.17 C-0.53 30.07, 0.87 22.7, 0.01 0.01" stroke="#000000" stroke-width="1" fill="none"></path></g><g transform="translate(153.97903442382812 530.32666015625) rotate(0 96.5 10)"><text x="0" y="14" font-family="Virgil, Segoe UI Emoji" font-size="16px" fill="#343a40" text-anchor="start" style="white-space: pre;" direction="ltr">mysql_execute_command</text></g><g stroke-linecap="round" transform="translate(150.28652954101562 522.97021484375) rotate(0 101.5784912109375 16.3382568359375)"><path d="M0.91 -0.77 C59.59 1.65, 124.19 0.52, 203.81 -0.57 M-0.8 0.61 C77.05 -0.99, 154.42 -1.16, 203.51 0.68 M204.22 0.57 C201.4 11.58, 201.36 23.3, 201.85 33.32 M203 0.05 C203.17 10.95, 202.22 22.29, 202.23 33.4 M204.72 32.85 C128.17 32.46, 51.58 33.75, -1.38 33.23 M203.12 33.07 C150.46 31.4, 98.3 30.57, 0.76 33.47 M1.27 33.06 C-0.85 20.85, 1.03 14.73, -1.78 0.51 M0 32.39 C0.82 25.51, -0.01 19.01, 0.66 -0.47" stroke="#000000" stroke-width="1" fill="none"></path></g><g transform="translate(439.9674987792969 183.4481201171875) rotate(0 43 10)"><text x="0" y="14" font-family="Virgil, Segoe UI Emoji" font-size="16px" fill="#000000" text-anchor="start" style="white-space: pre;" direction="ltr">sql_parser</text></g><g stroke-linecap="round" transform="translate(430.7588195800781 175.48788452148438) rotate(0 50.27508544921875 17.927810668945312)"><path d="M-0.84 -0.63 C33.96 -1.02, 63.89 0.03, 98.6 -0.22 M0.11 0.35 C26.41 -0.56, 51.77 -0.92, 100.94 0.12 M102.2 0.09 C100.54 14.34, 101.24 27.23, 101.19 36.67 M100.76 -0.32 C101.27 9.61, 101.01 21.23, 100.68 35.03 M98.61 37.11 C62.13 34.94, 21.8 34.9, -0.47 35.83 M100.63 35.65 C69.91 35.67, 37.64 36.35, 0.84 36.37 M1.37 37.73 C-0.3 29.92, 0.73 19.71, 1.44 1.33 M0.45 35.49 C0.22 27.28, 0.81 19.8, 0.73 0.43" stroke="#000000" stroke-width="1" fill="none"></path></g><g transform="translate(591.4048156738281 116.63967895507812) rotate(0 51 10)"><text x="0" y="14" font-family="Virgil, Segoe UI Emoji" font-size="16px" fill="#000000" text-anchor="start" style="white-space: pre;" direction="ltr">MYSQLparser</text></g><g stroke-linecap="round" transform="translate(583.5106201171875 108.9981689453125) rotate(0 57.70979309082031 15.52313232421875)"><path d="M1.57 0.98 C40.21 2.03, 76.54 2.67, 113.5 0.09 M0.3 -0.38 C29.01 0.12, 58.89 0.39, 116.25 0.62 M115.55 -1.73 C115.59 12.33, 114.95 22.05, 113.94 32.2 M115.54 0.83 C115.52 6.24, 115.67 13.29, 114.65 31.45 M113.82 31.68 C76.49 33.49, 38.42 33.08, -0.29 30.73 M115.68 30.27 C90.69 30.82, 67.1 30.64, 0.36 31.02 M0.06 29.76 C0.67 19.19, 0.62 9.96, -1.17 -0.35 M0.14 31.93 C-1 19.96, -0.35 10.18, -0.71 0.59" stroke="#000000" stroke-width="1" fill="none"></path></g><g transform="translate(581.5267944335938 244.5673828125) rotate(0 57 10)"><text x="0" y="14" font-family="Virgil, Segoe UI Emoji" font-size="16px" fill="#000000" text-anchor="start" style="white-space: pre;" direction="ltr">make_sql_cmd</text></g><g stroke-linecap="round" transform="translate(572.3846130371094 236.35812377929688) rotate(0 64.61752319335938 15.798416137695312)"><path d="M1.73 -0.88 C43.02 -2.04, 86.4 1.11, 130.5 -1.56 M0.81 -0.01 C47.52 1.65, 95.55 0.97, 129.29 -0.88 M128.2 0.29 C128.98 8.4, 130.55 17.84, 129.38 30.12 M128.98 -0.73 C129.06 8.71, 130.19 19.3, 129.89 31.38 M130.29 33.42 C87.37 31.83, 47.11 33.66, -1.99 30.21 M129.41 31.23 C101.46 32.5, 74.37 31.29, -0.74 31.71 M-1.7 29.95 C-1.67 21.59, -1.47 13.04, 1.59 -1.26 M-0.78 31.98 C0.76 24.6, -0.84 19.24, -0.34 0.07" stroke="#000000" stroke-width="1" fill="none"></path></g><g transform="translate(784.7032775878906 202.95468139648438) rotate(0 53.5 10)"><text x="0" y="14" font-family="Virgil, Segoe UI Emoji" font-size="16px" fill="#000000" text-anchor="start" style="white-space: pre;" direction="ltr">contextualize</text></g><g stroke-linecap="round" transform="translate(774.9783020019531 197.9088134765625) rotate(0 61.259552001953125 16.074386596679688)"><path d="M0 0 C0 0, 0 0, 0 0 M0 0 C0 0, 0 0, 0 0 M-0.62 6.97 C1.81 4.74, 2.51 2.92, 5.48 -0.24 M-0.19 6.11 C0.7 5.37, 2.5 3.87, 4.68 0.28 M0.32 12.84 C2.36 10.03, 5.52 5.28, 10.43 1.35 M-0.34 11.98 C3.46 9.01, 6.19 5.64, 10.32 0.45 M-0.74 17.72 C3.83 11.33, 9.4 4.3, 15.55 0.09 M-0.7 18.12 C6.4 11.93, 12.94 4.19, 14.63 -0.34 M1.95 25.65 C9.43 13.5, 17.06 7.46, 20.46 0.12 M0.58 24.31 C6.84 15.21, 14.31 6.03, 20.46 0.33 M1.56 30.71 C8.05 22.22, 16.95 13.96, 25.63 -0.07 M0.98 30.44 C7.51 21.49, 13.68 13.67, 27.01 0.76 M1.69 33.01 C13.2 24.28, 20.14 12.72, 33.18 -1.9 M2.72 34.15 C9.81 25.2, 17.75 14.87, 31.14 -0.37 M7.11 34.41 C14.9 25.83, 22 16.46, 38.08 0.11 M7.03 35.13 C16.7 23.9, 25.86 12.76, 37.37 0.48 M13.64 33.42 C19.75 26.74, 25.4 18.26, 44 -1.23 M12.62 33.9 C18.94 26.35, 26.94 18.4, 43.26 -1.1 M17.3 32.62 C29 20.83, 38.9 9.24, 46.65 0.67 M18.57 34.07 C27.42 24.35, 35.12 13.99, 47.42 0.9 M24.9 32.86 C32.48 23.35, 40.56 10.58, 53.52 -1.4 M23.49 34.38 C32.01 24.94, 39.72 15.34, 52.97 0.13 M27.31 33.7 C40.22 22.77, 46.58 10.31, 59.26 2.01 M28.52 33.98 C38.48 23.11, 48.6 11.98, 57.51 0.19 M33.28 31.85 C42.39 23.71, 54.46 12.38, 65.47 1.41 M33.77 34.7 C42 23.31, 51.86 14.7, 64.6 -0.1 M38.76 33.61 C47.24 21.93, 58.41 11.84, 68 -1.13 M39.28 34.37 C45.97 26.29, 53.19 15.91, 69.69 -0.41 M44.72 33.27 C56.45 20.15, 67.26 7.96, 72.77 0.37 M45.54 33.05 C52.62 24.46, 60.53 15.35, 73.63 0.37 M50.45 33.63 C58.96 23.35, 70.19 9.73, 79.09 -1.66 M50.4 34.35 C59.64 22.7, 69.48 11.62, 78.65 0.43 M55.35 32.33 C64.55 22.86, 76.65 10.07, 83.48 -0.01 M55.58 33.67 C63.19 24.93, 70.25 17.54, 85.75 0.28 M60.29 34.39 C67.21 24.02, 79.68 13.29, 90.94 1.85 M59.62 33.57 C72.95 20.14, 83.21 8.46, 90.77 -0.91 M64.76 35.32 C77.58 21.75, 86.98 12.53, 94.81 -1.88 M65.68 34.67 C74.54 25.05, 81.96 14.33, 95.79 -0.07 M71.4 33.86 C76.52 26.11, 85.3 20.36, 100.08 -0.83 M71.82 33.29 C81.86 21.89, 92.8 10.8, 101.11 0.06 M76.69 34.65 C85.79 26.03, 93.81 13.1, 107.16 -0.06 M76.25 33.93 C86.12 22, 98.43 10.85, 106.76 0.22 M82.02 33.38 C87.54 26.12, 94.55 17.81, 111.23 -1.59 M82.1 33.33 C91.1 23.83, 98.63 15.73, 110.39 0.9 M85.06 35.3 C93.63 26.94, 99 19.29, 117.38 0.76 M87.43 34.72 C92.88 26.83, 99.04 17.94, 116.18 0.37 M91.56 35.6 C97.85 26.13, 108.01 19.01, 123.23 0.05 M92.69 33.11 C100.55 24.71, 108.4 14.79, 122.01 -0.77 M98.62 33.87 C103.92 26.31, 112.93 18.6, 125.52 3.21 M96.68 33.6 C107.8 21.38, 118.38 8.76, 125.76 2.18 M102.57 34.53 C109.15 23.26, 118.66 15.27, 123.9 7.18 M104.01 34.61 C107.97 28.03, 113.37 21.9, 125.8 8.06 M106.25 33.28 C115.88 27.81, 120.77 19.24, 126.19 14.82 M107.12 34.22 C114.48 27.8, 119.14 22.13, 125.81 14.59 M114.68 33.56 C118.72 29.16, 122.16 26.41, 126.25 18.6 M113.66 33.44 C116.99 30.13, 120.64 26.42, 125.45 19.73 M118.82 33.52 C119.6 31.6, 122.62 30.92, 125.07 27.52 M118.59 34.27 C120.17 32, 121.57 30.43, 124.88 26.83" stroke="#ced4da" stroke-width="0.5" fill="none"></path><path d="M-1.49 0.22 C47.49 1.65, 96 -1.3, 120.87 -1.47 M0.8 -0.63 C32.11 0.38, 65.99 -0.93, 122.91 0.93 M121.85 0.14 C120.45 8.92, 122.16 16.93, 122.9 32.86 M122.42 -0.06 C121.39 11.11, 122.3 23.26, 122.41 33.1 M123.26 31.45 C93.16 33.75, 64.41 33.58, 0.88 33.82 M121.57 32.4 C89.53 33.17, 56.73 32.22, -0.24 32 M-0.31 32.28 C1.94 24.05, -1.86 14.1, -0.2 -1.51 M-0.5 31.73 C-0.42 20.06, 0.4 8.08, 0.09 0.97" stroke="#000000" stroke-width="1" fill="none"></path></g><g stroke-linecap="round"><g transform="translate(219.38369750976562 416.92694091796875) rotate(0 49.73083960438146 -47.8888750126967)"><path d="M0.44 -0.42 C17.35 -16.09, 83.61 -78.05, 100.24 -93.59 M-0.78 -1.68 C16.04 -17.75, 82.43 -79.68, 99.11 -95.36" stroke="#364fc7" stroke-width="1" fill="none"></path></g><g transform="translate(219.38369750976562 416.92694091796875) rotate(0 49.73083960438146 -47.8888750126967)"><path d="M101.09 -94.97 L93.75 -80.44 L84.76 -89.69 L99.92 -96.8" stroke="none" stroke-width="0" fill="#364fc7" fill-rule="evenodd"></path><path d="M98.59 -95.8 C98.89 -92.98, 97.63 -89.08, 94.78 -81.95 M99.3 -95.63 C97.86 -91.17, 95.28 -86.32, 93.4 -81.61 M93.6 -80.19 C91.38 -85.46, 88.06 -87.26, 83.9 -89.83 M93.26 -81.87 C91.42 -83.41, 89.43 -85.46, 85.47 -91.31 M84.82 -90.53 C90.76 -91.93, 93.75 -94.85, 98.39 -95.9 M84.5 -91.42 C90.58 -92.62, 95.9 -94.59, 99.49 -95.51 M99.11 -95.36 C99.11 -95.36, 99.11 -95.36, 99.11 -95.36 M99.11 -95.36 C99.11 -95.36, 99.11 -95.36, 99.11 -95.36" stroke="#364fc7" stroke-width="1" fill="none"></path></g></g><g stroke-linecap="round"><g transform="translate(393.3547398476999 287.9693603515625) rotate(0 32.91858374157124 -35.330382871255296)"><path d="M-0.5 0.11 C10.61 -11.71, 55.33 -59.29, 66.34 -70.77 M1.44 -0.88 C12.52 -12.62, 55.42 -58.22, 66 -69.84" stroke="#364fc7" stroke-width="1" fill="none"></path></g><g transform="translate(393.3547398476999 287.9693603515625) rotate(0 32.91858374157124 -35.330382871255296)"><path d="M67.42 -68.52 L61.71 -57.54 L50.77 -62.68 L64.45 -69.85" stroke="none" stroke-width="0" fill="#364fc7" fill-rule="evenodd"></path><path d="M66.13 -68.39 C63.3 -65.53, 64.58 -60.81, 61.37 -55.39 M65.51 -70.2 C64 -63.71, 61.8 -58.7, 61.05 -56.29 M60.99 -54.92 C58.17 -59.47, 54.45 -61.68, 53.02 -63.32 M61.79 -56.04 C58.19 -58.35, 55.95 -60.63, 51.65 -64.59 M50.96 -64.47 C56.45 -65, 63.2 -68.52, 66.75 -69.92 M52.01 -63.54 C56.65 -66.5, 62.54 -68.49, 65.94 -69.34 M66 -69.84 C66 -69.84, 66 -69.84, 66 -69.84 M66 -69.84 C66 -69.84, 66 -69.84, 66 -69.84" stroke="#364fc7" stroke-width="1" fill="none"></path></g></g><g stroke-linecap="round"><g transform="translate(539.9719543457031 185.02284346442343) rotate(0 14.931979010146165 -22.50405234060365)"><path d="M-0.38 0.61 C4.68 -6.98, 25.26 -38, 30.25 -45.62 M1.61 -0.11 C6.51 -7.58, 24.11 -37.32, 29.17 -44.65" stroke="#364fc7" stroke-width="1" fill="none"></path></g><g transform="translate(539.9719543457031 185.02284346442343) rotate(0 14.931979010146165 -22.50405234060365)"><path d="M27.33 -45.69 L25.65 -28.97 L16.54 -34.84 L30.04 -43.09" stroke="none" stroke-width="0" fill="#364fc7" fill-rule="evenodd"></path><path d="M29.94 -44.95 C27.27 -41.53, 27.37 -34.99, 28.27 -29.78 M28.61 -45.18 C28.39 -40.46, 28.22 -37.04, 26.76 -29.09 M27 -30.64 C24.33 -32.22, 19.1 -34.45, 16.47 -35.93 M27.79 -30.03 C23.28 -31.48, 19.62 -34.46, 16.96 -36.4 M17.45 -35.64 C20.6 -38.23, 25.35 -42.98, 27.82 -44.96 M16.45 -35.83 C19.57 -38.13, 21.28 -40.09, 29.45 -44.11 M29.17 -44.65 C29.17 -44.65, 29.17 -44.65, 29.17 -44.65 M29.17 -44.65 C29.17 -44.65, 29.17 -44.65, 29.17 -44.65" stroke="#364fc7" stroke-width="1" fill="none"></path></g></g><g stroke-linecap="round"><g transform="translate(541.3791198730469 211.20968792335486) rotate(0 9.894921109020402 8.83254811227124)"><path d="M0.74 -0.91 C3.91 1.83, 16.65 14.23, 20.12 17.47 M-0.33 1.22 C2.57 4.62, 15.43 15.45, 19.05 18.58" stroke="#364fc7" stroke-width="1" fill="none"></path></g><g transform="translate(541.3791198730469 211.20968792335486) rotate(0 9.894921109020402 8.83254811227124)"><path d="M17.73 17.16 L5.15 16.42 L14.33 6.29 L18.39 18.57" stroke="none" stroke-width="0" fill="#364fc7" fill-rule="evenodd"></path><path d="M18.01 18.32 C12.93 18.58, 8.99 15.94, 6.56 14.83 M18.97 19.17 C14.14 16.8, 10.47 15.5, 5.82 15.36 M5.43 15.6 C8.98 11.6, 11.69 8.82, 12.98 5.08 M5.85 14.83 C8.62 12.82, 10.21 9.7, 13.21 6.33 M12.05 5.21 C16.61 9.67, 17.67 16.5, 20.12 19.32 M13.12 6.18 C15.13 9.28, 16.46 11.88, 19.21 18 M19.05 18.58 C19.05 18.58, 19.05 18.58, 19.05 18.58 M19.05 18.58 C19.05 18.58, 19.05 18.58, 19.05 18.58" stroke="#364fc7" stroke-width="1" fill="none"></path></g></g><g stroke-linecap="round"><g transform="translate(706.7848943443112 236.16555710201095) rotate(0 27.643429584844114 -6.180780477302278)"><path d="M-0.37 -0.43 C8.63 -2.59, 44.54 -9.97, 53.51 -11.93 M1.64 -1.7 C11.03 -3.15, 46.64 -8.95, 55.66 -10.53" stroke="#364fc7" stroke-width="1" fill="none"></path></g><g transform="translate(706.7848943443112 236.16555710201095) rotate(0 27.643429584844114 -6.180780477302278)"><path d="M54 -10.82 L43.06 -1.83 L41.39 -14.83 L55.88 -12.06" stroke="none" stroke-width="0" fill="#364fc7" fill-rule="evenodd"></path><path d="M55.12 -11.88 C52.17 -9.79, 48.58 -6.16, 43.12 -0.56 M55.42 -10.25 C51.78 -7.06, 46.94 -5.26, 42.8 -1.46 M44.29 -1.33 C41.87 -4.26, 43.32 -8.08, 41.32 -13.77 M43.44 -2.56 C42.44 -7.1, 41.37 -11.52, 41.45 -14.52 M41.37 -14.21 C47.49 -12.01, 53.67 -12.01, 55.39 -10.99 M41.17 -14.39 C43.8 -14.35, 47.09 -12.4, 56.01 -10.46 M55.66 -10.53 C55.66 -10.53, 55.66 -10.53, 55.66 -10.53 M55.66 -10.53 C55.66 -10.53, 55.66 -10.53, 55.66 -10.53" stroke="#364fc7" stroke-width="1" fill="none"></path></g></g><g transform="translate(349.0920715332031 461.26837158203125) rotate(0 31.5 10)"><text x="0" y="14" font-family="Virgil, Segoe UI Emoji" font-size="16px" fill="#000000" text-anchor="start" style="white-space: pre;" direction="ltr">execute</text></g><g stroke-linecap="round" transform="translate(339.4969787597656 453.42535400390625) rotate(0 39.517333984375 18.24591064453125)"><path d="M0.65 0.67 C19.08 0.96, 36.02 -1.33, 77.04 -0.21 M-0.51 0.24 C18.82 -0.07, 37.33 -0.78, 78.19 0.63 M80.51 -0.14 C79.57 9.47, 76.97 18.46, 77.27 34.7 M78.98 -0.89 C78.11 8.53, 79.92 18.08, 78.96 36.77 M80.62 35.99 C56.69 35.09, 28.7 35.79, -0.01 36.3 M79.35 35.82 C58.54 36.48, 39.07 37.27, 0.1 36.27 M-1.82 35.52 C-1.51 22.01, -0.98 8.14, -0.23 0.53 M0.07 37.01 C1.06 28.82, -0.39 20.67, -0.63 0.86" stroke="#000000" stroke-width="1" fill="none"></path></g><g transform="translate(457.21253967285156 382.3779602050781) rotate(0 29.5 10)"><text x="0" y="14" font-family="Virgil, Segoe UI Emoji" font-size="16px" fill="#000000" text-anchor="start" style="white-space: pre;" direction="ltr">prepare</text></g><g stroke-linecap="round" transform="translate(443.9676818847656 377.2001037597656) rotate(0 39.712799072265625 16.772705078125)"><path d="M-0.25 -1.02 C16.7 -1.26, 31.86 0.37, 81.28 1.74 M-0.95 0.09 C24.03 -0.31, 47.46 -0.8, 78.59 -0.39 M78.79 0.45 C80.01 8.7, 77.97 19.69, 78.64 34.74 M80.11 -0.91 C78.44 9.9, 78.72 20.37, 79.06 33.05 M77.76 33.27 C56.64 33.95, 35.11 33.63, -1.4 34.02 M79.35 33.48 C60.84 33.96, 40.78 34.21, -0.09 33.13 M-1.68 32.07 C1.91 21.87, 1.33 12.85, 0.03 1.61 M0.07 34.11 C-0.51 26.13, -0.21 18.26, -0.01 -0.46" stroke="#000000" stroke-width="1" fill="none"></path></g><g transform="translate(578.4122924804688 317.672119140625) rotate(0 94 10)"><text x="0" y="14" font-family="Virgil, Segoe UI Emoji" font-size="16px" fill="#000000" text-anchor="start" style="white-space: pre;" direction="ltr">open_tables_for_query</text></g><g stroke-linecap="round" transform="translate(575.4703674316406 312.1412658691406) rotate(0 96.42019653320312 16.643020629882812)"><path d="M1.04 1.52 C42.5 -1.52, 84.03 -1.38, 194.56 1.21 M-0.06 -0.94 C56.51 -0.61, 112.24 -0.46, 192.55 0.53 M191.44 1.23 C192.43 7.23, 194.21 12.83, 191.25 33.47 M192.87 -0.48 C192.63 10.21, 192.57 20.44, 192.4 33.74 M191.78 33.89 C131.05 33.31, 72.24 31.68, -0.69 32.34 M192.19 33.64 C130.95 33.59, 67.72 33.61, 0.24 33.33 M-1.46 33.03 C-0.16 20.73, -0.74 8.93, 0.89 0.79 M-0.68 33.79 C-0.43 21.9, -0.61 9.74, -0.44 0.69" stroke="#000000" stroke-width="1" fill="none"></path></g><g transform="translate(592.3414001464844 387.7216796875) rotate(0 53 10)"><text x="0" y="14" font-family="Virgil, Segoe UI Emoji" font-size="16px" fill="#000000" text-anchor="start" style="white-space: pre;" direction="ltr">prepare_inner</text></g><g stroke-linecap="round" transform="translate(588.4773254394531 382.67840576171875) rotate(0 56.802001953125 15.771820068359375)"><path d="M-0.95 0.5 C44.94 1.06, 85.85 1.09, 115.25 -0.67 M0.04 0.63 C37.31 0.17, 74.43 -0.4, 113.48 -0.23 M114.4 1.28 C113.49 7.5, 112.23 17.33, 112.71 33 M114.29 0.21 C112.92 6.67, 113.38 14.32, 112.69 32.45 M112.86 32.87 C86.61 32.48, 61.14 33.03, -1.12 31.95 M112.93 31.63 C90.66 32.17, 66.19 32.31, 0.36 32.38 M1.75 32 C-1.28 21.61, 1.5 10.41, 0.8 1.14 M0.65 31.74 C-0.88 22.88, 0.61 14.42, 0.49 0.33" stroke="#000000" stroke-width="1" fill="none"></path></g><g transform="translate(777.0825500488281 402.77752685546875) rotate(0 80 10)"><text x="0" y="14" font-family="Virgil, Segoe UI Emoji" font-size="16px" fill="#000000" text-anchor="start" style="white-space: pre;" direction="ltr">Query_block::prepare</text></g><g stroke-linecap="round" transform="translate(773.4350280761719 397.731201171875) rotate(0 83.06887817382812 16.211181640625)"><path d="M0 0 C0 0, 0 0, 0 0 M0 0 C0 0, 0 0, 0 0 M0.22 6.02 C1.69 4.87, 1.51 3.04, 5.18 0.73 M-0.62 6.06 C0.92 4.89, 2.38 3.79, 4.79 0.08 M1.3 11.13 C4.72 8.7, 7.17 5.98, 11.26 0.47 M-0.65 12.42 C4.63 7.18, 7.9 2.88, 11.24 -0.33 M1.76 17.58 C6.41 14.06, 9.47 8.71, 17.07 2 M0.27 18.95 C3.15 14.06, 7.4 10.38, 14.87 -0.57 M1.04 22.67 C8.31 14.78, 12.42 9.91, 21.78 1.75 M1.04 24.96 C6.88 15.24, 14.48 6.51, 20.3 -0.42 M-0.57 32.42 C6.42 22.86, 14.84 14.35, 25.25 0.24 M0.99 30.12 C8.91 21.6, 16.9 11.55, 26.23 -0.09 M3 34.42 C12.08 24.18, 20.5 11.03, 33.19 -1.43 M2.75 34.39 C14.93 19.76, 26.42 7.72, 31.92 -0.1 M8.4 33.25 C18.66 22.83, 29.71 11.33, 38.53 1.07 M6.5 33.4 C16.77 23.76, 23.72 13.81, 37.31 -0.1 M14.01 34.26 C23.21 24.04, 29.2 12.93, 43.08 -0.07 M11.87 34.88 C21.91 22.77, 32.21 12.94, 42.65 -0.69 M18.27 35.35 C29.58 23.44, 36.5 12.46, 46.75 1.69 M18.17 34.14 C28.84 22.05, 38.59 10.08, 48.42 -0.13 M24.83 33.58 C32.41 21.62, 46.08 11.18, 53.22 -0.13 M22.42 35.27 C30.18 27.02, 37.58 17.59, 52.97 -0.24 M27.66 34.42 C36.85 27.19, 43.59 19.33, 59.11 1.47 M28.16 34.11 C36.81 23.66, 46.72 13.63, 58.45 0.96 M32.14 34.37 C41.31 21.77, 52.84 13.69, 63.72 -0.43 M33.58 35.51 C40.57 26.71, 46.95 18.81, 64.43 -0.65 M40.82 33.5 C46.07 25.94, 53.18 20.88, 70.15 -0.1 M38.95 33.48 C45.95 25.51, 54.82 16.35, 67.86 0 M42.58 34.02 C51.49 25.7, 61.26 17.35, 75.04 1.38 M44.75 34.49 C56.09 20.92, 68.17 7.06, 74.66 -0.65 M50.33 32.82 C59.05 20.21, 71.41 11.15, 77.74 -1.32 M49.12 33.6 C60.13 22.49, 70.14 12, 79.71 0.47 M54.17 36.07 C64.76 25.85, 72.52 16.95, 86 -1.21 M53.93 33.75 C62.25 25.19, 70.02 15.77, 84.39 -0.79 M59.11 35.76 C73.25 22.07, 82.99 6.32, 89.13 -0.38 M60.3 33.96 C67.02 26.97, 72.98 20.76, 90.62 -0.48 M66.26 36.24 C73.03 29, 78.14 18.79, 95.73 -1.52 M64.67 34.53 C71.87 27.37, 78.26 19.05, 96.39 -0.44 M70.46 34.84 C78.27 24.87, 82.45 17.54, 98.86 -1.29 M70.24 33.26 C81.12 22.48, 90.14 12.67, 99.79 1 M77.54 32.38 C83.81 25.03, 90.5 17.12, 105.73 -1.76 M77.11 34.7 C87.15 21.94, 98.47 8.21, 106.54 -0.81 M81.97 33.75 C87.01 25.14, 94.08 18.55, 110.87 0.1 M81.73 34.35 C90.25 24.71, 99.14 14.43, 112.01 0.4 M88.05 34.5 C98.53 21.81, 107.9 9.58, 117.18 1.8 M86.97 33.85 C96.28 23.71, 105.46 12.18, 116.12 0.81 M91.61 33.34 C102.11 25.67, 107.91 15.39, 120.4 -1.92 M91.65 33.25 C100.53 24.44, 107.52 15.38, 122.63 -0.09 M97.18 34.78 C102.19 28.52, 112.12 19.91, 127.57 1.78 M96.56 34.2 C105.07 24.37, 114.95 14.74, 127.47 1.05 M103.68 33.62 C111.76 26.01, 116.3 18.67, 132.06 -0.9 M103.98 34.17 C110.41 27.41, 116.32 19.92, 132.6 -0.64 M109.64 33.55 C117.78 24.25, 128.35 13.32, 136.76 2.21 M107.74 33.67 C114.93 24.65, 122.99 16.72, 137.04 -0.02 M114.84 35.72 C123.46 21.97, 136.38 7.35, 141.79 -0.22 M112.74 34.48 C121.48 26.3, 127.63 16.51, 143.42 -0.72 M117.52 33.29 C125.69 26.3, 136.93 14.97, 147.63 1.54 M118.97 34.84 C127.58 24.67, 134.77 15.63, 149 1.08 M124.07 31.98 C133.22 24.14, 140.88 15.33, 154.88 0.87 M125.05 33.71 C131.07 27.33, 136.42 19.24, 154.19 -0.14 M130.22 32.65 C136.95 21.73, 148.83 13.51, 159.39 -0.64 M128.27 33.97 C141.8 20.66, 151.98 7.33, 159.61 0.99 M134.05 32.61 C143.76 22.28, 156.87 8.72, 163.96 1.31 M133.46 35.35 C146.43 19.88, 157.65 7.43, 164.59 -0.04 M140.5 32.41 C150.37 23.66, 157.73 13.67, 168.27 -0.08 M140.27 33.97 C146.96 25.08, 155.3 17.47, 168.9 2.06 M143.78 32.72 C153.77 25.37, 161.09 13.97, 167.8 8.47 M145.55 34.76 C153.25 25.16, 162.52 13.96, 168.65 8.41 M150.46 33.54 C152.99 30.52, 158.92 24.61, 168.3 12.19 M151.15 33.44 C156.62 26.22, 163.64 18.14, 168.41 13.33 M154.67 34.84 C158.64 30.95, 162.77 28.61, 167.66 19.12 M155.03 34.74 C159.3 29.62, 165.28 24.42, 168.12 19.92 M161.38 34.67 C162.79 31.34, 165.11 29.2, 168.67 25.17 M161.44 33.86 C162.37 32.63, 163.76 30.9, 168.07 26.13" stroke="#ced4da" stroke-width="0.5" fill="none"></path><path d="M-1.35 0.17 C34.55 1.29, 66.05 1.59, 166.86 1.68 M0.87 0.23 C53.48 1.51, 108.89 1.04, 166.54 0.57 M167.44 0.4 C164.17 8.51, 167.14 17.4, 167.13 33.09 M166.92 -0.06 C165.85 7.39, 166.25 15.31, 166.02 33.39 M166.81 31.6 C115.69 34.12, 62.31 32.79, 0.45 31.97 M166.44 32.75 C103.47 33.51, 40.73 32.02, -0.85 31.85 M-1.49 31.66 C-0.79 21.44, -1.57 7.78, -1.07 -1.16 M0.93 32.48 C0.88 20.73, -0.16 7.97, 0.57 0.07" stroke="#000000" stroke-width="1" fill="none"></path></g><g stroke-linecap="round"><g transform="translate(142.45472312539744 450.67706298828125) rotate(0 23.037297874743615 30.58372092535717)"><path d="M0.36 0.4 C8.21 10.6, 39.16 51.7, 46.98 61.61 M-0.91 -0.44 C6.82 9.39, 38.28 49.67, 46.25 59.84" stroke="#364fc7" stroke-width="1" fill="none"></path></g><g transform="translate(142.45472312539744 450.67706298828125) rotate(0 23.037297874743615 30.58372092535717)"><path d="M47.8 57.93 L30.93 53.99 L44.35 44.32 L45.9 59.69" stroke="none" stroke-width="0" fill="#364fc7" fill-rule="evenodd"></path><path d="M46.75 60.35 C43.16 58.81, 37.02 54.62, 32.02 54.18 M45.96 59.64 C41.65 56.66, 36 54.15, 32.45 53.72 M32.95 53.78 C36.17 50.74, 38.13 50.41, 42.96 45.2 M33.07 52.55 C36.78 50.78, 40.06 47.53, 43.31 45.78 M41.56 45.16 C43.74 49.07, 45.18 52.09, 45.3 58.92 M42.51 45.88 C43.97 48.91, 44.62 54.16, 46.6 59.23 M46.25 59.84 C46.25 59.84, 46.25 59.84, 46.25 59.84 M46.25 59.84 C46.25 59.84, 46.25 59.84, 46.25 59.84" stroke="#364fc7" stroke-width="1" fill="none"></path></g></g><g stroke-linecap="round"><g transform="translate(301.01488289967335 510.2978515625) rotate(0 13.085026042542694 -5.1548442754457255)"><path d="M-0.14 -0.64 C3.99 -2.24, 21.29 -8.6, 25.5 -10.4 M-1.68 1.64 C2.78 -0.21, 23 -10, 27.85 -11.95" stroke="#364fc7" stroke-width="1" fill="none"></path></g><g transform="translate(301.01488289967335 510.2978515625) rotate(0 13.085026042542694 -5.1548442754457255)"><path d="M28.88 -11.86 L19.57 0.33 L15.22 -13.29 L27.07 -13.64" stroke="none" stroke-width="0" fill="#364fc7" fill-rule="evenodd"></path><path d="M27.08 -12.78 C25.69 -9.36, 21.1 -2.81, 18.58 -0.29 M28.25 -11.9 C24.08 -7.38, 19.72 -2.8, 18.71 -1.68 M17.9 -0.28 C17.57 -6.06, 15.65 -9.56, 12.5 -12.2 M18.43 -1.51 C16.64 -4.36, 16.08 -7.25, 13.26 -11.62 M13.89 -11.48 C16.59 -12.28, 23.11 -13.24, 26.62 -11.86 M13.19 -12.65 C17.38 -12.57, 21.26 -11.55, 27.44 -11.38 M27.85 -11.95 C27.85 -11.95, 27.85 -11.95, 27.85 -11.95 M27.85 -11.95 C27.85 -11.95, 27.85 -11.95, 27.85 -11.95" stroke="#364fc7" stroke-width="1" fill="none"></path></g></g><g stroke-linecap="round"><g transform="translate(416.44006897947054 446.16046142578125) rotate(0 7.789476697713951 -13.473820297293713)"><path d="M0.7 1.04 C3.12 -3.52, 11.15 -21.49, 13.57 -26.3 M-0.39 0.54 C2.51 -3.83, 13.41 -23.41, 15.97 -27.99" stroke="#364fc7" stroke-width="1" fill="none"></path></g><g transform="translate(416.44006897947054 446.16046142578125) rotate(0 7.789476697713951 -13.473820297293713)"><path d="M17.68 -29.91 L14.35 -12.54 L4.32 -17.4 L17.22 -26.4" stroke="none" stroke-width="0" fill="#364fc7" fill-rule="evenodd"></path><path d="M17.27 -28.73 C16.9 -23.35, 14.72 -20.03, 14.92 -14.33 M16.25 -28.08 C15.16 -24.02, 15.31 -18.48, 15.31 -13.38 M14.17 -12.72 C11.17 -16.57, 6.06 -16.92, 2.66 -20.31 M14.97 -13.35 C11.05 -14.77, 7.72 -16.57, 4.26 -19.58 M5.12 -18.63 C8.87 -21.37, 14.18 -27.35, 14.51 -27.28 M3.74 -18.65 C8.11 -22.5, 12.36 -25.65, 16.67 -28.31 M15.97 -27.99 C15.97 -27.99, 15.97 -27.99, 15.97 -27.99 M15.97 -27.99 C15.97 -27.99, 15.97 -27.99, 15.97 -27.99" stroke="#364fc7" stroke-width="1" fill="none"></path></g></g><g stroke-linecap="round"><g transform="translate(532.927452370317 370.94606500349863) rotate(0 13.843865264702004 -16.650584853255964)"><path d="M0.03 0 C4.75 -5.68, 24.53 -27.93, 29.1 -33.3 M-1.41 -1.04 C3.15 -6.62, 23.31 -26.45, 28.51 -31.99" stroke="#364fc7" stroke-width="1" fill="none"></path></g><g transform="translate(532.927452370317 370.94606500349863) rotate(0 13.843865264702004 -16.650584853255964)"><path d="M28.52 -32.88 L23.17 -17.97 L13.25 -25.65 L27.18 -32.95" stroke="none" stroke-width="0" fill="#364fc7" fill-rule="evenodd"></path><path d="M28.51 -31.12 C26.26 -28.05, 25.76 -22.42, 24 -17.45 M28.82 -32.08 C26.65 -27.07, 24.41 -22.5, 24.17 -18.4 M23.08 -17.8 C20.39 -21.09, 20.52 -22.07, 15.37 -26.91 M23.56 -17.69 C21.2 -19.62, 19.42 -21.4, 14.19 -27.04 M13.65 -26.27 C18.68 -29.62, 23.29 -29.1, 29.9 -31.84 M15.03 -26.32 C18.17 -28.52, 21.7 -29.36, 28.92 -32.29 M28.51 -31.99 C28.51 -31.99, 28.51 -31.99, 28.51 -31.99 M28.51 -31.99 C28.51 -31.99, 28.51 -31.99, 28.51 -31.99" stroke="#364fc7" stroke-width="1" fill="none"></path></g></g><g stroke-linecap="round"><g transform="translate(532.5279846191406 386.5649343542623) rotate(0 23.2909752761945 6.587936357421739)"><path d="M0.35 -0.06 C7.88 2.17, 37.54 10.4, 45.32 12.68 M-0.92 -1.13 C6.96 1.37, 39.58 12.14, 47.5 14.31" stroke="#364fc7" stroke-width="1" fill="none"></path></g><g transform="translate(532.5279846191406 386.5649343542623) rotate(0 23.2909752761945 6.587936357421739)"><path d="M48.79 13.42 L30.95 17.61 L34.39 5.84 L46.89 14.99" stroke="none" stroke-width="0" fill="#364fc7" fill-rule="evenodd"></path><path d="M47.43 13.04 C43.06 15.88, 39.59 15.8, 31.93 16.69 M47.67 13.78 C43.76 14.9, 40.14 15.18, 32.57 16.08 M31.49 16.24 C35.32 11.01, 34.41 6.68, 36.87 5.47 M32.46 16.03 C33.42 13.19, 34.8 9.46, 36.36 3.98 M37.15 3.27 C38.77 7.36, 43.65 10.7, 48.3 15.21 M36.34 4.89 C39.97 7.74, 43.64 11.28, 47.7 14.49 M47.5 14.31 C47.5 14.31, 47.5 14.31, 47.5 14.31 M47.5 14.31 C47.5 14.31, 47.5 14.31, 47.5 14.31" stroke="#364fc7" stroke-width="1" fill="none"></path></g></g><g stroke-linecap="round"><g transform="translate(714.2574768066406 401.6518142393309) rotate(0 22.70431257572028 1.059458422146605)"><path d="M-0.08 -1.14 C7.22 -0.71, 37.02 1.23, 44.78 1.68 M-1.59 0.88 C6 1.59, 39.04 2.93, 47 3.26" stroke="#364fc7" stroke-width="1" fill="none"></path></g><g transform="translate(714.2574768066406 401.6518142393309) rotate(0 22.70431257572028 1.059458422146605)"><path d="M45.23 2.57 L34.78 10.88 L34.37 -2.32 L48.32 4.22" stroke="none" stroke-width="0" fill="#364fc7" fill-rule="evenodd"></path><path d="M45.57 2.08 C41.8 6.4, 36.39 7.46, 31.91 9.99 M47.48 3.08 C43.14 4.69, 39.07 6.56, 32.51 9.48 M33.58 8.29 C34.06 7.17, 34.14 3.77, 33.09 -3.63 M32.65 8.89 C33.67 5.78, 32.84 3.39, 33.36 -3.57 M33.49 -3.83 C38.35 -1.86, 40.61 0.98, 48.36 2.19 M33.54 -3.59 C38 -1.63, 42.33 0.42, 47.35 2.59 M47 3.26 C47 3.26, 47 3.26, 47 3.26 M47 3.26 C47 3.26, 47 3.26, 47 3.26" stroke="#364fc7" stroke-width="1" fill="none"></path></g></g><g transform="translate(1026.4165954589844 158.45880126953125) rotate(0 53.5 10)"><text x="0" y="14" font-family="Virgil, Segoe UI Emoji" font-size="16px" fill="#000000" text-anchor="start" style="white-space: pre;" direction="ltr">setup_tables</text></g><g stroke-linecap="round" transform="translate(1023.6021423339844 154.28976440429688) rotate(0 59.5648193359375 14.612075805664062)"><path d="M1.78 1.73 C33.17 1.04, 71.86 -0.38, 120.05 0.79 M-0.45 0.68 C42.7 -0.81, 84.75 -0.87, 118.32 -0.97 M118.33 -0.02 C121.08 6.98, 119.61 15.5, 120.31 28.16 M118.34 -0.69 C118.53 10.2, 119.54 21.3, 120.1 28.45 M117.59 27.92 C86.04 30.43, 52.22 30.16, -1.58 28.25 M119.39 28.46 C91.74 28.15, 65.89 27.74, 0.54 29.46 M0.13 28.56 C1.14 21.8, 0.88 16.01, 1.57 -1.02 M-0.53 29.07 C-0.09 18.11, -0.18 6.95, -0.13 0.09" stroke="#000000" stroke-width="1" fill="none"></path></g><g transform="translate(1021.1835632324219 222.91281127929688) rotate(0 108.5 10)"><text x="0" y="14" font-family="Virgil, Segoe UI Emoji" font-size="16px" fill="#000000" text-anchor="start" style="white-space: pre;" direction="ltr">resolve_placeholder_tables</text></g><g stroke-linecap="round" transform="translate(1016.3143005371094 217.55410766601562) rotate(0 113.29202270507812 16.7269287109375)"><path d="M-0.68 -0.02 C61.67 -0.37, 120.47 0.29, 227.6 -0.91 M-0.68 -0.59 C83.08 0.21, 167.47 0.49, 227.41 -0.66 M225.04 -1.3 C226.55 10.25, 225.74 19.24, 225 32.48 M226.84 -0.77 C225.75 7.32, 226.54 14.39, 227.13 33.69 M226.7 32.89 C170.2 33.48, 112.71 34.85, 1.35 32.58 M226.13 33.32 C143.11 33.12, 59.77 32.76, -0.11 33.53 M-0.56 33.24 C0.08 25.36, -0.29 16.61, -1.8 0.2 M0.04 34.24 C-0.99 26.31, -1.04 17.06, -0.1 -0.98" stroke="#000000" stroke-width="1" fill="none"></path></g><g transform="translate(1029.7634582519531 293.60206604003906) rotate(0 50 10)"><text x="0" y="14" font-family="Virgil, Segoe UI Emoji" font-size="16px" fill="#000000" text-anchor="start" style="white-space: pre;" direction="ltr">setup_fields</text></g><g stroke-linecap="round" transform="translate(1028.9880676269531 287.14996337890625) rotate(0 52.532806396484375 14.5460205078125)"><path d="M0.13 -0.66 C27.58 -0.07, 53.88 1.53, 106.64 -1.02 M-0.53 -0.16 C38.37 -0.37, 76.9 -0.78, 104.94 0.09 M104.5 -0.21 C104.84 8.67, 104.48 16.7, 103.27 29.29 M105.11 0.78 C104.51 8.05, 104.46 13.99, 104.96 28.11 M105.75 28.05 C66.73 30.37, 24.3 29.51, -1.14 27.28 M105.98 28.28 C83.61 28.34, 61.93 27.97, 0.81 28.82 M1.71 28.4 C0.47 17.82, -1.78 8.92, -0.43 -0.93 M-0.98 28.96 C0.04 17.67, -0.69 7.75, -0.66 0.57" stroke="#000000" stroke-width="1" fill="none"></path></g><g transform="translate(1044.3630065917969 346.7828369140625) rotate(0 50 10)"><text x="0" y="14" font-family="Virgil, Segoe UI Emoji" font-size="16px" fill="#000000" text-anchor="start" style="white-space: pre;" direction="ltr">setup_conds</text></g><g stroke-linecap="round" transform="translate(1034.4533996582031 343.94830322265625) rotate(0 59.59210205078125 14.1202392578125)"><path d="M-1.61 -0.29 C44.88 -3.14, 91.79 -1.99, 119.59 0.69 M-0.34 0.1 C28.95 -1.54, 58.13 0.3, 118.21 0.92 M120.89 -0.2 C120.96 5.62, 120.53 11.59, 119.14 29.95 M118.24 0.37 C119.02 7.03, 119.88 15.91, 119.28 27.26 M118.35 28.01 C83.64 28.41, 50.9 26.83, -0.62 28.53 M118.44 27.27 C85.75 28.32, 53.76 30.08, -0.65 28.82 M0.59 27.43 C-1.73 17.69, -1.79 7.41, -0.47 -1.39 M0.09 28.04 C0.45 19.03, 0.48 8.85, -0.54 -0.61" stroke="#000000" stroke-width="1" fill="none"></path></g><g transform="translate(1040.1346435546875 414.322509765625) rotate(0 49.5 10)"><text x="0" y="14" font-family="Virgil, Segoe UI Emoji" font-size="16px" fill="#000000" text-anchor="start" style="white-space: pre;" direction="ltr">setup_group</text></g><g stroke-linecap="round" transform="translate(1028.9727478027344 408.6856689453125) rotate(0 58.381805419921875 16.97747802734375)"><path d="M-0.42 0.44 C24.89 1.16, 52.86 2.26, 118.02 0.4 M0.03 0.99 C24.28 -0.27, 46.03 0.08, 116.89 0.93 M115.01 -1.7 C118.75 12.7, 117.16 26.09, 117.68 32 M116.72 -0.49 C117.94 10.54, 117.29 19.86, 117.66 33.57 M115.45 35.35 C79.49 35.35, 43.24 32.62, 0.45 32.29 M117.61 34.26 C87.42 32.79, 57.27 33.46, 0.77 34.6 M-0.21 33.44 C0.14 23.83, -1.78 15.69, 0.72 -1.08 M0.17 34.44 C0.58 25.56, 0.19 14.58, -0.85 0.55" stroke="#000000" stroke-width="1" fill="none"></path></g><g transform="translate(1036.9954528808594 493.4211730957031) rotate(0 80 10)"><text x="0" y="14" font-family="Virgil, Segoe UI Emoji" font-size="16px" fill="#000000" text-anchor="start" style="white-space: pre;" direction="ltr">fix_having_condition</text></g><g stroke-linecap="round" transform="translate(1029.9228210449219 480.5621337890625) rotate(0 86.4573974609375 18.928802490234375)"><path d="M1.98 0.72 C44.25 -0.14, 88.94 0.07, 173.22 -0.59 M-0.24 0.97 C43.67 -1.6, 87.5 -2.04, 172.49 -0.15 M174.31 -1.41 C174.43 9.78, 174.78 20.98, 172.55 39.33 M173.11 -0.28 C172.11 8.1, 173.23 14.79, 172.67 37.64 M173.93 39.79 C109.8 37.41, 44.51 39.79, 1.75 38.34 M172.84 37.37 C136.69 38.31, 100.06 38.95, 0.06 38.67 M0.48 38.74 C0.48 28.39, -1.26 20.68, 0.38 -0.84 M-0.67 36.89 C0.82 24.23, -0.36 11.09, -0.33 -0.77" stroke="#000000" stroke-width="1" fill="none"></path></g><g transform="translate(1039.8012084960938 553.2770690917969) rotate(0 49 10)"><text x="0" y="14" font-family="Virgil, Segoe UI Emoji" font-size="16px" fill="#000000" text-anchor="start" style="white-space: pre;" direction="ltr">setup_order</text></g><g stroke-linecap="round" transform="translate(1033.4217224121094 549.6846313476562) rotate(0 53.944549560546875 14.28607177734375)"><path d="M-0.21 -0.51 C30.79 0.49, 59.28 1.93, 108.6 -1.08 M0.17 0.48 C30.26 0.25, 59.63 -1.36, 107.04 0.55 M106.09 0.73 C107.8 10.1, 107.47 21.8, 106.1 29.5 M107.69 0.96 C108.36 9.17, 108.32 17.33, 107.22 29.19 M108.57 26.79 C72.11 27.31, 40.91 29.49, -0.46 30.04 M108.17 29.23 C79.37 29, 49.88 28.57, -0.14 28.68 M-1.41 27.12 C-0.72 17.16, 1.32 5.74, 1.79 0.24 M0.15 28.31 C-0.12 17.6, -0.39 7.24, 0.79 0.51" stroke="#000000" stroke-width="1" fill="none"></path></g><g transform="translate(1033.1902770996094 609.2157592773438) rotate(0 49.5 10)"><text x="0" y="14" font-family="Virgil, Segoe UI Emoji" font-size="16px" fill="#000000" text-anchor="start" style="white-space: pre;" direction="ltr">resolve_limit</text></g><g stroke-linecap="round" transform="translate(1025.1172790527344 604.251220703125) rotate(0 55.840789794921875 14.474334716796875)"><path d="M1.38 1.47 C34.75 -1.54, 65.93 -0.63, 110.82 1.53 M0.71 -0.55 C23.79 0.02, 47.39 -0.41, 111.3 -0.55 M112.99 -0.89 C111.54 8.58, 112.33 17.94, 110.27 28.94 M112.12 -0.69 C111.35 7.12, 111.32 13.75, 111.36 29.2 M111.67 28.86 C84.76 31.33, 60.93 29.73, 1.06 27.87 M112.14 29.3 C74.48 30.53, 34.35 30.25, -0.33 29.37 M-0.96 27.23 C0.7 15.91, 1.13 4.71, 0.09 0.5 M0.96 28.01 C-0.85 20.09, 0.69 12.08, -0.82 -1" stroke="#000000" stroke-width="1" fill="none"></path></g><g transform="translate(1027.4836120605469 663.4747924804688) rotate(0 59.5 10)"><text x="0" y="14" font-family="Virgil, Segoe UI Emoji" font-size="16px" fill="#000000" text-anchor="start" style="white-space: pre;" direction="ltr">setup_windows1</text></g><g stroke-linecap="round" transform="translate(1018.7040100097656 658.8005981445312) rotate(0 68.60757446289062 14.203125)"><path d="M-0.64 0.49 C42.33 2.01, 89.09 0.11, 137.12 -1.98 M0.53 -0.54 C52.69 -0.63, 105.3 0.45, 137.57 0.99 M136.55 0.85 C138.79 11.08, 135.27 20.32, 135.49 29.17 M137.26 0.25 C137.42 6.25, 137.03 13.21, 136.28 27.59 M135.57 26.41 C98.78 31.14, 55.28 27.9, -0.34 26.89 M137.56 29.33 C93.7 27.47, 49.48 27.84, -0.8 28.92 M1.13 29.96 C-0.69 22.26, -0.83 16.36, -1.05 0.42 M-0.09 28.16 C0.59 19.48, 0.08 8.33, -0.93 0.78" stroke="#000000" stroke-width="1" fill="none"></path></g><g transform="translate(999.4082946777344 713.7449340820312) rotate(0 72.5 10)"><text x="0" y="14" font-family="Virgil, Segoe UI Emoji" font-size="16px" fill="#000000" text-anchor="start" style="white-space: pre;" direction="ltr">setup_order_final</text></g><g stroke-linecap="round" transform="translate(997.2009582519531 707.6019287109375) rotate(0 77.5830078125 13.716949462890625)"><path d="M-1.72 0.76 C48.32 1.93, 98.47 0.83, 155.66 0.07 M-0.94 -0.82 C48.43 -0.76, 97.7 -2.31, 154.17 0.92 M154.83 -1.52 C155.41 11.52, 154.29 21.95, 157.01 28.68 M154.37 0.51 C154.32 7, 155.22 14.47, 155.94 27.09 M154.12 27.86 C112.85 25.73, 68.19 26.76, -0.5 28.26 M154.23 28.22 C97.57 26.92, 39.32 26.49, 0.62 27.61 M0.94 28.47 C1.3 18.36, 1.43 13.57, -0.18 -0.46 M-0.23 27.11 C-0.13 17.36, 0.45 8.81, 0.74 -0.62" stroke="#000000" stroke-width="1" fill="none"></path></g><g stroke-linecap="round"><g transform="translate(939.3153861456226 384.71392822265625) rotate(0 34.26429789941517 -106.11550860880365)"><path d="M0.94 -0.64 C12.46 -36.39, 57.22 -178.45, 68.55 -213.87 M-0.02 1.64 C11.38 -33.97, 56.19 -176.26, 67.59 -212.39" stroke="#364fc7" stroke-width="1" fill="none"></path></g><g transform="translate(939.3153861456226 384.71392822265625) rotate(0 34.26429789941517 -106.11550860880365)"><path d="M67.14 -210.48 L71.01 -199.33 L59.24 -203.22 L65.63 -212.47" stroke="none" stroke-width="0" fill="#364fc7" fill-rule="evenodd"></path><path d="M66.78 -212.43 C68.02 -208.15, 69.41 -203.41, 69.88 -198.78 M67.92 -211.98 C68.47 -207.28, 69.46 -201.46, 70.26 -196.81 M69.92 -196.35 C64.57 -198.51, 61.73 -200.14, 56.35 -201.71 M69.99 -198.14 C66.44 -198.05, 62.77 -199.28, 57.6 -200.73 M56.02 -200.39 C60.21 -204.23, 62.8 -209.62, 66.92 -211.13 M57.02 -201.55 C62.16 -205.94, 65.65 -209.99, 67.5 -212.44 M67.59 -212.39 C67.59 -212.39, 67.59 -212.39, 67.59 -212.39 M67.59 -212.39 C67.59 -212.39, 67.59 -212.39, 67.59 -212.39" stroke="#364fc7" stroke-width="1" fill="none"></path></g></g><g stroke-linecap="round"><g transform="translate(946.694001828215 386.45854300239534) rotate(0 33.405637627045735 -64.76720744903474)"><path d="M0.35 0.97 C11.65 -20.62, 56.62 -106.89, 67.73 -128.74 M-0.92 0.44 C10.31 -21.57, 56.07 -108.9, 67.28 -130.51" stroke="#364fc7" stroke-width="1" fill="none"></path></g><g transform="translate(946.694001828215 386.45854300239534) rotate(0 33.405637627045735 -64.76720744903474)"><path d="M65.33 -132.43 L65.67 -116.48 L55.65 -122.1 L66.18 -130.63" stroke="none" stroke-width="0" fill="#364fc7" fill-rule="evenodd"></path><path d="M68.49 -129.34 C68.03 -125.84, 66.07 -120.87, 67.1 -114.54 M67.03 -129.78 C66.8 -125.85, 67.61 -120.31, 65.93 -114.85 M67.58 -115.06 C65.34 -115.97, 61.93 -117.81, 54.54 -121.67 M66.34 -115.71 C63.46 -116.9, 60.68 -118.81, 55.04 -120.84 M54.92 -120.72 C58.11 -124.5, 61.65 -128.25, 68.56 -130.44 M55.7 -120.79 C57.44 -123.65, 60.92 -125.75, 66.91 -130.66 M67.28 -130.51 C67.28 -130.51, 67.28 -130.51, 67.28 -130.51 M67.28 -130.51 C67.28 -130.51, 67.28 -130.51, 67.28 -130.51" stroke="#364fc7" stroke-width="1" fill="none"></path></g></g><g stroke-linecap="round"><g transform="translate(948.1340252449063 392.12750884003395) rotate(0 34.250306736928565 -36.80673214381986)"><path d="M0.12 -0.79 C11.63 -13.27, 58.25 -62.6, 69.77 -75.03 M-1.27 1.42 C9.99 -10.88, 56.52 -61.01, 68.68 -73.64" stroke="#364fc7" stroke-width="1" fill="none"></path></g><g transform="translate(948.1340252449063 392.12750884003395) rotate(0 34.250306736928565 -36.80673214381986)"><path d="M69.88 -75.23 L65.39 -60.48 L52.91 -68.7 L66.72 -74.44" stroke="none" stroke-width="0" fill="#364fc7" fill-rule="evenodd"></path><path d="M67.7 -73.97 C66.62 -69.53, 64.54 -64.02, 63.54 -59.58 M68.29 -72.99 C67.1 -68.01, 65.97 -63.96, 64.3 -59.77 M65.05 -59.33 C60.25 -62.2, 60.04 -63.79, 55.74 -68.8 M63.66 -59.52 C61.98 -61.15, 59.45 -63.97, 55.37 -68.01 M56.1 -68.32 C58.84 -69.83, 62.62 -70.04, 67.93 -72.41 M54.85 -68.84 C58.63 -70.55, 63.59 -72.01, 68.79 -73.9 M68.68 -73.64 C68.68 -73.64, 68.68 -73.64, 68.68 -73.64 M68.68 -73.64 C68.68 -73.64, 68.68 -73.64, 68.68 -73.64" stroke="#364fc7" stroke-width="1" fill="none"></path></g></g><g stroke-linecap="round"><g transform="translate(951.9842858487154 394.10572491156927) rotate(0 38.58777229732959 -17.183380897048067)"><path d="M1.02 0.06 C13.62 -5.5, 62.25 -28.81, 74.95 -34.43 M0.1 -0.96 C13.11 -6.25, 64.25 -27.24, 77.07 -33.03" stroke="#364fc7" stroke-width="1" fill="none"></path></g><g transform="translate(951.9842858487154 394.10572491156927) rotate(0 38.58777229732959 -17.183380897048067)"><path d="M76.49 -33.93 L65.8 -20.47 L61.69 -33.38 L78.71 -31.24" stroke="none" stroke-width="0" fill="#364fc7" fill-rule="evenodd"></path><path d="M77.15 -34.42 C74.16 -28.77, 72.67 -26.22, 66.23 -22.38 M76.93 -32.41 C73.91 -28.31, 69.49 -23.82, 67.17 -21.85 M66.87 -21.92 C65.35 -26.11, 64.92 -30.21, 63.12 -33.15 M66.44 -22.47 C65.45 -24.67, 64.67 -26.81, 61.85 -33.86 M62.38 -33.84 C65.74 -32.54, 72.25 -34.64, 78.19 -33.2 M62.5 -32.9 C66.98 -33, 72.92 -33.51, 76.91 -32.58 M77.07 -33.03 C77.07 -33.03, 77.07 -33.03, 77.07 -33.03 M77.07 -33.03 C77.07 -33.03, 77.07 -33.03, 77.07 -33.03" stroke="#364fc7" stroke-width="1" fill="none"></path></g></g><g stroke-linecap="round"><g transform="translate(952.1937561035156 401.7394177031213) rotate(0 32.50571103271102 11.628977348240596)"><path d="M0.98 0.34 C11.27 4.21, 52.29 18.98, 62.78 22.61 M0.04 -0.52 C10.6 3.54, 54.43 19.89, 64.97 23.78" stroke="#364fc7" stroke-width="1" fill="none"></path></g><g transform="translate(952.1937561035156 401.7394177031213) rotate(0 32.50571103271102 11.628977348240596)"><path d="M63.12 22.2 L49.77 24.43 L54.75 15.08 L66.89 22.23" stroke="none" stroke-width="0" fill="#364fc7" fill-rule="evenodd"></path><path d="M65.4 22.54 C58.27 24.59, 51.83 23.38, 48.58 24.28 M64.56 23.74 C61.59 23.6, 57.58 24.17, 49.64 25.36 M49.87 25.64 C53.1 19.35, 54.3 16.7, 53.8 13.5 M50.4 24.48 C52.04 20.62, 52.51 16.73, 53.81 12.85 M53.95 13.38 C56.61 17.67, 61.86 18.81, 64.03 25.25 M54.03 12.89 C56.94 15.58, 60.63 18.79, 65.02 24.4 M64.97 23.78 C64.97 23.78, 64.97 23.78, 64.97 23.78 M64.97 23.78 C64.97 23.78, 64.97 23.78, 64.97 23.78" stroke="#364fc7" stroke-width="1" fill="none"></path></g></g><g stroke-linecap="round"><g transform="translate(951.2799987792969 404.1826187428995) rotate(0 33.77404593489132 46.23421682816283)"><path d="M-0.14 0.62 C11.6 15.72, 57.74 76.05, 69.22 91.52 M-1.67 -0.11 C10.11 15.05, 57.22 77.3, 68.89 92.57" stroke="#364fc7" stroke-width="1" fill="none"></path></g><g transform="translate(951.2799987792969 404.1826187428995) rotate(0 33.77404593489132 46.23421682816283)"><path d="M67.22 94.52 L55.7 84.11 L67.19 77.71 L67.4 90.77" stroke="none" stroke-width="0" fill="#364fc7" fill-rule="evenodd"></path><path d="M69.66 94.04 C65.03 92, 64.73 89, 56.08 86.18 M68.29 93.11 C65.32 90.29, 62.32 88.57, 55.31 85.64 M55.85 84.64 C60.25 83.68, 62 79.42, 66.94 77.53 M55.43 85.3 C58.27 83.8, 61.55 81.12, 66.23 78.48 M64.4 76.49 C65.96 82.43, 68.52 87.85, 69.8 93.94 M65.65 77.95 C66.6 82.22, 67.11 87.35, 69.52 91.88 M68.89 92.57 C68.89 92.57, 68.89 92.57, 68.89 92.57 M68.89 92.57 C68.89 92.57, 68.89 92.57, 68.89 92.57" stroke="#364fc7" stroke-width="1" fill="none"></path></g></g><g stroke-linecap="round"><g transform="translate(948.1191101074219 408.5855704717148) rotate(0 37.33295682035384 77.15262041467705)"><path d="M-0.73 -0.75 C11.67 24.75, 62.91 128.04, 75.4 153.71 M1.08 1.47 C13.35 27.08, 63.01 129.61, 75.06 155.05" stroke="#364fc7" stroke-width="1" fill="none"></path></g><g transform="translate(948.1191101074219 408.5855704717148) rotate(0 37.33295682035384 77.15262041467705)"><path d="M74.28 155.31 L65.47 146.94 L76.81 140.39 L76.77 155.56" stroke="none" stroke-width="0" fill="#364fc7" fill-rule="evenodd"></path><path d="M74.13 156.52 C70.12 151.31, 65.11 146.92, 63.03 144.87 M75.11 155.67 C72.93 153.22, 70.11 151.16, 62.81 144.83 M63.01 146.31 C67.31 144.32, 67.82 142.8, 74.79 140.11 M63.84 146.07 C66.38 143.43, 70.37 142.09, 75 140.68 M73.97 141.1 C73.83 144.68, 76.34 153.09, 75.67 153.76 M74.24 139.62 C75.63 142.68, 75.8 146.59, 74.51 155.61 M75.06 155.05 C75.06 155.05, 75.06 155.05, 75.06 155.05 M75.06 155.05 C75.06 155.05, 75.06 155.05, 75.06 155.05" stroke="#364fc7" stroke-width="1" fill="none"></path></g></g><g stroke-linecap="round"><g transform="translate(945.1091003417969 408.27270318795433) rotate(0 36.04352800420486 104.00536996914491)"><path d="M1.14 0.92 C13.25 35.54, 60.27 172.06, 71.8 206.66 M0.28 0.35 C12.34 35.18, 59.04 173.28, 71.11 207.66" stroke="#364fc7" stroke-width="1" fill="none"></path></g><g transform="translate(945.1091003417969 408.27270318795433) rotate(0 36.04352800420486 104.00536996914491)"><path d="M70.47 206.63 L58.73 196.45 L73.43 192.75 L71.54 206.99" stroke="none" stroke-width="0" fill="#364fc7" fill-rule="evenodd"></path><path d="M72.25 208.26 C67.49 204, 67.39 203.15, 59.38 196 M71.14 207.11 C67.8 203.59, 62.74 198.89, 59.99 196.43 M61.24 196.93 C65.85 196.05, 68.62 195.16, 72.91 193.53 M60.79 196.78 C64.96 195.1, 70.28 194.34, 73.13 193.35 M72.46 191.7 C71.21 196.73, 71.66 203.68, 71.71 209.16 M72.08 192.84 C72.04 197.41, 71.16 203.92, 70.44 207.43 M71.11 207.66 C71.11 207.66, 71.11 207.66, 71.11 207.66 M71.11 207.66 C71.11 207.66, 71.11 207.66, 71.11 207.66" stroke="#364fc7" stroke-width="1" fill="none"></path></g></g><g stroke-linecap="round"><g transform="translate(944.9218444824219 426.99046777726824) rotate(0 30.479856951152897 119.76743045637812)"><path d="M-0.65 0.85 C9.28 40.68, 49.44 198.52, 59.46 237.94 M1.21 0.25 C11.51 40.34, 51.52 199.63, 61.61 239.29" stroke="#364fc7" stroke-width="1" fill="none"></path></g><g transform="translate(944.9218444824219 426.99046777726824) rotate(0 30.479856951152897 119.76743045637812)"><path d="M60.04 240.89 L52.11 227.51 L66.12 224 L60.14 239.54" stroke="none" stroke-width="0" fill="#364fc7" fill-rule="evenodd"></path><path d="M62.67 237.96 C58.53 234.54, 55.07 233.89, 53.52 228.19 M61.13 239.24 C59.01 235.92, 54.51 230.65, 52.41 227.07 M51.33 227.83 C56.28 226.17, 60.79 224.16, 64.17 225.03 M51.76 228.1 C56.07 227.26, 59.08 225.62, 63.89 224.89 M63.1 224.27 C64.29 228.09, 63.71 234.19, 60.26 238.9 M64.62 224.25 C62.98 228.04, 63 232.5, 61.97 239.36 M61.61 239.29 C61.61 239.29, 61.61 239.29, 61.61 239.29 M61.61 239.29 C61.61 239.29, 61.61 239.29, 61.61 239.29" stroke="#364fc7" stroke-width="1" fill="none"></path></g></g><g stroke-linecap="round"><g transform="translate(943.3947612125153 435.1812026227325) rotate(0 23.07594491851262 134.73364099575048)"><path d="M-1.06 -0.23 C6.75 44.72, 39.13 224.47, 47.21 269.69 M0.59 -1.39 C8.24 43.69, 38.8 225.78, 46.54 270.86" stroke="#364fc7" stroke-width="1" fill="none"></path></g><g transform="translate(943.3947612125153 435.1812026227325) rotate(0 23.07594491851262 134.73364099575048)"><path d="M44.56 272.08 L36.63 259.68 L49.96 256.14 L46.89 269.91" stroke="none" stroke-width="0" fill="#364fc7" fill-rule="evenodd"></path><path d="M46.25 271.52 C42.84 267.6, 41.72 261.24, 37.63 258.32 M46.24 270.16 C42.91 266.77, 40.22 262.75, 38.09 258.23 M38.85 257.33 C42.25 257.18, 46.9 256.21, 49.55 257.05 M38.59 258.29 C40.61 258.38, 43.99 258.19, 50.38 255.9 M51.79 255.98 C47.9 262.08, 48.7 268.55, 46.98 271.4 M50.1 256.04 C49.25 260.89, 48.33 265.09, 46.21 270.75 M46.54 270.86 C46.54 270.86, 46.54 270.86, 46.54 270.86 M46.54 270.86 C46.54 270.86, 46.54 270.86, 46.54 270.86" stroke="#364fc7" stroke-width="1" fill="none"></path></g></g><g transform="translate(419.4324645996094 545.8509521484375) rotate(0 55 10)"><text x="0" y="14" font-family="Virgil, Segoe UI Emoji" font-size="16px" fill="#000000" text-anchor="start" style="white-space: pre;" direction="ltr">execute_inner</text></g><g stroke-linecap="round" transform="translate(409.9831237792969 538.3530883789062) rotate(0 61.164794921875 15.8529052734375)"><path d="M1.77 0.46 C24.65 -0.08, 50.92 -0.44, 120.81 0.25 M0.25 0.45 C48.12 1.74, 94.83 0.23, 121.34 0.39 M122.78 0.7 C123.39 5.72, 121.63 16.32, 123.36 31.4 M122.08 0.64 C121.37 8.15, 121.84 17.61, 122.5 31.56 M123.46 32.3 C97.64 31.18, 72.97 32, 1.68 30.56 M121.34 32.03 C92.5 30.48, 61.57 32.19, 0.7 31.82 M-0.36 32.31 C0.82 20.03, -0.44 7.86, -1.55 1.83 M-0.02 31.02 C-0.93 22.27, 0.69 12.18, 0.31 0.55" stroke="#000000" stroke-width="1" fill="none"></path></g><g transform="translate(591.9165954589844 469.20269775390625) rotate(0 31 10)"><text x="0" y="14" font-family="Virgil, Segoe UI Emoji" font-size="16px" fill="#000000" text-anchor="start" style="white-space: pre;" direction="ltr">optimize</text></g><g stroke-linecap="round" transform="translate(585.3376770019531 458.20953369140625) rotate(0 36.8416748046875 20.6431884765625)"><path d="M-0.17 0.45 C25.69 0.76, 48.18 -1, 74.98 1.03 M-0.61 -0.25 C21.63 -0.24, 41.52 0.23, 74.1 0.17 M72.93 1.13 C73.88 12.15, 73.23 24.33, 74.44 42.97 M73.32 -0.99 C73.78 10.36, 72.68 19.61, 74.61 41.99 M75.33 40.93 C51.32 41.75, 28.28 40.49, 0.58 39.74 M73.61 41.27 C44.14 41.39, 16.5 43.01, 0.41 41.6 M-1.14 41.07 C1.02 25.82, 0.09 11.76, -1.87 -0.75 M-0.57 41.16 C0.24 25, -0.34 8.23, -0.36 -0.44" stroke="#000000" stroke-width="1" fill="none"></path></g><g transform="translate(589.8624267578125 565.6823425292969) rotate(0 48 10)"><text x="0" y="14" font-family="Virgil, Segoe UI Emoji" font-size="16px" fill="#000000" text-anchor="start" style="white-space: pre;" direction="ltr">unit.execute</text></g><g stroke-linecap="round" transform="translate(585.3805236816406 559.0750732421875) rotate(0 53.178955078125 16.96856689453125)"><path d="M0.38 -0.06 C28.67 0.44, 57.44 -1.46, 105.29 -0.92 M0.35 -0.79 C27.67 0.58, 56.86 -0.22, 107.21 -0.33 M107.07 0.53 C105.75 13.55, 104.75 27.77, 106.65 35.91 M105.74 0.54 C107.35 10.34, 106.66 20.41, 107.19 34.44 M105.55 34.37 C80.31 32.79, 53.92 36.63, 0.66 35.6 M106.52 33.73 C80.34 33.98, 54.19 34.73, -0.29 33.1 M0.75 34.42 C-0.86 19.63, 0.04 6.03, -1.14 1.95 M-0.11 33.99 C0.49 25.23, -0.73 14.83, -0.85 0.09" stroke="#000000" stroke-width="1" fill="none"></path></g><g transform="translate(628.951904296875 646.0654907226562) rotate(0 88.5 10)"><text x="0" y="14" font-family="Virgil, Segoe UI Emoji" font-size="16px" fill="#000000" text-anchor="start" style="white-space: pre;" direction="ltr">ExecuteIteratorQuery</text></g><g stroke-linecap="round" transform="translate(617.8891906738281 635.8778076171875) rotate(0 96.564697265625 18.5811767578125)"><path d="M1.4 0.23 C44.47 -2.45, 87.18 -2.14, 193.74 0.71 M-0.78 0.92 C63.23 0.42, 126.09 -0.58, 192.45 -0.62 M193.75 1.1 C195.17 14.14, 192.36 26.06, 194.49 36.35 M192.75 0.98 C193.42 12.78, 192.52 23.78, 193.51 37.32 M192.25 37.95 C138.63 34.8, 87.02 38.19, -1.84 37.92 M193.29 36.33 C129.98 37, 67.8 35.5, -0.63 37.05 M-1.82 37.17 C-1.82 26.01, -1.44 14.96, 1.57 -1.52 M-0.64 36.34 C0.99 25.49, -0.46 13.61, 0.54 -0.52" stroke="#000000" stroke-width="1" fill="none"></path></g><g transform="translate(796.8624877929688 709.9797058105469) rotate(0 65.5 10)"><text x="0" y="14" font-family="Virgil, Segoe UI Emoji" font-size="16px" fill="#000000" text-anchor="start" style="white-space: pre;" direction="ltr">start_execution</text></g><g stroke-linecap="round" transform="translate(791.0613708496094 702.9225463867188) rotate(0 70.4345703125 17.356048583984375)"><path d="M-0.22 1.36 C53.19 1.24, 107.78 -1.07, 140.12 1.97 M-0.13 0.38 C47.06 0.59, 93.65 0.44, 140.43 0.4 M142.59 -1.84 C141.33 9.89, 140.01 17.65, 141.2 33.06 M140.35 -0.63 C141.1 8.48, 141.52 17.72, 139.96 34.72 M141.35 36.29 C109.07 34.24, 79.79 34.5, -1.28 33.07 M141.31 35.26 C85.49 33.31, 31.24 34.85, -0.07 33.76 M-1.65 34.7 C-0.21 27.33, 0.62 21.72, -1.36 -1.69 M-0.48 35.41 C0.77 22.91, 0.66 10.51, 0.76 -0.25" stroke="#000000" stroke-width="1" fill="none"></path></g><g stroke-linecap="round"><g transform="translate(405.2132873535156 498.5708312988281) rotate(0 10.659771242085867 13.950785876251757)"><path d="M0.3 0.57 C3.91 4.99, 18.83 22.24, 22.32 26.61 M-1 -0.18 C2.43 4.43, 17.45 23.36, 21.57 28.08" stroke="#364fc7" stroke-width="1" fill="none"></path></g><g transform="translate(405.2132873535156 498.5708312988281) rotate(0 10.659771242085867 13.950785876251757)"><path d="M20.17 27.7 L7.77 21.4 L15.87 14.82 L22.41 27.59" stroke="none" stroke-width="0" fill="#364fc7" fill-rule="evenodd"></path><path d="M22.28 28.55 C16.61 24.92, 12.06 24.05, 9.45 22.37 M21.28 27.71 C16.79 26.44, 13.57 23.9, 7.44 21.68 M7.65 21.37 C9.82 18.57, 13.67 16.02, 17.17 12.33 M7.97 21.45 C10.35 19.76, 12.62 17.94, 17.2 14.17 M17.65 12.07 C20 17.58, 18.38 21.47, 21.79 28.62 M17.21 12.89 C18.48 17.27, 20.18 20.98, 21.1 27.81 M21.57 28.08 C21.57 28.08, 21.57 28.08, 21.57 28.08 M21.57 28.08 C21.57 28.08, 21.57 28.08, 21.57 28.08" stroke="#364fc7" stroke-width="1" fill="none"></path></g></g><g stroke-linecap="round"><g transform="translate(527.1483309108285 524.3529052734375) rotate(0 21.3563084529859 -18.578935089272363)"><path d="M0.2 0.92 C7.5 -5.4, 36.69 -31.51, 43.87 -38.08 M-1.16 0.36 C5.95 -5.77, 34.93 -30.37, 42.74 -36.67" stroke="#364fc7" stroke-width="1" fill="none"></path></g><g transform="translate(527.1483309108285 524.3529052734375) rotate(0 21.3563084529859 -18.578935089272363)"><path d="M42.4 -36.83 L36.36 -25.04 L29.04 -34.83 L43.23 -37.21" stroke="none" stroke-width="0" fill="#364fc7" fill-rule="evenodd"></path><path d="M43.89 -37.11 C40.45 -33.7, 38.01 -28.32, 35.27 -23.85 M42.59 -36.74 C41.11 -33.81, 39.85 -30.89, 36.06 -23.81 M36.7 -23.23 C31.88 -25.99, 29.86 -32.12, 27.97 -32.67 M35.75 -23.6 C33.08 -26.65, 30.76 -29.33, 27.93 -33.26 M28.67 -31.78 C32.34 -32.66, 34.85 -34.18, 41.51 -37.47 M27.63 -32.44 C32.81 -34.74, 37.26 -34.65, 43.3 -36.94 M42.74 -36.67 C42.74 -36.67, 42.74 -36.67, 42.74 -36.67 M42.74 -36.67 C42.74 -36.67, 42.74 -36.67, 42.74 -36.67" stroke="#364fc7" stroke-width="1" fill="none"></path></g></g><g stroke-linecap="round"><g transform="translate(541.4654846191406 564.6526552562973) rotate(0 16.086350453272473 10.784354513288122)"><path d="M-1.17 -0.25 C4.22 3.6, 27.69 19.22, 33.35 22.99 M0.41 -1.42 C5.58 2.06, 27.26 16.93, 32.49 21.09" stroke="#364fc7" stroke-width="1" fill="none"></path></g><g transform="translate(541.4654846191406 564.6526552562973) rotate(0 16.086350453272473 10.784354513288122)"><path d="M33.3 20.19 L17.15 16.78 L26.06 7.19 L34.45 20.71" stroke="none" stroke-width="0" fill="#364fc7" fill-rule="evenodd"></path><path d="M32.18 21.31 C27.41 19.34, 21.02 17.36, 16.6 16.83 M32.13 20.62 C28.4 20.14, 24.14 19.88, 18.31 18.32 M16.74 17.5 C20.87 14.83, 23.32 9.55, 25.97 7.89 M18.25 17.95 C19.2 15.53, 20.82 13.75, 25.19 7.34 M26.71 8.1 C26.82 13.98, 31.82 16.84, 33.45 20.38 M25.39 7.61 C27.44 12.12, 29.92 15.71, 32.79 20.36 M32.49 21.09 C32.49 21.09, 32.49 21.09, 32.49 21.09 M32.49 21.09 C32.49 21.09, 32.49 21.09, 32.49 21.09" stroke="#364fc7" stroke-width="1" fill="none"></path></g></g><g stroke-linecap="round"><g transform="translate(638.1844614366692 600.1380615234375) rotate(0 15.075664719347571 12.686420986000428)"><path d="M-0.18 -0.27 C5.26 4.11, 26.68 21.47, 31.88 25.86 M-1.73 -1.46 C3.61 3.06, 25 22.11, 30.86 26.83" stroke="#364fc7" stroke-width="1" fill="none"></path></g><g transform="translate(638.1844614366692 600.1380615234375) rotate(0 15.075664719347571 12.686420986000428)"><path d="M30.8 28.49 L17.61 23.95 L26.17 14.69 L29.78 26.52" stroke="none" stroke-width="0" fill="#364fc7" fill-rule="evenodd"></path><path d="M30.52 26.65 C26.13 24.68, 22.94 26.11, 16.98 22.8 M31.09 26.43 C25.89 25.45, 19.82 23.41, 16.75 22.82 M17.6 22.78 C19.08 20.52, 19.87 16.65, 25.33 14.45 M16.29 22.73 C19.21 18.78, 22.26 15.82, 24.73 13.63 M24.8 13.94 C25.82 16.33, 27.09 20.25, 30.25 26.36 M24.22 13.38 C26.69 16.9, 28.73 21.34, 31.04 26.14 M30.86 26.83 C30.86 26.83, 30.86 26.83, 30.86 26.83 M30.86 26.83 C30.86 26.83, 30.86 26.83, 30.86 26.83" stroke="#364fc7" stroke-width="1" fill="none"></path></g></g><g stroke-linecap="round"><g transform="translate(740.9264048490857 684.4255981445312) rotate(0 20.85661532551029 5.740246433116681)"><path d="M0.56 -0.03 C7.76 1.95, 35.39 8.96, 42.32 10.95 M-0.61 -1.1 C6.5 1.18, 34.31 10.7, 41.27 12.58" stroke="#364fc7" stroke-width="1" fill="none"></path></g><g transform="translate(740.9264048490857 684.4255981445312) rotate(0 20.85661532551029 5.740246433116681)"><path d="M41.47 12.85 L28.33 15.51 L31.18 1.5 L41.52 11.5" stroke="none" stroke-width="0" fill="#364fc7" fill-rule="evenodd"></path><path d="M41.23 12.34 C38.1 12.64, 35.95 13.48, 26.83 15.06 M42.02 13.15 C37.45 12.86, 35 13.36, 25.95 14.06 M27.28 13.88 C26.93 12.86, 28.28 9.57, 29.93 2.38 M26.21 14.67 C26.76 11.74, 28.02 8.37, 30.39 2.06 M28.79 3.7 C33.15 6.28, 38.1 10.29, 41.35 12.79 M29.68 3 C32.91 5.2, 35.15 7.71, 41.67 12.24 M41.27 12.58 C41.27 12.58, 41.27 12.58, 41.27 12.58 M41.27 12.58 C41.27 12.58, 41.27 12.58, 41.27 12.58" stroke="#364fc7" stroke-width="1" fill="none"></path></g></g><g transform="translate(38.284942626953125 10) rotate(0 69 11.5)"><text x="0" y="17" font-family="Cascadia, Segoe UI Emoji" font-size="16px" fill="#000000" text-anchor="start" style="white-space: pre;" direction="ltr">mysql </text></g><g transform="translate(126.01095581054688 40.972198486328125) rotate(0 25 10)"><text x="0" y="14" font-family="Virgil, Segoe UI Emoji" font-size="16px" fill="#000000" text-anchor="start" style="white-space: pre;" direction="ltr">longfei</text></g></svg>