<svg version="1.1" xmlns="http://www.w3.org/2000/svg" viewBox="0 0 1137.5397620558738 1397.2585906982422" width="1137.5397620558738" height="1397.2585906982422">
  <!-- svg-source:excalidraw -->
  
  <defs>
    <style>
      @font-face {
        font-family: "Virgil";
        src: url("https://excalidraw.com/Virgil.woff2");
      }
      @font-face {
        font-family: "Cascadia";
        src: url("https://excalidraw.com/Cascadia.woff2");
      }
    </style>
  </defs>
  <rect x="0" y="0" width="1137.5397620558738" height="1397.2585906982422" fill="#ffffff"></rect><g transform="translate(250.15625853352242 33.79658508300781) rotate(0 99.5 40)"><text x="0" y="14" font-family="Virgil, Segoe UI Emoji" font-size="16px" fill="#000000" text-anchor="start" style="white-space: pre;" direction="ltr">q1:</text><text x="0" y="34" font-family="Virgil, Segoe UI Emoji" font-size="16px" fill="#000000" text-anchor="start" style="white-space: pre;" direction="ltr">select a as f1, a as f2 </text><text x="0" y="54" font-family="Virgil, Segoe UI Emoji" font-size="16px" fill="#000000" text-anchor="start" style="white-space: pre;" direction="ltr">from t1</text><text x="0" y="74" font-family="Virgil, Segoe UI Emoji" font-size="16px" fill="#000000" text-anchor="start" style="white-space: pre;" direction="ltr">order by a;</text></g><g transform="translate(108.78077025227242 288.1955108642578) rotate(0 135 71.5)"><text x="0" y="14.428571428571427" font-family="Virgil, Segoe UI Emoji" font-size="16px" fill="#000000" text-anchor="start" style="white-space: pre;" direction="ltr">Item_field {</text><text x="0" y="34.857142857142854" font-family="Virgil, Segoe UI Emoji" font-size="16px" fill="#000000" text-anchor="start" style="white-space: pre;" direction="ltr">    TABLE_LIST *table_ref;</text><text x="0" y="55.28571428571428" font-family="Virgil, Segoe UI Emoji" font-size="16px" fill="#000000" text-anchor="start" style="white-space: pre;" direction="ltr">    /// Source field t1.a</text><text x="0" y="75.71428571428571" font-family="Virgil, Segoe UI Emoji" font-size="16px" fill="#000000" text-anchor="start" style="white-space: pre;" direction="ltr">    Field *field;</text><text x="0" y="96.14285714285714" font-family="Virgil, Segoe UI Emoji" font-size="16px" fill="#000000" text-anchor="start" style="white-space: pre;" direction="ltr">    // 别名 f1</text><text x="0" y="116.57142857142856" font-family="Virgil, Segoe UI Emoji" font-size="16px" fill="#000000" text-anchor="start" style="white-space: pre;" direction="ltr">    Item_name_string item_name;</text><text x="0" y="137" font-family="Virgil, Segoe UI Emoji" font-size="16px" fill="#000000" text-anchor="start" style="white-space: pre;" direction="ltr">}</text></g><g transform="translate(122.64905638508492 199.0086212158203) rotate(0 29.5 10)"><text x="0" y="14" font-family="Virgil, Segoe UI Emoji" font-size="16px" fill="#000000" text-anchor="start" style="white-space: pre;" direction="ltr">a as f1</text></g><g transform="translate(479.26191038899117 199.0086212158203) rotate(0 33 10)"><text x="0" y="14" font-family="Virgil, Segoe UI Emoji" font-size="16px" fill="#000000" text-anchor="start" style="white-space: pre;" direction="ltr">a as f2</text></g><g transform="translate(479.2999352913349 288.1955108642578) rotate(0 135 71.5)"><text x="0" y="14.428571428571427" font-family="Virgil, Segoe UI Emoji" font-size="16px" fill="#000000" text-anchor="start" style="white-space: pre;" direction="ltr">Item_field {</text><text x="0" y="34.857142857142854" font-family="Virgil, Segoe UI Emoji" font-size="16px" fill="#000000" text-anchor="start" style="white-space: pre;" direction="ltr">    TABLE_LIST *table_ref;</text><text x="0" y="55.28571428571428" font-family="Virgil, Segoe UI Emoji" font-size="16px" fill="#000000" text-anchor="start" style="white-space: pre;" direction="ltr">    /// Source field t1.a</text><text x="0" y="75.71428571428571" font-family="Virgil, Segoe UI Emoji" font-size="16px" fill="#000000" text-anchor="start" style="white-space: pre;" direction="ltr">    Field *field;</text><text x="0" y="96.14285714285714" font-family="Virgil, Segoe UI Emoji" font-size="16px" fill="#000000" text-anchor="start" style="white-space: pre;" direction="ltr">    // 别名 f2</text><text x="0" y="116.57142857142856" font-family="Virgil, Segoe UI Emoji" font-size="16px" fill="#000000" text-anchor="start" style="white-space: pre;" direction="ltr">    Item_name_string item_name;</text><text x="0" y="137" font-family="Virgil, Segoe UI Emoji" font-size="16px" fill="#000000" text-anchor="start" style="white-space: pre;" direction="ltr">}</text></g><g transform="translate(124.75885863117867 10) rotate(0 41 10)"><text x="0" y="14" font-family="Virgil, Segoe UI Emoji" font-size="16px" fill="#000000" text-anchor="start" style="white-space: pre;" direction="ltr">t1(id, a, b)</text></g><g transform="translate(241.05725951008492 550.0173492431641) rotate(0 55.5 10)"><text x="0" y="14" font-family="Virgil, Segoe UI Emoji" font-size="16px" fill="#000000" text-anchor="start" style="white-space: pre;" direction="ltr">TABLE_LIST</text></g><g stroke-linecap="round" transform="translate(231.02277464680367 544.0747222900391) rotate(0 66.36080932617188 15.254913330078125)"><path d="M1.17 0.88 C35.39 1.1, 73.01 0.53, 134.13 0.85 M-0.92 0.05 C40.03 0.48, 78.93 -0.28, 132.61 -0.43 M132.56 -0.35 C132.11 8.43, 132.09 15.57, 132.49 29.21 M131.99 0.01 C132.05 12.22, 133.83 23.31, 132.85 30.74 M134.5 29.86 C99.33 29.36, 63.64 31.71, -1.8 30.23 M133.41 30.31 C86.29 28.68, 37.9 29.74, 0.8 31.26 M1.48 30.72 C-1.05 16.98, 1.76 8.08, 1.68 -0.64 M-0.41 30.76 C-0.63 22.82, -0.56 17.55, 0.12 0.4" stroke="#000000" stroke-width="1" fill="none"></path></g><g transform="translate(247.02777952961617 579.1600494384766) rotate(0 50.5 10)"><text x="0" y="14" font-family="Virgil, Segoe UI Emoji" font-size="16px" fill="#000000" text-anchor="start" style="white-space: pre;" direction="ltr">opened table</text></g><g stroke-linecap="round"><g transform="translate(244.67936034016304 576.9963531494141) rotate(0 -0.06514143568574582 13.250501763895159)"><path d="M0.19 0.57 C0.41 4.75, 1.12 21.1, 1.03 25.62 M-1.16 -0.17 C-0.99 4.08, 0.64 22.32, 0.62 26.67" stroke="#000000" stroke-width="1" fill="none"></path></g></g><g stroke-linecap="round"><g transform="translate(247.50541014485054 604.6526031494141) rotate(0 54.074916564449666 0.000019016008991457056)"><path d="M1.07 -1.03 C19.16 -1.05, 90.27 -1.18, 107.98 -0.83 M0.17 1.04 C18.25 1.21, 89.86 0.57, 107.63 0.27" stroke="#000000" stroke-width="1" fill="none"></path></g></g><g stroke-linecap="round"><g transform="translate(269.59638304524117 608.0409698486328) rotate(0 0.3256407446891103 16.26214089788499)"><path d="M1.1 1.01 C1.07 6.17, 0.71 25.79, 0.35 31.08 M0.22 0.49 C0.01 5.76, -0.59 27, -0.42 32.04" stroke="#000000" stroke-width="1" fill="none"></path></g></g><g stroke-linecap="round"><g transform="translate(271.75251097492867 640.9084625244141) rotate(0 43.03918514559092 -0.20834713466467747)"><path d="M0.86 -0.91 C0.94 -0.61, -14.93 0.89, 0.45 0.76 C15.84 0.64, 78.01 -1.33, 93.17 -1.65 M-0.14 1.23 C-0.19 1.27, -15.78 -0.69, -0.26 -0.96 C15.27 -1.22, 77.76 -0.55, 93.02 -0.35" stroke="#000000" stroke-width="1" fill="none"></path></g></g><g transform="translate(296.48554320149117 615.7602691650391) rotate(0 21.5 10)"><text x="0" y="14" font-family="Virgil, Segoe UI Emoji" font-size="16px" fill="#000000" text-anchor="start" style="white-space: pre;" direction="ltr">fields</text></g><g transform="translate(429.1142663460224 612.9316558837891) rotate(0 7 10)"><text x="0" y="14" font-family="Virgil, Segoe UI Emoji" font-size="16px" fill="#000000" text-anchor="start" style="white-space: pre;" direction="ltr">id</text></g><g transform="translate(495.6284265022724 610.4458770751953) rotate(0 6 10)"><text x="0" y="14" font-family="Virgil, Segoe UI Emoji" font-size="16px" fill="#000000" text-anchor="start" style="white-space: pre;" direction="ltr">a</text></g><g transform="translate(562.4852380257099 613.3318634033203) rotate(0 4.5 10)"><text x="0" y="14" font-family="Virgil, Segoe UI Emoji" font-size="16px" fill="#000000" text-anchor="start" style="white-space: pre;" direction="ltr">b</text></g><g stroke-linecap="round" transform="translate(420.18500609211617 602.0152130126953) rotate(0 82.76593017578125 17.475006103515625)"><path d="M-0.18 -1.74 C34.22 -0.42, 69.17 1.35, 164.66 -1.93 M0.27 0.68 C56.45 0.1, 114.04 0.94, 164.74 0.92 M166.26 -0.46 C166.34 7.62, 166.5 15.05, 167.28 35.55 M165.68 -0.49 C165.8 8.74, 165.65 17.66, 165.13 35.73 M166.86 36.12 C103.82 35.67, 42.71 33.42, -0.12 33.02 M165.43 35.22 C124.17 33.73, 83.59 33.95, -0.88 34.83 M0.19 34.64 C-0.86 23.86, 0.24 8.88, -1.67 -1.51 M0.77 34.54 C0.51 21.23, 0.81 7.29, -0.88 -0.86" stroke="#000000" stroke-width="1" fill="none"></path></g><g stroke-linecap="round"><g transform="translate(470.8226403694599 603.4674835205078) rotate(0 -0.0644659963148797 17.137631829157442)"><path d="M1.14 0.79 C0.99 6.19, 0.17 27.4, -0.21 32.62 M0.28 0.16 C-0.11 5.74, -1.41 28.63, -1.27 34.11" stroke="#000000" stroke-width="1" fill="none"></path></g></g><g stroke-linecap="round"><g transform="translate(527.8738488655537 604.9421539306641) rotate(0 -0.5211574760788835 15.891833278313243)"><path d="M-0.13 0.33 C-0.21 5.6, 0.39 26.08, 0.67 31.29 M-1.65 -0.54 C-2 4.87, -0.78 26.82, -0.28 32.33" stroke="#000000" stroke-width="1" fill="none"></path></g></g><g stroke-linecap="round"><g transform="translate(346.81769652180367 621.1327056884766) rotate(0 31.76239069872537 -1.2944489087907414)"><path d="M0.11 -0.18 C10.95 -0.35, 53.92 -0.58, 64.81 -0.89 M-1.29 -1.33 C9.37 -1.81, 52.56 -2.5, 63.57 -2.4" stroke="#000000" stroke-width="1" fill="none"></path></g><g transform="translate(346.81769652180367 621.1327056884766) rotate(0 31.76239069872537 -1.2944489087907414)"><path d="M64.22 -0.61 L50.55 3.11 L51.16 -9.23 L62.79 -0.51" stroke="none" stroke-width="0" fill="#000000" fill-rule="evenodd"></path><path d="M63.34 -3.1 C61.24 -0.46, 55.99 -0.04, 48.88 5.43 M63.27 -2.02 C59.58 0.23, 55.38 0.89, 49.37 4.77 M50.5 4.93 C49.31 0.35, 50.56 -1.77, 49.49 -8.95 M49.83 3.97 C50.46 -0.13, 50.54 -3.62, 50.23 -9.12 M49.19 -9.6 C52.01 -7.44, 57.72 -4.6, 64.47 -1.7 M49.96 -8.64 C55.31 -5.5, 60.22 -4.25, 63.01 -2.22 M63.57 -2.4 C63.57 -2.4, 63.57 -2.4, 63.57 -2.4 M63.57 -2.4 C63.57 -2.4, 63.57 -2.4, 63.57 -2.4" stroke="#000000" stroke-width="1" fill="none"></path></g></g><g stroke-linecap="round"><g transform="translate(220.6542748909443 366.1050567626953) rotate(0 134.9737649818603 120.38093591054906)"><path d="M0.26 -0.43 C45.53 39.67, 226.01 200.91, 271 241.03 M-1.06 -1.7 C44.08 38.55, 224.3 201.99, 269.91 242.46" stroke="#a61e4d" stroke-width="1" fill="none"></path></g><g transform="translate(220.6542748909443 366.1050567626953) rotate(0 134.9737649818603 120.38093591054906)"><path d="M269.14 242.6 L254.24 237.82 L262.97 230.19 L271.02 244.1" stroke="none" stroke-width="0" fill="#a61e4d" fill-rule="evenodd"></path><path d="M269.38 242.11 C266.05 240.1, 261.55 239.87, 255.44 238.92 M270.25 241.91 C266.52 242.05, 264.29 240.12, 255.09 237.35 M256.32 238.68 C258.95 235.59, 259.91 232.79, 264.06 228.88 M255.08 238.24 C258.78 233.96, 261.83 230.6, 264.04 228.54 M264.02 229.75 C265.53 234.28, 269.35 238.2, 268.91 243.79 M264.08 228.21 C265.92 233.45, 267.65 236.61, 270.37 242.24 M269.91 242.46 C269.91 242.46, 269.91 242.46, 269.91 242.46 M269.91 242.46 C269.91 242.46, 269.91 242.46, 269.91 242.46" stroke="#a61e4d" stroke-width="1" fill="none"></path></g></g><g stroke-linecap="round"><g transform="translate(569.0607995491474 365.80787658691406) rotate(0 -34.39322343148291 119.37753833882513)"><path d="M-0.72 0.39 C-12.44 40.24, -57.77 199.34, -69.51 239.21 M1.11 -0.45 C-10.74 39.01, -57.68 197.57, -69.89 237.25" stroke="#a61e4d" stroke-width="1" fill="none"></path></g><g transform="translate(569.0607995491474 365.80787658691406) rotate(0 -34.39322343148291 119.37753833882513)"><path d="M-71.32 236.54 L-73.58 223.83 L-60.52 226.62 L-69.22 236.2" stroke="none" stroke-width="0" fill="#a61e4d" fill-rule="evenodd"></path><path d="M-69.41 238.6 C-70.29 231.12, -70.57 225.94, -72.63 223.83 M-69.15 236.79 C-70.6 233.39, -70.21 230.09, -72.56 222.94 M-71.88 221.47 C-69.11 223.96, -66.82 224.63, -60.39 226.15 M-71.56 222.76 C-68.69 223.27, -66.67 224.76, -60.48 225.59 M-61.18 226.7 C-62.94 229.14, -67.52 232.61, -70.35 236.16 M-60.07 226.31 C-63.06 230.38, -66.72 232.65, -70.12 236.8 M-69.89 237.25 C-69.89 237.25, -69.89 237.25, -69.89 237.25 M-69.89 237.25 C-69.89 237.25, -69.89 237.25, -69.89 237.25" stroke="#a61e4d" stroke-width="1" fill="none"></path></g></g><g stroke-linecap="round"><g transform="translate(315.21198363117867 326.4938507080078) rotate(0 -12.649486737912525 106.25911735109057)"><path d="M0.92 0.85 C-3.13 36.37, -20.99 176.94, -25.29 212.27 M-0.05 0.25 C-4.18 35.46, -22 175.18, -26.22 210.29" stroke="#5c940d" stroke-width="1" fill="none"></path></g><g transform="translate(315.21198363117867 326.4938507080078) rotate(0 -12.649486737912525 106.25911735109057)"><path d="M-27.83 211.53 L-31.78 196.38 L-17.49 199.12 L-24.75 212.27" stroke="none" stroke-width="0" fill="#5c940d" fill-rule="evenodd"></path><path d="M-25.16 210.31 C-26.81 207.73, -27.15 203.53, -29.73 195.18 M-26.66 209.96 C-27.11 205.25, -29.28 200.7, -30.31 195.78 M-30.31 195.2 C-26.74 195.59, -22.44 196.84, -18.07 197.11 M-30.33 196.05 C-26.88 196.63, -23.58 196.55, -18.23 197.54 M-17.04 197.19 C-20.33 200.12, -21.27 204.59, -27.44 209.08 M-17.98 197.11 C-20.14 199.89, -21.25 203.22, -25.99 210.36 M-26.22 210.29 C-26.22 210.29, -26.22 210.29, -26.22 210.29 M-26.22 210.29 C-26.22 210.29, -26.22 210.29, -26.22 210.29" stroke="#5c940d" stroke-width="1" fill="none"></path></g></g><g stroke-linecap="round"><g transform="translate(646.5916833382099 326.89247131347656) rotate(0 -168.88285534640772 103.76007504827345)"><path d="M-1.16 -1.08 C-57.24 33.64, -281.37 172.71, -337.49 207.45 M0.44 0.96 C-55.68 35.9, -281.7 174.05, -338.2 208.6" stroke="#5c940d" stroke-width="1" fill="none"></path></g><g transform="translate(646.5916833382099 326.89247131347656) rotate(0 -168.88285534640772 103.76007504827345)"><path d="M-337.74 210.53 L-328.77 195.54 L-321.84 206.54 L-339.68 208.78" stroke="none" stroke-width="0" fill="#5c940d" fill-rule="evenodd"></path><path d="M-339.56 209.15 C-337.22 206.02, -335.46 204.67, -330.01 196.56 M-337.66 209.31 C-335.72 204.17, -333.45 200.73, -330.49 195.86 M-330.07 197 C-328.82 199.15, -325.96 200.89, -324.35 208.05 M-330.21 196.22 C-327.29 200.59, -324.59 204.77, -323.08 207.5 M-323.68 206.55 C-326.23 206.23, -328.82 207.96, -337.82 209.84 M-322.84 206.3 C-326.48 207.16, -330.01 207.99, -337.84 208.31 M-338.2 208.6 C-338.2 208.6, -338.2 208.6, -338.2 208.6 M-338.2 208.6 C-338.2 208.6, -338.2 208.6, -338.2 208.6" stroke="#5c940d" stroke-width="1" fill="none"></path></g></g><g transform="translate(509.58808226399117 61.29658508300781) rotate(0 11.5 12.5)"><text x="0" y="18" font-family="Virgil, Segoe UI Emoji" font-size="20px" fill="#c92a2a" text-anchor="start" style="white-space: pre;" direction="ltr">vs</text></g><g transform="translate(600.4557580452412 33.79658508300781) rotate(0 99.5 40)"><text x="0" y="14" font-family="Virgil, Segoe UI Emoji" font-size="16px" fill="#000000" text-anchor="start" style="white-space: pre;" direction="ltr">q2:</text><text x="0" y="34" font-family="Virgil, Segoe UI Emoji" font-size="16px" fill="#000000" text-anchor="start" style="white-space: pre;" direction="ltr">select a as f1, a as f2 </text><text x="0" y="54" font-family="Virgil, Segoe UI Emoji" font-size="16px" fill="#000000" text-anchor="start" style="white-space: pre;" direction="ltr">from t1</text><text x="0" y="74" font-family="Virgil, Segoe UI Emoji" font-size="16px" fill="#000000" text-anchor="start" style="white-space: pre;" direction="ltr">order by f2;</text></g><g transform="translate(847.9027184944599 61.29658508300781) rotate(0 11.5 12.5)"><text x="0" y="18" font-family="Virgil, Segoe UI Emoji" font-size="20px" fill="#c92a2a" text-anchor="start" style="white-space: pre;" direction="ltr">vs</text></g><g transform="translate(925.1814050178974 33.79658508300781) rotate(0 99.5 40)"><text x="0" y="14" font-family="Virgil, Segoe UI Emoji" font-size="16px" fill="#000000" text-anchor="start" style="white-space: pre;" direction="ltr">q3:</text><text x="0" y="34" font-family="Virgil, Segoe UI Emoji" font-size="16px" fill="#000000" text-anchor="start" style="white-space: pre;" direction="ltr">select a as f1, a as f2 </text><text x="0" y="54" font-family="Virgil, Segoe UI Emoji" font-size="16px" fill="#000000" text-anchor="start" style="white-space: pre;" direction="ltr">from t1</text><text x="0" y="74" font-family="Virgil, Segoe UI Emoji" font-size="16px" fill="#000000" text-anchor="start" style="white-space: pre;" direction="ltr">order by b;</text></g><g stroke-linecap="round"><g transform="translate(313.81166626696006 117.88775512298571) rotate(0 -72.23758084026548 34.075104256533066)"><path d="M0.04 -0.14 C-23.81 11.56, -119.56 57.95, -143.33 69.41 M-1.4 -1.26 C-25.43 10.18, -120.88 55.87, -144.52 67.74" stroke="#c92a2a" stroke-width="1" fill="none"></path></g><g transform="translate(313.81166626696006 117.88775512298571) rotate(0 -72.23758084026548 34.075104256533066)"><path d="M-142.6 67.18 L-134.22 55.54 L-130.2 68.52 L-143.14 66.11" stroke="none" stroke-width="0" fill="#c92a2a" fill-rule="evenodd"></path><path d="M-144.69 67.18 C-140.68 64.78, -138.99 60.42, -133.86 55.36 M-144.45 67.62 C-140.33 62.77, -137.17 59.85, -135.31 56.06 M-133.86 56.77 C-133.16 59.17, -131.61 64.31, -128.52 66.75 M-134.88 56.62 C-134.36 58.45, -132.21 61.77, -129.8 66.87 M-129.31 67.95 C-135.02 68.39, -141.72 66.73, -144.92 66.75 M-128.81 67.32 C-135.36 66.71, -141.07 68.12, -144.18 67.58 M-144.52 67.74 C-144.52 67.74, -144.52 67.74, -144.52 67.74 M-144.52 67.74 C-144.52 67.74, -144.52 67.74, -144.52 67.74" stroke="#c92a2a" stroke-width="1" fill="none"></path></g></g><g stroke-linecap="round"><g transform="translate(673.3151465338404 115.70296991281214) rotate(0 -64.4619841903434 36.133954831026486)"><path d="M-0.98 -0.73 C-22.35 11.54, -107.33 61.04, -128.89 73 M0.71 1.5 C-20.72 13.5, -108.18 59.69, -129.63 71.41" stroke="#c92a2a" stroke-width="1" fill="none"></path></g><g transform="translate(673.3151465338404 115.70296991281214) rotate(0 -64.4619841903434 36.133954831026486)"><path d="M-129.45 70.27 L-120.42 60.7 L-115.23 68.74 L-130.53 73.32" stroke="none" stroke-width="0" fill="#c92a2a" fill-rule="evenodd"></path><path d="M-130.55 71.91 C-126.11 67.22, -126.39 66.1, -120.69 58.74 M-129.94 71.52 C-127.62 68.9, -125.57 65.78, -121.09 59.2 M-121.67 60.61 C-119.41 61.87, -119.01 64.53, -113.7 71.14 M-120.12 60.02 C-118.7 62.28, -117.24 65.6, -115.22 70.62 M-115.44 71.65 C-119.99 69.49, -127.05 72.05, -128.22 71.9 M-114.33 70.37 C-120.14 71.22, -124.61 70.5, -129.63 70.72 M-129.63 71.41 C-129.63 71.41, -129.63 71.41, -129.63 71.41 M-129.63 71.41 C-129.63 71.41, -129.63 71.41, -129.63 71.41" stroke="#c92a2a" stroke-width="1" fill="none"></path></g></g><g transform="translate(803.9019860725849 199.0086212158203) rotate(0 4.5 10)"><text x="0" y="14" font-family="Virgil, Segoe UI Emoji" font-size="16px" fill="#000000" text-anchor="start" style="white-space: pre;" direction="ltr">b</text></g><g transform="translate(794.9118737678974 288.1955108642578) rotate(0 135 71.5)"><text x="0" y="14.428571428571427" font-family="Virgil, Segoe UI Emoji" font-size="16px" fill="#000000" text-anchor="start" style="white-space: pre;" direction="ltr">Item_field {</text><text x="0" y="34.857142857142854" font-family="Virgil, Segoe UI Emoji" font-size="16px" fill="#000000" text-anchor="start" style="white-space: pre;" direction="ltr">    TABLE_LIST *table_ref;</text><text x="0" y="55.28571428571428" font-family="Virgil, Segoe UI Emoji" font-size="16px" fill="#000000" text-anchor="start" style="white-space: pre;" direction="ltr">    /// Source field t1.a</text><text x="0" y="75.71428571428571" font-family="Virgil, Segoe UI Emoji" font-size="16px" fill="#000000" text-anchor="start" style="white-space: pre;" direction="ltr">    Field *field;</text><text x="0" y="96.14285714285714" font-family="Virgil, Segoe UI Emoji" font-size="16px" fill="#000000" text-anchor="start" style="white-space: pre;" direction="ltr">    // 别名 b</text><text x="0" y="116.57142857142856" font-family="Virgil, Segoe UI Emoji" font-size="16px" fill="#000000" text-anchor="start" style="white-space: pre;" direction="ltr">    Item_name_string item_name;</text><text x="0" y="137" font-family="Virgil, Segoe UI Emoji" font-size="16px" fill="#000000" text-anchor="start" style="white-space: pre;" direction="ltr">}</text></g><g stroke-linecap="round"><g transform="translate(807.1706024687702 229.35792255565525) rotate(0 -0.9153659236344538 21.72111732609568)"><path d="M-0.9 0.67 C-1.18 7.79, -2.67 35.38, -2.67 42.29 M0.83 -0.02 C0.99 7.27, -0.18 36.3, -0.53 43.46" stroke="#000000" stroke-width="1" fill="none"></path></g><g transform="translate(807.1706024687702 229.35792255565525) rotate(0 -0.9153659236344538 21.72111732609568)"><path d="M-0.12 42.75 L-6.63 29.6 L6.23 31.89 L-2 43.55" stroke="none" stroke-width="0" fill="#000000" fill-rule="evenodd"></path><path d="M0.31 42.1 C-2.59 41.29, -4.09 37.81, -7.2 29.05 M-0.55 43.29 C-2.46 38.96, -4.44 32.98, -5.58 29.54 M-6.37 28.95 C-1.34 28.72, 2.29 29.58, 7.13 31.19 M-6.89 29.63 C-3.19 30.27, 0.65 29.92, 6.24 30.63 M5.09 30.08 C6.34 31.56, 4.04 35.22, -1.75 44.19 M6.65 30.68 C4.19 35.15, 2.44 39.3, -1.2 43.66 M-0.53 43.46 C-0.53 43.46, -0.53 43.46, -0.53 43.46 M-0.53 43.46 C-0.53 43.46, -0.53 43.46, -0.53 43.46" stroke="#000000" stroke-width="1" fill="none"></path></g></g><g stroke-linecap="round"><g transform="translate(509.4851948029931 229.46131896972656) rotate(0 -0.310757029049455 22.57640268616379)"><path d="M0.9 -1.17 C0.75 6.6, -0.41 38.49, -1.08 46.32 M-0.09 0.83 C-0.29 8.25, -1.41 36.73, -1.52 44.44" stroke="#000000" stroke-width="1" fill="none"></path></g><g transform="translate(509.4851948029931 229.46131896972656) rotate(0 -0.310757029049455 22.57640268616379)"><path d="M-0.92 44.74 L-9.04 29.5 L3.38 29.75 L-2.81 42.68" stroke="none" stroke-width="0" fill="#000000" fill-rule="evenodd"></path><path d="M-2.98 45.65 C-2.61 39.28, -4.94 37.92, -8.79 31.02 M-1.25 44.28 C-3.44 40.92, -4.18 36.99, -6.92 31.41 M-7.42 29.45 C-3.95 31.73, 0.37 31.73, 5.47 30.15 M-7.29 30.88 C-4.23 30.65, -1.87 31.29, 4.84 31.38 M5.5 30.49 C2.73 35.28, 0.76 40.81, -2.62 44.51 M4.71 30.52 C3.12 36.85, 0.33 40.93, -0.84 44.77 M-1.52 44.44 C-1.52 44.44, -1.52 44.44, -1.52 44.44 M-1.52 44.44 C-1.52 44.44, -1.52 44.44, -1.52 44.44" stroke="#000000" stroke-width="1" fill="none"></path></g></g><g stroke-linecap="round"><g transform="translate(147.99073380448442 228.2620391845703) rotate(0 -3.7447890189729662 22.335189650580276)"><path d="M-0.21 -1.14 C-1.16 6.68, -5.6 38.12, -6.52 45.81 M-1.78 0.88 C-2.78 8.42, -6.6 36.35, -7.28 43.89" stroke="#000000" stroke-width="1" fill="none"></path></g><g transform="translate(147.99073380448442 228.2620391845703) rotate(0 -3.7447890189729662 22.335189650580276)"><path d="M-6.95 43.65 L-12.48 30.92 L2.47 32.03 L-6.81 42.13" stroke="none" stroke-width="0" fill="#000000" fill-rule="evenodd"></path><path d="M-8.7 44.34 C-7.75 42.06, -9.85 38.13, -11.18 28.82 M-6.95 44.04 C-9.25 38.67, -10.66 33.68, -11.36 29.1 M-11.38 28.83 C-9.02 31.04, -3.44 31.23, -0.54 32.27 M-12.12 30.08 C-7.43 30.45, -3.89 30.6, 0.99 31.22 M1.03 30.35 C-0.49 33.44, -5.2 39.45, -8.19 45.32 M0 30.68 C-1.74 33.38, -3.22 35.93, -7.45 44.43 M-7.28 43.89 C-7.28 43.89, -7.28 43.89, -7.28 43.89 M-7.28 43.89 C-7.28 43.89, -7.28 43.89, -7.28 43.89" stroke="#000000" stroke-width="1" fill="none"></path></g></g><g stroke-linecap="round"><g transform="translate(983.3038020803414 115.80314636230466) rotate(0 -83.53973344807775 40.75231991653554)"><path d="M0.84 0.65 C-27.01 14.09, -140.06 68.43, -167.92 81.56 M-0.18 -0.05 C-27.6 13, -137.99 66.64, -165.77 80.01" stroke="#c92a2a" stroke-width="1" fill="none"></path></g><g transform="translate(983.3038020803414 115.80314636230466) rotate(0 -83.53973344807775 40.75231991653554)"><path d="M-166.17 78.57 L-154.95 69.9 L-150.27 81.32 L-164.65 80.23" stroke="none" stroke-width="0" fill="#c92a2a" fill-rule="evenodd"></path><path d="M-164.95 78.67 C-162.29 77.9, -162.78 73.31, -156.55 69.38 M-165.96 80.49 C-162.45 76.07, -159.04 72.07, -156.07 68 M-155.55 67.61 C-153.1 71.65, -151.84 77.25, -151.76 79.05 M-156.85 68.24 C-154.76 70.63, -153.88 73.52, -150.58 80.16 M-149.33 78.97 C-157 80.45, -162.38 81.31, -165.53 80.15 M-150.59 79.91 C-153.33 79.81, -156.91 79.55, -165.29 80.71 M-165.77 80.01 C-165.77 80.01, -165.77 80.01, -165.77 80.01 M-165.77 80.01 C-165.77 80.01, -165.77 80.01, -165.77 80.01" stroke="#c92a2a" stroke-width="1" fill="none"></path></g></g><g stroke-linecap="round"><g transform="translate(954.9551782112568 321.2255401611328) rotate(0 -292.55313792235216 114.48381882866843)"><path d="M0.18 0.75 C-97.03 38.6, -486.93 189.49, -584.44 227.42 M-1.18 0.09 C-98.43 38.11, -487.85 191.16, -585.29 228.88" stroke="#5c940d" stroke-width="1" fill="none"></path></g><g transform="translate(954.9551782112568 321.2255401611328) rotate(0 -292.55313792235216 114.48381882866843)"><path d="M-586.04 227.32 L-574.94 219.92 L-569.57 231.71 L-586.25 227.02" stroke="none" stroke-width="0" fill="#5c940d" fill-rule="evenodd"></path><path d="M-584.36 229.12 C-583.41 226.32, -580.2 225.91, -574.24 218.38 M-584.68 228.3 C-583.38 226.55, -580.35 224.18, -575.17 218.72 M-574.53 217.3 C-575.1 221.97, -571.87 225.22, -570.57 228.93 M-574.45 218.38 C-573.08 222.26, -571.83 227.23, -570.12 229.83 M-568.96 229.59 C-573.18 228.84, -577.53 228.94, -584.31 228.04 M-570.49 229.38 C-575.38 229.11, -581.06 229.97, -584.9 228.56 M-585.29 228.88 C-585.29 228.88, -585.29 228.88, -585.29 228.88 M-585.29 228.88 C-585.29 228.88, -585.29 228.88, -585.29 228.88" stroke="#5c940d" stroke-width="1" fill="none"></path></g></g><g stroke-linecap="round"><g transform="translate(886.7521105192601 367.2062474498898) rotate(0 -157.0072632120922 121.2299671237543)"><path d="M0.43 -0.2 C-51.95 40.12, -261 201.97, -313.45 242.42 M-0.8 -1.34 C-53.42 39.1, -262.61 202.97, -314.45 243.8" stroke="#a61e4d" stroke-width="1" fill="none"></path></g><g transform="translate(886.7521105192601 367.2062474498898) rotate(0 -157.0072632120922 121.2299671237543)"><path d="M-315.53 242.84 L-307.45 231.72 L-300 241.88 L-314.88 243.91" stroke="none" stroke-width="0" fill="#a61e4d" fill-rule="evenodd"></path><path d="M-314.69 243.68 C-312.36 237.69, -309.8 235.35, -308.76 230.1 M-314.87 244.2 C-312.43 240.92, -310.71 236.83, -308.15 230.69 M-307.33 231.31 C-305.3 231.55, -304.23 234.7, -300.2 240.29 M-307.04 230.73 C-305.9 233.5, -303.16 236.8, -300.2 240.58 M-299.13 241.62 C-303.75 240.83, -307.75 242.09, -315.86 243.97 M-299.59 240.63 C-305.41 242.14, -310.45 242.19, -315.16 243.58 M-314.45 243.8 C-314.45 243.8, -314.45 243.8, -314.45 243.8 M-314.45 243.8 C-314.45 243.8, -314.45 243.8, -314.45 243.8" stroke="#a61e4d" stroke-width="1" fill="none"></path></g></g><g transform="translate(112.91333861164742 1327.3238372802734) rotate(0 38.5 10)"><text x="0" y="14" font-family="Virgil, Segoe UI Emoji" font-size="16px" fill="#000000" text-anchor="start" style="white-space: pre;" direction="ltr">tablescan</text></g><g stroke-linecap="round" transform="translate(97.16675658039742 1318.914047241211) rotate(0 51.20147705078125 18.5723876953125)"><path d="M41.26 0.98 C50.43 -0.14, 64.24 -0.19, 73.41 1.14 C82.58 2.48, 91.49 5.57, 96.28 9 C101.06 12.42, 103.35 18.02, 102.1 21.71 C100.85 25.4, 95.64 28.64, 88.76 31.14 C81.88 33.64, 70.82 36.02, 60.8 36.71 C50.79 37.4, 37.66 36.87, 28.67 35.27 C19.68 33.67, 11.55 30.31, 6.88 27.11 C2.21 23.91, -0.67 19.65, 0.64 16.07 C1.95 12.5, 7.04 8.43, 14.73 5.64 C22.41 2.86, 40.64 0.24, 46.76 -0.65 C52.88 -1.54, 51.31 -0.09, 51.46 0.29 M34.66 2.42 C43.09 0.84, 54.69 -0.78, 64.01 -0.14 C73.32 0.5, 84.28 3.35, 90.54 6.26 C96.81 9.18, 100.9 13.54, 101.61 17.37 C102.31 21.2, 100.15 26.2, 94.79 29.26 C89.42 32.32, 78.92 34.56, 69.4 35.74 C59.87 36.92, 47.4 37.27, 37.64 36.33 C27.88 35.38, 16.9 32.97, 10.84 30.06 C4.79 27.16, 1.71 22.48, 1.3 18.91 C0.89 15.34, 2.7 11.53, 8.37 8.64 C14.04 5.76, 31 2.94, 35.3 1.59 C39.61 0.25, 34.35 0.3, 34.2 0.59" stroke="#000000" stroke-width="1" fill="none"></path></g><g transform="translate(131.06739134602242 1213.6127166748047) rotate(0 15 10)"><text x="0" y="14" font-family="Virgil, Segoe UI Emoji" font-size="16px" fill="#000000" text-anchor="start" style="white-space: pre;" direction="ltr">proj</text></g><g stroke-linecap="round" transform="translate(125.57935423664742 1208.0706634521484) rotate(0 20.45770263671875 17.371856689453125)"><path d="M28.74 0.78 C32.78 1.76, 36.86 5.36, 38.82 8.92 C40.78 12.48, 41.45 18.46, 40.49 22.16 C39.53 25.86, 36.56 29.05, 33.07 31.12 C29.57 33.19, 24.04 34.78, 19.52 34.58 C15 34.37, 9.05 32.48, 5.94 29.88 C2.83 27.29, 1.24 22.69, 0.85 18.99 C0.47 15.3, 1.21 10.77, 3.62 7.7 C6.03 4.63, 10.64 1.52, 15.3 0.58 C19.96 -0.35, 28.48 1.41, 31.55 2.11 C34.63 2.8, 33.85 4.43, 33.75 4.75 M14.35 2.35 C17.88 0.77, 22.27 -0.72, 26.06 0.19 C29.86 1.1, 34.82 4.54, 37.11 7.81 C39.4 11.09, 40.21 15.97, 39.83 19.83 C39.44 23.69, 37.88 28.53, 34.78 30.97 C31.68 33.4, 25.69 34.51, 21.22 34.44 C16.75 34.37, 11.43 32.9, 7.95 30.57 C4.48 28.23, 1.03 24.13, 0.38 20.44 C-0.27 16.74, 1.93 11.54, 4.05 8.39 C6.16 5.24, 11.2 2.62, 13.05 1.53 C14.9 0.44, 14.93 1.8, 15.13 1.85" stroke="#000000" stroke-width="1" fill="none"></path></g><g transform="translate(136.16828245930367 1367.2585906982422) rotate(0 7.5 10)"><text x="0" y="14" font-family="Virgil, Segoe UI Emoji" font-size="16px" fill="#000000" text-anchor="start" style="white-space: pre;" direction="ltr">t1</text></g><g transform="translate(126.48780150227242 1114.8685760498047) rotate(0 17.5 10)"><text x="0" y="14" font-family="Virgil, Segoe UI Emoji" font-size="16px" fill="#000000" text-anchor="start" style="white-space: pre;" direction="ltr">sort</text></g><g stroke-linecap="round" transform="translate(116.86353392414742 1109.2859344482422) rotate(0 25.2314453125 15.585906982421875)"><path d="M16.91 1.58 C21.72 0.41, 29.41 -0.3, 34.52 0.73 C39.62 1.76, 45.02 4.82, 47.54 7.75 C50.07 10.69, 50.58 15.09, 49.66 18.34 C48.75 21.6, 46.12 25.17, 42.05 27.3 C37.98 29.44, 30.68 31.13, 25.25 31.14 C19.82 31.14, 13.63 29.62, 9.47 27.34 C5.31 25.06, 1.32 20.76, 0.27 17.47 C-0.78 14.19, -0.37 10.54, 3.19 7.62 C6.76 4.7, 17.99 1.12, 21.65 -0.06 C25.32 -1.24, 25.17 0.14, 25.19 0.54 M34.89 0.57 C39.79 1.79, 44.72 5.22, 47.37 8.45 C50.02 11.68, 51.95 16.66, 50.79 19.94 C49.64 23.21, 44.97 26.24, 40.44 28.09 C35.91 29.93, 29.13 31.26, 23.62 31.02 C18.11 30.79, 11.1 29.06, 7.39 26.66 C3.68 24.26, 1.9 19.89, 1.36 16.63 C0.82 13.36, 1 9.7, 4.16 7.1 C7.31 4.49, 14.97 2.08, 20.28 1.01 C25.59 -0.07, 33.63 0.42, 36.01 0.63 C38.4 0.84, 34.92 1.88, 34.6 2.28" stroke="#000000" stroke-width="1" fill="none"></path></g><g transform="translate(216.54450316242867 1325.801040649414) rotate(0 35 10)"><text x="0" y="14" font-family="Virgil, Segoe UI Emoji" font-size="16px" fill="#000000" text-anchor="start" style="white-space: pre;" direction="ltr">[]used{}</text></g><g transform="translate(188.54450316242867 1215.2299346923828) rotate(0 43.5 10)"><text x="0" y="14" font-family="Virgil, Segoe UI Emoji" font-size="16px" fill="#000000" text-anchor="start" style="white-space: pre;" direction="ltr">[]used{#1}</text></g><g transform="translate(191.97315306477242 1100.3457794189453) rotate(0 46 10)"><text x="0" y="14" font-family="Virgil, Segoe UI Emoji" font-size="16px" fill="#c92a2a" text-anchor="start" style="white-space: pre;" direction="ltr">[]used{#5}</text></g><g transform="translate(144.48645872883492 919.5081634521484) rotate(0 38.5 10)"><text x="0" y="14" font-family="Virgil, Segoe UI Emoji" font-size="16px" fill="#000000" text-anchor="start" style="white-space: pre;" direction="ltr">tablescan</text></g><g stroke-linecap="round" transform="translate(128.73987669758492 911.0983734130859) rotate(0 51.20147705078125 18.5723876953125)"><path d="M33.14 0.57 C41.84 -0.87, 54.69 -0.44, 64.36 0.7 C74.02 1.84, 84.79 4.52, 91.12 7.42 C97.44 10.32, 101.97 14.68, 102.31 18.09 C102.64 21.5, 98.68 24.78, 93.13 27.88 C87.58 30.98, 78.27 35.17, 68.99 36.68 C59.7 38.19, 47.13 38.04, 37.42 36.93 C27.72 35.82, 16.88 33.07, 10.75 30 C4.62 26.93, 1.01 22.06, 0.64 18.51 C0.26 14.95, 2.52 11.65, 8.5 8.68 C14.48 5.71, 31.35 2.05, 36.51 0.67 C41.67 -0.71, 39.03 -0.1, 39.48 0.38 M37.12 2.33 C45.81 1.12, 58.25 -0.15, 67.44 0.79 C76.63 1.73, 86.62 4.98, 92.29 7.96 C97.95 10.95, 101.58 14.95, 101.45 18.7 C101.31 22.45, 97.39 27.29, 91.49 30.46 C85.58 33.63, 75.49 36.65, 66.04 37.71 C56.59 38.77, 44.37 38.29, 34.8 36.83 C25.24 35.37, 14.71 32.21, 8.66 28.95 C2.62 25.68, -1.78 20.76, -1.47 17.22 C-1.15 13.67, 4.29 10.22, 10.55 7.69 C16.82 5.15, 31.88 3.13, 36.1 2.01 C40.32 0.89, 35.87 0.74, 35.87 0.95" stroke="#000000" stroke-width="1" fill="none"></path></g><g transform="translate(166.43915648274117 967.2256317138672) rotate(0 7.5 10)"><text x="0" y="14" font-family="Virgil, Segoe UI Emoji" font-size="16px" fill="#000000" text-anchor="start" style="white-space: pre;" direction="ltr">t1</text></g><g transform="translate(243.89685911945992 910.8376922607422) rotate(0 35 10)"><text x="0" y="14" font-family="Virgil, Segoe UI Emoji" font-size="16px" fill="#c92a2a" text-anchor="start" style="white-space: pre;" direction="ltr">[]used{}</text></g><g transform="translate(552.4980248909443 933.4784088134766) rotate(0 38.5 10)"><text x="0" y="14" font-family="Virgil, Segoe UI Emoji" font-size="16px" fill="#000000" text-anchor="start" style="white-space: pre;" direction="ltr">tablescan</text></g><g stroke-linecap="round" transform="translate(536.7514428596943 925.0686187744141) rotate(0 51.20147705078125 18.5723876953125)"><path d="M60.82 1.1 C70.16 1.39, 80.5 3.66, 87.5 5.97 C94.5 8.28, 101.49 11.55, 102.83 14.96 C104.16 18.37, 100.19 22.92, 95.51 26.44 C90.82 29.95, 83.7 34.35, 74.7 36.04 C65.7 37.73, 51.47 37.18, 41.5 36.58 C31.54 35.97, 21.91 34.86, 14.92 32.42 C7.93 29.98, 0.91 25.68, -0.42 21.93 C-1.75 18.18, 1.94 13.18, 6.92 9.92 C11.9 6.66, 19.75 3.97, 29.45 2.36 C39.15 0.76, 58.77 0.53, 65.13 0.29 C71.49 0.06, 67.91 0.74, 67.6 0.97 M62.93 1.79 C72.37 2.29, 84.4 3.92, 90.89 6.42 C97.38 8.92, 101.35 12.96, 101.87 16.78 C102.4 20.61, 99.42 26.35, 94.04 29.36 C88.67 32.38, 79.12 33.64, 69.62 34.89 C60.13 36.14, 46.63 37.83, 37.09 36.86 C27.56 35.89, 18.64 32.11, 12.43 29.07 C6.21 26.03, 0.62 22.22, -0.18 18.6 C-0.98 14.98, 2.26 10.22, 7.63 7.35 C12.99 4.49, 22.8 2.5, 32.01 1.41 C41.23 0.32, 57.58 0.95, 62.92 0.84 C68.25 0.72, 64.12 0.44, 64.03 0.72" stroke="#000000" stroke-width="1" fill="none"></path></g><g transform="translate(583.2437524300068 970.9088897705078) rotate(0 7.5 10)"><text x="0" y="14" font-family="Virgil, Segoe UI Emoji" font-size="16px" fill="#000000" text-anchor="start" style="white-space: pre;" direction="ltr">t1</text></g><g transform="translate(649.271889637038 933.7842254638672) rotate(0 35 10)"><text x="0" y="14" font-family="Virgil, Segoe UI Emoji" font-size="16px" fill="#000000" text-anchor="start" style="white-space: pre;" direction="ltr">[]used{}</text></g><g transform="translate(567.1973046761005 834.6034851074219) rotate(0 15 10)"><text x="0" y="14" font-family="Virgil, Segoe UI Emoji" font-size="16px" fill="#000000" text-anchor="start" style="white-space: pre;" direction="ltr">proj</text></g><g stroke-linecap="round" transform="translate(561.7092675667255 829.0614318847656) rotate(0 20.45770263671875 17.371856689453125)"><path d="M19.56 0.13 C23.81 -0.36, 30 0.84, 33.59 3 C37.17 5.16, 40.22 9.22, 41.05 13.09 C41.88 16.96, 40.76 22.95, 38.56 26.23 C36.37 29.51, 32.03 31.58, 27.86 32.8 C23.69 34.01, 17.85 34.74, 13.56 33.53 C9.27 32.33, 4.22 28.87, 2.11 25.57 C0 22.28, 0.07 17.47, 0.91 13.76 C1.74 10.06, 3.63 5.51, 7.12 3.32 C10.62 1.14, 19.07 1.23, 21.89 0.65 C24.7 0.08, 24.03 -0.19, 23.99 -0.12 M27.99 1.33 C32.03 2.42, 35.61 6.49, 37.78 9.92 C39.96 13.36, 41.93 18.2, 41.03 21.93 C40.13 25.67, 35.92 30.15, 32.38 32.34 C28.83 34.53, 23.79 35.2, 19.77 35.08 C15.75 34.96, 11.71 34.37, 8.24 31.62 C4.76 28.87, 0.02 22.51, -1.08 18.6 C-2.19 14.7, -0.95 11.18, 1.62 8.19 C4.19 5.19, 10.06 1.98, 14.31 0.61 C18.57 -0.75, 24.83 -0.06, 27.15 -0.03 C29.46 0.01, 27.94 0.41, 28.2 0.84" stroke="#000000" stroke-width="1" fill="none"></path></g><g transform="translate(631.0745629768818 835.9921875) rotate(0 43.5 10)"><text x="0" y="14" font-family="Virgil, Segoe UI Emoji" font-size="16px" fill="#c92a2a" text-anchor="start" style="white-space: pre;" direction="ltr">[]used{#1}</text></g><g transform="translate(619.8909387093037 862.3798675537109) rotate(0 46.5 10)"><text x="0" y="14" font-family="Virgil, Segoe UI Emoji" font-size="16px" fill="#c92a2a" text-anchor="start" style="white-space: pre;" direction="ltr">{astCol: a}</text></g><g transform="translate(754.5770349007099 861.7800750732422) rotate(0 83 10)"><text x="0" y="14" font-family="Virgil, Segoe UI Emoji" font-size="16px" fill="#c92a2a" text-anchor="start" style="white-space: pre;" direction="ltr">{evalCol: (#1 f1)} #4</text></g><g stroke-linecap="round"><g transform="translate(726.1312341194599 871.4346600685417) rotate(0 9.983891494050681 0.30820596376509)"><path d="M0.3 -1.08 C3.77 -0.89, 17.76 0.03, 20.97 0.57 M-1 0.97 C2.39 1.35, 17.33 1.8, 20.59 1.67" stroke="#c92a2a" stroke-width="1" fill="none"></path></g><g transform="translate(726.1312341194599 871.4346600685417) rotate(0 9.983891494050681 0.30820596376509)"><path d="M21.73 2.34 L12.65 6.18 L11.23 -4.42 L20.57 0.12" stroke="none" stroke-width="0" fill="#c92a2a" fill-rule="evenodd"></path><path d="M19.69 2.57 C17.04 2.7, 15.51 4.08, 12.03 6.81 M20.75 1.64 C18.62 2.44, 16.19 4.09, 11.13 5.58 M11.2 6.39 C10.9 2.91, 11.18 0.97, 11.14 -2.33 M11.41 5.79 C11.65 3.49, 11.44 0.48, 11.44 -2.17 M12.36 -2.34 C14.43 -1.52, 17.91 -0.27, 20 1.87 M11.79 -2.54 C14.05 -1.84, 15.45 -0.4, 20.87 1.68 M20.59 1.67 C20.59 1.67, 20.59 1.67, 20.59 1.67 M20.59 1.67 C20.59 1.67, 20.59 1.67, 20.59 1.67" stroke="#c92a2a" stroke-width="1" fill="none"></path></g></g><g transform="translate(621.3470239143818 889.9940338134766) rotate(0 46.5 10)"><text x="0" y="14" font-family="Virgil, Segoe UI Emoji" font-size="16px" fill="#c92a2a" text-anchor="start" style="white-space: pre;" direction="ltr">{astCol: a}</text></g><g transform="translate(755.804604480788 889.6228179931641) rotate(0 86.5 10)"><text x="0" y="14" font-family="Virgil, Segoe UI Emoji" font-size="16px" fill="#c92a2a" text-anchor="start" style="white-space: pre;" direction="ltr">{evalCol: (#1 f2)} #5</text></g><g stroke-linecap="round"><g transform="translate(727.587319324538 898.6822424407649) rotate(0 10.250191182419712 0.6570276965940138)"><path d="M0.34 0.84 C3.4 1.07, 15.87 1.45, 19.05 1.66 M-0.95 0.24 C2.46 0.05, 18.2 -0.33, 21.45 -0.35" stroke="#c92a2a" stroke-width="1" fill="none"></path></g><g transform="translate(727.587319324538 898.6822424407649) rotate(0 10.250191182419712 0.6570276965940138)"><path d="M21.39 -0.02 L12.72 3.7 L13.55 -6.2 L20.84 1.07" stroke="none" stroke-width="0" fill="#c92a2a" fill-rule="evenodd"></path><path d="M22.14 -0.84 C18.5 1.04, 15.72 2.61, 13.27 3.44 M21.91 -0.54 C19.28 0.7, 16.79 1.63, 12.99 4.44 M12.46 3.85 C12.45 2.55, 12.16 -0.78, 12.12 -3.82 M12.6 4.19 C12.5 0.52, 12.09 -2.21, 12.63 -4.12 M12.07 -5.01 C14.72 -2.66, 19.67 -1.03, 20.76 -0.6 M12.5 -4.11 C15.83 -3.03, 19.15 -1.64, 21.92 -0.61 M21.45 -0.35 C21.45 -0.35, 21.45 -0.35, 21.45 -0.35 M21.45 -0.35 C21.45 -0.35, 21.45 -0.35, 21.45 -0.35" stroke="#c92a2a" stroke-width="1" fill="none"></path></g></g><g stroke-linecap="round"><g transform="translate(360.0823131540362 953.7439117431641) rotate(0 86.5533690237653 -37.869715561717726)"><path d="M0.62 -0.54 C29.3 -13.07, 144.02 -62.67, 172.48 -75.19" stroke="#c92a2a" stroke-width="1.5" fill="none" stroke-dasharray="1.5 7"></path></g><g transform="translate(360.0823131540362 953.7439117431641) rotate(0 86.5533690237653 -37.869715561717726)"><path d="M173.27 -73.86 L161.03 -62.3 L157.04 -75.62 L173.82 -75.3" stroke="none" stroke-width="0" fill="#c92a2a" fill-rule="evenodd"></path><path d="M171.8 -73.86 C168.49 -71.38, 164.53 -67.61, 162.25 -62.63 M163.54 -64.86 C161.87 -69.34, 158.4 -73.18, 158.11 -75.22 M157.14 -74.97 C163.67 -76.49, 168.66 -76.55, 172.95 -74.27 M172.48 -75.19 C172.48 -75.19, 172.48 -75.19, 172.48 -75.19" stroke="#c92a2a" stroke-width="1.5" fill="none"></path></g></g><g stroke-linecap="round"><g transform="translate(531.0037893597035 1017.1080783404409) rotate(0 -76.75297877192497 39.381942719221115)"><path d="M0.74 0.9 C-24.8 13.82, -128.34 65.25, -154.25 77.86" stroke="#c92a2a" stroke-width="1.5" fill="none" stroke-dasharray="1.5 7"></path></g><g transform="translate(531.0037893597035 1017.1080783404409) rotate(0 -76.75297877192497 39.381942719221115)"><path d="M-155.04 78.45 L-143.76 67.47 L-139.33 77.25 L-154.37 75.96" stroke="none" stroke-width="0" fill="#c92a2a" fill-rule="evenodd"></path><path d="M-153.12 79.03 C-152.09 75.91, -151.71 73.08, -143.84 66.1 M-144.35 67.01 C-144.48 69.69, -142.56 71.14, -138.4 77.47 M-137.92 77.52 C-144.45 78.93, -148.26 78.21, -152.88 79.19 M-154.25 77.86 C-154.25 77.86, -154.25 77.86, -154.25 77.86" stroke="#c92a2a" stroke-width="1.5" fill="none"></path></g></g><g transform="translate(132.67640013508492 781.4895782470703) rotate(0 99.5 40)"><text x="0" y="14" font-family="Virgil, Segoe UI Emoji" font-size="16px" fill="#000000" text-anchor="start" style="white-space: pre;" direction="ltr">q2:</text><text x="0" y="34" font-family="Virgil, Segoe UI Emoji" font-size="16px" fill="#000000" text-anchor="start" style="white-space: pre;" direction="ltr">select a as f1, a as f2 </text><text x="0" y="54" font-family="Virgil, Segoe UI Emoji" font-size="16px" fill="#000000" text-anchor="start" style="white-space: pre;" direction="ltr">from t1</text><text x="0" y="74" font-family="Virgil, Segoe UI Emoji" font-size="16px" fill="#000000" text-anchor="start" style="white-space: pre;" direction="ltr">order by f2;</text></g><g stroke-linecap="round"><g transform="translate(8.873696277663043 726.1308746337891) rotate(0 559.8961847502738 0.3877996447295118)"><path d="M1.13 0.61 C187.77 0.71, 932.33 0.37, 1118.67 0.15" stroke="#000000" stroke-width="2.5" fill="none" stroke-dasharray="8 10"></path></g></g><g transform="translate(192.17768187336617 1123.7356719970703) rotate(0 50.5 10)"><text x="0" y="14" font-family="Virgil, Segoe UI Emoji" font-size="16px" fill="#c92a2a" text-anchor="start" style="white-space: pre;" direction="ltr">{astCol: f2}</text></g><g transform="translate(323.6062097053974 1120.2785186767578) rotate(0 20.5 10)"><text x="0" y="14" font-family="Virgil, Segoe UI Emoji" font-size="16px" fill="#c92a2a" text-anchor="start" style="white-space: pre;" direction="ltr">{#5}</text></g><g stroke-linecap="round"><g transform="translate(303.3928307991474 1128.5552513123473) rotate(0 6.2641412477940435 0.6275904790691129)"><path d="M0.3 0.31 C2.44 0.3, 10.11 0.84, 12.23 0.94" stroke="#c92a2a" stroke-width="2.5" fill="none" stroke-dasharray="8 10"></path></g><g transform="translate(303.3928307991474 1128.5552513123473) rotate(0 6.2641412477940435 0.6275904790691129)"><path d="M10.9 1.84 L7.89 2.84 L7.84 -3.8 L13.17 1.63" stroke="none" stroke-width="0" fill="#c92a2a" fill-rule="evenodd"></path><path d="M12.38 1.11 C11.19 2.05, 9.8 1.98, 6.18 3.43 M6.98 3.49 C6.64 1.95, 6.59 0.33, 7.27 -2.02 M6.75 -1.85 C8.43 -1.47, 9.65 -0.39, 12.07 0.59 M12.23 0.94 C12.23 0.94, 12.23 0.94, 12.23 0.94" stroke="#c92a2a" stroke-width="2.5" fill="none"></path></g></g><g stroke-linecap="round"><g transform="translate(372.27750926825627 1242.7645437860858) rotate(0 78.67100607684142 -41.348600729834175)"><path d="M-0.43 -0.7 C25.95 -14.19, 131.42 -68.18, 157.77 -82" stroke="#c92a2a" stroke-width="1.5" fill="none" stroke-dasharray="1.5 7"></path></g><g transform="translate(372.27750926825627 1242.7645437860858) rotate(0 78.67100607684142 -41.348600729834175)"><path d="M158.89 -80.53 L146.9 -68.76 L143.54 -81.64 L159.58 -82.74" stroke="none" stroke-width="0" fill="#c92a2a" fill-rule="evenodd"></path><path d="M156.91 -82.66 C155.94 -79.77, 151.57 -76.36, 147.43 -68.63 M148.49 -71.25 C147.65 -74.53, 143.37 -79.17, 142.76 -80.24 M142.44 -80.02 C149.66 -82.37, 154.52 -82.78, 157.8 -81.86 M157.77 -82 C157.77 -82, 157.77 -82, 157.77 -82" stroke="#c92a2a" stroke-width="1.5" fill="none"></path></g></g><g transform="translate(573.085465381667 1255.0054016113281) rotate(0 38.5 10)"><text x="0" y="14" font-family="Virgil, Segoe UI Emoji" font-size="16px" fill="#000000" text-anchor="start" style="white-space: pre;" direction="ltr">tablescan</text></g><g stroke-linecap="round" transform="translate(557.338883350417 1246.5956115722656) rotate(0 51.20147705078125 18.5723876953125)"><path d="M35.85 1.79 C44.75 0.47, 58.94 0.13, 68.53 1.19 C78.13 2.26, 87.85 5.4, 93.44 8.17 C99.04 10.95, 102.32 14.25, 102.1 17.86 C101.88 21.47, 98.01 26.65, 92.12 29.85 C86.24 33.05, 76.35 36.09, 66.81 37.06 C57.26 38.02, 44.52 36.95, 34.87 35.63 C25.21 34.32, 14.71 31.94, 8.89 29.16 C3.06 26.38, -0.26 22.42, -0.07 18.93 C0.12 15.45, 2.83 11.33, 10.02 8.26 C17.22 5.18, 36.43 1.67, 43.1 0.49 C49.78 -0.69, 49.93 0.83, 50.08 1.18 M52.09 0.88 C61.74 1.04, 73.42 3.25, 81.45 5.28 C89.48 7.31, 97.23 9.75, 100.25 13.09 C103.27 16.43, 103.1 21.9, 99.59 25.33 C96.07 28.75, 87.58 31.89, 79.16 33.64 C70.74 35.39, 58.69 35.69, 49.07 35.81 C39.46 35.94, 29.32 36.37, 21.49 34.42 C13.67 32.47, 4.99 27.78, 2.11 24.13 C-0.76 20.48, 1.08 16.13, 4.23 12.52 C7.39 8.91, 12.9 4.58, 21.06 2.47 C29.22 0.36, 47.8 0, 53.21 -0.13 C58.62 -0.27, 53.83 1.4, 53.53 1.66" stroke="#000000" stroke-width="1" fill="none"></path></g><g transform="translate(597.639664600417 1141.7513122558594) rotate(0 15 10)"><text x="0" y="14" font-family="Virgil, Segoe UI Emoji" font-size="16px" fill="#000000" text-anchor="start" style="white-space: pre;" direction="ltr">proj</text></g><g stroke-linecap="round" transform="translate(592.151627491042 1136.2092590332031) rotate(0 20.45770263671875 17.371856689453125)"><path d="M26.71 0.82 C30.9 1.43, 35.39 4.92, 37.7 7.78 C40 10.64, 41.02 14.31, 40.53 17.99 C40.04 21.67, 37.75 26.96, 34.76 29.86 C31.76 32.77, 26.9 35.24, 22.57 35.44 C18.24 35.63, 12.5 33.34, 8.77 31.04 C5.03 28.75, 1.31 25.09, 0.16 21.68 C-0.99 18.26, -0.06 13.79, 1.87 10.58 C3.79 7.36, 7.18 3.84, 11.73 2.39 C16.29 0.94, 25.85 1.58, 29.19 1.89 C32.52 2.19, 31.88 3.91, 31.75 4.22 M20.68 0.88 C24.96 1.07, 29.87 3.52, 33.21 5.8 C36.54 8.09, 39.9 11.06, 40.7 14.6 C41.5 18.13, 40.47 23.84, 37.99 27.02 C35.51 30.19, 30.13 32.76, 25.8 33.63 C21.47 34.5, 15.7 33.38, 12.03 32.24 C8.36 31.1, 5.75 29.8, 3.8 26.79 C1.85 23.78, -0.54 18.01, 0.33 14.19 C1.2 10.37, 5.76 6.4, 9.02 3.89 C12.29 1.39, 17.82 -0.23, 19.95 -0.84 C22.08 -1.45, 21.43 -0.43, 21.79 0.21" stroke="#000000" stroke-width="1" fill="none"></path></g><g transform="translate(609.1407021980732 1295.1686706542969) rotate(0 7.5 10)"><text x="0" y="14" font-family="Virgil, Segoe UI Emoji" font-size="16px" fill="#000000" text-anchor="start" style="white-space: pre;" direction="ltr">t1</text></g><g transform="translate(599.460221241042 1042.7786560058594) rotate(0 17.5 10)"><text x="0" y="14" font-family="Virgil, Segoe UI Emoji" font-size="16px" fill="#000000" text-anchor="start" style="white-space: pre;" direction="ltr">sort</text></g><g stroke-linecap="round" transform="translate(589.835953662917 1037.1960144042969) rotate(0 25.2314453125 15.585906982421875)"><path d="M27.6 -0.86 C32.64 -0.75, 39.41 2.25, 43.28 4.94 C47.14 7.63, 50.39 12.05, 50.8 15.27 C51.21 18.48, 49.06 21.68, 45.73 24.23 C42.39 26.78, 36.07 29.58, 30.8 30.57 C25.52 31.56, 18.86 31.5, 14.07 30.18 C9.28 28.87, 4.21 25.81, 2.04 22.7 C-0.13 19.59, -0.43 14.74, 1.06 11.53 C2.54 8.32, 5.14 5.06, 10.97 3.46 C16.79 1.87, 30.77 1.95, 36 1.97 C41.23 2, 42.62 3.47, 42.36 3.59 M32.55 0.54 C37.69 1.12, 43.64 4.9, 46.39 7.69 C49.14 10.47, 49.87 14.25, 49.05 17.24 C48.23 20.23, 45.01 23.13, 41.49 25.62 C37.97 28.12, 33.16 31.77, 27.92 32.21 C22.68 32.65, 14.37 30.44, 10.05 28.27 C5.74 26.11, 3.42 22.64, 2.04 19.21 C0.66 15.78, -0.6 10.73, 1.76 7.71 C4.12 4.7, 10.85 2.08, 16.19 1.12 C21.52 0.16, 31.2 2.05, 33.77 1.95 C36.34 1.85, 31.81 0.71, 31.61 0.52" stroke="#000000" stroke-width="1" fill="none"></path></g><g transform="translate(689.5169229011982 1253.7111206054688) rotate(0 35 10)"><text x="0" y="14" font-family="Virgil, Segoe UI Emoji" font-size="16px" fill="#000000" text-anchor="start" style="white-space: pre;" direction="ltr">[]used{}</text></g><g transform="translate(661.5169229011982 1143.1400146484375) rotate(0 43.5 10)"><text x="0" y="14" font-family="Virgil, Segoe UI Emoji" font-size="16px" fill="#000000" text-anchor="start" style="white-space: pre;" direction="ltr">[]used{#1}</text></g><g transform="translate(661.288346241042 1036.0274658203125) rotate(0 46 10)"><text x="0" y="14" font-family="Virgil, Segoe UI Emoji" font-size="16px" fill="#000000" text-anchor="start" style="white-space: pre;" direction="ltr">[]used{#5}</text></g><g transform="translate(660.6219567757099 1057.152359008789) rotate(0 4.5 10)"><text x="0" y="14" font-family="Virgil, Segoe UI Emoji" font-size="16px" fill="#000000" text-anchor="start" style="white-space: pre;" direction="ltr"></text></g><g transform="translate(663.8995446663349 1180.3573760986328) rotate(0 87 10)"><text x="0" y="14" font-family="Virgil, Segoe UI Emoji" font-size="16px" fill="#c92a2a" text-anchor="start" style="white-space: pre;" direction="ltr">[]output{#1, #4, #5}</text></g><g transform="translate(688.7683190803974 1281.1072540283203) rotate(0 52 10)"><text x="0" y="14" font-family="Virgil, Segoe UI Emoji" font-size="16px" fill="#c92a2a" text-anchor="start" style="white-space: pre;" direction="ltr">[]output{#1}</text></g><g stroke-linecap="round"><g transform="translate(581.8020715218037 912.6902008056641) rotate(0 -0.6925767669922038 -19.334730182513624)"><path d="M0.08 -0.63 C-0.09 -7.51, -0.51 -33.58, -0.54 -40.32 M-1.33 1.65 C-1.65 -5.09, -1.34 -31.75, -1.18 -38.72" stroke="#000000" stroke-width="1" fill="none"></path></g><g transform="translate(581.8020715218037 912.6902008056641) rotate(0 -0.6925767669922038 -19.334730182513624)"><path d="M0.72 -37.42 L5.67 -24.5 L-8.62 -23.61 L-3.04 -40" stroke="none" stroke-width="0" fill="#000000" fill-rule="evenodd"></path><path d="M-1.96 -37.97 C1.18 -32.77, 2.29 -29.6, 4.57 -25.01 M-0.51 -38.42 C0.33 -34.81, 2.74 -31.31, 5.66 -25.68 M5.49 -24.47 C3.07 -26.09, -1.34 -24.19, -8.16 -25.86 M4.85 -25.36 C0.33 -25.52, -4.04 -25.3, -7.59 -25.26 M-9.08 -25.42 C-6.2 -28.44, -4.48 -33.17, -0.37 -37.95 M-8.3 -25.74 C-5.82 -27.92, -4.4 -31.77, -1.21 -38.93 M-1.18 -38.72 C-1.18 -38.72, -1.18 -38.72, -1.18 -38.72 M-1.18 -38.72 C-1.18 -38.72, -1.18 -38.72, -1.18 -38.72" stroke="#000000" stroke-width="1" fill="none"></path></g></g><g stroke-linecap="round"><g transform="translate(144.70137041915416 1193.4689441797136) rotate(0 -0.496797933725162 -24.441765643874305)"><path d="M0.26 0.28 C0.35 -7.46, -0.49 -39.13, -0.56 -47.32 M-1.06 -0.61 C-0.99 -8.63, -1.35 -41.26, -1.24 -49.17" stroke="#000000" stroke-width="1" fill="none"></path></g><g transform="translate(144.70137041915416 1193.4689441797136) rotate(0 -0.496797933725162 -24.441765643874305)"><path d="M-1.5 -49.69 L5.89 -35.61 L-5.74 -37.39 L-0.22 -49.9" stroke="none" stroke-width="0" fill="#000000" fill-rule="evenodd"></path><path d="M-0.88 -48.52 C0.66 -45.12, 0.11 -44.05, 6.16 -36.08 M-0.79 -49.28 C0.04 -45.66, 1.43 -41.83, 4.86 -35.41 M6.33 -36.72 C1.22 -35.62, -1.95 -35.65, -8.13 -34.89 M5.02 -36.06 C0.22 -35.04, -3.43 -35.12, -7.83 -35.6 M-6.93 -35.98 C-7.25 -40.16, -4.46 -43.92, -2.25 -47.99 M-7.53 -36.26 C-5.04 -39.64, -3.76 -44.51, -0.92 -48.63 M-1.24 -49.17 C-1.24 -49.17, -1.24 -49.17, -1.24 -49.17 M-1.24 -49.17 C-1.24 -49.17, -1.24 -49.17, -1.24 -49.17" stroke="#000000" stroke-width="1" fill="none"></path></g></g><g stroke-linecap="round"><g transform="translate(144.86454545657318 1307.726018649379) rotate(0 -0.792830294666544 -30.003689321003435)"><path d="M0.73 -0.18 C0.19 -9.89, -1.75 -48.34, -2.31 -57.83 M-0.35 -1.32 C-0.57 -11.46, 0.04 -50.22, 0.07 -59.83" stroke="#000000" stroke-width="1" fill="none"></path></g><g transform="translate(144.86454545657318 1307.726018649379) rotate(0 -0.792830294666544 -30.003689321003435)"><path d="M-0.1 -58.45 L7.8 -44.79 L-7.57 -47.98 L0.18 -58.92" stroke="none" stroke-width="0" fill="#000000" fill-rule="evenodd"></path><path d="M-0.16 -60.63 C2.73 -55.95, 5.92 -50.15, 6.61 -46.27 M-0.61 -59.93 C1.74 -56.01, 3.38 -52.91, 6.68 -45.8 M5.31 -47.06 C4.19 -45.51, 1.09 -46.76, -6.47 -46.66 M6.11 -46.77 C2.27 -46.3, -1.4 -46.62, -5.9 -45.97 M-7.77 -45.46 C-2.53 -52.52, -0.24 -56.04, 1.14 -59.15 M-6.21 -46.63 C-3.33 -52.36, -1.87 -56.52, 0.69 -60.28 M0.07 -59.83 C0.07 -59.83, 0.07 -59.83, 0.07 -59.83 M0.07 -59.83 C0.07 -59.83, 0.07 -59.83, 0.07 -59.83" stroke="#000000" stroke-width="1" fill="none"></path></g></g><g stroke-linecap="round"><g transform="translate(612.0244201554002 1235.8071884500202) rotate(0 -0.6202080601498778 -28.460482858081946)"><path d="M-0.82 1 C-1.12 -8.76, -0.99 -48.39, -1.16 -57.92 M0.95 0.48 C0.42 -9.21, -2.14 -47.1, -2.19 -56.86" stroke="#000000" stroke-width="1" fill="none"></path></g><g transform="translate(612.0244201554002 1235.8071884500202) rotate(0 -0.6202080601498778 -28.460482858081946)"><path d="M-0.52 -56.49 L3.17 -44.68 L-7.78 -43.86 L-0.99 -55.16" stroke="none" stroke-width="0" fill="#000000" fill-rule="evenodd"></path><path d="M-0.95 -57.07 C-0.83 -53.14, 3.76 -46.53, 5.51 -44.13 M-1.58 -56.54 C-0.4 -53.63, 1.41 -49.17, 4.23 -44.04 M5.06 -43.46 C-1.26 -42.53, -3.68 -43.92, -6.93 -42.48 M5.1 -43.31 C0.15 -43.51, -4.21 -43.62, -8.38 -42.61 M-9.31 -42.99 C-5.18 -49.39, -3.88 -53.54, -1.9 -57.43 M-7.68 -43.04 C-5.44 -48.07, -3.92 -52.03, -2.27 -56.29 M-2.19 -56.86 C-2.19 -56.86, -2.19 -56.86, -2.19 -56.86 M-2.19 -56.86 C-2.19 -56.86, -2.19 -56.86, -2.19 -56.86" stroke="#000000" stroke-width="1" fill="none"></path></g></g><g stroke-linecap="round"><g transform="translate(610.7756432991474 1122.7488555908203) rotate(0 -0.1418492790645587 -25.254914430901408)"><path d="M0.61 1 C0.73 -7.74, 0.25 -42.86, -0.11 -51.51 M-0.53 0.48 C-0.47 -8.13, -1.09 -41.04, -0.87 -49.94" stroke="#000000" stroke-width="1" fill="none"></path></g><g transform="translate(610.7756432991474 1122.7488555908203) rotate(0 -0.1418492790645587 -25.254914430901408)"><path d="M-0.66 -51.51 L5.98 -37.97 L-8.04 -35.93 L-0.85 -48.81" stroke="none" stroke-width="0" fill="#000000" fill-rule="evenodd"></path><path d="M0.38 -49.5 C0.79 -48.17, 3.02 -42.2, 4.42 -35.1 M-0.16 -49.45 C1.67 -45.11, 3.23 -40.05, 4.76 -36.82 M4.5 -37.47 C0.86 -35.99, -4.72 -36.77, -7.19 -36.1 M5.29 -36.09 C2.12 -35.78, -1.77 -36.04, -7.45 -36.41 M-7.34 -35.31 C-3.78 -40.39, -3.41 -47.82, -0.78 -49.25 M-6.65 -36.75 C-5.14 -39.55, -4.76 -41.88, -1.09 -50.26 M-0.87 -49.94 C-0.87 -49.94, -0.87 -49.94, -0.87 -49.94 M-0.87 -49.94 C-0.87 -49.94, -0.87 -49.94, -0.87 -49.94" stroke="#000000" stroke-width="1" fill="none"></path></g></g><g transform="translate(661.2946862678974 1068.8811798095703) rotate(0 72.5 10)"><text x="0" y="14" font-family="Virgil, Segoe UI Emoji" font-size="16px" fill="#c92a2a" text-anchor="start" style="white-space: pre;" direction="ltr">[]output{#4, #5}</text></g><g transform="translate(112.34204954914742 991.6203765869141) rotate(0 105 10)"><text x="0" y="14" font-family="Virgil, Segoe UI Emoji" font-size="16px" fill="#c92a2a" text-anchor="start" style="white-space: pre;" direction="ltr">[]evalCol{id#1, a#2, b#3}</text></g><g transform="translate(829.1649255257099 1064.7960357666016) rotate(0 121 30)"><text x="0" y="14" font-family="Virgil, Segoe UI Emoji" font-size="16px" fill="#495057" text-anchor="start" style="white-space: pre;" direction="ltr">root node‘s outputs</text><text x="0" y="34" font-family="Virgil, Segoe UI Emoji" font-size="16px" fill="#495057" text-anchor="start" style="white-space: pre;" direction="ltr">come from client need </text><text x="0" y="54" font-family="Virgil, Segoe UI Emoji" font-size="16px" fill="#495057" text-anchor="start" style="white-space: pre;" direction="ltr">(the most outer select items).</text></g><g transform="translate(612.5649499397724 1341.1964874267578) rotate(0 143.5 20)"><text x="0" y="14" font-family="Virgil, Segoe UI Emoji" font-size="16px" fill="#495057" text-anchor="start" style="white-space: pre;" direction="ltr">output = root ? most outer select </text><text x="0" y="34" font-family="Virgil, Segoe UI Emoji" font-size="16px" fill="#495057" text-anchor="start" style="white-space: pre;" direction="ltr">: uniq{parent's used + output}</text></g><g transform="translate(25.90271849445992 697.0680084228516) rotate(0 61 10)"><text x="0" y="14" font-family="Virgil, Segoe UI Emoji" font-size="16px" fill="#495057" text-anchor="start" style="white-space: pre;" direction="ltr">name resolution</text></g><g transform="translate(25.10224242024117 738.9253082275391) rotate(0 53 10)"><text x="0" y="14" font-family="Virgil, Segoe UI Emoji" font-size="16px" fill="#495057" text-anchor="start" style="white-space: pre;" direction="ltr">logical builder</text></g><g transform="translate(821.8210534553974 1253.0055694580078) rotate(0 93.5 20)"><text x="0" y="14" font-family="Virgil, Segoe UI Emoji" font-size="16px" fill="#495057" text-anchor="start" style="white-space: pre;" direction="ltr">#1,#4,#5 is identical?? </text><text x="0" y="34" font-family="Virgil, Segoe UI Emoji" font-size="16px" fill="#495057" text-anchor="start" style="white-space: pre;" direction="ltr">so #1 is output</text></g><g transform="translate(907.3045739632099 1170.5959014892578) rotate(0 90 20)"><text x="0" y="14" font-family="Virgil, Segoe UI Emoji" font-size="16px" fill="#495057" text-anchor="start" style="white-space: pre;" direction="ltr">how to know which child</text><text x="0" y="34" font-family="Virgil, Segoe UI Emoji" font-size="16px" fill="#495057" text-anchor="start" style="white-space: pre;" direction="ltr">this evalCol comes??</text></g><g transform="translate(173.23244566731148 1256.8569030761719) rotate(0 46.5 10)"><text x="0" y="14" font-family="Virgil, Segoe UI Emoji" font-size="16px" fill="#000000" text-anchor="start" style="white-space: pre;" direction="ltr">{astCol: a}</text></g><g transform="translate(307.6899651985615 1256.2571105957031) rotate(0 83 10)"><text x="0" y="14" font-family="Virgil, Segoe UI Emoji" font-size="16px" fill="#000000" text-anchor="start" style="white-space: pre;" direction="ltr">{evalCol: (#1 f1)} #4</text></g><g stroke-linecap="round"><g transform="translate(279.47274107746773 1265.9227371490153) rotate(0 10.45065198756754 0.16629065553115652)"><path d="M1.12 0.18 C4.54 0.27, 17.54 -0.05, 20.65 0.19 M0.25 -0.77 C3.58 -0.55, 17.08 0.46, 20.22 1.1" stroke="#000000" stroke-width="1" fill="none"></path></g><g transform="translate(279.47274107746773 1265.9227371490153) rotate(0 10.45065198756754 0.16629065553115652)"><path d="M19.8 1.92 L10.24 4.92 L10.99 -2.74 L21.49 0.88" stroke="none" stroke-width="0" fill="#000000" fill-rule="evenodd"></path><path d="M20.37 1.91 C16.28 2.24, 14.51 3.43, 11.72 3.75 M20.39 1.54 C17.34 2.27, 15.05 2.33, 10.81 3.97 M10.72 4.93 C10.73 1.79, 10.84 -1.4, 12.29 -3.89 M10.6 4.25 C11.4 2.15, 11.37 0.93, 11.6 -4.37 M12.87 -3.24 C13.36 -2.4, 17.16 -0.87, 19.95 1.24 M12.37 -4.64 C15.1 -2.47, 17.58 -0.19, 19.74 1.21 M20.22 1.1 C20.22 1.1, 20.22 1.1, 20.22 1.1 M20.22 1.1 C20.22 1.1, 20.22 1.1, 20.22 1.1" stroke="#000000" stroke-width="1" fill="none"></path></g></g><g transform="translate(174.6885308723896 1284.4710693359375) rotate(0 46.5 10)"><text x="0" y="14" font-family="Virgil, Segoe UI Emoji" font-size="16px" fill="#000000" text-anchor="start" style="white-space: pre;" direction="ltr">{astCol: a}</text></g><g transform="translate(309.14611143879586 1284.099853515625) rotate(0 86.5 10)"><text x="0" y="14" font-family="Virgil, Segoe UI Emoji" font-size="16px" fill="#000000" text-anchor="start" style="white-space: pre;" direction="ltr">{evalCol: (#1 f2)} #5</text></g><g stroke-linecap="round"><g transform="translate(280.92882628254586 1293.1544102117364) rotate(0 9.361496194079507 0.47032702471108223)"><path d="M-1.19 0.13 C2.1 0.28, 16.26 1.72, 19.91 1.87 M0.39 -0.85 C3.53 -1.16, 15.74 -0.52, 19.1 -0.03" stroke="#000000" stroke-width="1" fill="none"></path></g><g transform="translate(280.92882628254586 1293.1544102117364) rotate(0 9.361496194079507 0.47032702471108223)"><path d="M19.92 -0.93 L11.24 4.58 L10.36 -6.64 L19.38 -1.03" stroke="none" stroke-width="0" fill="#000000" fill-rule="evenodd"></path><path d="M19.2 0.18 C16.55 1.82, 12.93 1.73, 10.55 3.52 M19.42 -0.06 C15.58 1, 12.78 2.14, 9.95 3.16 M9.98 2.7 C9.39 1.34, 10.44 -2.17, 10.78 -4.95 M9.62 3.42 C10.31 0.99, 9.95 -0.78, 10.65 -5.21 M10.76 -4.61 C14.19 -3.19, 17.57 -0.58, 19 -0.41 M10.47 -4.91 C14.31 -3.56, 17.4 -1.06, 18.84 0.45 M19.1 -0.03 C19.1 -0.03, 19.1 -0.03, 19.1 -0.03 M19.1 -0.03 C19.1 -0.03, 19.1 -0.03, 19.1 -0.03" stroke="#000000" stroke-width="1" fill="none"></path></g></g><g transform="translate(186.90271849445992 1158.1883087158203) rotate(0 54 20)"><text x="0" y="14" font-family="Virgil, Segoe UI Emoji" font-size="16px" fill="#1864ab" text-anchor="start" style="white-space: pre;" direction="ltr">/ []used{#3}</text><text x="0" y="34" font-family="Virgil, Segoe UI Emoji" font-size="16px" fill="#1864ab" text-anchor="start" style="white-space: pre;" direction="ltr">{astCol: b}</text></g><g transform="translate(321.9317712288349 1175.7596588134766) rotate(0 21 10)"><text x="0" y="14" font-family="Virgil, Segoe UI Emoji" font-size="16px" fill="#1864ab" text-anchor="start" style="white-space: pre;" direction="ltr">{#3}</text></g><g stroke-linecap="round"><g transform="translate(296.21818090677255 1186.3402420737527) rotate(0 8.319069410301722 -1.4176607318870538)"><path d="M-0.59 -0.23 C2.14 -0.49, 14.39 -0.76, 17.23 -0.9 M1.3 -1.4 C3.89 -2.04, 14.43 -2.33, 16.86 -2.61" stroke="#1864ab" stroke-width="1" fill="none"></path></g><g transform="translate(296.21818090677255 1186.3402420737527) rotate(0 8.319069410301722 -1.4176607318870538)"><path d="M15.57 -2.89 L8.95 1.6 L7.65 -7.39 L18.82 -2.93" stroke="none" stroke-width="0" fill="#1864ab" fill-rule="evenodd"></path><path d="M16.7 -1.87 C14.76 -0.96, 12.01 0.55, 9.49 1.72 M17.24 -2.31 C14.75 -1.24, 11.96 0.23, 9.54 1.08 M9.33 1.48 C9.52 -0.21, 9.12 -1.59, 9.3 -6.22 M9.62 1.29 C9.34 -0.27, 9.78 -1.84, 9.62 -5.52 M9.46 -5.28 C11.58 -4.57, 13.48 -4.17, 16.9 -3.02 M9.08 -5.28 C11.01 -4.66, 12.71 -4.26, 16.97 -2.31 M16.86 -2.61 C16.86 -2.61, 16.86 -2.61, 16.86 -2.61 M16.86 -2.61 C16.86 -2.61, 16.86 -2.61, 16.86 -2.61" stroke="#1864ab" stroke-width="1" fill="none"></path></g></g><g transform="translate(664.9027184944599 1207.473892211914) rotate(0 113 10)"><text x="0" y="14" font-family="Virgil, Segoe UI Emoji" font-size="16px" fill="#1864ab" text-anchor="start" style="white-space: pre;" direction="ltr">/ []output{#1, #3, #4, #5}</text></g><g transform="translate(687.4616784553974 1307.4672393798828) rotate(0 78 10)"><text x="0" y="14" font-family="Virgil, Segoe UI Emoji" font-size="16px" fill="#1864ab" text-anchor="start" style="white-space: pre;" direction="ltr">/ []output{#1, #3}</text></g><g transform="translate(766.9027184944599 1031.9310455322266) rotate(0 54.5 10)"><text x="0" y="14" font-family="Virgil, Segoe UI Emoji" font-size="16px" fill="#1864ab" text-anchor="start" style="white-space: pre;" direction="ltr">/ []used{#3}</text></g></svg>