<svg version="1.1" xmlns="http://www.w3.org/2000/svg" viewBox="0 0 803.5021057128906 848.3339996337891" width="803.5021057128906" height="848.3339996337891">
  <!-- svg-source:excalidraw -->
  
  <defs>
    <style>
      @font-face {
        font-family: "Virgil";
        src: url("https://excalidraw.com/Virgil.woff2");
      }
      @font-face {
        font-family: "Cascadia";
        src: url("https://excalidraw.com/Cascadia.woff2");
      }
    </style>
  </defs>
  <rect x="0" y="0" width="803.5021057128906" height="848.3339996337891" fill="#ffffff"></rect><g transform="translate(10 10) rotate(0 241.5 30)"><text x="0" y="14" font-family="Virgil, Segoe UI Emoji" font-size="16px" fill="#000000" text-anchor="start" style="white-space: pre;" direction="ltr">SELECT t1.a FROM t1 GROUP BY t1.a</text><text x="0" y="34" font-family="Virgil, Segoe UI Emoji" font-size="16px" fill="#000000" text-anchor="start" style="white-space: pre;" direction="ltr"> HAVING t1.a &gt; ALL(SELECT t2.f FROM t2 GROUP BY t2.f</text><text x="0" y="54" font-family="Virgil, Segoe UI Emoji" font-size="16px" fill="#000000" text-anchor="start" style="white-space: pre;" direction="ltr">                     HAVING SUM(t1.a) &lt; t2.f)</text></g><g transform="translate(256.7146063910591 630.1469523111979) rotate(0 38.5 10)"><text x="0" y="14" font-family="Virgil, Segoe UI Emoji" font-size="16px" fill="#000000" text-anchor="start" style="white-space: pre;" direction="ltr">tablescan</text></g><g transform="translate(260.1745673285591 662.0032755533854) rotate(0 54 11.5)"><text x="0" y="17" font-family="Virgil, Segoe UI Emoji" font-size="16px" fill="#000000" text-anchor="start" style="white-space: pre;" direction="ltr">t1: #1～#6,#7</text></g><g transform="translate(296.45916748046875 512.745361328125) rotate(0 14 10)"><text x="0" y="14" font-family="Virgil, Segoe UI Emoji" font-size="16px" fill="#000000" text-anchor="start" style="white-space: pre;" direction="ltr">agg</text></g><g transform="translate(229.95761108398438 540.3729248046875) rotate(0 86.5 11.5)"><text x="0" y="17" font-family="Virgil, Segoe UI Emoji" font-size="16px" fill="#000000" text-anchor="start" style="white-space: pre;" direction="ltr">sum(#2)-&gt;#15, #1～#7</text></g><g transform="translate(285.192138671875 396.9243469238281) rotate(0 15 10)"><text x="0" y="14" font-family="Virgil, Segoe UI Emoji" font-size="16px" fill="#000000" text-anchor="start" style="white-space: pre;" direction="ltr">proj</text></g><g transform="translate(262.0572509765625 431.2358093261719) rotate(0 32 10)"><text x="0" y="14" font-family="Virgil, Segoe UI Emoji" font-size="16px" fill="#000000" text-anchor="start" style="white-space: pre;" direction="ltr">#2, #15</text></g><g transform="translate(477.53424072265625 786.1361999511719) rotate(0 38.5 10)"><text x="0" y="14" font-family="Virgil, Segoe UI Emoji" font-size="16px" fill="#000000" text-anchor="start" style="white-space: pre;" direction="ltr">tablescan</text></g><g transform="translate(452.2076721191406 815.3339996337891) rotate(0 76.5 11.5)"><text x="0" y="17" font-family="Virgil, Segoe UI Emoji" font-size="16px" fill="#000000" text-anchor="start" style="white-space: pre;" direction="ltr">t2: #16～#21, #22</text></g><g transform="translate(511.33477783203125 691.4206848144531) rotate(0 14 10)"><text x="0" y="14" font-family="Virgil, Segoe UI Emoji" font-size="16px" fill="#000000" text-anchor="start" style="white-space: pre;" direction="ltr">agg</text></g><g transform="translate(490.6304626464844 717.6270294189453) rotate(0 40 11.5)"><text x="0" y="17" font-family="Virgil, Segoe UI Emoji" font-size="16px" fill="#000000" text-anchor="start" style="white-space: pre;" direction="ltr">#16～#22</text></g><g transform="translate(501.44403076171875 611.2718811035156) rotate(0 15 10)"><text x="0" y="14" font-family="Virgil, Segoe UI Emoji" font-size="16px" fill="#000000" text-anchor="start" style="white-space: pre;" direction="ltr">proj</text></g><g transform="translate(480.9681701660156 637.4156646728516) rotate(0 19.5 10)"><text x="0" y="14" font-family="Virgil, Segoe UI Emoji" font-size="16px" fill="#000000" text-anchor="start" style="white-space: pre;" direction="ltr">#17, </text></g><g transform="translate(517.6539001464844 636.9299468994141) rotate(0 39 10)"><text x="0" y="14" font-family="Virgil, Segoe UI Emoji" font-size="16px" fill="#000000" text-anchor="start" style="white-space: pre;" direction="ltr">#15-&gt;#23</text></g><g transform="translate(367.8496398925781 267.99066162109375) rotate(0 35 10)"><text x="0" y="14" font-family="Virgil, Segoe UI Emoji" font-size="16px" fill="#000000" text-anchor="start" style="white-space: pre;" direction="ltr">semiApply</text></g><g transform="translate(368.5306396484375 300.2996368408203) rotate(0 15 10)"><text x="0" y="14" font-family="Virgil, Segoe UI Emoji" font-size="16px" fill="#000000" text-anchor="start" style="white-space: pre;" direction="ltr">#2,</text></g><g transform="translate(398.841552734375 301.87696838378906) rotate(0 14 10)"><text x="0" y="14" font-family="Virgil, Segoe UI Emoji" font-size="16px" fill="#000000" text-anchor="start" style="white-space: pre;" direction="ltr">#15</text></g><g transform="translate(391.8994140625 208.61703491210938) rotate(0 20.5 10)"><text x="0" y="14" font-family="Virgil, Segoe UI Emoji" font-size="16px" fill="#000000" text-anchor="start" style="white-space: pre;" direction="ltr">filter</text></g><g transform="translate(393.0110168457031 121.87464904785156) rotate(0 15 10)"><text x="0" y="14" font-family="Virgil, Segoe UI Emoji" font-size="16px" fill="#000000" text-anchor="start" style="white-space: pre;" direction="ltr">proj</text></g><g transform="translate(369.3532409667969 147.8180694580078) rotate(0 38 10)"><text x="0" y="14" font-family="Virgil, Segoe UI Emoji" font-size="16px" fill="#000000" text-anchor="start" style="white-space: pre;" direction="ltr">#2-&gt;#28</text></g><g transform="translate(481.4906311035156 355.90855407714844) rotate(0 14 10)"><text x="0" y="14" font-family="Virgil, Segoe UI Emoji" font-size="16px" fill="#c92a2a" text-anchor="start" style="white-space: pre;" direction="ltr">agg</text></g><g transform="translate(479.2633972167969 379.57029724121094) rotate(0 86.5 30)"><text x="0" y="14" font-family="Virgil, Segoe UI Emoji" font-size="16px" fill="#c92a2a" text-anchor="start" style="white-space: pre;" direction="ltr">max(#24)-&gt;#25</text><text x="0" y="34" font-family="Virgil, Segoe UI Emoji" font-size="16px" fill="#c92a2a" text-anchor="start" style="white-space: pre;" direction="ltr">sum(isnull(#24))-&gt;#26</text><text x="0" y="54" font-family="Virgil, Segoe UI Emoji" font-size="16px" fill="#c92a2a" text-anchor="start" style="white-space: pre;" direction="ltr">count(1)-&gt;#27</text></g><g transform="translate(500.4839782714844 557.5063629150391) rotate(0 20.5 10)"><text x="0" y="14" font-family="Virgil, Segoe UI Emoji" font-size="16px" fill="#000000" text-anchor="start" style="white-space: pre;" direction="ltr">filter</text></g><g transform="translate(496.0442810058594 478.0359649658203) rotate(0 15 10)"><text x="0" y="14" font-family="Virgil, Segoe UI Emoji" font-size="16px" fill="#000000" text-anchor="start" style="white-space: pre;" direction="ltr">proj</text></g><g transform="translate(475.2441101074219 499.97889709472656) rotate(0 38 10)"><text x="0" y="14" font-family="Virgil, Segoe UI Emoji" font-size="16px" fill="#000000" text-anchor="start" style="white-space: pre;" direction="ltr">#17-&gt;#24</text></g><g stroke-linecap="round"><g transform="translate(520.8834582585254 774.3211822509766) rotate(0 -0.033916720060602756 -12.411073026796771)"><path d="M0.74 -0.77 C0.79 -5.02, 0.51 -22.16, 0.32 -26.26 M-0.33 1.44 C-0.45 -2.6, -1.09 -20.84, -0.68 -25.08" stroke="#000000" stroke-width="1" fill="none"></path></g><g transform="translate(520.8834582585254 774.3211822509766) rotate(0 -0.033916720060602756 -12.411073026796771)"><path d="M-1.52 -25.91 L5.96 -14.52 L-7.63 -13.9 L-1.4 -25.87" stroke="none" stroke-width="0" fill="#000000" fill-rule="evenodd"></path><path d="M-1.5 -25.2 C0.1 -22.41, 2.58 -16.76, 4.38 -14.45 M-1.26 -25.58 C0.69 -21.5, 2.11 -18.44, 4.74 -13.21 M5.35 -13.01 C1.2 -12.66, -3.92 -12.66, -5.95 -14.2 M5.03 -13.92 C0.48 -13.44, -3.4 -13.93, -5.97 -13.19 M-5.6 -14.66 C-5.27 -17.02, -3.73 -20.99, -1.5 -25.92 M-6.27 -13.67 C-4.59 -17.03, -2.07 -20.94, -0.9 -25.46 M-0.68 -25.08 C-0.68 -25.08, -0.68 -25.08, -0.68 -25.08 M-0.68 -25.08 C-0.68 -25.08, -0.68 -25.08, -0.68 -25.08" stroke="#000000" stroke-width="1" fill="none"></path></g></g><g stroke-linecap="round"><g transform="translate(523.4970399353692 681.4235382080078) rotate(0 -1.3384111086376436 -8.799136808086189)"><path d="M0.93 0.42 C0.59 -2.13, -2.07 -13.63, -2.96 -16.42 M-0.04 -0.4 C-0.41 -3.18, -3.29 -15.07, -3.61 -18.02" stroke="#000000" stroke-width="1" fill="none"></path></g><g transform="translate(523.4970399353692 681.4235382080078) rotate(0 -1.3384111086376436 -8.799136808086189)"><path d="M-3.6 -18.6 L0.08 -12.74 L-5.7 -10.44 L-3.57 -16.47" stroke="none" stroke-width="0" fill="#000000" fill-rule="evenodd"></path><path d="M-3.3 -17.6 C-1.78 -17.08, -0.57 -14.52, 1.04 -10.06 M-4.04 -17.94 C-2.32 -15.98, -1.37 -14.17, 1.87 -10.85 M0.91 -11.06 C-1.44 -10.53, -4.7 -10.17, -6.34 -9.26 M1.49 -10.82 C-0.68 -9.97, -3.15 -10.04, -6.07 -9.09 M-6.63 -9.04 C-5.13 -10.71, -4.23 -14.33, -3.14 -18.49 M-5.48 -9.11 C-5.55 -11.77, -4.89 -13.4, -3.3 -18.21 M-3.61 -18.02 C-3.61 -18.02, -3.61 -18.02, -3.61 -18.02 M-3.61 -18.02 C-3.61 -18.02, -3.61 -18.02, -3.61 -18.02" stroke="#000000" stroke-width="1" fill="none"></path></g></g><g stroke-linecap="round"><g transform="translate(513.50560996237 597.4955596923828) rotate(0 -0.1025578560384588 -5.888466265043178)"><path d="M0.74 0.88 C0.65 -0.79, 0.43 -9.02, 0.21 -11.08 M-0.33 0.3 C-0.66 -1.59, -1.18 -10.37, -0.84 -12.66" stroke="#000000" stroke-width="1" fill="none"></path></g><g transform="translate(513.50560996237 597.4955596923828) rotate(0 -0.1025578560384588 -5.888466265043178)"><path d="M-2.54 -13.4 L0.88 -8.35 L-3.28 -8.51 L-1.41 -13.76" stroke="none" stroke-width="0" fill="#000000" fill-rule="evenodd"></path><path d="M-0.39 -12.75 C0.51 -11.15, 1.19 -9.13, 1.33 -7.19 M-1.03 -12.59 C-0.2 -11.33, 0.38 -9.8, 1.52 -6.98 M1.26 -6.64 C-0.82 -6.69, -2.04 -7.69, -3.34 -7.09 M1.69 -7.23 C-0.55 -7.45, -2.5 -7.05, -3.38 -7.44 M-3.15 -7.5 C-3.11 -8.16, -2.53 -10.34, -0.93 -12.88 M-3.75 -7.12 C-2.68 -8.49, -1.88 -10.34, -0.66 -12.52 M-0.84 -12.66 C-0.84 -12.66, -0.84 -12.66, -0.84 -12.66 M-0.84 -12.66 C-0.84 -12.66, -0.84 -12.66, -0.84 -12.66" stroke="#000000" stroke-width="1" fill="none"></path></g></g><g stroke-linecap="round"><g transform="translate(517.1146351030768 545.8369293212891) rotate(0 -2.8895075875093426 -9.808651500781991)"><path d="M0.06 -0.16 C-0.78 -3, -4.23 -14.61, -4.82 -17.57 M-1.36 -1.28 C-2.39 -4.45, -5.46 -16.91, -5.84 -19.46" stroke="#000000" stroke-width="1" fill="none"></path></g><g transform="translate(517.1146351030768 545.8369293212891) rotate(0 -2.8895075875093426 -9.808651500781991)"><path d="M-5.3 -18.83 L-1.45 -13.05 L-7.96 -9.73 L-4.56 -20.25" stroke="none" stroke-width="0" fill="#000000" fill-rule="evenodd"></path><path d="M-5.96 -19.56 C-3.75 -16.17, -2.26 -15.03, -0.8 -11.19 M-6.26 -19.26 C-4.32 -17.37, -2.81 -16.46, 0 -12.26 M0.41 -11.46 C-2.76 -12.07, -4.46 -10.82, -7.41 -10.72 M-0.51 -12.08 C-2.37 -11.8, -4.47 -11, -8.19 -10.23 M-8.73 -9.84 C-6.84 -13.44, -6.35 -16.77, -6.63 -18.88 M-8.4 -10.36 C-7.53 -13.09, -6.3 -15.81, -5.88 -19.38 M-5.84 -19.46 C-5.84 -19.46, -5.84 -19.46, -5.84 -19.46 M-5.84 -19.46 C-5.84 -19.46, -5.84 -19.46, -5.84 -19.46" stroke="#000000" stroke-width="1" fill="none"></path></g></g><g stroke-linecap="round"><g transform="translate(509.62561263323994 469.0123315909826) rotate(0 0.7199884835702903 -10.581663476021276)"><path d="M1 0.85 C1.13 -2.72, -0.22 -18.42, -0.4 -22.02 M0.07 0.26 C0.67 -3.12, 2.03 -16.99, 1.83 -20.81" stroke="#000000" stroke-width="1" fill="none"></path></g><g transform="translate(509.62561263323994 469.0123315909826) rotate(0 0.7199884835702903 -10.581663476021276)"><path d="M3.16 -21.77 L7.83 -12.48 L-1.81 -12.77 L0.21 -20.77" stroke="none" stroke-width="0" fill="#000000" fill-rule="evenodd"></path><path d="M2.59 -21.63 C2.06 -19.42, 4.07 -16.16, 5.6 -11.43 M1.74 -21.01 C3.13 -17.47, 5.21 -13.79, 6.27 -10.74 M6.58 -10.56 C2.88 -10.98, -0.58 -12.04, -2.43 -11.27 M6.08 -11.22 C3.61 -10.8, 1.16 -11.27, -2.92 -10.82 M-3.56 -10.87 C-2.18 -15, 0.08 -18.65, 1.98 -21.49 M-3.33 -11.58 C-1.85 -13.54, -0.72 -16.84, 2.3 -20.67 M1.83 -20.81 C1.83 -20.81, 1.83 -20.81, 1.83 -20.81 M1.83 -20.81 C1.83 -20.81, 1.83 -20.81, 1.83 -20.81" stroke="#000000" stroke-width="1" fill="none"></path></g></g><g stroke-linecap="round"><g transform="translate(477.3401130261933 348.0295142346049) rotate(0 -22.408666765479268 -11.714390998157967)"><path d="M0.67 -0.72 C-6.72 -4.45, -37.27 -19.43, -44.81 -23.11 M-0.43 1.51 C-7.89 -2.5, -38.07 -20.58, -45.49 -24.94" stroke="#000000" stroke-width="1" fill="none"></path></g><g transform="translate(477.3401130261933 348.0295142346049) rotate(0 -22.408666765479268 -11.714390998157967)"><path d="M-43.88 -25.2 L-29.41 -21.82 L-35.29 -12.06 L-44.96 -26.66" stroke="none" stroke-width="0" fill="#000000" fill-rule="evenodd"></path><path d="M-46.39 -24.31 C-40.92 -23.71, -36.6 -25.51, -29.68 -22.75 M-46.13 -24.48 C-40.83 -24.68, -36.72 -24.73, -30.51 -23.84 M-30.68 -23.24 C-31.18 -19.48, -34.64 -18.05, -37.71 -12.08 M-30.96 -23.37 C-32.4 -21.32, -33.74 -18.71, -37.44 -12.92 M-38.13 -11.21 C-38.9 -15.36, -42.41 -19.82, -45.5 -24.44 M-36.5 -12.94 C-39.64 -17.16, -43.58 -22.27, -45.69 -25.2 M-45.49 -24.94 C-45.49 -24.94, -45.49 -24.94, -45.49 -24.94 M-45.49 -24.94 C-45.49 -24.94, -45.49 -24.94, -45.49 -24.94" stroke="#000000" stroke-width="1" fill="none"></path></g></g><g stroke-linecap="round"><g transform="translate(403.9056055129849 261.52345275878906) rotate(0 0.9756469430668631 -15.925730491057038)"><path d="M-0.61 0.02 C0.01 -5.3, 2.21 -26.59, 2.56 -31.88 M1.27 -1.01 C1.92 -6.14, 2.19 -25.44, 2.1 -30.32" stroke="#000000" stroke-width="1" fill="none"></path></g><g transform="translate(403.9056055129849 261.52345275878906) rotate(0 0.9756469430668631 -15.925730491057038)"><path d="M2.6 -29.2 L9.35 -16.1 L-5.23 -16.99 L0.31 -30.84" stroke="none" stroke-width="0" fill="#000000" fill-rule="evenodd"></path><path d="M2.13 -29.16 C3.43 -27.67, 4.92 -23.3, 9.22 -17.02 M1.46 -30.6 C3.08 -28.01, 4.74 -25.2, 8.2 -17.13 M7.9 -15.95 C3.52 -17.73, 1.63 -16.46, -3.87 -17.5 M8.82 -16.96 C5.13 -16.23, 1.78 -16.33, -4.33 -17.11 M-4.27 -16.28 C-3.52 -18.63, -0.68 -21.45, 3.1 -31.04 M-4.83 -17.35 C-1.67 -22.77, 0.69 -27.84, 2.45 -29.69 M2.1 -30.32 C2.1 -30.32, 2.1 -30.32, 2.1 -30.32 M2.1 -30.32 C2.1 -30.32, 2.1 -30.32, 2.1 -30.32" stroke="#000000" stroke-width="1" fill="none"></path></g></g><g stroke-linecap="round"><g transform="translate(409.9236037783662 200.57394409179688) rotate(0 -2.2834739581220163 -15.16589487157762)"><path d="M-0.76 -0.35 C-1.57 -5.37, -4.79 -24.91, -5.61 -29.99 M1.05 -1.57 C0.7 -6.4, -2.53 -23.65, -3.25 -28.37" stroke="#000000" stroke-width="1" fill="none"></path></g><g transform="translate(409.9236037783662 200.57394409179688) rotate(0 -2.2834739581220163 -15.16589487157762)"><path d="M-1.56 -29.4 L7.25 -15.55 L-7.83 -15.33 L-2.99 -29.92" stroke="none" stroke-width="0" fill="#000000" fill-rule="evenodd"></path><path d="M-3.68 -29.2 C-1.03 -26.35, -0.06 -23.06, 6.17 -17.13 M-3.01 -28.82 C-1.59 -25.6, 0.97 -22.32, 4.97 -16.17 M5.13 -16.77 C-0.53 -15.51, -4.46 -14.39, -6.85 -14.44 M5.69 -16.33 C1.32 -15.65, -3.4 -14.89, -7.75 -13.9 M-6.54 -12.64 C-6.99 -17.15, -4.41 -18.63, -3.44 -27.5 M-7.03 -14.56 C-6.55 -19.83, -5.04 -25, -2.92 -27.99 M-3.25 -28.37 C-3.25 -28.37, -3.25 -28.37, -3.25 -28.37 M-3.25 -28.37 C-3.25 -28.37, -3.25 -28.37, -3.25 -28.37" stroke="#000000" stroke-width="1" fill="none"></path></g></g><g stroke-linecap="round"><g transform="translate(309.73816550184836 617.6525217692058) rotate(0 0.9636909046589892 -21.23300509092701)"><path d="M-0.58 -0.15 C-0.61 -7.27, -0.15 -35.24, 0.36 -42.31 M1.32 -1.28 C1.59 -8.25, 2.36 -34.23, 2.51 -40.94" stroke="#000000" stroke-width="1" fill="none"></path></g><g transform="translate(309.73816550184836 617.6525217692058) rotate(0 0.9636909046589892 -21.23300509092701)"><path d="M4.39 -41.6 L9.24 -26.49 L-3.55 -25.64 L3.37 -40.76" stroke="none" stroke-width="0" fill="#000000" fill-rule="evenodd"></path><path d="M2.32 -42.28 C4.23 -34.87, 5.98 -29.97, 8.2 -27.48 M2.22 -40.31 C4.61 -34.65, 7.56 -30.12, 7.95 -27.09 M8.41 -26.11 C4.9 -26.65, 2.06 -28.51, -3.07 -26.39 M8.88 -26.63 C4.17 -26.62, 1.3 -27.47, -3.97 -27.8 M-4.4 -27.16 C-1.33 -31.8, -2.81 -33.55, 3.47 -39.81 M-4.65 -27.78 C-2.97 -31.65, -0.51 -33.66, 1.85 -41.23 M2.51 -40.94 C2.51 -40.94, 2.51 -40.94, 2.51 -40.94 M2.51 -40.94 C2.51 -40.94, 2.51 -40.94, 2.51 -40.94" stroke="#000000" stroke-width="1" fill="none"></path></g></g><g stroke-linecap="round"><g transform="translate(312.6820097170164 504.0366973876953) rotate(0 -3.823174808639635 -18.426686661858128)"><path d="M-0.35 -0.85 C-1.96 -7.26, -6.92 -32.19, -8.44 -38.17 M1.66 1.31 C-0.19 -5, -7.86 -30.44, -9.31 -37.12" stroke="#000000" stroke-width="1" fill="none"></path></g><g transform="translate(312.6820097170164 504.0366973876953) rotate(0 -3.823174808639635 -18.426686661858128)"><path d="M-7.78 -36.14 L-1.14 -24.65 L-10.27 -24.1 L-8.28 -35.57" stroke="none" stroke-width="0" fill="#000000" fill-rule="evenodd"></path><path d="M-10.37 -36.93 C-6.61 -33.55, -0.94 -27.98, 1.56 -26.5 M-8.64 -36.45 C-6.09 -32.79, -2.25 -28.65, 0.95 -26.22 M0.73 -26.15 C-5.67 -24.61, -8.58 -23.28, -11.66 -21.13 M0.7 -25.12 C-2.5 -25.58, -4.14 -24.72, -12.18 -22.87 M-13.28 -22.94 C-12.61 -24.04, -12.32 -28.39, -9.23 -36.59 M-12.07 -22.79 C-11.56 -25.6, -11.41 -29.76, -9.63 -37.06 M-9.31 -37.12 C-9.31 -37.12, -9.31 -37.12, -9.31 -37.12 M-9.31 -37.12 C-9.31 -37.12, -9.31 -37.12, -9.31 -37.12" stroke="#000000" stroke-width="1" fill="none"></path></g></g><g stroke-linecap="round"><g transform="translate(305.28901441501966 387.94187927246094) rotate(0 37.34349487057415 -28.631247354857635)"><path d="M1.04 -1 C13.33 -10.56, 62.54 -47.3, 74.55 -56.62 M0.13 1.09 C12.28 -8.88, 62.16 -48.32, 74.17 -58.35" stroke="#000000" stroke-width="1" fill="none"></path></g><g transform="translate(305.28901441501966 387.94187927246094) rotate(0 37.34349487057415 -28.631247354857635)"><path d="M75.86 -57.46 L68.21 -44.24 L59.06 -55.57 L74.5 -59.61" stroke="none" stroke-width="0" fill="#000000" fill-rule="evenodd"></path><path d="M72.92 -57 C72.75 -53.71, 69.89 -48.95, 66.18 -45.16 M74.9 -59.09 C71.14 -53.82, 69.99 -48.26, 67.24 -45.58 M66.57 -46.02 C64.88 -47.47, 60.45 -52.92, 58.63 -53.52 M67.82 -45.32 C66.54 -47.49, 64.24 -49.25, 59.56 -54.63 M59.74 -53.93 C61.91 -55.57, 65.05 -55.53, 75.58 -58.84 M60.32 -54.4 C64.59 -56.13, 69.84 -56.71, 74.15 -57.61 M74.17 -58.35 C74.17 -58.35, 74.17 -58.35, 74.17 -58.35 M74.17 -58.35 C74.17 -58.35, 74.17 -58.35, 74.17 -58.35" stroke="#000000" stroke-width="1" fill="none"></path></g></g><g transform="translate(464.0255432128906 142.72940063476562) rotate(0 53 10)"><text x="0" y="14" font-family="Virgil, Segoe UI Emoji" font-size="16px" fill="#2b8a3e" text-anchor="start" style="white-space: pre;" direction="ltr">#2(test.t1.a)</text></g><g transform="translate(462.7341003417969 207.67640686035156) rotate(0 56.5 10)"><text x="0" y="14" font-family="Virgil, Segoe UI Emoji" font-size="16px" fill="#2b8a3e" text-anchor="start" style="white-space: pre;" direction="ltr">#2(test.t1.a)?</text></g><g transform="translate(462.1745300292969 265.3252716064453) rotate(0 129 30)"><text x="0" y="14" font-family="Virgil, Segoe UI Emoji" font-size="16px" fill="#2b8a3e" text-anchor="start" style="white-space: pre;" direction="ltr">(#2&gt;#25 and if(#26!=0, null, 1))</text><text x="0" y="34" font-family="Virgil, Segoe UI Emoji" font-size="16px" fill="#2b8a3e" text-anchor="start" style="white-space: pre;" direction="ltr"> or (#27=0)</text><text x="0" y="54" font-family="Virgil, Segoe UI Emoji" font-size="16px" fill="#2b8a3e" text-anchor="start" style="white-space: pre;" direction="ltr"> or (if(#2 is null), null, 0) </text></g><g transform="translate(148.24618530273438 403.5359649658203) rotate(0 53 10)"><text x="0" y="14" font-family="Virgil, Segoe UI Emoji" font-size="16px" fill="#2b8a3e" text-anchor="start" style="white-space: pre;" direction="ltr">#2(test.t1.a)</text></g><g transform="translate(162.21786499023438 427.8500518798828) rotate(0 14 10)"><text x="0" y="14" font-family="Virgil, Segoe UI Emoji" font-size="16px" fill="#2b8a3e" text-anchor="start" style="white-space: pre;" direction="ltr">#15</text></g><g transform="translate(47.329254150390625 513.9070587158203) rotate(0 39 10)"><text x="0" y="14" font-family="Virgil, Segoe UI Emoji" font-size="16px" fill="#2b8a3e" text-anchor="start" style="white-space: pre;" direction="ltr">group: #2</text></g><g transform="translate(30.083267211914062 544.1005401611328) rotate(0 100 20)"><text x="0" y="14" font-family="Virgil, Segoe UI Emoji" font-size="16px" fill="#2b8a3e" text-anchor="start" style="white-space: pre;" direction="ltr">aggrFunc: sum(#2)</text><text x="0" y="34" font-family="Virgil, Segoe UI Emoji" font-size="16px" fill="#2b8a3e" text-anchor="start" style="white-space: pre;" direction="ltr">firstrow(#1)...firstrow(#7)</text></g><g transform="translate(668.5416564941406 385.99745178222656) rotate(0 62 30)"><text x="0" y="14" font-family="Virgil, Segoe UI Emoji" font-size="16px" fill="#2b8a3e" text-anchor="start" style="white-space: pre;" direction="ltr">max(#24)</text><text x="0" y="34" font-family="Virgil, Segoe UI Emoji" font-size="16px" fill="#2b8a3e" text-anchor="start" style="white-space: pre;" direction="ltr">sum(isnull(#24))</text><text x="0" y="54" font-family="Virgil, Segoe UI Emoji" font-size="16px" fill="#2b8a3e" text-anchor="start" style="white-space: pre;" direction="ltr">count(1)</text></g><g transform="translate(592.5021057128906 490.3974151611328) rotate(0 13.5 10)"><text x="0" y="14" font-family="Virgil, Segoe UI Emoji" font-size="16px" fill="#2b8a3e" text-anchor="start" style="white-space: pre;" direction="ltr">#17</text></g><g transform="translate(573.7306823730469 560.4831085205078) rotate(0 105 10)"><text x="0" y="14" font-family="Virgil, Segoe UI Emoji" font-size="16px" fill="#2b8a3e" text-anchor="start" style="white-space: pre;" direction="ltr">#23&lt;cast(#17 as decimal)</text></g><g transform="translate(619.5021057128906 625.3974151611328) rotate(0 13.5 10)"><text x="0" y="14" font-family="Virgil, Segoe UI Emoji" font-size="16px" fill="#2b8a3e" text-anchor="start" style="white-space: pre;" direction="ltr">#17</text></g><g transform="translate(622.5021057128906 649.3974151611328) rotate(0 14 10)"><text x="0" y="14" font-family="Virgil, Segoe UI Emoji" font-size="16px" fill="#2b8a3e" text-anchor="start" style="white-space: pre;" direction="ltr">#15</text></g><g transform="translate(612.5021057128906 695.3979034423828) rotate(0 40 10)"><text x="0" y="14" font-family="Virgil, Segoe UI Emoji" font-size="16px" fill="#2b8a3e" text-anchor="start" style="white-space: pre;" direction="ltr">group: #17</text></g><g transform="translate(613.5021057128906 725.3979034423828) rotate(0 90 20)"><text x="0" y="14" font-family="Virgil, Segoe UI Emoji" font-size="16px" fill="#2b8a3e" text-anchor="start" style="white-space: pre;" direction="ltr">aggrFunc: firstrow(#16)</text><text x="0" y="34" font-family="Virgil, Segoe UI Emoji" font-size="16px" fill="#2b8a3e" text-anchor="start" style="white-space: pre;" direction="ltr">...firstrow(#22)</text></g></svg>